<?xml version="1.0" encoding="utf-8"?>
<!-- Generator: Adobe Illustrator 22.1.0, SVG Export Plug-In . SVG Version: 6.00 Build 0)  -->
<svg version="1.1" id="Слой_1" xmlns="http://www.w3.org/2000/svg" xmlns:xlink="http://www.w3.org/1999/xlink" x="0px" y="0px"
	 viewBox="0 0 96 57.1" style="enable-background:new 0 0 96 57.1;" xml:space="preserve">
<style type="text/css">
	.st0{fill:#FFFFFF;}
</style>
<path class="st0" d="M83.8,0H13.5v50.1H4.8v0.8c0,2.4,3.6,6.2,7.8,6.2h70.8c4.2,0,7.8-3.8,7.8-6.2v-0.8h-7.4V0z M89.6,51.6
	c-0.7,1.6-3.1,4-6.1,4H12.6c-3,0-5.5-2.4-6.1-4h7.1h27.6v1.2h13.8v-1.2h28.9H89.6z M15,50.1V1.5h67.3v48.6H15z"/>
<path class="st0" d="M55.9,12c0-3.8-3.1-6.8-6.8-6.8h-0.7c-3.8,0-6.8,3.1-6.8,6.8v4.2h-6.4v30.2h27.1V16.2h-6.4V12z M60.7,44.9H36.6
	V17.7h4.9v1.7c-1,0.3-1.8,1.3-1.8,2.4c0,1.4,1.1,2.5,2.5,2.5c1.4,0,2.5-1.1,2.5-2.5c0-1.1-0.8-2.1-1.8-2.4v-1.7h11.4v1.7
	c-1,0.3-1.8,1.3-1.8,2.4c0,1.4,1.1,2.5,2.5,2.5c1.4,0,2.5-1.1,2.5-2.5c0-1.1-0.8-2.1-1.8-2.4v-1.7h4.9L60.7,44.9L60.7,44.9z
	 M43,21.9v-0.7c0.2,0.2,0.3,0.4,0.3,0.7c0,0.6-0.5,1-1,1s-1-0.5-1-1c0-0.3,0.1-0.5,0.3-0.7v0.7H43z M55.9,21.9v-0.7
	c0.2,0.2,0.3,0.4,0.3,0.7c0,0.6-0.5,1-1,1s-1-0.5-1-1c0-0.3,0.1-0.5,0.3-0.7v0.7H55.9z M43,16.2V12c0-2.9,2.4-5.3,5.3-5.3H49
	c2.9,0,5.3,2.4,5.3,5.3v4.2H43z"/>
<path class="st0" d="M45.3,30.3h-5.7v7.5h1.6v5.5h3.4v-2.9c0.1,0,0.2,0,0.3,0c1.2,0,2.3-0.6,2.9-1.6l7.1,3h3V26.3h-3L45.3,30.3z
	 M56.3,40.4h-0.6V27.8h0.6V40.4z M41,31.8h3.6v4.5h-0.1h-3.4H41V31.8z M42.7,37.8h0.4v4h-0.4V37.8z M44.8,39c-0.1,0-0.2,0-0.3,0
	v-1.1h0.7l1,0.4c-0.1,0.1-0.1,0.1-0.2,0.2c-0.3,0.3-0.6,0.4-1,0.5C45,38.9,44.9,39,44.8,39z M46.2,36.6v-5l8-3.4V40L46.2,36.6z"/>
</svg>
