<?xml version="1.0" encoding="utf-8"?>
<!-- Generator: Adobe Illustrator 22.1.0, SVG Export Plug-In . SVG Version: 6.00 Build 0)  -->
<svg version="1.1" id="Layer_1" xmlns="http://www.w3.org/2000/svg" xmlns:xlink="http://www.w3.org/1999/xlink" x="0px" y="0px"
	 viewBox="0 0 512 512" style="enable-background:new 0 0 512 512;" xml:space="preserve">
<style type="text/css">
	.st0{fill:#FFFFFF;}
</style>
<path class="st0" d="M500.9,302.9c-4.7-4.7-10.2-8.3-16.4-10.7l-3.6-1.4l10.5-10.5l-3.5-3.5c-9.6-9.6-23-14.7-36.6-13.9l-1.1,0.1
	l-0.8-0.7c-7.3-6.8-16.4-11.1-26.3-12.4l-5-0.7l2.1-2.1c-15-12.9-39-11.1-54.8,4.7l-27.9,27.9l1.1-7.5c0.4-3.1,0.6-6.2,0.6-9.2
	l-0.1-4.8H154.9l-75.2,75.2l-12-12L7.6,381.6l126.9,126.9l60.1-60.1l-11.8-11.8l12.6-12.6h191.4l117.6-117.6L500.9,302.9z
	 M433.5,262.9l4.7,2.3l-4.7,2.2c-4.9,2.3-9.4,5.5-13.3,9.4l-56.7,56.7h-30.8v9.8h34.9l59.6-59.6c12.7-12.7,32.8-14.8,47.8-5l2.6,1.7
	l-8.5,8.5l-1.5,0c-0.2,0-0.4,0-0.5,0c-12.8,0-24.8,5-33.9,14l-56.7,56.7H300c-15.3,0-29.6-5.9-40.4-16.7l-24.8-24.8h50.8
	c0.9,0,1.8,0,2.7-0.1l0.1,0h53.7l47.7-47.7C401.3,258.9,418.9,255.9,433.5,262.9z M331.3,295.1c1,0.1,1.6,0.2,1.8,0.2l0.1,0l2.4,0.3
	l36.9-36.9c6.9-6.9,16-10.7,25-10.4l11.6,0.3l-10.7,4.5c-5.8,2.4-10.9,5.9-15.4,10.3l-44.8,44.8h-20.9l4.7-4.3
	c0.7-0.7,1.4-1.4,2.1-2c1.7-1.8,3.4-3.7,4.9-5.8l0.9-1.2L331.3,295.1z M134.5,494.7l-113-113l46.3-46.3l5.1,5.1l0,0l103.1,103.1
	l3.1,3.1l1.8,1.8L134.5,494.7z M382.7,414.2H191.3l-15.5,15.5l-89.2-89.2l72.4-72.4h170.4l-0.4,2.9c-1.3,9.1-5.5,17.4-12,24.1
	c-7.7,7.9-17.9,12.6-28.9,13.2l-0.1,0h-47.9l-2.5,0.1h-26.4l41.5,41.5c12.6,12.6,29.4,19.6,47.3,19.6h80.4l59.6-59.6
	c7.2-7.2,16.8-11.2,27-11.2c7.4,0,14.6,2.1,20.8,6.2l2.6,1.7L382.7,414.2z"/>
<path class="st0" d="M77.7,368.7c-3.4-3.4-7.9-5.3-12.7-5.3s-9.3,1.9-12.7,5.3c-3.4,3.4-5.3,7.9-5.3,12.7c0,4.8,1.9,9.3,5.3,12.7
	c3.4,3.4,7.9,5.3,12.7,5.3s9.3-1.9,12.7-5.3C84.7,387.1,84.7,375.7,77.7,368.7L77.7,368.7z M70.8,387.1c-1.5,1.5-3.6,2.4-5.8,2.4
	c-2.2,0-4.2-0.9-5.8-2.4c-1.5-1.5-2.4-3.6-2.4-5.8c0-2.2,0.9-4.2,2.4-5.8c1.5-1.5,3.6-2.4,5.8-2.4c2.2,0,4.2,0.8,5.8,2.4
	C73.9,378.8,73.9,384,70.8,387.1z"/>
<path class="st0" d="M283.7,67.7c-35.4,0-64.3,28.8-64.3,64.3s28.8,64.3,64.3,64.3s64.3-28.8,64.3-64.3S319.1,67.7,283.7,67.7z
	 M283.7,186.5c-30.1,0-54.5-24.5-54.5-54.5s24.5-54.5,54.5-54.5c30.1,0,54.5,24.5,54.5,54.5S313.7,186.5,283.7,186.5z"/>
<path class="st0" d="M394.4,25.8V2.5H62.3v162.9h29.4v23.3h26v24.7h332.1V50.5h-26V25.8H394.4z M91.7,155.6H72V12.3h312.6v13.6H91.7
	V155.6z M117.6,178.9h-16.2V35.6H414v14.9H117.6V178.9z M440,60.3v143.3H127.4V60.3H440z"/>
</svg>
