<?xml version="1.0" encoding="utf-8"?>
<!-- Generator: Adobe Illustrator 22.1.0, SVG Export Plug-In . SVG Version: 6.00 Build 0)  -->
<svg version="1.1" id="doodle" xmlns="http://www.w3.org/2000/svg" xmlns:xlink="http://www.w3.org/1999/xlink" x="0px" y="0px"
	 viewBox="0 0 41.7 7.9" style="enable-background:new 0 0 41.7 7.9;" xml:space="preserve">
<style type="text/css">
	.st0{fill-rule:evenodd;clip-rule:evenodd;}
</style>
<path class="st0" d="M30.6,1.9C30.4,0.9,31,0.3,32.3,0c2.5,2.5,5.9,1.8,9.4,3.6c0.3,0.7-0.7,0.9-0.5,1.6c-4.3-0.6-8.8,1.3-13.4,2.7
	c-1.3-2.2,3.6-2.7,6-4.1c-1.4-0.6-3-0.5-4.5-0.7c0.8-1,2.3-0.4,3.4-0.2c-0.7-1.2-3.4-0.4-5-0.8c-0.2,0.5,1.2-0.2,1.2,0.9
	c-3.9-0.1-8,0.3-11.6-0.6c-0.3,0.1-0.6,0.2-0.9,0.4c-2.7-0.6-6.1-0.7-8.4-0.3C5.6,1.4,2.1,3.3,0.3,1.2c0.5-0.6,1.1-0.4,2.2-0.9
	C11.7,1.3,21.2,1.5,30.6,1.9z M19.9,2.3c-0.8-0.8-2-0.5-3-0.6C17.4,3.1,19,1.9,19.9,2.3z M11.4,1.2c-0.9,0.2-1.7,0.1-2.6,0.1
	C9.2,2.1,11.2,2.1,11.4,1.2z M11.9,1.8c0.4-0.1,0.6-0.3,0.5-0.6c-0.3,0-0.4-0.1-0.8,0.1C11.7,1.5,11.8,1.6,11.9,1.8z M15.7,1.4
	c-0.4,0.3-1-0.5-1.1,0.3C14.9,2,15.8,2.2,15.7,1.4z M21.8,1.9c-0.5,0.3-0.8-0.2-1.3,0.2C20.8,2.5,21.7,2.6,21.8,1.9z M24.2,2.4
	c-0.3-1-1.6,0.1-2.2-0.3C22.3,3.1,23.5,2.3,24.2,2.4z M27.2,2.3c-1-0.5-2.2-0.5-2.8,0C25.5,2.5,25.9,2.6,27.2,2.3z"/>
</svg>
