<?xml version="1.0" encoding="utf-8"?>
<!-- Generator: Adobe Illustrator 22.1.0, SVG Export Plug-In . SVG Version: 6.00 Build 0)  -->
<svg version="1.1" id="Capa_1" xmlns="http://www.w3.org/2000/svg" xmlns:xlink="http://www.w3.org/1999/xlink" x="0px" y="0px"
	 viewBox="0 0 512 512" style="enable-background:new 0 0 512 512;" xml:space="preserve">
<style type="text/css">
	.st0{fill:#FFFFFF;}
</style>
<g>
	<g>
		<path class="st0" d="M334.7,258.6c-2.5,4.7-3,10.3-1.3,15c1.6,4.3,5.1,7.8,9.7,9.6c4.7,1.7,10.4,1.2,15.6-1.4l57.5-27.7
			c5.2-2.6,9.9-7.1,12.8-12.3c1.7-3.8,3.3-9.4,1.4-14.6l-1.4-3.8c-2.2-3.3-5.6-5.3-8.3-6.4c-4.7-1.7-10.4-1.2-15.6,1.4l-57.5,27.7
			C342.3,248.8,337.6,253.3,334.7,258.6z M348.3,252.5l57.7-27.8c4-1.6,7.4-1.8,10.2-0.6c2.3,0.7,5.2,2.4,7,6.8
			c1.4,2.9,1.2,6.6-0.6,10.2c-1.4,2.9-4.1,5.6-7,7L357.7,276c-2.3,0.9-4.4,1.4-6.2,1.4c-1.4,0-2.7-0.3-3.9-0.8
			c-2.9-0.9-5.3-3-6.9-6.2l-0.4-0.8v-1c-0.7-3.2-0.3-6.5,0.9-9C342.6,256.7,345.3,254,348.3,252.5L348.3,252.5z"/>
		<path class="st0" d="M349,285.7c-2.2,0-4.4-0.4-6.4-1.1c-5-2-8.8-5.8-10.6-10.5c-1.8-5.1-1.3-11.1,1.4-16.2l0,0
			c3-5.5,7.9-10.3,13.5-13.1l57.5-27.7c5.5-2.8,11.7-3.3,16.8-1.5c2.8,1.1,6.5,3.2,9,7l0.2,0.3l1.4,3.8c2.1,5.7,0.4,11.7-1.4,15.7
			l-0.1,0.1c-3,5.5-7.9,10.2-13.4,12.9l-57.5,27.7C356,284.8,352.4,285.7,349,285.7z M336,259.3c-2.3,4.3-2.8,9.5-1.2,13.8
			c1.5,3.9,4.7,7.1,8.8,8.7c4.3,1.6,9.6,1.1,14.4-1.3l57.5-27.7c4.9-2.5,9.3-6.7,12.1-11.6c1.6-3.5,3.1-8.7,1.3-13.4l-1.3-3.6
			c-2.1-3-5.2-4.8-7.5-5.7c-4.3-1.5-9.5-1.1-14.4,1.4l-57.5,27.7C343.2,250,338.7,254.3,336,259.3z M351.5,278.9
			c-1.5,0-3-0.3-4.4-0.9c-3.3-1-6-3.4-7.7-6.9l-0.6-1.1v-1.2c-0.7-3.4-0.3-6.9,1-9.8c1.6-3.2,4.5-6.1,7.8-7.8l0,0l57.8-27.8
			c4.3-1.7,8.1-1.9,11.3-0.6c3.6,1.1,6.3,3.7,7.9,7.6c1.6,3.2,1.3,7.4-0.6,11.4c-1.5,3.2-4.5,6.1-7.7,7.7l-58,27.9
			C355.7,278.4,353.4,278.9,351.5,278.9z M341.8,269.2l0.2,0.5c1.4,2.8,3.5,4.6,6,5.4l0.1,0c1.1,0.5,2.2,0.7,3.3,0.7
			c1.5,0,3.4-0.4,5.6-1.3l57.8-27.9c2.6-1.2,5.1-3.7,6.3-6.3c1.6-3.2,1.8-6.4,0.6-8.9c-1.3-3.2-3.3-5.2-6.1-6l-0.2-0.1
			c-2.4-1-5.4-0.8-9,0.6L349,253.8c-2.7,1.4-5.2,3.8-6.4,6.4c-1.1,2.3-1.4,5.3-0.8,8l0,0.3V269.2z"/>
	</g>
	<g>
		<path class="st0" d="M501.6,380.4V131.9v-0.1l-0.1-0.2c-0.2-0.4-0.3-0.7-0.4-1c-0.2-0.4-0.2-0.4-0.4-0.6l-0.5-0.5l-0.1-0.3
			c-0.2-0.1-0.4-0.2-1-0.4l-0.6-0.2L379,66.5L257.8,4.3c-0.9-0.5-2.2-0.5-3.2,0L133,66.5L12.7,128.8l-0.3,0.1
			c-0.4,0.1-1,0.8-1.1,1.1l-0.2,0.5c-0.1,0.3-0.2,0.5-0.3,0.8c-0.1,0.2-0.2,0.5-0.3,0.9v248.2c0,1.2,0.8,2.5,2.1,3.3l241.8,123.8
			h0.1c0.5,0,0.9,0.1,1.2,0.2V507h2.5l0.2-0.1l241.1-123.2C500.8,382.9,501.6,381.6,501.6,380.4z M256,11.4l119.3,61.5l115,58.9
			l-113.2,58.3L142.8,69.7L256,11.4z M252.7,499.2L17.5,378.1V137.8l116,59.4l119.1,61.2L252.7,499.2L252.7,499.2z M256,252.3
			l-119.3-61.5l-115-58.9l113.2-58.3L369.2,194L256,252.3z M494.5,378.7l-235.1,120V258.4l119.1-61.2l116-59.4V378.7z"/>
		<path class="st0" d="M257.2,509.8l-2-0.7c-0.2-0.1-0.4-0.1-0.7-0.1H254l-0.3-0.2L11.9,385l-0.1,0c-1.7-1.1-2.8-2.8-2.8-4.6V132
			l0-0.2c0.1-0.5,0.2-0.8,0.4-1.1c0.1-0.1,0.1-0.3,0.1-0.4c0-0.1,0.1-0.2,0.1-0.3l0.2-0.6c0.2-0.6,1.1-1.7,2.1-2l0.2-0.1l120.2-62.2
			L253.9,3c1.5-0.7,3.3-0.7,4.6,0l121.2,62.2l119.4,62l0.5,0.2c0.7,0.2,0.9,0.3,1.2,0.5l0.6,0.3l0.2,0.6l0.3,0.3
			c0.4,0.4,0.4,0.5,0.7,1l0.1,0.2c0.1,0.3,0.2,0.5,0.3,0.8l0.3,0.5v249c0,1.8-1.1,3.5-2.8,4.6l-0.1,0.1L258.6,508.5h-1.4V509.8z
			 M13.3,382.4l240.9,123.3v-0.2h3.6l240.9-123.1c0.9-0.6,1.3-1.4,1.3-2V132.2c-0.2-0.4-0.3-0.7-0.4-1c0,0,0-0.1,0-0.1l-0.8-0.8
			c-0.1,0-0.2-0.1-0.3-0.1l-0.8-0.3L378.3,67.8L257.1,5.6c-0.5-0.3-1.3-0.3-1.8,0L133.7,67.8L13.3,130.2l-0.4,0.1
			c-0.1,0.1-0.2,0.2-0.3,0.3l-0.2,0.5c0,0.1-0.1,0.3-0.2,0.4c0,0.1-0.1,0.2-0.1,0.3l-0.1,0.2c0,0-0.1,0.1-0.1,0.4v248
			C12,381,12.4,381.8,13.3,382.4z M12.7,130.6C12.7,130.6,12.7,130.6,12.7,130.6L12.7,130.6z M12.7,130.5L12.7,130.5
			C12.7,130.5,12.7,130.5,12.7,130.5z M13,130.3L13,130.3L13,130.3z M257.9,501.2v-0.5h-6.8v-0.6L16,379V135.3l118.2,60.5
			l119.9,61.6v240.7l3.8,2V257.5l0.8-0.4l119.1-61.2L496,135.3v244.3l-0.8,0.4L258.8,500.7l0.1,0h-0.1L257.9,501.2z M19,377.2
			l232.1,119.5V259.3l-118.3-60.8L19,140.3V377.2z M260.9,259.3v236.9L493,377.8V140.3l-113.8,58.3L260.9,259.3z M256,254l-120-61.9
			L18.4,131.9l116.5-60l0.7,0.4L372.5,194L256,254z M25,131.9l112.4,57.6L256,250.6L365.9,194l-231-118.7L25,131.9z M377.1,191.8
			l-0.7-0.4L139.5,69.7L256,9.7l120,61.9l117.6,60.2L377.1,191.8z M146.1,69.7l231,118.7L487,131.8L374.6,74.2L256,13.1L146.1,69.7z
			"/>
	</g>
</g>
</svg>
