<?xml version="1.0" encoding="utf-8"?>
<!-- Generator: Adobe Illustrator 22.1.0, SVG Export Plug-In . SVG Version: 6.00 Build 0)  -->
<svg version="1.1" id="Capa_1" xmlns="http://www.w3.org/2000/svg" xmlns:xlink="http://www.w3.org/1999/xlink" x="0px" y="0px"
	 viewBox="0 0 512 512" style="enable-background:new 0 0 512 512;" xml:space="preserve">
<style type="text/css">
	.st0{fill:#FFFFFF;}
</style>
<g>
	<path class="st0" d="M472.9,384v-32.7l2.2-1.5c20-13.3,31.9-35.6,31.9-59.7V256c0-20.4-8.7-39.8-23.9-53.3l-1.7-1.5V68.3
		c0-1.9-1.6-3.5-3.5-3.5h-79l-1.4-1.1C350.7,25.8,292,8.5,232.2,14.8S118.6,50.4,80.8,97.2c-23.2,28.7-39.1,62.9-46,99.1l-0.4,1.9
		l-1.5,1.2C15.5,212.8,5,234,5,256v34.1c0.1,37.1,27.9,67.8,64.8,71.4l3.5,0.3l0.8,3.4c1.8,7.5,6.5,13.9,13.1,18
		c6.6,4,14.4,5.2,22,3.4c13.1-3.2,22.2-14.8,22.2-28.3V187.7c0-7.8-3-15.1-8.5-20.6s-12.8-8.5-20.5-8.6c0,0,0,0-0.1,0
		c-13.4,0-25.1,9.1-28.2,22.2l-0.8,3.4l-3.5,0.4c-6.3,0.6-12.4,2.1-18.3,4.3l-9.1,3.5l2.5-9.4C59.8,126.6,95.7,79.5,146.1,50.2
		c50.3-29.3,109-37.2,165.3-22.4c22.3,5.9,43.3,15.2,62.7,27.7l14.2,9.2H256c-1.9,0-3.5,1.6-3.5,3.5v136.5c0,1.9,1.6,3.5,3.5,3.5
		h49.4L330,241c0.6,0.8,1.4,1.2,2.3,1.4c0.9,0.1,1.9-0.1,2.6-0.7c0.3-0.2,0.5-0.4,0.7-0.7l24.5-32.7h20.3v150.1
		c0,7.8,3,15.1,8.5,20.6s12.8,8.5,20.5,8.6c0,0,0,0,0.1,0c13.4,0,25.1-9.1,28.2-22.2l0.8-3.4l3.5-0.4c5.8-0.6,11.5-1.9,17-3.8
		l6.7-2.4V384c-0.1,45.1-36.7,81.7-81.8,81.8h-47.7v-13.5c0-1.9-1.6-3.5-3.5-3.5h-39.3l-1.4-1.3c-5.3-4.7-12-7.2-19-7.3h-34.1
		c-16.1,0-29.1,13.1-29.1,29.1s13.1,29.1,29.1,29.1H273c7,0,13.8-2.6,19-7.3l1.4-1.3h39.3c1.9,0,3.5-1.6,3.5-3.5v-13.5H384
		C432.9,472.8,472.8,432.9,472.9,384z M80.3,187.7c0-12.2,9.9-22.1,22.1-22.1s22.1,9.9,22.1,22.1v170.7c0,12.2-9.9,22.1-22.1,22.1
		s-22.1-9.9-22.1-22.1V187.7z M67.5,191.9l5.7-0.8v164l-5.7-0.8c-15.4-2.2-29.5-10-39.7-21.7S12,305.8,12,290.2V256
		c0-15.6,5.6-30.6,15.8-42.4S52.2,194.2,67.5,191.9z M431.7,358.4c0,12.2-9.9,22.1-22.1,22.1s-22.1-9.9-22.1-22.1V208.3h44.1v150.1
		H431.7z M358.4,201.3c-1.1,0-2.2,0.5-2.8,1.4L332.8,233L310,202.7c-0.7-0.9-1.7-1.4-2.8-1.4h-47.7V71.8h214.8v129.5H358.4z
		 M444.4,354.1l-5.7,0.8V208.3H479l1.5,1.4c12.4,12.1,19.5,28.9,19.5,46.3v34.1c0,15.5-5.6,30.6-15.8,42.3
		C473.9,344.2,459.8,351.9,444.4,354.1z M273.1,491.4H239c-12.2,0-22.1-9.9-22.1-22.1s9.9-22.1,22.1-22.1h34.1
		c12.2,0,22.1,9.9,22.1,22.1C295.1,481.5,285.2,491.4,273.1,491.4z M329.3,482.9h-29.9l1.9-6.4c1.4-4.7,1.4-9.6,0-14.3l-1.9-6.4
		h29.9V482.9z"/>
	<path class="st0" d="M273.1,500H239c-16.9,0-30.6-13.7-30.6-30.6s13.7-30.6,30.6-30.6h34c7.4,0,14.5,2.7,20,7.7l1,0.9h38.7
		c2.8,0,5,2.3,5,5v12H384c44.2-0.1,80.2-36.1,80.3-80.3v-26.5l-4.7,1.7c-5.6,2-11.4,3.3-17.3,3.9l-2.5,0.2l-0.6,2.4
		c-3.4,13.7-15.6,23.3-29.7,23.3c-8.2,0-15.9-3.2-21.7-9c-5.8-5.8-8.9-13.5-8.9-21.6V209.8h-18l-24.1,32.1c-0.3,0.4-0.6,0.7-1,1
		c-1.1,0.8-2.4,1.1-3.7,1c-1.3-0.2-2.5-0.9-3.3-2l-24.1-32.1H256c-2.8,0-5-2.3-5-5V68.3c0-2.8,2.3-5,5-5h127.3l-10-6.4
		c-19.2-12.4-40.1-21.7-62.3-27.5c-55.9-14.8-114.2-6.9-164.2,22.2S61.2,127.5,46.4,183.4l-1.7,6.6l6.4-2.4c6-2.3,12.3-3.8,18.7-4.4
		l2.5-0.2l0.6-2.4c3.4-13.7,15.6-23.3,29.7-23.3c8.2,0,15.9,3.2,21.7,9c5.8,5.8,8.9,13.5,8.9,21.6v170.7c0,14.2-9.6,26.4-23.3,29.8
		c-7.9,1.9-16.1,0.7-23.1-3.6S74.9,373.9,73,365.9l-0.6-2.4l-2.5-0.2C32,359.4,3.6,328,3.5,290.1V256c0-22.5,10.7-44.1,28.5-57.9
		l1.1-0.8l0.3-1.3c7-36.4,23-71,46.3-99.8c38.1-47.1,92.2-76.5,152.4-82.9s119.3,11.1,166.4,49.1l1,0.8H478c2.8,0,5,2.3,5,5v132.2
		l1.2,1c15.5,13.8,24.4,33.7,24.4,54.5V290c0,24.5-12.2,47.3-32.6,60.9l-1.6,1V384c-0.1,49.8-40.6,90.3-90.4,90.4h-46.2v12
		c0,2.8-2.3,5-5,5h-38.7l-1,0.9C287.6,497.2,280.5,499.9,273.1,500z M238.9,441.7c-15.2,0-27.6,12.4-27.6,27.6s12.4,27.6,27.6,27.6
		H273c6.6,0,13-2.5,18-6.9l1.8-1.6h39.9c1.1,0,2-0.9,2-2v-15H384c48.1-0.1,87.3-39.3,87.4-87.4v-33.5l2.9-1.9
		c19.6-13.1,31.2-34.9,31.2-58.4V256c0-19.9-8.5-39-23.4-52.2l-2.2-1.9V68.3c0-1.1-0.9-2-2-2h-79.5l-1.8-1.4
		C350.1,27.2,291.8,10,232.4,16.3S119.5,51.6,82,98.1c-23,28.5-38.8,62.5-45.7,98.5l-0.5,2.4l-2,1.5C16.7,213.7,6.5,234.4,6.5,256
		v34.1c0.1,36.3,27.3,66.4,63.5,70l4.6,0.5l1.1,4.5c1.7,7.2,6.2,13.2,12.5,17s13.7,5,20.9,3.2c12.4-3,21.1-14.1,21-26.8V187.7
		c0-7.4-2.8-14.3-8-19.5s-12.1-8.1-19.5-8.1c-12.8,0-23.8,8.6-26.8,21l-1.1,4.5L70,186c-6.1,0.6-12.1,2-17.9,4.2l-11.8,4.5l3.2-12.2
		c15-56.7,51.1-104.2,101.8-133.6C196,19.4,255.1,11.4,311.8,26.4c22.4,5.9,43.6,15.3,63.1,27.9l18.5,12H256c-1.1,0-2,0.9-2,2v136.5
		c0,1.1,0.9,2,2,2h50.2l25,33.3c0.3,0.4,0.8,0.7,1.3,0.8s1.1-0.1,1.5-0.4c0.2-0.1,0.3-0.3,0.4-0.4l25-33.3H382v151.6
		c0,7.4,2.8,14.3,8,19.5s12.1,8.1,19.5,8.1c12.8,0,23.8-8.6,26.8-21l1.1-4.5l4.6-0.5c5.7-0.6,11.3-1.8,16.6-3.8l8.7-3.1V384
		c-0.1,45.9-37.4,83.2-83.3,83.3h-49.2v-15c0-1.1-0.9-2-2-2h-39.9l-1.8-1.6c-5-4.4-11.4-6.9-18-6.9L238.9,441.7L238.9,441.7z
		 M273.1,492.9H239c-13,0-23.6-10.6-23.6-23.6s10.6-23.6,23.6-23.6h34.1c13,0,23.6,10.6,23.6,23.6S286.1,492.9,273.1,492.9z
		 M238.9,448.8c-11.3,0-20.6,9.2-20.6,20.6c0,11.3,9.2,20.6,20.6,20.6H273c11.3,0,20.6-9.2,20.6-20.6c0-11.3-9.2-20.6-20.6-20.6
		H238.9z M330.8,484.4h-33.4l2.4-8.3c1.3-4.4,1.3-9,0-13.4l-2.4-8.3h33.4V484.4z M301.3,481.4h26.4v-24.1h-26.4l1.3,4.5
		c1.4,4.9,1.4,10.2,0,15.1L301.3,481.4z M409.6,382c-13,0-23.6-10.6-23.6-23.6V206.8h47.1v151.6C433.2,371.4,422.6,382,409.6,382z
		 M389,209.8v148.6c0,11.3,9.2,20.6,20.6,20.6s20.6-9.2,20.6-20.6V209.8H389z M102.4,382c-13,0-23.6-10.6-23.6-23.6V187.7
		c0-13,10.6-23.6,23.6-23.6s23.6,10.6,23.6,23.6v170.7C126,371.4,115.4,382,102.4,382z M102.4,167.2c-11.3,0-20.6,9.2-20.6,20.6
		v170.7c0,11.3,9.2,20.6,20.6,20.6c11.3,0,20.6-9.2,20.6-20.6V187.7C123,176.4,113.7,167.2,102.4,167.2z M74.8,356.8l-7.4-1.1
		c-15.7-2.3-30.2-10.2-40.6-22.2s-16.2-27.4-16.2-43.3V256c0-15.9,5.8-31.3,16.2-43.3s24.8-19.9,40.6-22.2l0.2,1.5l-0.2-1.5l7.4-1.1
		V356.8z M71.8,192.8l-4,0.6c-15,2.2-28.8,9.7-38.7,21.2S13.6,240.8,13.6,256v34.1c0,15.2,5.5,29.9,15.5,41.4
		c9.9,11.5,23.7,19,38.7,21.2l4,0.6V192.8z M437.2,356.7V206.8h42.4l1.9,1.8c12.7,12.4,20,29.6,19.9,47.3V290
		c0,15.9-5.8,31.3-16.2,43.3c-10.4,12-24.8,19.9-40.6,22.2l0,0L437.2,356.7z M440.2,209.8v143.4l4-0.6c15-2.2,28.8-9.7,38.7-21.2
		c10-11.5,15.4-26.2,15.5-41.4v-34c0-16.9-6.9-33.4-19-45.2l-1-1H440.2z M332.8,235.5l-24-32c-0.4-0.5-1-0.8-1.6-0.8H258V70.3h217.8
		v132.5H358.4c-0.6,0-1.2,0.3-1.6,0.8L332.8,235.5z M261,199.8h46.2c1.6,0,3.1,0.8,4,2l21.6,28.8l21.6-28.8c0.9-1.3,2.5-2,4-2h114.4
		V73.3H261V199.8z"/>
</g>
<g>
	<rect x="312.1" y="98.9" class="st0" width="6.4" height="7.1"/>
	<path class="st0" d="M320,107.4h-9.4v-10h9.4V107.4z M313.6,104.4h3.4v-4.1h-3.4V104.4z"/>
</g>
<g>
	<rect x="346.3" y="98.9" class="st0" width="100.9" height="7.1"/>
	<path class="st0" d="M448.8,107.4h-104v-10h103.9v10H448.8z M347.8,104.4h97.9v-4.1h-97.9V104.4z"/>
</g>
<g>
	<rect x="286.6" y="133" class="st0" width="160.7" height="7.1"/>
	<path class="st0" d="M448.8,141.6H285.1v-10.1h163.7V141.6z M288.1,138.6h157.7v-4.1H288.1V138.6z"/>
</g>
<g>
	<rect x="286.6" y="167.1" class="st0" width="160.7" height="7.1"/>
	<path class="st0" d="M448.8,175.7H285.1v-10.1h163.7V175.7z M288.1,172.7h157.7v-4.1H288.1V172.7z"/>
</g>
</svg>
