<?xml version="1.0" encoding="utf-8"?>
<!-- Generator: Adobe Illustrator 22.1.0, SVG Export Plug-In . SVG Version: 6.00 Build 0)  -->
<svg version="1.1" id="doodle" xmlns="http://www.w3.org/2000/svg" xmlns:xlink="http://www.w3.org/1999/xlink" x="0px" y="0px"
	 viewBox="0 0 23.6 26.5" style="enable-background:new 0 0 23.6 26.5;" xml:space="preserve">
<style type="text/css">
	.st0{fill-rule:evenodd;clip-rule:evenodd;fill:#E23D41;}
</style>
<g>
	<path class="st0" d="M23.6,0.3c0,0.6-0.6,0.5-0.8,0.8c-5.3,6-8.7,14-11.4,22.7c0.2,0.7-0.2,1-0.1,1.8c-0.5,0.1-0.6,0.6-0.9,0.8
		c-0.7-1-1-2.3-1.6-3.6c-0.6-1.2-1.2-2.3-1.6-3.5c-0.1-0.3-0.5-0.4-0.7-0.6c-1.3-3.3-3.7-5.5-6.2-7.6c-0.1-0.4-0.1-0.9-0.3-1.2
		c0.2-0.3,0.5-0.6,0.8-0.8c3.3,0.4,5.7,2.1,8.5,2.7C13,8.1,16.9,4.5,21.4,1.5c0.5-0.4,0.8-1,1.3-1.5C23.1,0,23.6-0.1,23.6,0.3z
		 M18.7,5.2c0.4-0.2,1.2-1.1,0.7-1.5C19.1,4.1,19,4.7,18.7,5.2z M17.6,5.4c0.4,0.4,1-0.3,0.6-0.6C17.9,4.9,17.8,5.2,17.6,5.4z
		 M16.6,7.8c0.2,0,0.2,0.1,0.2,0.3c-0.9,0.2-0.5,1.2-0.7,1.6c-0.6-0.3-0.5,0.4-1.1,0.4c0.1,0.4-0.1,1.1-0.4,1.4
		c0.3,0.7-1.1,1.7-0.1,2.1c1-2.5,2.7-4.9,3.9-7.6c-0.4,0.1-0.3-0.2-0.6-0.2C17.5,6.6,17.1,7.3,16.6,7.8z M15.9,6.9
		c0.5-0.1,1.7-0.7,0.9-1.1C16.5,6.3,15.9,6.3,15.9,6.9z M14.2,8.1c0.2,0.4,0.2,0.4,0.2,0.9c-1,1.2-1,2.9-1.6,4.3
		c-0.5,1.2-1,2.5-1.3,3.7c-0.1,0.4,0.2,0.7,0,1.1c0,0.1-0.3,0-0.3,0.1c-0.3,1.1-0.1,2.2-0.5,3.2c-0.1,0.2-0.2,0.1-0.3,0.3
		c-0.1,0.2,0,0.5-0.2,0.7c0.2,0.2,0.2,0.6,0.5,0.6c-0.1,0.5-0.6,0.5-0.6,1.1c0.2,0,0.2,0.3,0.4,0.3c1-3.3,2.3-6.6,3.6-9.9
		c-0.9-2.6,1.6-5,1.8-7.5C15.1,7.2,14.7,7.7,14.2,8.1z M11.7,10.6c0,0.1,0.2,0.1,0.2,0.2c-0.7,1.3-1.1,2.8-1.6,4.1
		c-0.1,1.8-0.7,2.9-0.7,5.5c0.4,0.4,0.3-0.4,0.7,0.1c0.4-0.8,0.4-2.3,0.9-2.4c-0.1-0.4-0.1-0.3-0.1-0.8c0.4,0.1,0.1-1.7,0.7-2.2
		c-0.2,0-0.1-0.3-0.1-0.4c0.5-0.7,0.4-1.9,0.9-2.5c-0.1-1.2,1-2.4,0.6-3.3C13,9.6,12,9.8,11.7,10.6z M2,11.5c0.5,0,0.4-0.6,0.9-0.4
		c0.5,0.2,0.5,1,0.1,1.4c0.8,0.8,1.3,2,2.4,2.6c0.2-1.4,0.2-1.8,0.5-3.2c-0.2,0-0.3-0.2-0.6-0.1c-0.4,0.5-0.2,1.4-0.6,2.1
		c-0.9-0.5-0.1-1.6-0.2-2.5c-1.1-0.3-1.8-1-3.4-0.8C1.3,11,1.7,11.1,2,11.5z M6.6,12.4c-0.5,0.8-0.2,2.3-0.7,3
		c0.3,0.2,0.1,0.9,0.6,1.1c0.4-1.4,0.6-2.4,0.9-4C7.3,12.3,6.9,12.2,6.6,12.4z M8.9,16.2c-0.1,0-0.2,0-0.3,0
		c-0.2,1.1-0.8,2.3-0.4,3.6c0.5-0.2,0.4,0.1,0.7,0.2c0.8-2.6,0.7-4.8,1.6-7.3C9.4,13.3,9.4,15,8.9,16.2z M8.1,12.9
		c-0.2,1.4-1.8,4.5-0.3,5.7C7.9,17,8.8,15.3,9,13.1C8.8,13,8.4,12.7,8.1,12.9z M8.6,20.7c0.3,0.1,0.5-0.7,0.1-0.6
		C8.8,20.5,8.4,20.4,8.6,20.7z M9.2,22.3c0.2,0.1,0.3,0.8,0.6,0.4c-0.2-0.6,0.6-1.3,0.1-1.8C9.9,21.6,9.4,21.8,9.2,22.3z"/>
</g>
</svg>
