<?xml version="1.0" encoding="utf-8"?>
<!-- Generator: Adobe Illustrator 22.1.0, SVG Export Plug-In . SVG Version: 6.00 Build 0)  -->
<svg version="1.1" id="Capa_1" xmlns="http://www.w3.org/2000/svg" xmlns:xlink="http://www.w3.org/1999/xlink" x="0px" y="0px"
	 viewBox="0 0 512 512" style="enable-background:new 0 0 512 512;" xml:space="preserve">
<style type="text/css">
	.st0{fill:#FFFFFF;}
</style>
<path class="st0" d="M373.3,84.2h-94.4l-0.7-1.3c-7.7-13.8-18.9-24.1-34.5-31.5l-1.3-0.6l-0.1-1.5c-1.4-26-24.1-46.4-51.7-46.4
	s-50.3,20.4-51.7,46.4l-0.1,1.5l-1.3,0.6c-15.9,7.5-26.9,17.5-34.5,31.5l-0.7,1.3H7.7c-3.3,0-5.2,2-5.2,5.2v414.4
	c0,3.3,2,5.2,5.2,5.2h364.8c3.3,0,5.2-2,5.2-5.2v-16.3c0-2.5-2.7-5.2-5.2-5.2c-3.3,0-5.2,2-5.2,5.2v11H13V94.7h84.8l-0.9,3.2
	c-2.6,9.5-3.8,18.6-3.8,28.8c0,3.3,2,5.2,5.2,5.2h184.4c3.3,0,5.2-2,5.2-5.2c0-9.4-1.2-18.3-3.8-28.8l-0.8-3.1H368v55.9
	c0,3.3,2,5.2,5.2,5.2s5.2-2,5.2-5.2V89.5C378.6,86.2,376.6,84.2,373.3,84.2z M103.4,121.4l0.2-2.7c2.4-29.1,16.5-49.1,41.7-59.4
	c1.9-1,3.7-3,3.3-4.9l-0.1-0.4c-0.7-10.4,2.8-20.3,10-28.1c7.9-8.5,19.3-13.4,31.2-13.4c11.6,0,22.7,4.6,30.4,12.5
	c7.4,7.6,11.2,17.9,10.8,28.8c0,2.3,1.2,4.3,3.2,5.4c26.1,10.7,40.2,30.7,41.7,59.5l0.1,2.6H103.4V121.4z"/>
<path class="st0" d="M189.8,33.1c-15.3,0-27.7,12.4-27.7,27.6c0.8,15.3,13.2,27.8,27.7,27.8c15.3,0,27.7-12.4,27.7-27.7
	S205.1,33.1,189.8,33.1z M189.8,78c-9.5,0-17.2-7.7-17.2-17.2s7.7-17.2,17.2-17.2S207,51.3,207,60.8C207,70.8,199.7,78,189.8,78z"/>
<path class="st0" d="M111.4,180.9c0-3.3-2-5.2-5.2-5.2H53.4c-3.3,0-5.2,2-5.2,5.2v56.5c0,3.3,2,5.2,5.2,5.2h52.7
	c3.3,0,5.2-2,5.2-5.2L111.4,180.9L111.4,180.9z M100.9,231.4H58.7v-46.1h42.2V231.4z"/>
<path class="st0" d="M111.4,284.7c0-3.3-2-5.2-5.2-5.2H53.4c-3.3,0-5.2,2-5.2,5.2v56.5c0,3.3,2,5.2,5.2,5.2h52.7
	c3.3,0,5.2-2,5.2-5.2L111.4,284.7L111.4,284.7z M100.9,336H58.7v-46.1h42.2V336z"/>
<path class="st0" d="M111.4,388.5c0-3.2-2.7-5.2-5.2-5.2H53.4c-3.3,0-5.2,2-5.2,5.2V445c0,3.3,2,5.2,5.2,5.2h52.7
	c3.3,0,5.2-2,5.2-5.2L111.4,388.5L111.4,388.5z M100.9,439.8H58.7v-46.1h42.2V439.8z"/>
<path class="st0" d="M295.5,416.8l-8.4-5.3v-1.4c0.7-35.9-23.8-66.5-58.4-72.6l-2.1-0.4v-15.2c-2.8,0.2-5.8,0.1-8.9-0.5v14.5h-2.5
	c-39.9,0.8-71.1,32.7-71.1,72.6c0,40.1,32.6,72.6,72.6,72.6c32.7,0,62-22.7,69.6-53.9l0.8-3.4l7.2,4.6
	C294.2,424.6,294.6,420.6,295.5,416.8z M215.3,470c-34.3,0-62.1-27.9-62.1-62.1c0-34.8,27.3-62.1,62.1-62.1s62.1,27.3,62.1,62.1
	C277.5,442.1,249.6,470,215.3,470z"/>
<path class="st0" d="M246.3,214c2.5,0,5.2-2,5.2-5.2c0-3.3-2-5.2-5.2-5.2H135.6c-3.3,0-5.2,2-5.2,5.2s2,5.2,5.2,5.2H246.3z"/>
<path class="st0" d="M199.1,318.6c3.3,0,5.2-2,5.2-5.2s-2-5.2-5.2-5.2h-64.3c-3.3,0-5.2,2-5.2,5.2s2,5.2,5.2,5.2H199.1z"/>
<path class="st0" d="M173.2,410.3l20,29.2c1.4,1.4,2.3,2.2,3.5,2.2h0.8c0.9,0,2.6-0.5,3.7-1.6l54.5-50.6l0.2-0.1
	c1.3-0.8,1.7-1.9,1.8-2.8c0.2-1.5-0.4-3.1-1.5-4.2c-2.3-2.3-5.5-2-7.5-0.6l-50,46l-17.2-24.2c-0.7-1.2-1.7-2-3-2.2s-2.8,0.2-4.2,1.3
	L174,403c-1.2,0.7-2,1.7-2.2,3S172,408.8,173.2,410.3L173.2,410.3z"/>
<g>
	<path class="st0" d="M467.1,295.1l-0.8-2.2l-0.4-0.7c-1.8-2.7-4.5-4.2-6.5-5c-3.6-1.3-7.9-1-11.7,0.9l-33.4,16.1
		c-3.7,1.9-6.9,5-8.9,8.6l-0.1,0.1c-1.9,3.5-2.2,7.8-0.9,11.4c1.3,3.4,4,6.1,7.6,7.6c1.4,0.5,3,0.8,4.5,0.8c2.4,0,4.9-0.6,7.1-1.7
		l33.4-16.1c3.6-1.8,6.9-4.9,8.9-8.5l0.1-0.3C467.4,303.4,468.6,299.2,467.1,295.1z M456.3,302.9c-0.5,1-1.5,2-2.5,2.5l-33.4,16.1
		c-1.2,0.5-1.9,0.5-2.3,0.5c-0.3,0-0.6-0.1-1-0.2l-0.3-0.1c-0.8-0.2-1.4-0.8-1.9-1.7l-0.1-0.5c-0.2-1.1-0.1-2.2,0.3-3
		c0.5-1,1.5-2,2.5-2.5l33.3-16.1c1.4-0.5,2.5-0.7,3.2-0.3l0.3,0.1c0.5,0.2,1.3,0.6,1.9,2l0.1,0.1C457,300.6,456.9,301.7,456.3,302.9
		z"/>
	<path class="st0" d="M507.9,238.8c-0.2-0.3-0.3-0.6-0.6-0.9l-0.3-0.8l-1.2-0.6c-0.3-0.1-0.5-0.3-1-0.4h-0.1l-69.1-35.9l-70.2-36
		c-1.5-0.8-3.4-0.9-5-0.1l-70.5,36.1l-69.5,36c-1.3,0.5-2.3,1.6-2.6,2.6l-0.2,0.5c0,0.1-0.1,0.2-0.1,0.2c-0.1,0.3-0.2,0.6-0.3,1
		l-0.1,0.4v99.3c3.7-0.3,7.6,0.5,10.8,2.4V250l62.3,31.9l67.2,34.5v132l-77.2-39.8c1.1,3.6,0.8,7.6-0.9,11.6l81,41.5l0.9,0.4h0.5
		l4.3,1.4v-2.3l7.8-4h1l-0.5-0.3L505.5,390l0.2-0.1c1.7-1.1,2.8-2.9,2.8-4.8V240.2L507.9,238.8z M362.8,175l67.6,34.9l60.8,31.2
		L433,271l-128.5-66L362.8,175z M362.8,307.1l-67.6-34.9L234.3,241l58.2-30L421,277L362.8,307.1z M497.7,382.1l-129.5,66.1V316.4
		l67.2-34.5l62.3-31.9V382.1z"/>
</g>
</svg>
