<?xml version="1.0" encoding="utf-8"?>
<!-- Generator: Adobe Illustrator 22.1.0, SVG Export Plug-In . SVG Version: 6.00 Build 0)  -->
<svg version="1.1" id="Режим_изоляции"
	 xmlns="http://www.w3.org/2000/svg" xmlns:xlink="http://www.w3.org/1999/xlink" x="0px" y="0px" viewBox="0 0 56.2 43.8"
	 style="enable-background:new 0 0 56.2 43.8;" xml:space="preserve">
<style type="text/css">
	.st0{fill-rule:evenodd;clip-rule:evenodd;fill:#E23D41;}
	.st1{fill-rule:evenodd;clip-rule:evenodd;fill:#FFFFFF;}
</style>
<g>
	<path class="st0" d="M51.1,0.1c-0.2,1-0.9,2.1-1.6,2.8c-0.3,1-0.9,1.6-1.4,2.3c-0.1,0.5-0.3,0.9-0.7,1.2c-0.2,0.5-0.2,1-0.8,1.1
		c-0.1-0.4,0-0.8,0.3-0.9C48,4.2,49.8,2.3,50.8,0C50.9,0.1,51,0.1,51.1,0.1z"/>
	<path class="st0" d="M53.4,1c0,0.6-0.6,0.5-0.6,1.1c-0.9,0.5-1,1.7-1.9,2.3c0.1,0.1,0.1,0.2,0.1,0.3c-0.1,0-0.3,0.3-0.4,0.6
		c-0.4,1.1-0.7,2.3-1.2,3.2c-0.2-0.1-0.4,0.1-0.5,0c0.9-2.8,2.4-5.4,4-7.8C53.2,0.7,53.2,0.9,53.4,1z"/>
	<path class="st0" d="M56.2,1c-0.5,0.7-1,1.3-1.5,1.9C54.5,4,53.7,5.1,53,6c-0.2,0.8-0.5,1.6-1.2,2.1c0.1,0.5-0.5,0.8-0.4,1.4
		c-0.2,0-0.5,0.2-0.6,0.1c0.3-1.1,1-1.8,1.5-2.7c0.9-2.2,2.2-3.9,3.2-6c0.1-0.1,0.2,0,0.2-0.1C56,0.8,56.1,0.9,56.2,1z"/>
	<path class="st0" d="M48.5,10.1c0.1,0.4,0.2,0.4,0.1,0.9c-0.3,0.1-0.6,0.5-1,0.3C47.8,10.8,47.9,10.1,48.5,10.1z"/>
	<path class="st0" d="M46.3,10.9c-0.4,0.4-1.2,0.8-1.7,0.9C44,10.8,45.9,9.7,46.3,10.9z"/>
	<path class="st0" d="M51.2,11.6c-0.2,0.4-1.2,0.5-1.6,0.3C49.8,11.1,51.1,10.4,51.2,11.6z"/>
	<path class="st1" d="M28.2,15.7c0,0.2-0.1,0.3-0.1,0.6c0.9,1.3,2.2,2.2,2.8,3.9c2.3-1.5,4.6-3,6.9-4.5c0-0.4,0-0.4,0.2-0.7
		c0.4-0.1,0.7,0.2,1,0.2c1.8,0.2,3.3-0.3,5.2-0.1c0,0.3-0.2,0-0.3,0.1c0.3,0.3,0.5-0.1,0.9,0.1c0.1-0.3-0.4-0.1-0.4-0.2
		c2-0.1,3.7-0.3,5.5,0.1c-0.1,0.3-0.6,0.3-0.5,0.6c-0.3,0.1-0.2-0.2-0.3-0.3c-2-0.2-3.9-0.1-5.9,0.1c-1.3,0.1-2.6-0.1-3.7,0.1
		c-0.1,0-0.3,0.2-0.4,0.2c-0.3,0.1-0.6,0-1,0.1c-0.6,0.2-1.5,1.1-2.3,1.6c-0.8,0.5-1.7,1-2.3,1.4c-0.8,0.6-1.7,1.2-2.2,2.1
		c0.5,0.7,0.5,1.8,0.8,2.7c-0.1,0.5-0.2,0.8-0.1,1.4c0,0.3-0.1,0-0.2,0.1c0.1,0.2,0.2,0.4,0.2,0.6c-0.1,0.5-0.3,1.2-0.1,2
		c-0.3,1.5-0.2,2.8-1,3.9c-0.1,0.6-0.5,1.9-1,2.3c0,0.7-0.7,1.3-1.2,2c-1,1.2-1.5,2-2.6,3.1c-1.7,1.6-3.5,3.3-5.9,4.1
		c-0.5,0.2-1,0.5-1.4,0.6c-1,0.2-2.5-0.3-3.7-0.2c-0.2,0-0.2-0.2-0.3-0.2c-1.6-0.1-3.4-0.6-4.7-1.2c-0.5-0.6-1.3-0.8-2-1.2
		c-1.4-0.9-2.5-2.2-3.8-3c-0.6-0.7-1.1-1.4-1.7-2.1c-1-1.7-1.9-4.1-2-6.1c-0.6-0.9-0.3-2.1-0.1-3.4c0.2-1.2,0.3-2.6,0.5-3.4
		c0.6-2.4,2-4.6,3-6.5c1.7-1.6,3.1-3.5,5.6-4.2c3.3-1.6,7.9-2.7,11.9-1.2c1.6,0.6,3.2,1.2,4.5,2.1c0,0,0,0.2,0,0.2
		c0.2,0.2,0.6,0.2,0.8,0.4c0.3,0.2,0.3,0.4,0.6,0.6C27.3,14.8,27.6,15.4,28.2,15.7z M23.1,12.4c0.1-0.1,0-0.3,0-0.4
		c-0.6,0.1-1.2,0-1.2-0.4c-0.8-0.2-1.6-0.8-2.5-0.8c-1.2-0.1-2.9-0.2-4.3,0.1c3.1,0.1,6.1,0.5,8.1,1.8c0.5,0.1,1.3,0.7,1.5,1.1
		c1.1,0.5,1.9,1.3,2.9,1.9c0.2-0.7-0.8-0.6-0.6-1.4c-0.2-0.1-0.6,0-0.8-0.2c0,0,0-0.2,0-0.2c-0.1-0.1-0.3,0-0.4,0c0,0,0-0.2-0.1-0.3
		c-0.1-0.1-0.4,0.1-0.1-0.1c-0.3-0.1-0.8-0.1-0.7-0.6c-0.4,0.3-0.7-0.2-1.1-0.3c0.2-0.2,0.3,0,0.5,0.1
		C23.9,12.1,23.5,12.8,23.1,12.4z M22.7,11.9c-0.2,0-0.5-0.4-0.6-0.1C22.4,11.7,22.5,12.2,22.7,11.9z M13.9,12.2
		c2-0.3,4.7-0.5,6.3-0.1c0-0.2-0.2-0.1-0.1-0.3c-0.5,0.1-0.5-0.2-1-0.3c-0.1,0.3-0.7-0.1-1,0.1c0-0.1,0-0.2-0.1-0.3
		c-1.6-0.1-2.4-0.2-4-0.2C14.1,11.6,13.9,11.9,13.9,12.2z M12.4,11.5c-2.3,0.6-4.6,2.1-6.2,3.4c-1.2,1-1.9,2.2-2.7,3.5
		c-0.2,0.3-0.4,0.4-0.6,0.7c-0.4,0.5-0.6,1.4-0.9,2.1c-0.5,1.3-0.9,2.6-1.1,4c-0.5,3.3,0.3,6.7,1.7,9.5c1.3,1,1.9,2.8,3.7,3.4
		c1.7,1.3,4.3,3.1,6.6,3.4c1.3,0.2,2.6,0.8,3.9,0.8c0.4,0,0.8-0.3,1.2-0.3c0.8-0.2,1.7-0.2,2.4-0.5c0.5-0.2,1.1-0.7,1.7-1
		c1.2-0.8,2.2-1.5,3.2-2.4c0.8-0.7,1.4-1.2,1.9-1.9c-0.6,0.3-1.1,0.6-1.6,1c-0.8,0.4-1.7,0.9-2.6,1.4c-1,0.5-1.8,0.7-2.9,1.1
		c-0.6,0.2-1,0.4-1.7,0.5c-1.7,0.1-3.1,0.4-4.5,0c-0.3-0.1-0.4-0.3-0.7-0.3c-0.3-0.1-0.6,0-0.9-0.1C10.9,39,9.5,38,8.3,37.2
		c-0.1-0.1,0-0.3,0-0.4c-0.3,0-0.2,0.3-0.5,0.2c-1-1.1-2.4-1.8-3-3.2c-0.7-0.3-0.7-0.9-0.9-1.4c-0.2-0.5-0.5-1-0.8-1.5
		c-0.3-0.6-0.3-1.4-0.4-2.1c-0.1-0.4-0.2-0.9-0.2-1.3c-0.1-1.7,0-2.5,0.4-3.7c0.3-0.9,0.4-1.8,0.7-2.5c0.4-1,1.1-1.9,1.7-2.8
		c0.6-1,1.2-1.7,2.1-2.5c1.8-1.5,3.7-2.6,5.8-3.4C13.2,11.6,13,11.3,12.4,11.5z M21.6,12.6c-0.4-0.1-0.8,0-1.2,0
		c-0.8-0.1-1.6-0.4-2.4-0.4c-1.3-0.1-3.2,0.2-4.1,0.6c-0.6,1.4,0.3,3,0,4.5c0.2,1.9,0.1,3.6,0.4,5.9c0,0.1-0.2,0-0.2,0.2
		c0.4,1,0.6,2.4,0.8,3.6c1.8-0.2,3.2-1.5,4.6-2.3c1.2-0.8,2.8-1.3,3.7-2.3c0.1,0.1,0.2,0.1,0.4,0.1c0.3-0.3,0.4-0.7,0.8-0.8
		c0.2-0.1,0.2,0.1,0.3,0.1c1.3-1,2.8-1.7,4-2.8c-0.4-0.6-0.6-1.1-0.9-1.7c-0.6-0.2-0.9-0.7-1.2-1.2c-0.4-0.2-0.9-0.6-0.9-1
		c-0.5-0.1-0.8-0.5-0.8-0.8c-0.8-0.1-1.3-0.8-1.9-1.3c0,0.1-0.3,0.2-0.3,0.1c0-0.1,0.1-0.2,0-0.2C22.4,13,21.9,12.6,21.6,12.6z
		 M17.6,28.8c-0.2-0.1-0.4-0.1-0.6-0.2c-0.8-0.2-2.6-0.1-2.8-0.6c-0.2-0.4,0.1-1.2,0-1.9c0-0.4-0.2-0.7-0.3-1.1
		c-0.3-1.8-0.4-3.9-0.4-5.9c0-2.2-0.2-4.2-0.1-6.1c0,0,0-0.1-0.1-0.1c0,0,0-0.1-0.1-0.1c-1.8,0.7-4.1,1.9-5.4,3.1
		c-0.2,0.2-0.4,0.3-0.6,0.4C6.6,17,6.1,18,5.5,18.9c-1.2,1.8-1.9,3.8-2.5,6.1c0.2,0.3,0,0.7,0,1.2c0,1,0.4,2.1,0.4,3
		c0,0.2-0.1,0.4-0.1,0.6c0.1,0.7,0.6,1.2,0.9,1.9c0.2,0.6,0.3,1.1,0.6,1.5c0.2,0.2,0.4,0.4,0.6,0.6c0.3,0.4,0.6,1,1,1.4
		c1.1,1.1,2.6,2,3.9,2.8c1.5,0.9,3.7,2,5.9,1.9c2.3-0.1,4.4-0.5,6.2-1.4c2.6-1.3,4.9-2.4,6.3-4.7c-1-0.5-2-0.7-2.8-1.4
		C23.1,31.4,20.3,29.9,17.6,28.8z M28.3,17.5c0.2,0,0.5,0.1,0.5-0.1C28.6,17.4,28.4,17.3,28.3,17.5z M29.1,18
		c-0.3,0.1-0.1-0.3-0.3-0.3c0,0.1-0.2,0.1-0.1,0.3C28.8,18,29,18.1,29.1,18z M28.5,18.5c0,0,0.1,0,0.1,0c0-0.1,0.1-0.1,0.1-0.1
		c-0.1,0-0.2,0-0.2-0.1c0.1,0,0-0.2-0.1-0.2C28.4,18.3,28.6,18.3,28.5,18.5z M29.3,18.5c-0.1-0.1-0.3-0.5-0.4-0.3
		C29,18.3,29.1,18.7,29.3,18.5z M28.8,20c0.1,0.3-0.1,0.3-0.1,0.6c0.2,0,0.6-0.3,0.6-0.8c-0.1,0-0.2,0-0.2-0.1
		C29.1,19.8,29,19.9,28.8,20z M27.2,24c0.9-1.1,1.6-2.5,2.3-3.8c-0.1,0-0.1-0.1-0.2-0.1C28.5,21.3,27.8,22.7,27.2,24z M25.8,24.3
		c0.3,0.1,0.5-0.1,0.7-0.1c0.6-1.2,1.3-2.4,1.8-3.8c0-0.1,0-0.2-0.1-0.1C27.4,21.6,26.6,23,25.8,24.3z M26.2,21.2
		c0.3,0,0.5-0.4,0.4-0.4C26.6,21.1,26.2,20.9,26.2,21.2z M29.6,21.1c0.2,0,0.3-0.1,0.3-0.3C29.6,20.8,29.7,21,29.6,21.1z M24.8,24.5
		c0.2,0.2,0.3-0.1,0.6,0c-0.3-1.2,1.4-2.3,1.5-3.5C26.1,22,25.3,23,24.8,24.5z M31,22.7c0.1,0.3,0,0.7,0.3,0.8
		c0.1-0.8-0.2-1.8-0.8-2.3C30.5,21.6,30.9,22.2,31,22.7z M29.6,22.9c0.3-0.2,0.7-0.4,0.7-1c-0.1,0-0.2,0-0.2-0.1
		C30,22.2,29.6,22.4,29.6,22.9z M29,22.9c0-0.2,0.3-0.1,0.2-0.4C29,22.4,28.8,22.7,29,22.9z M23.6,24.8c0.7-0.1,1-1.6,1.2-2.2
		C24.2,23.3,23.8,23.9,23.6,24.8z M28.3,23.9c0.4-0.1,0.4-0.6,0.6-0.9C28.5,23.1,28.5,23.6,28.3,23.9z M29.6,23.1c0,0,0,0.1,0,0.1
		c0.1,0.2,0.3-0.1,0.3-0.2C29.7,23.1,29.7,23.2,29.6,23.1z M29.4,23.7c0.3,0.1,0.3-0.3,0.1-0.3C29.5,23.5,29.4,23.6,29.4,23.7z
		 M22.3,25.1c0.3,0.1,0.3-0.1,0.6-0.1c0-0.4,0.4-1.1,0.3-1.5C22.7,23.7,22.7,24.6,22.3,25.1z M19.3,29.4c0.3-0.1,0.5,0.2,0.6-0.1
		C19.6,29.4,19.5,29.2,19.3,29.4z M20.6,29.6c2.8,1.3,5.5,2.6,8.5,3.7c0.6-0.9,1.2-2.1,1.7-3.2c0.8-1.9,0.4-3.8,0.1-5.6
		c-1,0.2-1.8-0.2-2.4,0.5c-0.2,0-0.1-0.4-0.4-0.3c-2.2,0.6-5,1.1-7.6,1.5c-1.6,0.3-3.8,0.7-4.6,1.7C17.5,28.4,19,28.9,20.6,29.6z
		 M21.4,25.4c0.8,0.1,0.5-0.6,0.6-1C21.6,24.6,21.4,25.1,21.4,25.4z M19.4,25.8c0.4,0.1,0.6-0.7,0.4-0.8
		C19.7,25.2,19.5,25.5,19.4,25.8z M18.1,26.1c0.3,0,0.8-0.2,0.6-0.5C18.6,25.9,18.2,25.9,18.1,26.1z M25,39.2
		c0.2-0.2,0.7-0.4,0.6-0.7C25.4,38.7,25.1,38.9,25,39.2z M8.1,40.4c1.3,0.5,2.5,1.6,4.1,1.9c1.1,0.2,2.1,0.6,3.2,0.7
		c0.4,0,0.8-0.1,1.2-0.1c0.6,0,1.2,0.3,1.8,0.2c0.6-0.1,1.3-0.5,1.9-0.7c1.9-0.7,3.4-2,4.6-3.2c-2.2,1.5-4.8,3.3-8,3.5
		c-1.2,0.1-2-0.3-2.9-0.6c-1.1-0.2-1.8-0.3-2.7-0.6c-1.5-0.6-3.2-1.5-4.5-2.3C7.2,39.7,7.7,40,8.1,40.4z"/>
</g>
</svg>
