<?xml version="1.0" encoding="utf-8"?>
<!-- Generator: Adobe Illustrator 22.1.0, SVG Export Plug-In . SVG Version: 6.00 Build 0)  -->
<svg version="1.1" id="doodle" xmlns="http://www.w3.org/2000/svg" xmlns:xlink="http://www.w3.org/1999/xlink" x="0px" y="0px"
	 viewBox="0 0 54.3 38" style="enable-background:new 0 0 54.3 38;" xml:space="preserve">
<style type="text/css">
	.st0{fill-rule:evenodd;clip-rule:evenodd;fill:#FFFFFF;}
</style>
<g>
	<path class="st0" d="M32.6,24.1c-0.2,0-0.4,0.1-0.5,0c0.2-1.9,1.2-3.7,1.7-5.3c0.3-0.1,0,0.4,0.2,0.4c-0.2,0.2-0.6,1.2-0.7,1.6
		c0,0.2,0,0.5,0,0.6c-0.1,0.3-0.2,0.1-0.2,0.4C32.9,22.5,32.4,23.2,32.6,24.1z"/>
	<path class="st0" d="M22,36.9c0-0.1,0.2,0,0.3-0.1c-0.1-0.1-0.4-0.2-0.7-0.2c0.1,0.1,0.2,0.2,0.3,0.2c-1.5,0-3.4-0.3-4.9-0.4
		c-0.3-2.7-0.7-5.5-0.5-8.8c-1.2,0.5-2.3,1-3,2c0,0.2,0.2,0.2,0.2,0.4c-0.2,0.1-0.3,0.4-0.6,0.5c-0.1-0.1-0.1-0.2-0.3-0.3
		c-2.7-0.3-5.5-0.3-8.5-0.8c-0.4,0.8-3.2,1.5-4.1,0.4c-0.5-0.7-0.1-1.9,0.4-2.6c0.3,0,0.6-0.4,0.8-0.2c-0.1,0.5-0.7,0.5-0.8,1
		c0.8,0,1.7-1,2.7-0.7c0.7,0.2,0.9,1,1.1,1.8c1.9,0.3,4.3,0.4,6.3,0.7c0.6,0.1,1.3,0.2,1.8,0.1c0.3-0.1,0.6-0.4,1-0.7
		c0.9-0.9,2-1.3,2.9-2.2c-0.1-0.6-0.1-1.4-0.2-1.9c0.1-1.8,0.2-3.6,0.1-5.2c-0.2-2.7,0-5.7-0.2-8.7c-1.1,0.3-1.9,0.9-2.8,1.4
		c-0.1,0.2-0.2,0.3-0.1,0.6c-0.5-0.2-0.4,0.3-0.7,0.3c-0.2-0.3-0.6-0.5-1-0.6c-1.9-0.5-4.5-0.3-6.3-0.4c-0.6,1.2-2.9,1.3-3.5,0
		c-0.1-1,0.4-1.6,0.9-1.9c0.8,0.2,2.8-0.2,2.9,1.3c2.4,0.3,4.7,0.2,7.1,0.8c1.1-0.7,2.4-1.3,3.6-2c0-1.3,0.1-1.6,0-2.8
		c0-0.3-0.4,0-0.5-0.2c0-0.6,0.5-0.6,0.6-1.1c1.9-0.7,3.2-2.1,5-3C22.7,2.1,24.4,1.1,26,0c0.2,0,0.1,0.3,0.4,0.2
		c4.3,0.6,8.5,0.7,12.6,1.1c0.3,0.6,0.4,1.8,0.4,2.9c0.1,1.9-0.1,3.5,0,5.3c1.3-0.7,2.3-1.7,3.5-2.5c2.7-0.1,4.6,0.2,7.5,0.1
		c0.4-0.4,0.7-1.3,1.4-0.8c-0.1,0.2-0.5,0.1-0.6,0.4c0.9,0,1.6-0.7,2.4-0.4c0.8,0.3,0.7,1.3,0.7,1.9c-0.7,0.9-2.3,1.2-3.6,0.7
		c-0.4-0.4-0.2-1.2-0.8-1.4c-0.6-0.2-1.3,0.3-1.8-0.1c-0.8,0.3-1.6,0.1-2.6,0c-0.7-0.1-1.3,0.3-2,0.3c-0.3,0-0.4-0.1-0.7-0.1
		c-1.3,0.3-2.3,1.9-3.5,2.5c-0.1,3.1-0.3,7-0.1,10.5c0,0.2,0.2,0.1,0.3,0.2c-0.8,1.6,0.1,3.6-0.2,5.2c0.1,0.2,0.2,0,0.3,0.2
		c0,0.3-0.3,0.2-0.3,0.5c0,0.3,0.2,0.3,0.4,0.4c-0.1,0.3-0.3,0.3-0.1,0.7c-0.3,0.6-0.8,1.1-1,1.6c-0.2,0-0.4,0.1-0.5,0.2
		c-1.8,2.6-3.9,4.5-5.7,7.1c0,0.3-0.1,0.6-0.1,1c-0.6,0-1,0.6-1.2-0.1c-0.3,0-0.2,0.3-0.5,0.2c-1.1-0.7-2.6-0.3-3.8-0.6
		c-0.1,0-0.1-0.2,0-0.1C25.1,36.8,23.7,37,22,36.9z M34.3,1.9c-1.2-0.2-2.4,0-3.7-0.2c-0.7-0.1-1.3-0.4-2-0.4
		c-0.4,0-0.9,0.2-1.3,0.2c-0.6-0.1-1.2-0.2-1.8,0.1c-1,1-2.3,1.7-3.5,2.5c-1.2,0.8-2.5,1.5-3.5,2.5C22.5,7,26,7.2,30.4,7.6
		c2.2-1.6,4.4-3.1,6.2-5.1C35.7,2.5,35,2.1,34.3,1.9z M36.9,8.1c1.4-0.6,1.5-1.7,1.4-3.3c0-0.7-0.2-1.7-0.4-1.8
		c-2.2,1.4-4,3.3-6.1,4.8c-0.1,2.1-0.5,3.7-0.1,5.4C33.3,11.4,35.3,10,36.9,8.1z M38.8,5.6c0.1-0.1,0.1-0.3,0-0.3
		C38.7,5.3,38.6,5.5,38.8,5.6z M50.8,7c0.1,0.7-0.2,1.2,0.3,1.5c0.6,0.5,2.5,0,2.7-0.5c0.2-0.4-0.4-1-0.4-1.5
		C52.5,6.4,51.5,6.8,50.8,7z M34.2,5.4c0-0.2,0.3,0,0.3-0.3C34.3,5,34.1,5.3,34.2,5.4z M38.8,6.2c0.1-0.2,0.1-0.3,0-0.5
		C38.8,5.8,38.7,6.1,38.8,6.2z M36.9,8.7C37,8.8,37.2,8.9,37.2,9c-0.2,0.3,0,0.8,0.3,0.9c0.3-0.4-0.2-1,0-1.4c0.2,0,0.1,0.2,0.3,0.2
		C38,8.5,38,8.4,38,8C37.5,7.9,37.1,8.4,36.9,8.7z M31,9.5c0-0.3,0-0.6,0-1.1C30.7,8.6,30.8,9.4,31,9.5z M24.1,8.1
		c-2-0.2-5.3-0.9-6.9-0.5C17,8.3,17.4,9,17.2,9.9c0.5-0.2,0.9-0.3,1.5-0.3c-0.3,0.5-1.1,0.3-1.5,0.7c-0.1,1-0.1,2,0.1,2.7
		c2.1,0,3.9,0.2,5.7,0.2c0.3,0,0.6-0.2,0.8-0.1c0.2,0,0.4,0.2,0.6,0.2c0.4,0,0.7-0.1,1.1-0.1c1.6,0.1,3.2,0.9,4.9,0.5
		c-0.1-1.7-0.3-3-0.2-4.7C28.5,8.4,26.4,8.3,24.1,8.1z M36.2,9.9c0.2-0.1,0.5-0.5,0.3-0.7C36.3,9.3,36,9.6,36.2,9.9z M38.3,9.7
		c0.1-0.2,0.1-0.3-0.1-0.4C38.1,9.4,38,9.8,38.3,9.7z M36.9,11.1c0.4-0.4,0.2-1-0.2-1.3C36.3,10.3,36.3,10.9,36.9,11.1z M37.7,10.6
		c0.4,0.1,0.3-0.4,0.1-0.5C37.7,10.3,37.7,10.5,37.7,10.6z M35.2,10.4c0.3,0.1,0.1,0.6,0.4,0.6C36.3,10.6,35.5,9.6,35.2,10.4z
		 M35.1,11.3c0,0.2-0.2,0.3-0.3,0.7c0.2,0,0.1,0.2,0.3,0.2c0.1-0.1,0.2-0.3,0.3-0.6c-0.2-0.3-0.4-0.5-0.5-0.9
		c-0.3,0.1-0.6,0.5-1,0.9c-0.6,0.7-1.3,1.3-0.6,2c0.5-0.7,0.8-1.7,1.4-2.3C34.9,11.3,35.1,11.2,35.1,11.3z M36.4,12.3
		c0.5-0.3,0-1-0.2-1.3C35.8,11.5,36.1,12,36.4,12.3z M31,11.1c0.1-0.1,0-0.4-0.1-0.5C31,10.9,30.7,11,31,11.1z M37.4,12.1
		c0.2-0.2,0.4-0.7-0.1-0.8C37.1,11.4,37,11.9,37.4,12.1z M35.8,13.6c0.4-0.4,0.4-1.2-0.2-1.5C35.2,12.6,35.4,13.3,35.8,13.6z
		 M36.9,13.3c0.3-0.2,0.3-0.9-0.1-1C36.7,12.5,36.6,13.1,36.9,13.3z M34.5,13.4c0.2-0.3,0.3-0.9-0.1-1
		C34.1,12.8,34.2,13.2,34.5,13.4z M35.9,14.4c0.1,0,0.2,0,0.2,0.1c0.3,0,0.3-0.4,0.5-0.5c-0.1-0.2-0.1-0.5-0.4-0.6
		C36.2,13.7,35.9,13.8,35.9,14.4z M2.5,11.1c-0.1,0.3-0.2,0.5-0.3,0.9c0.6,1.3,2.6,0.8,2.7-0.6C4.3,10.8,3.2,10.7,2.5,11.1z
		 M16.5,12.4c0-0.2,0.2-0.6-0.1-0.6C16.4,12.1,16.4,12.3,16.5,12.4z M35.2,14.6c0.4-0.3,0.1-1-0.2-1.2
		C34.6,13.8,34.7,14.4,35.2,14.6z M36.1,17.9c0,0.1-0.2,0.1-0.2,0.1c-0.1,0.2,0,0.5-0.1,0.7c-0.1,0.2-0.3,0.2-0.3,0.4
		c-0.1,0.2,0,0.4,0,0.5c-0.1,0.2-0.2,0.4-0.3,0.6c-0.2,0.5-0.2,1.1-0.4,1.6c-0.2,0.6-0.5,1.1-0.8,1.6c-0.1,0.2,0.1,0.4,0,0.6
		c-0.4,0.7-0.6,1.6-1,2.5c-0.6,1.3-1.2,2.4-0.8,3.8c1.8-4.7,3.9-9.1,5.4-14c0.3-0.9,0.5-1.5,0.4-2.4c0-0.1-0.1-0.1-0.1-0.1
		C37.2,15.1,36.6,16.6,36.1,17.9z M32.1,14.3c0.1,0.3,0,0.9,0.5,0.9c0.1-0.4,0.3-0.6,0.4-1c-0.3-0.1-0.1-0.7-0.5-0.7
		C32.5,13.8,32.4,14.2,32.1,14.3z M33.5,13.9c0.1,0.3,0.2,0.6,0.3,0.9c0.4,0,0.3-0.5,0.5-0.7C34.1,13.6,33.8,13.6,33.5,13.9z
		 M31.7,13.9c0.2,0,0.4,0,0.4-0.2C32,13.8,31.7,13.7,31.7,13.9z M36.6,15.1c0.3,0,0.2-0.5,0.4-0.7C36.8,14.5,36.5,14.9,36.6,15.1z
		 M24.9,13.7c0,0.3,0.5,0.3,0.2,0.6c0.4,0,0.7,0.2,0.9-0.3C25.9,13.5,25.4,13.8,24.9,13.7z M23.8,13.7c0,0.2,0.2,0.4,0.4,0.4
		c0.2-0.1,0.3-0.3,0.5-0.4C24.5,13.6,24.1,13.7,23.8,13.7z M34.3,16.1c0.6-0.3,0.7-1.2,0.1-1.6C34,15,34,15.6,34.3,16.1z M26.6,14
		c-0.1,0,0.1,0.4,0.3,0.4c0.2,0,0.3-0.1,0.3-0.3C27,14.1,26.9,13.9,26.6,14z M35.4,15.2c0.2,0,0.5-0.2,0.3-0.5
		C35.5,14.7,35.3,15,35.4,15.2z M21.4,13.9c0-0.1,0-0.1,0.1-0.2c-0.1,0-0.2,0-0.3,0C21.1,13.8,21.2,13.9,21.4,13.9z M27.9,14.7
		c0.2,0,0.2,0.2,0.4,0.2c0.2-0.1,0.4-0.3,0.5-0.5C28.4,14.2,27.8,14.1,27.9,14.7z M29.4,14.5c0.2,0.1,0.1,0.3,0.5,0.3
		c0-0.1,0.1-0.2,0.2-0.3C29.9,14.5,29.5,14.2,29.4,14.5z M38.6,15.7c-0.1-0.3,0.1-0.6-0.1-0.6C38.5,15.3,38.3,15.7,38.6,15.7z
		 M18.3,13.5c0,0.2,0.1,0.3,0.2,0.4c0.1-0.1,0.2-0.2,0.2-0.4C18.5,13.4,18.5,13.6,18.3,13.5z M19.9,13.9c0.1,0,0.2-0.2,0.2-0.3
		c-0.2,0-0.4,0-0.5,0C19.6,13.8,19.7,14.1,19.9,13.9z M32.7,15.6c0.2,0.4,0.1,0.6,0.4,0.7c0.3-0.5,0.6-1,0.2-1.6c-0.1,0-0.1,0-0.2,0
		C33.1,14.9,33,15.4,32.7,15.6z M22.1,14.8c0.4-0.2,0.6-0.6,0.2-1C21.7,13.9,21.3,14.7,22.1,14.8z M17.3,14.1
		c0.5-0.1,0.3,0.4,0.7,0.5c0.5-0.3-0.1-0.6-0.1-1c-0.2,0-0.4,0-0.5,0C17.3,13.8,17.2,13.9,17.3,14.1z M20.2,14.4
		c0.1,0.1,0.2,0.2,0.2,0.4c0.5,0,0.7-0.7,0.1-0.9C20.4,14.1,20.2,14.2,20.2,14.4z M23.2,14.2c0,0.2,0.3,0.5,0.5,0.4
		C23.8,14.3,23.4,14.1,23.2,14.2z M24.6,14.7c0.1,0.4,0.5,0.4,0.6,0C25.2,14.3,24.7,14.3,24.6,14.7z M35.1,17.1
		c-0.4,0.4-0.8,1.2-1,1.7c-0.4,0-0.3-0.4-0.6-0.5c-0.6,0.7-1.1,1.3-1.8,1.9c0.1,0,0.2,0.1,0.2,0.2c-0.6,0.3,0,1.5-0.3,1.6
		c0.3,0.7-0.1,2,0.3,2.7c0-0.2,0.1-0.3,0.4-0.3c-0.2,0.7-0.5,2.1-0.3,3.2c0.5-0.6,0.8-1.4,1.1-2.2c0.1-0.2,0.2-0.4,0.3-0.6
		c1.1-2.9,2.1-6.5,3.3-9.5c-0.2,0-0.4,0-0.6-0.1c-0.2,0.3-0.3,0.4-0.2,0.9c-0.3,0-0.3,0-0.6-0.1C35.1,16.3,35,16.8,35.1,17.1z
		 M29,15.6c0.3-0.2,0.4-0.4,0.2-0.7c-0.2,0-0.2-0.1-0.3-0.1C28.6,15.1,28.6,15.5,29,15.6z M32.2,16.2c0.2-0.5,0-1-0.4-1.2
		C31.7,15.3,31.9,15.9,32.2,16.2z M18.8,14.4c0.2,0.1,0.2,0.3,0.4,0.3c0-0.2,0.3-0.1,0.2-0.3c0-0.3-0.2-0.4-0.5-0.4
		C19,14.2,18.8,14.2,18.8,14.4z M26.1,14.7c0,0.3,0.3,0.5,0.5,0.3C26.6,14.7,26.3,14.6,26.1,14.7z M30,15.3c0.1,0,0.1,0.1,0.3,0.1
		c0-0.2,0-0.3-0.1-0.4C30.2,15.1,30,15.1,30,15.3z M27.8,15.5c0.2-0.3,0-0.6-0.4-0.7C27.5,15.1,27.8,15.2,27.8,15.5z M22.4,15.1
		c0,0.3,0.3,0.3,0.3,0.5C23.7,15.5,22.8,14.1,22.4,15.1z M20.8,15.3c0.2,0.1,0.2,0.4,0.4,0.5c0.2-0.1,0.3-0.3,0.5-0.5
		c-0.3-0.1-0.2-0.5-0.5-0.5C21.1,15,20.8,15,20.8,15.3z M24.6,15.5c0-0.3-0.2-0.5-0.6-0.6C23.6,15.1,24.2,15.7,24.6,15.5z
		 M25.1,15.5c0,0.2,0.4,0.3,0.5,0.5c0.1-0.2,0.3-0.3,0.4-0.5C25.9,14.9,25.1,15.1,25.1,15.5z M26.8,15.6c0.3,0.2,0.4,0.5,0.7,0.2
		c-0.2-0.2-0.3-0.5-0.6-0.6C26.9,15.3,26.7,15.4,26.8,15.6z M17.3,15.2c0.4,0,0.1-0.6,0-0.8C17.3,14.8,17.4,14.9,17.3,15.2z
		 M33.3,17.1c0.2,0,0.1,0.2,0.3,0.2c0.6-0.2,0.5-1.2,0-1.5C33.7,16.3,33.4,16.5,33.3,17.1z M18.2,15c0.2,0.1,0.1,0.4,0.4,0.4
		c0.1-0.1,0.3-0.2,0.2-0.5c-0.1-0.1-0.2-0.3-0.4-0.3C18.4,14.8,18.2,14.8,18.2,15z M19.5,15.2c0.1,0.2,0.2,0.3,0.5,0.3
		c0-0.1,0.1-0.2,0.2-0.2c0-0.3-0.2-0.4-0.4-0.5C19.7,14.9,19.5,14.9,19.5,15.2z M29.3,16c0.1,0.1,0.2,0.4,0.4,0.4
		C30.6,16.3,29.5,15,29.3,16z M28.1,15.7c0,0.3,0.3,0.2,0.2,0.6c0.2,0,0.2-0.2,0.3-0.3C28.5,15.8,28.4,15.5,28.1,15.7z M36.2,21.2
		c0,0.4-0.3,1.2-0.6,1.5c-0.2,1-0.7,2.3-1.3,3.1c-0.1,0.7-0.4,1.5-0.7,2.2c-0.1,0.2-0.3,0.4-0.4,0.7c-0.5,1.2-1,2.6-1.1,3.5
		c0,0.5-0.5,1.3,0,1.9c0.4-1.4,1.1-2.8,1.6-4.2c0-0.1,0.2-0.2,0.3-0.3c0.1-0.1,0-0.3,0-0.5c0.1-0.4,0.4-0.7,0.6-1.1
		c0.6-1.3,1.1-2.5,1.6-3.7c0.9-2.3,2.3-5.2,1.6-7.6C37.1,17.9,37,19.7,36.2,21.2z M23.5,16.5c0.2-0.1,0.4-0.2,0.5-0.4
		c-0.1-0.2-0.2-0.4-0.5-0.5C23.2,15.8,23,16.3,23.5,16.5z M32.3,17.6c0.5,0,0.4-0.5,0.6-0.9c-0.2-0.1-0.1-0.5-0.4-0.5
		C32.2,16.8,32.5,17.1,32.3,17.6z M26,16c-0.1,0.5,0,0.7,0.5,0.8c0.1-0.2,0.4-0.2,0.4-0.6c-0.3-0.1-0.2-0.3-0.5-0.4
		C26.3,16,26.2,16.1,26,16z M16.7,15.7c0-0.2,0.1-0.5-0.1-0.6C16.6,15.3,16.6,15.5,16.7,15.7z M22.1,16.5c0.2-0.1,0.3-0.3,0.4-0.5
		c-0.1-0.2-0.3-0.4-0.5-0.5C21.5,15.8,21.4,16.4,22.1,16.5z M24.6,16.1c0.2,0.2,0.3,0.4,0.6,0.5c0-0.1,0.2-0.1,0.2-0.3
		C25.1,16,24.8,15.6,24.6,16.1z M19.2,16.2c0.5-0.1,0.3-0.7-0.1-0.8C18.7,15.6,18.8,16.1,19.2,16.2z M27.4,16.3
		c0,0.3,0.4,0.3,0.4,0.6c0.1-0.2,0.3-0.1,0.3-0.4c-0.2-0.1-0.2-0.4-0.5-0.4C27.6,16.2,27.6,16.3,27.4,16.3z M20.2,15.9
		c0.1,0.2,0.2,0.5,0.6,0.5c0-0.1,0.1-0.1,0.2-0.1C21,15.7,20.3,15.3,20.2,15.9z M28.7,16.6c0.3,0.1,0.3,0.5,0.5,0.6
		c0.1-0.1,0.3-0.2,0.3-0.4c-0.2-0.2-0.3-0.4-0.6-0.5C28.8,16.4,28.7,16.5,28.7,16.6z M17.7,16c0.2,0,0.1,0.2,0.4,0.2
		c0.1-0.1,0.1-0.2,0.2-0.4c-0.1-0.1-0.2-0.2-0.3-0.2C17.8,15.7,17.7,15.7,17.7,16z M30.1,16.7c0.2,0.1,0,0.5,0.2,0.5
		c0-0.2,0.1-0.4,0.1-0.5C30.3,16.5,30.1,16.5,30.1,16.7z M24,17.3c0.8,0.2,0.9-0.7,0.3-0.9C23.8,16.5,24,17,24,17.3z M22.3,17
		c0.7,0.6,1.2-0.5,0.4-0.7C22.6,16.6,22.3,16.6,22.3,17z M27.1,17.7c0.1-0.2,0.3-0.2,0.4-0.5C27.3,16.2,26.1,17.4,27.1,17.7z
		 M28.1,17.3c0.2,0.1,0.1,0.4,0.2,0.5c0.3,0,0.6,0.1,0.6-0.2c-0.1-0.3-0.2-0.5-0.5-0.7C28.3,17,28.2,17,28.1,17.3z M25.3,16.8
		c0,0.2,0.1,0.2,0,0.3c0.2,0.1,0.4,0.3,0.6,0.1C26,16.9,25.7,16.6,25.3,16.8z M18.6,16.9c0.1,0,0.1-0.1,0.2-0.1
		c0-0.3-0.2-0.5-0.4-0.7C18.2,16.4,18.2,16.8,18.6,16.9z M19.5,16.3c0,0.2-0.1,0.3-0.1,0.5c0.3,0,0.3,0.3,0.5,0.4
		C20.5,16.9,20.1,16.1,19.5,16.3z M20.8,16.9c0.2,0.1,0.3,0.3,0.6,0.3c0.1-0.2,0.2-0.2,0.3-0.3c-0.3-0.1-0.2-0.5-0.7-0.5
		C21,16.7,20.7,16.6,20.8,16.9z M32.2,18.3c0.1-0.2-0.1-0.7-0.3-0.9C31.7,17.7,31.8,18.2,32.2,18.3z M32.9,18.1
		c0.1-0.2,0.3-0.3,0.4-0.5c-0.1,0-0.1-0.1-0.2-0.2C32.9,17.7,32.8,17.9,32.9,18.1z M29.5,17.4c0,0.3,0,0.4,0.2,0.4
		C30.2,17.7,29.9,17,29.5,17.4z M17.5,17.1c0.1-0.2,0.2-0.3,0.2-0.5c-0.1,0-0.2-0.2-0.3-0.2C17.3,16.8,17.4,16.8,17.5,17.1z
		 M23,17.6c0.1,0.6,0.9,0.7,1,0c-0.2-0.1-0.3-0.4-0.6-0.5C23.3,17.4,23.1,17.4,23,17.6z M24.6,17.7c0.2,0.1,0.2,0.4,0.5,0.4
		c0.5-0.1,0.3-0.8-0.1-0.8C24.9,17.5,24.6,17.4,24.6,17.7z M26.1,17.6c0,0.3,0.4,0.3,0.3,0.6c0.2,0,0.2-0.2,0.4-0.2
		c-0.1-0.3-0.3-0.5-0.6-0.7C26.3,17.6,26.2,17.6,26.1,17.6z M27.4,18.1c0.3,0.1,0.3,0.4,0.6,0.5c0.1-0.1,0.1-0.3,0.3-0.3
		c-0.1-0.3-0.2-0.6-0.6-0.7C27.6,17.7,27.4,17.8,27.4,18.1z M20.2,17.7c0.3,0,0.3,0.3,0.6,0.3c0.1-0.1,0.1-0.3,0.2-0.3
		c-0.1-0.3-0.2-0.6-0.6-0.6C20.4,17.3,20.2,17.4,20.2,17.7z M21.6,17.6c0.1,0.2,0.3,0.3,0.5,0.5c0.1-0.1,0.2-0.3,0.3-0.4
		c-0.2-0.1-0.3-0.3-0.5-0.5C21.8,17.3,21.7,17.4,21.6,17.6z M28.8,18.3c0.3-0.1,0.2,0.2,0.4,0.2c0-0.2,0.2-0.2,0.2-0.4
		c-0.1-0.1-0.1-0.2-0.3-0.3C29.1,18.1,28.8,17.9,28.8,18.3z M18.8,17.2c0.1,0.2,0.3,0.4,0.5,0.7c0-0.2,0.3-0.1,0.2-0.4
		C19.5,17.2,19.1,16.8,18.8,17.2z M30.1,18.3c0.3,0,0.2,0.3,0.5,0.2c-0.1-0.2,0-0.5-0.3-0.6C30.2,18.1,30,18.1,30.1,18.3z
		 M17.8,17.8c0.3,0,0.4-0.3,0.5-0.5c-0.1,0-0.1-0.2-0.3-0.2C18,17.4,17.8,17.4,17.8,17.8z M25.4,18.4c0.2,0.2,0.3,0.5,0.6,0.5
		c0.1-0.1,0.1-0.2,0.2-0.3C26.1,18.3,25.6,17.7,25.4,18.4z M16.7,18.6c0.2-0.4,0.2-0.9,0-1.2C16.4,17.7,16.4,18.4,16.7,18.6z
		 M23.8,18.5c0.4,1,1.5-0.3,0.4-0.5C24.2,18.3,23.9,18.2,23.8,18.5z M18.6,18.7c0.2-0.1,0.2-0.3,0.4-0.4c-0.1-0.3-0.3-0.5-0.5-0.7
		C18.1,17.9,18.2,18.4,18.6,18.7z M26.8,18.6c0.3,0.1,0.4,0.4,0.7,0.3c0-0.3-0.3-0.5-0.5-0.6C27,18.5,26.7,18.4,26.8,18.6z
		 M29.4,18.9c0,0.1,0.2,0.1,0.1,0.3c0.3,0.1,0.5-0.1,0.6-0.4C30,18.5,29.5,18.6,29.4,18.9z M17.4,18.4c0.4,0,0.2-0.6,0.1-0.8
		C17.3,17.8,17.5,18,17.4,18.4z M20.9,18.4c0.1,0.2,0.2,0.4,0.5,0.5c0.2-0.1,0.3-0.2,0.4-0.4c-0.2-0.1-0.2-0.4-0.4-0.5
		C21.1,18,21,18.2,20.9,18.4z M22.3,18.2c0.1,0,0,0.2,0,0.3c0.3,0,0.3,0.2,0.5,0.3c0.1-0.2,0.3-0.1,0.2-0.4
		C23.1,18.1,22.5,17.9,22.3,18.2z M28.2,18.6c0,0.2,0,0.3-0.1,0.3c0.1,0.1,0.2,0.1,0.4,0.2c0-0.2,0.3-0.1,0.2-0.3
		C28.7,18.4,28.5,18.6,28.2,18.6z M19.6,18.3c0.3,0.1,0.4,0.3,0.7,0.1c-0.1-0.3-0.2-0.5-0.6-0.6C19.7,18.1,19.6,18.1,19.6,18.3z
		 M26.4,19c0,0.3,0.2,0.4,0,0.7c0.4,0.1,0.6-0.1,0.7-0.4C26.8,19.2,26.8,18.8,26.4,19z M30.1,19.6c0.1,0.1,0.4,0,0.4-0.2
		C30.3,19.3,30.1,19.4,30.1,19.6z M19.1,18.7c0,0.3,0.2,0.3,0.5,0.4C19.7,18.8,19.4,18.5,19.1,18.7z M20.5,18.8
		c-0.1,0.3,0.4,0.3,0.4,0.1C20.8,18.8,20.6,18.6,20.5,18.8z M24.7,19.4c0.1,0.2,0.6,0.3,0.7,0.1C25.3,19,24.9,19,24.7,19.4z
		 M35.3,27.5c-0.2,0.1-0.3,0.2-0.4,0.4c-0.6,2.8-2.6,4.9-2.5,7.2c0.3-0.3,0.5-0.7,0.9-0.8c0.7-1.6,1.4-3.3,2.2-5
		c0.8-1.8,2-3.5,2.4-5.4c0.3-1.3,0-2.8,0-3.5C37.1,23.2,36.2,25.1,35.3,27.5z M17.8,18.9c0,0.2,0.3,0.1,0.4,0.1
		C18.4,18.8,17.8,18.6,17.8,18.9z M31.2,35.3c-0.2-0.3-0.4-0.6-0.6-0.9c-0.1-1-0.8-1.5-0.9-2.4c-0.8-0.8-1.4-1.8-2-2.9
		c-0.5-0.8-0.8-1.6-1.2-2.5c-0.2-0.3-0.5-0.7-0.7-1c-0.8-1.4-2-2.9-2.8-4.4c-0.6-0.9-0.8-1.8-1.8-1.8c-0.2,0-0.2,0.2-0.3,0.3
		c0.4,0.7,0.5,1.2,1,1.7c-0.1,0.1,0,0.1,0,0.3c2.6,3.6,4.9,8.1,7.4,12c0.2,1,0.8,1.7,1.2,2.5c0.4-0.1,0.6,0.3,0.9,0.1
		C31.3,36.2,31.1,35.7,31.2,35.3z M31.3,32.2c-0.1,0-0.1-0.1-0.1-0.2c-0.1-0.1-0.1-0.1-0.2-0.2c-0.1-0.1-0.1-0.2,0-0.3
		c-0.9-1.6-1.8-3.2-2.6-4.8c-0.7-0.8-1.3-1.6-1.8-2.5c-1.3-1.3-1.8-3.2-3.1-4.4c0,0.1-0.1,0.1-0.1,0.1c-0.3-0.1-0.5-0.1-0.8,0
		c-0.1,0.5,0.4,0.5,0.2,0.9c0.1,0,0.3,0.1,0.3,0.2c0.8,1.8,2.2,2.9,2.9,4.7c0.3,0.4,0.9,0.9,0.8,1.4c0.4,0.2,0.5,0.6,0.6,1.1
		c0.5,0.2,0.5,0.8,0.7,1.2c0.1,0.2,0.6,0.3,0.4,0.7c1,1,1.6,2.3,2.3,3.5C31.2,33.3,31.2,32.8,31.3,32.2z M30.1,23.1
		c0.2,0.6,0.3,0.8,0.8,1c0.1-1.4-0.6-2.7-1.3-3.6c-0.2,0-0.1,0-0.3,0c-0.2,0.1-0.3,0.4-0.6,0.3c-0.2-0.3,0.2-0.3,0-0.5
		c-0.1-0.1-0.3-0.1-0.5-0.1C28.5,21.2,29.4,22.1,30.1,23.1z M26.1,23.2c2.2,2.4,3.4,4.8,5.1,7.6c-0.1-0.9,0.2-2.1,0-3
		c-0.1-0.5-0.5-0.8-0.8-1.2c-0.5-0.6-0.8-1.4-1.4-2c-0.9-1.2-2.1-2.5-2.7-3.9c-0.3-0.1-0.4-0.4-0.6-0.5c-0.5-0.1-1.1,0-1.4-0.2
		C24.7,21.2,25.6,22,26.1,23.2z M29.9,23.4c-0.8-1.1-1.6-2.1-2.2-3.2c-0.4,0-0.8,0-1.1,0.3c0.6,1.2,1.8,2.3,2.5,3.7
		c0.7,0.6,1,1.6,1.9,2.2c0.1-0.7,0-1.1-0.1-1.6C30.4,24.4,30.2,23.9,29.9,23.4z M25.1,30.8c-2-3.9-4.7-7.2-6.5-11.1
		c-0.5-0.2-0.6-0.1-1.2-0.1c0,0.4-0.1,0.7,0,0.9c0,0.2,0.4,0.1,0.4,0.4c0.3,2,1.7,3,2.3,4.8c0.1,0.1,0.3,0.1,0.3,0.2
		c0.6,1.3,1.5,2.5,2.2,3.7c0,0.1,0,0.2,0,0.3c0.6,0.6,1.2,1.4,1.3,2.2c1.1,1.3,1.7,2.8,2.7,4.1c0.7,0,1,0.1,1.6,0.1
		C27.4,34.3,26,32.6,25.1,30.8z M23.5,27.2c-0.1,0-0.1,0-0.1,0.1c0.5,0.5,1.2,1.2,1.2,2c0.4,0.3,0.7,1.2,0.9,1.3
		c1,2.1,2.5,3.8,3.6,5.8c0.2,0,0.5,0,0.7,0.1c-2.8-5.8-6.3-11.3-9.7-16.8c-0.3,0-0.5,0.2-0.6-0.1c-0.1,0.2,0.1,0.2,0,0.4
		c-0.1,0-0.2,0-0.3-0.1C20.3,22.5,21.8,25,23.5,27.2z M30.7,21.5c0.2-0.5,0.1-1.1-0.5-1C30.1,20.8,30.4,21.2,30.7,21.5z M17.6,24
		c0.2,0.6,0.6,1.2,0.8,1.7c0.6,1,1.2,2.2,1.7,3.2c0.3,0.5,0.6,0.9,0.6,1.4c0.2,0,0.2,0.1,0.3,0.2c0.8,2.1,2.3,3.4,3.3,5.4
		c0.4,0.1,1.1,0.2,1.5,0.1c-0.7-1.3-1.5-2.7-2.2-4c-0.2-0.4-0.6-0.8-0.7-1.3c-0.7-0.6-1-1.4-1.5-2.2c-0.5-0.8-0.9-1.6-1.3-2.3
		c-0.7-1.2-1.6-2.2-2.1-3.4c-0.4-0.2-0.5-0.8-0.7-1.1C17.4,22.5,17.6,23.2,17.6,24z M36.9,27.2c0,0.2,0,0.4,0,0.6
		c-0.6,0.6-0.8,2.2-1.5,2.8c0,0.8-0.6,1.4-0.8,2.2c0.4-0.1,0.7-0.6,1.1-1c0.5-0.7,1.2-1.4,1.6-2.2c0.1-0.2,0-0.5,0.1-0.7
		c0.2-0.5,0.7-1,0.8-1.5c0.2-0.6,0.1-2-0.1-2.5C37.8,25.7,37.2,26.6,36.9,27.2z M17.8,32.6c0.3,0.1,0.2-0.2,0.4-0.1
		c0.5,1.4,0.9,2.8,3.1,3c-0.8-1.9-2.2-3.6-3.1-5.5C18.2,29.8,18,30,18,29.9c0-0.4-0.5-0.7-0.2-1.1c0.6-0.1,0.6,0.7,0.7,1
		c0.2,0.4,0.7,0.6,0.5,1.2c0.9,1.4,1.6,2.6,2.4,4.1c0.5,0,0.4,0.5,0.7,0.5c0.7,0,1.1,0.3,1.6,0.2c-0.4-1.4-1.5-2.4-2.1-3.6
		c-0.7-1.4-1.6-2.8-2.5-4.4c-0.5-0.9-0.9-2-1.6-2.6C17.4,28.1,17.6,30.1,17.8,32.6z M3.4,27.9c-1.1-0.6-1.9,0.4-2.8,0.7
		c0,0.2,0,0.5-0.1,0.6c0.7,1,2.7,0.7,3.4,0C3.7,28.7,3.6,28.2,3.4,27.9z M17.1,30.4c-0.2,0,0-0.4-0.2-0.4
		C16.9,30.3,17,30.6,17.1,30.4z M19,35c-0.3-0.8-0.7-1.6-1.3-2.1C17.9,34,17.5,35.4,19,35z"/>
</g>
</svg>
