<?xml version="1.0" encoding="utf-8"?>
<!-- Generator: Adobe Illustrator 22.1.0, SVG Export Plug-In . SVG Version: 6.00 Build 0)  -->
<svg version="1.1" id="doodle" xmlns="http://www.w3.org/2000/svg" xmlns:xlink="http://www.w3.org/1999/xlink" x="0px" y="0px"
	 viewBox="0 0 231 192.7" style="enable-background:new 0 0 231 192.7;" xml:space="preserve">
<style type="text/css">
	.st0{fill-rule:evenodd;clip-rule:evenodd;fill:#FFFFFF;}
	.st1{fill-rule:evenodd;clip-rule:evenodd;fill:#E23D41;}
</style>
<g>
	<path class="st0" d="M204,26.2c0.8-0.4,1.2,0.9,2.2,0.7c-0.4,0.8,0.9,0.8,1.1,1.4C206.2,28.1,204.9,27,204,26.2z"/>
	<path class="st0" d="M200.6,27.6c0.1,0,0.2,0,0.3,0c2.2,1.3,4.4,2.6,6.7,3.9c0.2,0.5-0.5,0.2-0.4,0.6
		C204.9,30.7,202.5,29.4,200.6,27.6z"/>
	<path class="st0" d="M206.2,42.3c0.3-0.1,0.4-0.4,0.8-0.3c0.2,0.4,0.6,0.5,0.4,1c-2.4,0-4.1-2.1-6-3.2c-2.1-1.1-4.6-2.2-7-3.6
		c-0.2-0.5,0.5-0.1,0.2-0.6C198.9,37.4,202.4,39.6,206.2,42.3z"/>
	<path class="st0" d="M151.1,55.7c0.7,0.3,1.3,0.8,1.7,1.5c1.5,0.5,2.7,1.4,3.7,2.4c2.2,0.5,3.4,2.1,5.6,2.7c0,0.1,0,0.3,0,0.4
		c1.7,0.1,2.7,2.1,4.9,2.1c2.1,1.4,4.5,2.7,7.3,3.4c-0.1,0.7,0.7,0.3,0.9,0.7c2.8,1.2,5.7,3.5,8.8,4.9c0.2,0.3,0.3,0.5,0.5,0.8
		c0.9,0.2,2.9,1.2,3.9,2.2c1,0.2,2,0.6,2.5,1.4c5.6,2,9.3,6,14.6,8.3c0.1,0.1,0.2,0.3,0.2,0.6c0.7-0.3,0.5,0.1,1.2,0.1
		c1.2,1.3,3.9,1,4.8,2.7c-0.2,0-0.3,0.1-0.3,0.3c-1.1-0.1-3-0.7-3.8-1.6c-3.8-0.9-6.4-3.6-9.4-5.6c-1.7-1.1-3.9-2.3-5.7-3.2
		c-5.2-2.8-10.3-5.7-15.1-8.9c-5.8-2.4-11.1-5.4-16.6-8.1c-0.1-0.3-0.5-0.2-0.5-0.7c-2-0.2-4-2.1-5.8-3.2
		C153.1,57.9,151,57.6,151.1,55.7z"/>
	<path class="st0" d="M124.6,143.9c1.1-3.7,1.5-7.7,1.9-12.8c0.2-2.3,0.6-4.7,1.3-6.7c-0.3-1.8,0.4-3.4,0.8-5.1c0.7-2.9,0.7-5.9,1-9
		c0.1-1.4,0.6-2.7,0.7-4.1c0.4-4.9,1-10,1.8-14.8c0.2-1.1,0.7-2.2,0.8-3.4c0.1-1.5,0.1-2.6,0.4-4.3c0.6-2.6,0.9-6,1.7-8.9
		c0-0.5-0.5-0.3-0.3-0.8c1-1.4,3.1-1.8,3.2-4.1c0.2,0,0.5,0,0.7,0c2.6-2.7,4.4-6.1,7.1-8.6c1-1.7,1.8-3.6,3.4-4.8
		c0.8-2.5,3.3-3.5,3.9-6.3c1.2-0.9,2.1-2.1,2.6-3.6c2.5-2,3.6-5.4,6.1-7.4c0.2-1,1.2-1.3,1.4-2.2c0.7,0,0.7,0.1,1.3-0.1
		c1.6,3.9,3.4,7.7,5.7,11c0,1.7,2,3.5,2.9,5c1,1.7,1.8,3.7,3.3,4.8c0.9-0.8,1.6-1.7,2.1-2.9c1.4-1.4,2.5-3.1,3.4-5
		c7.8-9.3,14.3-19.8,22.4-28.7c0.3-1.1,0.7-1.9,1.9-2c-0.1,0.9-0.4,1.1-0.3,1.9c-0.4,0.3-0.9,0.5-1.4,0.8c-2,3-4.6,5.4-6.5,8.5
		c2.7,2,5.9,3.6,8.4,5.8c0.4-0.3,1.5,0.1,1.3,0.3c-0.6,1.2-1.7,0.1-2.5-0.4c-2.3-1.4-5.3-3.7-7.4-5.3c-0.8,0.3-1,1.1-1.5,1.7
		c2.4,2,5.1,3.5,7.9,5c0,0.2,0,0.4,0,0.6c1-0.1,1.4,0.5,1.9,1c0.5,0,1.2-0.2,1.4,0c-0.4,1.4-1.9-0.1-2.7-0.1
		c-0.2-0.7-1.7-0.7-1.5-1.3c-2.5-0.9-5-3.1-7.6-4.4c-2.1,2.4-4.2,4.9-5.8,7.7c1,0.1,2.3,1.5,3.7,2.3c0.6,0.3,1.7,0.2,1.9,1.2
		c2.8,1.5,7.6,3.3,10.4,5.7c0.4-0.1,0.5,0.1,0.9,0.1c0.3,1.5,3.2,0.8,3,2.2c-1.2,0.3-2.3-0.8-3.2-1.4c-1-0.6-2-1.4-3-2
		c-2.7-1.4-5.7-2.4-8-4.2c-2-0.7-3.6-1.8-5.3-2.7c-0.4-0.4-0.1-0.6-0.5-1c-1.2,1.1-2.1,2.5-2.9,3.9c0.9,1.4,2.9,1.5,3.8,2.8
		c2.7,0.5,4,2.7,6.7,3c0.1,0.9,0.8,0.4,1.3,0.6c0.1,0.1,0.1,0.5,0.3,0.6c0.6,0.2,0.7,0,1.3,0.5c0.4,0.3,0.5,0.6,1.6,0.5
		c-0.1,0.8,1.2,0.1,1.1,0.9c1.2-0.1,1.9,0.5,2.5,1.1c0.3,0,0.7,0,1-0.1c0.1,0.9,1.4,0.5,1.7,1.2c1,0.3,3.4,0.5,3.4,1.8
		c-1.3,0.2-2.3-0.7-3.4-1.2c-2-1-3.7-1.6-5.8-2.5c-5.3-2.5-11-5.4-16.2-8.2c-1.3,1-2.1,2.6-3.1,3.9c2.3,1.4,4.8,1.9,7,3.3
		c2.2,0.3,3.8,1.2,5,2.3c0.5-0.1,0.9,0,1.3,0.1c0.4,0.2,0,0.4,0.3,0.7c1.7,0.3,2.7,0.9,3.9,1.9c1.9,0.6,3.8,1.1,5.2,2.3
		c1.4,0.6,4.1,0.6,4.3,2c-3.9-0.2-6.7-3-10.3-4.1c-0.1-0.3-0.7-0.3-0.3-0.7c-0.3,0.3-0.4,0-0.9,0.1c-5.1-2.9-10.3-4.7-16-6.9
		c-0.9,0.5-1.3,1.4-1.7,2.3c2.7,2.5,6.6,3.2,9,5.3c1.6,0.1,2.2,1.3,3.8,1.3c0.8,1.2,2.5,1.3,3.9,1.8c1.2,1.5,3.3,1.1,4.5,2.7
		c1.5,0.2,2.6,1.3,4,2c0.5-0.1,0.1,0.1,0.2,0.4c1.3-0.2,1.2,1.1,3.1,0.7c0.2,0.3,0.4,0.5,0.6,0.8c0,0.3-0.5,0.1-0.4,0.6
		c-0.9-0.1-1.4-0.4-2.1-1c-0.2,0-0.4,0-0.6,0c-7.8-4.9-16.6-8.7-25.1-12.8c-0.3-0.4-0.7-0.8-1.2-1.1c-0.9,1.2-2,2.2-2.8,3.5
		c4.3,3.2,10.1,4.7,14.6,7.7c0.5-0.1,0.5,0.2,1,0.1c2.5,2.1,5.9,3.6,9.1,4.7c0.4,1,2.5,0.7,3,2.1c0.8-0.1,1.6,0.3,2.1,1
		c1-0.3,2.3,0.3,2.8,1.1c1.1-0.2,3.2,0.2,3,1.5c-4.7-0.7-8.4-3.8-12.4-5.7c-1.4-0.6-2.7-1-4-1.7c-6-3.5-12.7-6.6-19.3-9.8
		c-0.8,0.5-1.1,1.4-2.2,1.6c-0.6-0.9-0.6-1.9-1.2-2.7c-1.1-1.4-3.9-2.1-5.9-2.9c-2.2-0.9-4.2-1.9-5.7-3.1c-2.3-1-4.2-2.5-6.4-3.6
		c-1,0.5-1.3,1.7-2,2.4c0.5,1,2.2,0.8,2.7,1.8c2.8,0.7,4.9,2.2,7.1,3.6c1.2-0.3,2.3,0.8,3.1,1.5c2.2,0.3,3.3,1.9,5.5,2.2
		c2.6,1.4,5.4,2.7,8.3,3.8c-0.1,1,0.7,0,0.6,0.8c3.7,1.2,7.1,3.7,11.1,5c1.1,1.4,3.7,1.6,4.9,3.1c1.1,0.3,2.2,0.5,2.8,1.4
		c0.8-0.1,1.1,0.4,1.8,0.5c0.3,0.3,0.6,0.6,0.8,1c0.5,0,0.8,0.2,1.3,0.2c0.2,0.3,0.6,0.2,0.6,0.7c0.7-0.1,0.9,0.5,1.6,0.3
		c1,1.4,3.4,1.1,4.5,2.3c0,0.4-0.4,0.4-0.5,0.8c-2.8-0.9-4.6-2-6.8-3.4c-5.6-2.3-10.4-5.5-15.7-8c-11.3-5.5-22.5-11.1-34-16.5
		c-0.5,0.2-0.8,0.6-1.1,1.1c2.3,3.1,6,4.6,9.6,6.3c0.1,0.1,0.2,0.3,0.2,0.6c0.4,0,0.7-0.1,0.9,0.1c1.3,0.9,2.5,1.9,4.3,2.3
		c0,0.3,0.4,0.2,0.3,0.6c2.3,0.5,4,2.4,6.1,2.6c0.9,0.9,2,1.6,3.6,1.8c1.3,1,2.8,2,4.7,2.3c1.5,1.5,4.1,1.9,5.5,3.5
		c0.6,0,0.9,0.2,1.4,0.2c0.1,0.8,2.4,0.9,3,2.1c2.3,0.8,4.3,1.9,6.1,3.3c0.9-0.2,1.1,0.5,1.8,0.6c0.4,0.7,1.9,1.3,3,1.7
		c0.2,0.3,0.7,0.3,0.8,0.8c1.2,0.2,2.1,0.7,2.8,1.4c0.4,0,0.7-0.1,0.9,0.1c1,0.9,2.5,1.1,3.3,2.2c-0.2,0.1-0.3,0.2-0.3,0.4
		c-1.7,0-3.4-1.7-4.9-2.6c-0.7,0.1-0.8-0.4-1.5-0.3c-16.3-10.3-34.7-18-51.4-27.9c-0.2-0.5-0.3-1-0.5-1.4c-1.9,1.4-2.7,3.6-4.1,5.4
		c0.9,0.8,1.6,1.6,2.9,2c0.2,0.2,0.2,0.3,0,0.6c0.8,0.2,1.5,0.6,1.7,1c0.6,0.1,1,0.4,1.6,0.5c0.5,1,1.9,1.1,2.7,2.1
		c3.2,0.7,5,2.9,8.3,3.5c0.6,0.7,1.5,1.2,2.5,1.4c0.6,0.8,1.9,1.5,2.7,1.5c0.6,1,2.3,0.8,2.8,1.8c1-0.1,1.1,0.8,2.2,0.6
		c0,0.3,0.2,0.3,0.2,0.6c0.5-0.1,0.7,0.1,1,0.1c0.1,0.1,0.2,0.3,0.2,0.6c1.1,0.1,1.9,0.7,2.5,1.4c1.1,0.4,2.2,0.7,3,1.5
		c-0.1,0-0.4-0.2-0.3-0.3c-0.3,0.5,4.2,1.7,4.5,2.6c1.3,0,2.8,1,3.8,1.8c0.7,0.2,1.6,0.1,1.8,0.9c1.9,0.3,2.3,1.4,3.7,1.8
		c0.2,0.2,0.3,0.5,0.5,0.8c1.1-0.1,2.3,1.1,3.5,1.4c0.1,0.2,0.2,0.4,0.2,0.7c3.9,1.3,7.7,3.8,11.2,6c-1,1.4-2.3-0.3-3.2-0.9
		c-1.2-0.8-2.5-1.3-3.6-1.8c-1.8-1.8-4.8-2.2-6.6-4c-4.5-2.3-8.6-4.9-13.5-6.7c0-0.5-0.7-0.2-0.6-0.8c-3.1-1.3-5.9-3.2-9.1-4.9
		c-3-1.6-6.1-3.1-9.2-4.7c-2.8-1.5-6.1-2.8-9.3-4.6c-1.9-1.1-4.2-2.6-6.6-4c-0.6-0.3-1.9-1.5-2-1.5c-0.7,0.1-1.1,1.8-1.7,2.3
		c1.7,1.6,3.6,2.9,5.8,3.8c-0.1,0.1-0.1,0.2-0.1,0.4c2.1,0.5,3.9,1.4,5.3,2.7c1.2-0.3,1.9,1.2,3.4,1.1c0,0.3,0.2,0.3,0.2,0.6
		c2.3,0.5,4.5,2.5,7.1,3.4c0,0.5,1,0.3,0.6,0.8c1.3,0,2.2,0.4,2.8,1.3c1.9,0,2.8,1.2,4.4,1.6c0.5-0.1,0.1,0.1,0.2,0.4
		c0.5-0.1,0.8,0,1.2,0.1c1.4,1.2,3.1,1.5,4.2,2.9c1.2,0.3,1.8,0.6,2.5,1.6c1,0.1,1.8,0.6,2.4,1.3c1.2-0.4,1.9,0.8,2.8,1.3
		c0.3,0.1,0.7,0,1,0.1c0.4,0.2,0.9,0.7,1.4,0.9c2.5,1.4,5.1,2.9,7.6,4.5c3.8,1.9,7.6,3.8,11.2,6c0.5-0.1,0.5,0.2,1,0.1
		c0.2,0.5,0.8,0.7,0.8,1.4c-1.7,0.1-3.3-1.2-4.7-2c-3.8-2.2-7.5-3.9-11.3-6.2c-2.2-1.3-4.3-2.7-6.6-3.9c-2.3-1.2-4.7-2.2-7-3.6
		c-2.2-1.3-4.3-2.7-6.6-3.9c-2.3-1.3-4.8-2.1-7.2-3.3c-2.3-1.1-4.4-2.5-6.7-3.7c-4.5-2.5-9.6-3.8-13.7-7.2c-1.2-0.2-1.7-1.1-2.7-1.4
		c-0.9,0.5-1.5,1.3-1.9,2.3c1.8,1.7,4,2.9,6,4.4c0.2,0.2,0.6,0.1,0.9,0.2c1.1,1.7,3.6,1.4,4.8,3.1c0.5-0.1,0.7,0.1,1,0.1
		c4.1,2.8,9,4.5,13.8,7c0.1,0.2,0.2,0.4,0.2,0.7c1.3,0.1,2.4,1,2.8,1.7c1.3,0.2,2.2,0.7,2.8,1.5c1.5,0.6,3.3,0.9,4.2,2.2
		c0.5-0.1,0.6,0.2,1,0.1c0.1,0.1,0.2,0.3,0.2,0.6c1,0.1,2.5,1.1,3,1.8c0.8,0.1,1.3,0.5,1.5,0.9c0.9,0,1.6,0.3,1.8,1.2
		c1.4,0.3,3,1.1,3.6,1.9c2.7,0.6,4.7,2.6,7,3.9c1.2,0.7,2.4,1.3,3.6,1.9c1.1,0.6,2.4,1.1,3.3,2.1c1.5,0.1,2,1,3.4,1.8
		c1.4,0.8,2.8,0.5,3.1,2c-2.7,0.3-4.3-1.9-6.4-3c-2.6-1.5-5.7-2.7-8.5-4.2c-1.5-1.4-3.2-2.5-5.2-3.3c-15.5-10-32.8-17.8-48.6-27.5
		c-0.9,0.6-1.3,1.6-2,2.4c1.3,1,2.4,2.2,4.2,2.6c0.6,0.8,1.4,1.2,2.5,1.4c0,0.2,0,0.4,0,0.6c0.3,0.1,0.8-0.2,0.9,0.1
		c2,1.2,4.6,3,7.4,3.8c0,0.4,0.3,0.5,0.5,0.7c0.2,0.2,0.6,0.1,1,0.1c0.5,0.7,1.3,1.1,2.1,1c2.5,2,5.6,2.4,7.9,4.5
		c0.6,0.1,1.1,0.2,1.6,0.3c0.5,0.9,1.7,0.9,2.3,1.7c2.4,0.8,4.6,1.9,6.4,3.5c0.8-0.4,1.3,0.7,1.9,1c4.3,1,7,3.8,10.7,5.5
		c0.2,0.3,0.5,0.4,0.6,0.8c1.2,0.5,2.4,0.7,2.8,1.7c3.7,0.9,6.2,3.3,9.1,5.2c3.3,1.5,7.4,3.6,10.6,5.8c-0.7,1.2-1.9,0.1-2.5-0.3
		c-4-2.4-8.2-4.6-12.1-7.3c-1.6-1.2-3.4-1.6-5.2-2.5c-2.2-1.2-4.3-2.9-6.4-4.2c-2.3-1.3-4.6-2.3-6.7-3.7c-5.8-2.8-11.5-5.9-17.2-9
		c-2.9-1.5-5.8-3-8.6-4.5c-1.4-0.8-2.8-1.7-4.2-2.5c-3.4-1.9-7-3.5-10.3-5.5c-0.7,0.2-0.7,1.1-1.2,1.5c0.3,0.6,0.9,0.8,1.5,0.9
		c0.9,1.7,3.2,1.7,4.2,3.2c2.1,0.2,2.5,2.1,4.7,2.1c-0.1,0.6,1,0.4,0.6,0.8c0.3,0.1,0.5,0.1,1.2,0.1c0.1,0.8,1,0.8,1.8,0.9
		c1,1.4,3.2,1.4,4.2,2.7c0.9-0.2,1,0.4,1.8,0.6c0.3-0.1,0.3,0.2,0.3,0.4c1.4,0.1,1.1,1.1,2.5,1c-0.2,0.2,0,0.2,0,0.4
		c1.4,0.1,2.5,0.7,2.8,1.5c1.1-0.3,1.2,0.6,2.3,0.7c0.7,1.6,3.1,1.3,3.8,2.9c1.4,0.1,2.3,0.8,3,1.8c1.5,0.3,2.6,0.9,3.4,1.9
		c2.1,0,3,2.1,5,2.3c1,1,2.6,1.4,3.5,2.5c1.5,0,2,1,3.2,1.2c0.1,0.4,0.3,0.7,0.6,0.8c3,0.9,6,3.7,9.1,5.3c0.5,0.2,1,0.2,1.5,0.5
		c1.1,0.6,1.9,1.4,3.1,2.1c3.4,2,7.7,3.5,10.7,6.2c-0.4,0.7-1.5,0.6-1.7-0.3c-6.6-3.2-13-6.7-18.8-10.9c-3.4-2-7.1-3.5-10.4-5.7
		c-3.3-2.1-6.9-3.6-10-6c-5.7-3.3-11.5-6.5-17.3-9.8c-2.9-1.7-6-2.9-8.9-4.6c-2.8-1.7-5.6-3.3-8.4-5.1c-0.5,0.2-0.7,0.7-0.8,1.2
		c4.9,4.8,11.8,7.2,17.2,11.1c0.5-0.1,0.6,0.2,1,0.1c0.5,1.3,2.7,0.8,3.2,2.2c1.3,0.1,1.5,1.1,3,1.3c0,0.5,0.6,0.2,0.5,0.8
		c1.4,0.2,2,1,3.1,1.2c0.6,0.7,2.2,1.4,3.4,1.8c2.4,1.4,4.6,3,7.3,4.1c-0.1,0.1-0.1,0.2-0.1,0.4c1.4,0.5,3,0.8,3.9,1.9
		c0.2,0.1,0.7-0.2,0.7,0.1c0.5,0,0.6,0.4,0.9,0.7c4.4,1.4,7.1,4.8,11.6,6c0,0.5,0.9,0.1,0.8,0.8c1.3,0.3,2.3,0.9,3,1.8
		c3.2,0.7,5,3.1,7.9,4.2c0.1,0.1,0.2,0.3,0.2,0.6c1.5,0.2,2.7,1.4,4,2c0.8,0.4,1.7,0.6,2.5,1c0.2,0.1,0.6,0.6,0.9,0.8
		c0.8,0.4,1.4,0.3,1.7,1.3c-0.8,0.9-1.5-0.2-2.2-0.6c-1.3-0.7-3.3-1.1-4.2-2.3c-1.8-1-3.8-1.8-5.4-3.1c-0.1-0.1-0.4,0-0.3-0.4
		c-2.7-1.2-5.2-2.8-7.7-4.4c-2.9-1.8-6.6-2.7-8.9-5c-6-2.8-11.5-6.4-17.3-9.5c-2.6-1.4-5.3-2.6-7.7-4.1c-7.6-4.7-16.1-8.9-23.5-14.2
		c-0.8,0.4-1.2,1.1-1.8,1.7c0.3,0.4,1.1,0.8,0.9,1.2c1.9,0.7,2.9,1.7,4.3,2.7c0.1,0.1,0.4,0,0.6,0.1c0.1,0.1,0.1,0.5,0.2,0.6
		c0.2,0.1,0.5-0.1,0.7,0c0.1,0-0.4,0.2-0.3,0.3c0.1,0.1,1.5,0.3,1.3,0.9c0.7-0.2,1.3,0.6,2.1,0.9c1.4,0.9,2.7,2,4.6,2.3
		c-0.5,0.7,0.7,0.3,0.6,1c1.4,0.2,2.1,1.2,3.4,1.5c0.4,0.5,1.2,0.6,1.5,1.3c1.3,0,1.8,0.9,3,1.1c1.9,2,4.7,2.4,6.6,4.2
		c1.9-0.1,2.4,1.4,4,1.8c0.1,0.2,0.5,0.1,0.3,0.6c0.5-0.1,0.7,0.1,1,0.1c0.8,0.6,1.8,1.7,2.8,1.5c-0.1,0.5,0,0.4,0.2,0.7
		c0.5-0.2,0.7,0.6,1,0.1c4.4,2.3,8.5,4.8,13.1,6.9c0.3,0.1,0.3,0.4,0.5,0.7c3.3,1,5.6,3.1,8.6,4.3c0.1,0.1,0.2,0.3,0.2,0.6
		c1,0.1,2.3,1.1,3,2c4,1.6,7.3,4.1,11.2,5.9c0,0.3,0.1,0.4,0.2,0.6c0.4,0,0.6,0,1.2,0.2c0.1,0.1,0.2,0.3,0.2,0.6
		c1.3,0.2,2.5,0.5,3.3,1.4c-0.2,0.3-0.3,0.1-0.1,0.6c-1.1,0-2-0.4-2.9-0.8c-1.9-1-3.7-2.3-5.5-3.4c-1.8-1.1-3.8-2-5.7-3.1
		c-2.8-1.6-5.3-3.6-8.2-5.1c-6.7-3.5-13.8-7.6-20.6-11.3c-1.2-0.3-2.2-0.9-3-1.7c-4.5-2.1-8.8-4.5-12.8-7.2
		c-7.4-3.9-14.8-7.9-21.4-12.7c-0.5,0.7-0.4,2-1,2.6c0.4,0.2,0.7,0.4,1.2,0.5c0.9,0.7,1.8,1.5,2.7,2.3c1,0.8,2.4,1.1,3.2,2.2
		c3.6,1.8,6.4,3.8,9.4,6c5,2.6,9.2,5.1,13.9,8.2c3.4,0.7,4.9,2.5,8,3.5c0.2,0.4,0.8,0.4,0.9,0.9c9.5,3.9,17.4,9.6,26.2,14.3
		c0,0.7,0.5,0.6,0.8,1c1-0.1,2.6,0.8,3.4,1.8c2.8,1.5,5.6,2.8,8.1,4.7c1.2,0.4,3,0.3,3.1,2c-1.8,0.4-2.8-1.3-4.4-1.6
		c-0.2-0.3-0.4-0.5-0.6-0.8c-3-1.1-5.3-2.8-8-4.4c-6.5-3.6-13.2-7.7-19.8-11.5c-1.1-0.6-2.1-1.2-3.3-1.7c-1.4-0.6-3-1.3-4-2.3
		c-11.3-5.3-21.8-11.3-31.6-18.2c-2.8-1.5-5.5-3-7.7-5.3c-0.6,0.1-0.8-0.3-1.2-0.5c-0.6,0.4-0.2,1.6-0.4,2.3
		c2.8,3.1,6.8,5.3,10.8,7.4c0,0.3-0.2,0.3-0.1,0.6c1,0.3,1.9,0.3,2.6,1c0.1,0.1,0.1,0.5,0.2,0.6c0.8,0.6,1.9,0.7,3,1.2
		c0.8,0.4,2,1.6,3,2.1c0.5,0.2,1.1,0.1,1.3,0.8c0.8,0.1,2.2,0.6,2.7,1.6c1.4,0.2,3.3,1.1,4.3,2.3c2.8,1.6,5.7,3.1,8.2,4.9
		c1.1,0.1,1.6,0.7,2.2,1.3c0.6,0,1,0.2,1.5,0.3c0.3,0.3,0,0.2,0,0.6c0.1-0.1,0.1-0.3,0.4-0.3c1,0.9,2.6,1.2,3.6,2.2
		c5.2,1.9,9.3,5.1,14,7.6c0.1,0.1,0.2,0.3,0.2,0.6c0.5-0.1,0.7,0.1,1,0.1c3.6,2.6,7.6,4.9,11.5,7.2c0.2,0.2,0.2,0.5,0.3,0.7
		c1.8,0.4,3.6,2.1,5.2,3.3c1,0,2.2,0.9,2.8,1.7c1.4,0.9,4.1,1.1,4.3,2.9c-1.9-0.4-3.6-1.4-5.2-2.4c-6.7-4.4-13.4-8.4-19.9-12.8
		c-6-3.3-11.8-6.8-18.2-9.8c-0.1-0.5-0.6-0.4-0.8-0.8c-2.2-0.7-3.7-2.2-5.9-2.9c-5.1-3.6-11-6.4-16.3-9.9c-4.2-1.9-8.1-4.6-12.1-7
		c-1.9-1.1-3.7-2.2-5-3.8c-0.7,1-0.5,3.4-0.9,4.4c3.1,2,6.5,3.7,9.2,6.2c2.9,0.6,4.4,2.9,7.3,3.6c0.2,0.4,0.8,0.4,0.9,0.9
		c2.6,0.8,4.4,2.3,6.7,3.6c1.2,0.7,2.6,1,3.2,2.1c2.2,0.8,3.7,1.5,5.4,3c2.6,0.6,4.8,2.8,7.3,3.7c0.1,0.2-0.1,0.3-0.1,0.4
		c8.4,3.4,15.5,8.3,23.3,12.3c0.7,0.9,2,1,2.6,2c1.4,0.3,2.4,1.1,3.3,1.9c4.2,1.6,7.4,4.2,11,6.2c1.3,0.7,3.1,1.1,3.9,2.6
		c-0.8,0.7-2.1-0.1-2.5-0.8c-11.3-6-22.1-13.5-33.7-19.3c-4.7-2.3-9-5.1-13.6-7.6c-4.5-2.5-9.2-4.8-13.4-7.8c-0.5,0-0.7-0.4-1.2-0.4
		c-6.5-3.7-12.8-7.7-19.3-11.4c-0.2,0.9-0.9,1.9-0.5,2.8c0.8,1.1,2.4,1.3,3,2.5c1.5,0.6,2.9,1.3,3.9,2.5c2,0.5,2.8,1.7,4.9,2.3
		c0.8,1.4,3.1,1.1,3.8,2.6c0.3,0,0.3-0.3,0.7-0.2c0,0.2,0,0.4,0,0.6c1.2,0.1,1.6,1.1,2.9,1.1c1,1,2.3,1.7,3.7,2.2
		c0.7,0.5,1.3,1.7,2.2,1.4c0.9,1.7,3.5,1.5,4.5,3c2.2,0.9,4.3,2,6,3.5c4.1,2,8.1,4.3,11.9,6.7c0.6,0.4,2,0.8,2.4,1.7
		c1.2,0.3,2.1,0.7,2.7,1.7c6.3,3,12.7,7.1,18.7,11c0.3,0,0.4,0.2,0.9,0.1c2.8,2.3,6.6,3.7,9.6,5.9c0.8-0.1,2.7,0.5,2.4,1.7
		c-4.5-1.2-8.1-4.1-12.1-6.4c-0.3-0.2-0.8-0.2-1.2-0.4c-1.8-1-3.4-2.5-5.1-3.6c-1.9-1.2-4.1-2-6-3.2c-1.9-1.2-3.6-2.7-5.5-3.7
		c-0.4-0.2-0.9-0.1-1.3-0.3c-3-1.8-5.9-3.9-8.8-5.8c-13.1-6.8-24.6-14.9-37.9-21.7c-2-1.6-4.4-2.8-6.6-4.3c-0.5,1.4-0.5,2.4,0.5,3.1
		c0.4,0.3,1.1,0.4,1.6,0.8c0.1,0.1,0.1,0.5,0.2,0.6c0.1,0.1,0.5-0.1,0.7,0.1c0.1,0.1,0.1,0.5,0.2,0.6c0.2,0.1,0.5-0.2,0.7,0
		c0.2,0.1,0.5,0.6,0.8,0.8c0.3,0.2,0.9,0.2,1,0.4c0.2,0.2,0.1,0.6,0.3,0.7c0.6,0.3,1.1,0,1.3,0.8c2.8,1.2,5.4,3.1,8.2,3.9
		c-0.2,0.8,1.1,1,1.6,1c0.6,1,2.1,1,2.6,2.1c0.6-0.4,0.5,0.3,1.2,0.2c0.1,0.1,0.2,0.3,0.2,0.6c2,0.6,3.4,1.8,5.3,2.5
		c0,0.4,0.6,0.1,0.5,0.7c2.5,0.8,4.5,2.3,6.7,3.6c1.6,0.9,3.2,1.5,4.8,2.6c3.4,1.7,6.8,3.4,9.7,5.7c5.5,2.8,11,5.6,15.7,9.3
		c4,2.4,8.5,4.3,12,7.3c3,1.2,5.6,2.8,7.9,4.7c0.7,0.4,1.7,0.3,1.8,1.3c-1.7,0.4-3.3-1.2-4.9-2.1c-2.7-1.5-5.3-3.6-8.1-5.2
		c-3.7-2.2-7.4-4.2-11.1-6.6c-7.2-4.7-15.2-8.3-22.1-13.2c-6.3-2.4-11.4-6.1-17-9.3c-2.3-1-4.3-2.5-6.4-3.8
		c-2.1-1.3-4.4-2.2-6.4-3.6c-3.5-1.6-6.3-4.1-9.7-5.8c-2.4,3.1,2.2,4.3,3.5,6c1.7,0.7,3.1,1.7,5,2.6c2.3,1,3.7,2,5.7,3.2
		c2.2,1.3,5.4,2.3,6.7,3.9c10.6,5.6,21,11.5,30.9,17.9c9.1,5.1,17.1,11.4,26.7,16c1.8,1.9,5.3,2.7,6.3,4.9c-1.1,0.5-2-0.5-2.5-1.1
		c-2.2-1-4-2.6-6-3.8c-1.3-0.1-1.7-1.1-3-1.2c-0.4-0.8-1.5-0.9-2-1.7c-2.6-1.2-5-2.6-7.2-4.3c-4.1-1.9-7.5-4.9-11.4-7.2
		c-3.9-2.2-7.8-4.3-11.4-7c-1.3-0.5-2.6-1.2-3.9-1.9c-2.1-1.2-4-2.6-6.3-3.8c-4.4-2.4-8.9-5.2-13.4-7.6c-1.9-1-3.5-2.1-5.2-3.1
		c-2.8-1.7-6.3-3-9.1-4.7c-1.6-1-2.9-2.2-4.5-3c-0.5,0.5-0.2,1.7-0.6,2.3c1.2,1,2.5,1.9,3.5,3.2c1.2,0.2,1.8,1.1,2.7,1.7
		c0.5-0.1,0.1,0.1,0.2,0.4c3.3,0.7,4.2,3.3,7.3,4.3c0.3,0.3-0.1,0.3,0.2,0.6c2.3,0.9,5,2.2,6.1,3.9c0.4,0.1,0.8,0.1,1,0.4
		c1.1,0.7,2.4,1.2,3.3,2.1c1.1,0.3,2.2,0.6,2.7,1.6c1.5,0.3,2.8,0.8,3.4,2.1c0.1-0.1,0.2-0.4,0.3-0.2c0.8,1,2.5,1,3,2.4
		c0.4-0.1,0.5,0.2,1,0.1c1.8,1.8,5,2.3,7,3.9c0.2,0.1,0.3,0.7,0.5,0.8c0.4,0.3,1.3,0.4,1.8,0.7c6.2,3.9,13.1,7.7,19.3,11.8
		c2.5,1.7,5.2,3.2,7.4,5c2.7,1.5,5.5,2.8,7.8,4.7c2.7,0.8,4.2,2.8,7,3.4c0.1,0.5,0.7,0.5,0.6,1.1c0.7,0,0.9,0,1.3,0.1
		c-0.2-0.7-0.4-2.3-0.1-3.4c2.1-0.4,4.2,1,6.4,1.3c2.1,0.3,4.5-0.1,5.7,1.6c-1.8,1.9-7.3,0.8-8.9,2.6c-0.3,0.1-0.6,0-0.7-0.1
		c-1,0.6-1.8,0.9-2.8,0.8c-0.4-0.6,0.3-1.2,0.2-1.6c-1.6-0.4-4.6-0.6-6.3,0.4c-0.9-0.6-3.1-0.6-4.5-0.1c0.3,1.9,1.4,4.2-0.4,5.2
		c-1.2-1.1-0.9-3.7-1.6-5.2c-0.6,0,0.2,0.6-0.4,0.7c-1.7-0.5-3.5,0-4.8-0.4c-10.3,1.7-18,2-27,2.6c0,2.3,1.1,2.7,0.7,4.7
		c-1,0-1,0.4-1.9,0.3c-0.8-1.4-0.9-3-1-4.7c-2.9,0-5.5-0.3-7.9,0.5c-3.6,0.1-7.7,0.5-11.6,1.2c-0.4,0.1-0.2,0.6-0.5,0.8
		c-0.8,0.1-1.2-0.4-1.8-0.6c-5.2,0.6-9.3,1.4-13.6,1.3c-0.3,1.7,0.9,4.1,0.2,5.2c-1-0.3-1.5-1.4-2.3-2c0.7-1.1,0.6-1.5,0.4-2.9
		c-7.9,1.1-15.8,0.7-23.4,2.4c-2.6,0.6-5.7,0.7-8.3,1.1c-1,0.2-1.9,0.8-2.7,0.9c-0.3,0-0.7-0.1-1-0.1c0,1.3,0.2,2.8,0,4.2
		c-0.6,0.4-0.9-0.5-1.3-0.9c-0.7-0.6-1.8-1.2-1-2.8c-0.7-0.4-1.5,0.2-1.7,0.7c-2.9-1-7.8,1.1-11.6,0.9c0.1,0.5-1.4,0.2-1.5,0.8
		c-0.6,0.1-0.6-0.4-1.2-0.4c-3.6,0.8-9.1,1.1-11.9,1c-4,1-7.2,0.8-10.9,1c-0.3,0.9,0.6,2.9-0.1,3.7c-0.4,0-0.8,0.1-1.1,0.1
		c-0.6-0.6-0.9-2.1-0.5-3c-1.1-0.9-3.8-0.2-5.9,0.1c-4.6,0.7-9.5,0.8-14.4,1.4c-0.9,0.1-1.6,0.6-2.4,0.7c-5.1,1-10.2,0.4-15.4,1.8
		c0,4.9,1.5,9.1,0.8,13.2c-0.6,0.4-0.5-0.4-1-0.5c0.4-4.3-0.6-7.6-1-12.7c-4.4,0.7-8.6,1-13.3,1.7c-1.2,0.2-3.2,1.1-4,0
		c1.1-1,2.6-0.8,3.8-1c4.3-0.7,9-1.1,13.3-1.7c-0.3-2.5-0.6-5.6-1-8.3c-0.7-5.2-1.5-8.2-1.6-14.4c-1.4-4.5-1-8.7-1.6-12.3
		c-1.7,0-2.7,0.6-4.4,0.6c-0.4-0.5-1.4-1.1-1.3-1.8c1.1-0.9,3.6-0.4,5.6-0.6c-0.4-10.9-2.8-23.6-3.5-35.3c-1.7-0.1-3.3,0.5-4.7,0.3
		c-0.5-0.5-0.6-0.8-0.7-1.7c2-0.2,2.7-0.8,5-0.7c0.8-1.7,0.2-3.4,0.1-5.3C8.4,89.6,8,80.7,7.1,71.3C5,71,2.8,71.8,2.3,69.7
		c0.1-1.8,3.1-1,4.6-1.6c-0.3-5.8-1-14-1.5-19.3c-0.1-0.9,0.2-1.9,0.1-2.7c-0.2-3-0.9-6-0.7-9.4c-1.3-0.5-4.4,0.9-4.5-0.9
		c0.8-1,2.5-0.9,4.2-1.4c-0.2-4.3-1.2-9.9-1.3-12.9c-0.5-0.1-1.5,0-2.4,0.2C0,18.1,2.1,14.2,1.2,9.4c0.4-0.1,0.5-0.6,1.1-0.5
		c0,0.5,0.2,1,0.9,0.9c-0.4,1.1,0,2.2,0.9,3.1c-0.1,0.1-0.3,0.2-0.3,0.4c1.3,2.1,3.2,4.9,3.2,7.1c-0.7,0.5-2.1,0.3-2.8,0.8
		C4.7,24.9,5,31,5.8,34c1.3-0.1,1.3-0.5,2.7-0.6c0.8,0.7,0.2,1,0.8,1.8c-0.6,0.8-2.4,1.1-3.5,0.9c0.4,5.3,0.2,10,0.8,14.7
		c0.6,5.3,0.9,10.9,1.4,17c1,0.3,2.2-0.5,2.6,0.6c-0.4,1.2-1,2.2-2.4,2.5c0.3,7.1,1.1,11.8,1.2,18c0.6,4.5,0.6,9,0.7,13.8
		c1.6-0.1,1.8-0.5,2.9,0.1c0,0.6-0.2,0.9-0.2,1.4c-0.7,0.3-1.6,0.5-2.4,0.7c0.3,11.8,3,23.3,3.4,35.1c1.9-0.1,3.9-0.8,4.9,0
		c-0.8,1.5-2.9,1.9-4.5,1.9c-0.7,1.5,0.1,3.7,0.4,6c0.4,3.3,0.5,7.2,1.1,11.1c0.4,2.6,0.8,4.5,1.2,7.1c1.6-1,4.2-2.4,5.6-4
		c2-0.3,2.8-1.7,4.4-2.4c3.5-5.8,7.9-11.5,11.1-17.1c2.1-0.9,2-4.5,4.4-4.7c0.7,0.5,1.1,1.4,2,1.7c0,1.2,1.6,1.3,1.4,2.2
		c1.4,0.3,2,1.7,2.9,2.5c0.3,0.2,0.8,0.3,1,0.5c0.9,0.8,1.8,2,2.8,3c1.8,1.7,3.7,3.3,5.4,5.4c1.6-3.5,3.6-6.7,4.5-10.9
		c0.9-1.1,1.5-2.4,1.7-4.1c1.9-2.2,1.6-5,3.4-7.5c1.1-4.1,2.9-7.6,4.1-11.6c0.3-0.3,0.9-0.3,1.3-0.5c4.8-4,9.8-8.7,15.3-12.5
		c1.4,2.7,3.7,5.3,5,8.6c0.2,0.4,0.7,0.3,0.9,0.7c0.1,3,3.4,5.2,4.1,8.1c1,0.4,1.2,2.2,2.9,2.5c0.1,0.4-0.3,0.5-0.2,0.9
		C109.6,131.6,117.2,139.1,124.6,143.9z M160.7,42c1.4,1.3,2.9,1.3,4.4,2.9c0.7,0.3,1.8,0.1,1.9,1c0.3,0,0.3-0.3,0.7-0.2
		c-0.6-2.7-3-3.4-4.8-4.7c-0.1-0.4,0.3-0.4,0.5-0.6c0.9,0.6,0.9,1.4,2.3,1.6c-0.4-1.5-1.2-2.5-2-3.6C162.7,39.8,161.5,40.4,160.7,42
		z M168,47.3c-2.4-1.8-5.2-3.1-7.9-4.5c-0.3,0.5-0.9,0.8-1,1.5c1.4,1.9,3.9,2.5,5.6,4.1c1.9,0.1,2.3,1.7,4.4,1.9
		c0.4,0.5,1,0.7,1.6,0.9c-0.4-1.6-1.5-2.4-2-3.9C168.4,47.3,168.2,47.3,168,47.3z M158.5,45.1c-0.8,0.5-1.2,1.3-1.6,2.1
		c5.2,3.2,10.4,7,16.4,8.4c-0.4-1.6-1.4-2.5-2.1-3.7c-4.1-1.1-7.1-3.5-10.5-5.4c0.1,0,0.2-0.1,0-0.1C159.9,46.5,159,45.6,158.5,45.1
		z M140.3,113.6c1.9,0.6,3.4,1.7,4.8,3c1.2,0.6,2.4,1.2,3.3,2.2c0.5-0.1,0.6,0.2,1.2,0.1c2,1.7,4.9,2,6.6,4.3c0.4,0,0.7-0.1,0.9,0.1
		c1.3,1.3,3.2,1.9,4.4,3.3c0.4-0.1,0.5,0.1,0.9,0.1c3.5,2.5,8.6,4.6,12.3,7.7c4.3,1.8,7.8,4.5,11.9,6.9c3.6,2.1,8.2,4.9,11.8,7.3
		c0,0-0.1,0-0.1,0c0,0.1,0.1,0.4,0.2,0.1c1.1,0,2.8,1.7,4.5,2.7c1.7,1,3.6,1.7,4.8,2.6c0.3,0.3,0.5,0.7,0.8,1
		c2.1,1.4,4.3,2.2,7.3,1.7c-3.3-2.5-6.9-4.4-10.5-6.5c-7.1-4.2-13.9-8.9-21-13.2c-3.6-2.1-7.2-4.2-10.6-6.5c-3.4-2.3-7.2-4-10.6-6.4
		c-3.4-2.4-7.3-3.9-10.8-6.4c-3.4-2.4-7.1-4.2-10.5-6.7c-3.3-2.4-6.9-4.5-10.2-7c-0.1,1.1-0.2,1.5-0.4,2.6
		C133.9,109.4,137.6,110.9,140.3,113.6z M85.1,110.3c0.4,0.1,1.4,0.5,0.8,0.8c2.3,0.4,3.6,2.1,5.8,2.6c-0.8-2.3-2.2-3.8-3.4-5.7
		C86.7,108.4,85.7,109.1,85.1,110.3z M94,117.9c-0.4-0.7-0.7-1.7-1.1-2.2c-0.8-0.9-2.2-1.1-3.3-1.7c-2-1.1-3.8-2.7-5.7-3.2
		c-0.5,0.6-1.5,0.9-2.1,1.4c1.2,1.4,3.6,1.4,4.4,3.2c1.5,0.3,2.3,1.4,3.8,1.6c1.4,1.3,3.3,1.8,4.8,3C95,119.2,94.4,118.5,94,117.9z
		 M130.7,110.9c1.6,1.4,3.7,2.4,5.1,4c0.4-0.1,0.5,0.1,0.9,0.1c1.8,1.8,4.2,2.8,6.2,4.3c0.5,0.4,1.1,0.7,1.8,0.9
		c0.2,1,1.4,0.5,1.4,1.3c3.3,0.9,5.4,3.2,8.5,4.5c1.3,1.3,3.1,2.2,4.5,3.2c0.5,0.3,1,0.7,1.4,1.2c0.5,0,1.6,0.2,1.8,1
		c2.3,0.6,4.9,2.3,6.7,4c4.1,1.5,7.2,4.2,10.7,6.2c2.3,1.3,4.5,2.4,6.3,4.1c4.6,2.2,9.1,5.9,13.2,8.5c0.7,0.4,1.4,0.6,2.1,1
		c1.4,0.9,2.7,2.8,4.7,2c0.3-1.1-0.1-1.8-0.2-3c-14.7-9.3-29.5-18.5-44.8-27c-2.1-1.7-4.3-3.2-6.6-4.6c-2.4-1.4-4.9-2.6-7.3-4
		c-5.4-3.3-10.4-7.4-15.9-10.3c0-0.1,0-0.2-0.2-0.1C130.8,109.1,130.6,109.9,130.7,110.9z M95.4,120.8c-1.2-0.6-2.3-1.1-3.6-1.9
		c-3.3-2.2-7.6-4.1-11-5.9c-0.1,0-0.2,0-0.3,0c-0.1,0.7-0.8,0.9-1.1,1.5c3.5,2.7,7.5,4.9,11.5,7c-0.2,0.3,0,0.2,0,0.6
		c0.6-0.3,0.9,0.3,1.2,0.6c1.4,0.1,2.1,0.9,2.8,1.7c1.7,0.1,2.5,1.4,4.1,1.6C97.8,124.5,97.1,121.7,95.4,120.8z M110.6,134.3
		c-2-1.2-4.3-2.3-6-3.9c-1.3-0.3-1.8-1.5-3.3-1.7c0.1-0.5-0.4-0.4-0.3-0.8c-2.6-0.7-4.9-2.5-7.4-4c-3.8-2.2-7.8-4-11.3-6.3
		c-1.8-1.2-3.8-3.8-5.2-1.1c0.8,1.8,3.3,1.7,4.2,3.5c1.3,0.2,1.7,1.3,3,1.5c0.3,1.4,2.1,1.2,2.7,2.3c1.8,0.3,3.1,1.1,4.2,2.2
		c2.2,0.2,4.2,1.9,5.7,3.1c1.6,0.2,2.4,1.2,3.4,2.1c0.5,0.1,0.5-0.1,1,0.1c0,0.2,0,0.3-0.1,0.4c2.7,0.9,4.8,2.3,6.9,3.9
		c1.6,0.6,3.1,1.3,4,2.6c4.3,1.7,7,5.1,11.3,6.6C119.5,140.8,114.5,138.2,110.6,134.3z M137.7,120.5c0,0.2,0.1,0.4,0.2,0.6
		c3,0.7,5,2.7,7.2,4c1,0.6,2,1,2.8,1.8c1.6,0.2,3.1,1.3,3.7,2.1c1.2,0.4,3.1,1.4,3.9,2.8c1-0.1,2.2,0.7,2.8,1.5
		c3.6,1.3,6.3,4.5,10.2,6c0,0.4-0.2,0.5,0.2,0.6c0.2-0.4,0.5,0.2,0.9,0.1c2,2.2,5.1,3.1,7.1,5.3c3.2,1.2,5.5,3.4,8.2,5.2
		c3.6,1.7,7.1,4.8,11.1,6.6c0.2,0.2,0.8,0.1,1,0.2c0.3,0.4,0.4,0.8,0.9,0.9c1.6-0.2,2.6-0.3,4.3-0.6c-2.9-2.8-6.9-4.4-9.8-7.1
		c-3.6-2-7.2-4.4-10.8-6.5c-1.4-0.9-3.6-2-4.2-3.3c-0.1,0.2-0.3,0.3-0.4,0.5c-12.1-7.4-24-15-36.3-22.1c-0.1-0.2-0.4-0.4-0.5-0.7
		c-3.5-1.7-6.1-4.5-9.7-6c0,1.2-0.1,1.9-0.4,3.3C132.8,117.1,134.8,119.4,137.7,120.5z M74.2,119.7c0.7,0.2,1.6,1.1,2.1,1.4
		c0.7,0.6,3.5,1.1,3,2c0.7-0.2,1,0.5,1.9,0.5c0.8,1.4,2.4,1.5,3.2,2.4c1.9,0.7,2.6,1.8,4.5,2.6c0.3,0.3,0,0.2,0,0.6
		c1.3-0.2,2.2,1.3,3.7,1.3c0.1,0.3-0.4,0.5,0.2,0.4c0.4,0.3,0.7,0.6,1.5,0.5c2.2,1.5,5,3.1,6.7,4.2c0.7,0.3,1.6,0.5,1.8,1.3
		c1.8,0.1,3,1.3,4.4,2c2.4,1.2,5,2.3,7,4.4c2.5,0.6,4.7,2.9,7.3,4c0.7,1.3,2.1,1.4,3.2,2.1c1.9,1.2,3.8,2.5,5.7,3.8
		c3.7,2.4,7.2,4.8,10.8,7.1c0.5-0.1,0.7,0.2,1.2,0.2c1.5,1.4,3.9,2.7,6.3,2c-10.5-6.2-19.9-13.7-30.7-19.6
		c-4.3-3.7-9.6-6.1-14.2-9.4c-4.7-2.1-9.2-5.4-13.9-7.9c-2.9-1.5-5.6-2.8-8.2-4.6c-1.4-1-2.8-2.1-4.5-2.7c-0.2-0.3-0.5-0.6-0.8-0.8
		c-0.1,0-0.2-0.1-0.3-0.1C75.4,118.1,74.4,118.6,74.2,119.7z M139,160c-0.9-0.6-1.9-1.2-2.8-1.8c-3.1-2-6.1-4.2-9-6
		c-1.2-0.8-2.6-1.3-3.9-2.1c-0.6-0.3-0.9-0.9-1.4-1.3c-3.3-2.6-7.1-4.2-10.6-6.5c-3.3-2.2-7.1-4-10.4-5.9c-3.1-1.8-6.5-3.6-9.3-5.4
		c-0.2,0.1-1.2-0.8-1.9-1.2c-0.8-0.4-1.4-0.7-2.2-1.3c-0.7-0.5-1.6-0.7-2.4-1.1c-0.3-0.2-0.6-0.7-1.1-1.1c-2-1.4-4.5-2.8-6.6-3.9
		c-0.9-0.5-3.6-2-4.1-1.9c-0.5,0.1-0.9,0.5-1.1,1.1c1.5,1,3,2,4.2,3.3c1.1-0.2,0.9,1,2.1,0.6c3.1,2.6,7.2,4.2,10.3,6.8
		c0.3,0.2,0.8,0.1,1.2,0.2c-0.1,0.9,1.1,0.3,1.2,1.2c1.4,0.1,3.1,1.2,4.2,2.5c1.3,0.3,2.3,1.1,3,2.1c0.3,0,0.3-0.2,0.6-0.2
		c5.3,3.6,11.2,6.5,16.3,10.3c1.6,0.3,2.5,1.5,4,2c0,0.4,0.3,0.4,0.3,0.7c5.2,2.5,9.7,5.9,14.6,8.7c0.6,0,0.9-0.3,1.6-0.2
		c0.2,2.7,4.9,1.7,4.4,4c1.6-0.2,2.7,0,3.8-0.7C142.3,161.8,140.6,161,139,160z M183.8,154.1c1.2,1.2,2.5,1.6,3.8,2.5
		c0,0.2-0.2,0.2,0,0.3c0-0.1,0-0.2,0.1-0.2c1.3,0.6,2.6,1.4,3.7,2.2c2-0.2,3.1-0.2,4.4-0.7c-8.3-4.7-15.7-10.5-24.1-15.1
		c-3.8-3.4-8.8-5.4-12.6-8.8c-2.3-0.7-4-2.1-5.7-3.5c-2.3-0.7-3.6-2.6-6.1-3.2c-0.1-0.3-0.6-0.3-0.6-0.7c-1.3-0.2-1.9-1.2-3.1-1.5
		c-2-2-4.8-2.9-7.3-4.4c-2.3-1.3-4-3.2-6.6-3.9c-0.3,1.9-0.9,3.5-1.1,5.4c1,0.6,0.9,1.7,2.1,2c0,0.2,0,0.4,0,0.6
		c3.9,1.4,5.2,4.2,9,5.3c0.7,1,1.3,0.9,2.4,1.6c0.3,0.2-0.1,0.4,0.2,0.7c3.3,1,5.3,3.4,8.3,4.6c0,0.2,0.1,0.4,0.2,0.6
		c1.7,0.9,3.6,1.7,4.8,3.3c1.8,0.6,2.8,1.9,3.9,2.5c1,0.6,2.5,0.9,3.3,2.4c2.8,1.1,5.6,3.4,8.5,4.9c0,0.2,0,0.4,0,0.6
		c0.4,0.1,0.4-0.2,0.7-0.2c0,0.3,0.1,0.4,0.2,0.6c4.1,1.9,7,5,11.1,6.9c-0.1,0.7,0.5,0.4,0.6,0.8c2,0,3.7-0.3,5.6-0.5
		c-0.2-0.6-1-0.6-1.2-1.2c-3.4-1-4.7-3.4-7.7-4.2c-8.9-6.2-18.3-11.8-27.3-17.9c-0.4,0.1-0.5-0.1-0.9-0.1c-2.8-2.1-6-4-8.8-5.8
		c-0.6-0.4-1.1-1-1.8-1.5c-0.9-0.6-2.1-0.9-3.1-1.5c-1.5-0.9-2.5-2.4-4.3-2.7c-1.4-1.5-3.6-2.1-4.7-4c0.7,0.1-0.2-0.4,0.3-0.4
		c0.8,0.5,1.7,0.9,2.3,1.7c3.4,1.4,5.5,4.2,9,5.5c0.6,0.9,1.9,1,2.3,2.2c3.5,1.2,5.8,3.8,9.1,5.3c0,0.1,0,0.3,0,0.4
		c2.3,1,4.5,2.1,6.1,3.9c0.4-0.1,0.3-0.1,0.7,0c2.8,1.8,5.5,3.6,8.1,5.5c0.4-0.1,0.5,0.3,0.9,0.2c0.9,1.1,3.1,2,4.8,3.1
		c0.8,0.6,1.6,1.3,2.4,1.9c0.9,0.5,2.1,0.8,2.4,1.7c1.8,0.4,3.6,2.2,5.5,3c0,0.2-0.2,0.1-0.3,0.3
		C183.6,154.3,183.6,154.1,183.8,154.1z M70.8,124.8c1.4,0.7,3.3,2.2,4.7,3.4c0.6,0.1,2.1,0.6,2.6,1.7c2.7,1.2,4.6,3.4,7.6,4.3
		c0.7,1.4,2.8,1.1,3.6,2.4c1.5,0.1,2.2,1.2,3.7,1.5c-0.1,0.1-0.3,0.5,0.2,0.4c0.2,0.7,1.6,0,1.5,1.1c0.6-0.1,0.8,0.2,1.3,0.2
		c0.5,1.1,1.9,1.1,2.4,2.1c1,0.3,2.4,0.6,3.1,1.7c2.5,0.1,3.2,2.3,5.5,2.7c0.1,0.7,0.9,0.4,0.8,1c1.3-0.1,2.4,1,3.4,1.7
		c1.1,0.5,2.3,1,3.1,1.8c0.8-0.1,0.9,0.5,1.6,0.5c3,2.3,7,3.6,9.7,6.3c3.2,1,5.7,3.6,8.8,4.3c0.1-1.7-1.7-1.4-2.2-2.4
		c-4.9-2.8-9.8-5.5-14.3-8.6c-1.8-1.2-3.7-2.1-5.5-3.2c-3.6-2.2-6.8-4.9-10.3-6.8c-1.6-0.8-3-1.5-4.5-2.4c-1.4-0.9-2.6-2-4.1-2.9
		c-2.2-1.4-4.5-2.4-6.7-3.6c-0.8-0.5-1.4-1.2-2.3-1.7c-4.2-2.6-8.8-5-12.7-7.8C71.5,123,70.6,124,70.8,124.8z M69.7,127.9
		c1.2,0.9,2.2,1.9,3.2,3c1.7,0.5,3.3,1.7,4.9,2.6c1.6,0.9,3.5,1.6,4.5,2.9c1.9,0.8,3.9,1.2,5.4,2.8c2.4,0.5,4,2.3,6.1,3.3
		c2.1,1.1,4.4,1.8,6.4,3.2c0,0.3,0.3,0.3,0.2,0.7c1.5,0.1,2.3,1.2,3.3,1.9c1.5,0.5,2.7,1.3,3.7,2.2c7.8,3.6,14.5,8.6,21.9,12.7
		c0.4,0,0.9-0.1,1.3-0.1c0.5,0.3,0.9,0.8,1.4,1.1c0.6-0.4,1.8-0.2,2.6-0.3c-0.4-1.1-1.9-0.9-2.3-2c-1.6-0.2-2.9-2-4.9-2.4
		c-4.4-3.7-10.2-5.9-15-9.2c-6.9-3.5-13.3-7.6-20-11.4c-6.8-3.8-13.6-7.3-19.9-11.9c-1,0-1.5-0.7-2.2-1
		C70.1,126.5,69.8,127.1,69.7,127.9z M128,126.2c1.9,1.3,3.1,3.3,5.3,4.3c0.3,0.3,0,0.4,0,0.7c1.2,0,2.2,0.3,2.7,1.3
		c1.5,0.3,3.1,1.2,3.5,2.4c1,0,1.6,0.4,1.9,1.2c1.4,0.1,2,1,2.7,1.8c2.9,1.3,6.1,2.2,8.1,4.7c1.3,0.1,2.2,1.2,2.6,1.8
		c1.1,0.2,2.7,1,3.4,2.1c0.6-0.2,0.6,0.3,1,0.2c2.6,2.8,6.9,3.9,9.2,6.6c3.7,1.7,6.9,5.1,11.1,6.8c0.9-0.1,2.1,0,2.9-0.3
		c-6.1-4.8-13-9.2-19.5-13c-0.2-0.3-0.4-0.5-0.6-0.8c-0.9-0.3-2-0.9-2.3-1.6c-4.3-1.9-6.7-5.2-11.2-7c-1.1-1.4-3.1-1.7-4.2-3
		c-2-0.7-4.4-3.3-6.1-3.6c0-0.1,0-0.3,0-0.4c-0.8-0.1-1.5-0.3-1.7-1c-3.5-0.9-5-4-8.2-5.1C128.1,124.8,128.4,125.4,128,126.2z
		 M126.6,162.9c-4.7-3.1-9.4-6.1-14.4-8.9c0.1,0,0.2-0.1,0-0.1c-5.3-2.2-10-6.3-14.8-8.8c-1.7-0.9-3.7-1.5-5.5-2.5
		c-1.4-0.8-2.7-2-4.1-2.8c-0.8-0.4-1.5-0.8-2.2-1.1c-3.1-1.6-5.8-3.2-8.8-4.9c-2.7-1.6-5.5-3.2-7.9-4.7c-0.2,0.8-0.7,1.4-0.9,2.2
		c0.3,0.5,1.6,0.4,1.2,1.2c0.4-0.2,0.3,0,0.9-0.1c3.1,1.9,6.2,3.9,9.3,5.6c1.1,0.6,2.3,1.3,3,2.1c1.2,0.3,2.2,0.9,3,1.7
		c1.5,0.1,2.2,1.2,3.5,1.5c1.4,1.4,3.3,2.4,5.4,3.1c2.6,1.9,5.5,3.5,8.5,4.9c0.8,1.1,2.1,1.3,3.3,2.1c0.8,0.5,1.5,1.3,2.3,1.7
		c1.3,0.7,2.9,1.2,4,1.9c0.4,0.2,0.7,0.7,1.1,0.9c1.2,0.7,2.6,1,3.7,1.8c0.5,0.4,0.9,1,1.5,1.3c1,0.6,2.1,0.8,3.1,1.4
		c1,0.6,2,1.4,3.2,1.4c0.3,0.3,0.4,0.8,0.9,0.8c0.6-0.1,1.5-0.2,2.8-0.3C128.6,163.4,127.6,163.2,126.6,162.9z M162.6,150
		c-0.7-0.1-2-1.4-2.6-1.8c-1.4-1.1-3.4-1.8-4.9-2.8c-2.2-1.5-3.5-2.8-5.4-4.3c-6.7-2.6-11.5-7.4-17.8-10.5c-0.2-0.3-0.5-0.4-0.6-0.8
		c-1.6-0.2-2.2-1.7-3.5-2.2c-0.1,1.2-0.3,1.5-0.1,3c1.6,0.7,2.9,1.8,3.8,3.3c0.3,0,0.6,0,0.9,0c0.8,1.2,2.5,1.5,3.5,2.7
		c0.8,0,1.1,0.5,1.8,0.6c1,1.5,3.4,1.5,4.2,3.2c0.8,0.2,1.6,0.4,1.9,1.2c1,0.2,2.8,1,3.1,1.9c0.3,0,0.3-0.2,0.6-0.2
		c1.7,1.2,3.3,2.4,5.1,3.4c0,0.2,0.1,0.4,0.2,0.6c2.6,1.2,5.1,2.3,7.3,4.3c0.1-0.3,0.5,0.4,0.9,0.2c0,0.2,0,0.3-0.1,0.4
		c2.6,0.9,4.6,2.5,6.9,3.7c0,0.2-0.2,0.2-0.1,0.4c1.5,0.4,2.2,1.6,3.8,1.8c0.4-0.4,0.9-0.6,1.1-1.2
		C169.2,154.3,165.7,152.1,162.6,150z M82.1,140.5c-0.4,0.1-0.5-0.2-1-0.1c-4.2-3-8.8-5.6-13.3-8.2c-0.5,0.8-0.7,1.8-1.1,2.7
		c2,1.6,4.5,2.9,6.2,4.3c0.5,0,2.1,0.2,2.4,1.3c1.1,0,2,0.7,2.8,1.1c0.8,0.4,1.8,0.8,2.4,1.6c1.2,0,2.7,1,3.4,2.1
		c2,0.1,3.4,1.6,5.1,2.6c1.5,0.8,2.9,1.3,4.3,2.2c2.8,1.7,5.3,3.9,8.2,5.2c3.8,2.8,8,5.2,12,7.7c0.6-0.1,0.6,0.3,1.2,0.2
		c0.9,0.5,2.7,2.1,3.7,2.2c1.6,0.2,3.6-0.5,5.1-0.8C109.6,156.6,95.8,148.7,82.1,140.5z M140.3,142.8c0,0.3,0.2,0.3,0.2,0.6
		c1.4,0.2,2.3,0.9,3.1,1.8c0.5-0.2,0.4,0.3,0.9,0.2c1.7,1.6,4.2,2.3,5.7,4.1c1.4-0.1,3.1,1.3,3.7,2.1c1.1,0.4,2.8,1.5,3.8,2.5
		c3.3,1.2,5.5,3.6,8.9,4.6c0.4,0.6,1.3,1.1,1.1,1.9c1.3-0.2,2.4,0.1,3.5,0.1c-0.3-0.1-0.7,0-0.9-0.2c0.3-0.1,1.1,0.2,1-0.4
		c0.4-0.1-0.1-0.5,0-0.7c-5-3.4-10.4-6.4-15.3-9.9c-2.8-1.1-5.3-3.2-7.9-4.8c-2.6-1.6-5.5-3.1-7.5-5c0.2,0,0.3,0.2,0.4,0
		c-0.2-0.2-0.7-0.2-0.9,0.1c-4.3-2.3-8.3-5.8-12.6-7.7c-0.3,0.8-0.2,1.4-0.3,2.2c1.6-0.1,2.1,2,2.9,2.5c3.1,1.8,6.2,3.8,9.4,5.6
		c0,0.4-0.2,0.3,0,0.6C139.9,143.1,140,142.8,140.3,142.8z M65.5,138.4c4.5,3.4,9.5,5.4,14,8.4c1.2,0.5,2.6,0.9,3.2,2.1
		c0.9-0.2,1.9,0.1,2.1,1.2c1.7-0.1,3.2,1.5,4.5,2.3c2,1.2,4.2,2.3,6,3.4c-0.1,0.5,0.3,0.4,0.3,0.7c0.4,0,0.4-0.3,0.7,0
		c2,1.7,4.5,2.8,6.5,4.5c1.9,0.5,3.4,1.4,4.6,2.6c1.6,0.2,2.2,1.5,4.3,1.3c0.1,0.7,0.9,0.7,1.2,1.1c1.3,0.3,2.1-0.3,3.1-0.3
		c-4-2.2-7.6-4.7-11.2-7c-1.8-1.2-3.7-2.4-5.5-3.5c-1.9-1.2-3.6-2.6-5.4-3.7c-1.9-1.1-4-1.8-5.7-3.4c-2.7-1-5.1-2.6-7.6-4
		c-2.4-1.4-5-2.6-7.3-4.3c-2.7-0.7-4.3-2.7-7-3.4C66.2,137.2,65.4,137.4,65.5,138.4z M41.3,140.4c1.2,0.8,2.5,1.3,3.6,2.2
		c-0.1-1.2-1.7-2.3-2.9-3.1C41.8,139.8,41.3,139.8,41.3,140.4z M164.6,159.2c-0.6-0.4-1.1-1.1-1.7-1.5c-0.3-0.2-0.7-0.1-1-0.2
		c-1.2-0.6-2.3-1.8-3.6-2.5c-2.6-1.4-4.6-3.2-7-4.6c-0.6-0.4-1.4-0.4-2.1-0.7c-0.6-0.3-1.2-0.9-1.8-1.3c-0.9-0.6-3-1.5-3.8-2.8
		c-2.2-0.6-3.9-2.4-5.8-3.5c-1.9-1.1-3.9-2-5.7-3.2c-1.8-1.2-3.4-2.6-5.3-3.5c0.2,0.6-0.3,1.9-0.3,2.5c2.9,3.1,7.1,4.6,10,7.7
		c0.9,0.2,1.6,0.6,2.1,1.3c0.2,0,0.5,0,0.7,0c1.8,1.3,3.8,2.5,6,3.5c0,0.1,0,0.3,0,0.4c1.3,0.2,2,1.1,2.7,2c2.2,0.6,3.8,1.9,5.4,3.2
		c3.1,1.2,4.8,3.8,8.3,4.5c0.1,0.3,0.2,0.6,0.5,0.7c1.5,0.2,2.6-0.3,4.4-0.4C166.3,159.8,165.4,159.7,164.6,159.2z M63.7,142.2
		c0.8,1.4,2.4,1.7,3.7,2.3c2,1,4.5,2.5,6.3,3.5c2.7,1.5,5.6,2.7,8.4,3.9c0.1,0.3,0.3,0.4,0.5,0.7c1.5,0.5,3,1.1,4,2.2
		c1.4,0,1.9,1,2.7,1.4c0.5,0.3,1.4,0.2,1.5,0.9c5.9,2.5,10.5,6.5,16.8,8.7c0.3,0.3,0.4,0.8,0.9,0.8c0.6-0.3,1.8-0.1,2-0.7
		c-5.7-2.9-11.7-6.6-17-10.4c-9.5-5.3-18.9-10.8-28.5-16.1C64.7,140.5,64,141.2,63.7,142.2z M47.1,144.1c-1.9-0.2-4.5-2-6.5-3
		c-0.2,0.7-1,0.8-1,1.6c2.6,2.5,6,3.2,8.5,5.6c2.6,0.3,4,2.1,6.1,2.9C51.9,148.9,49.4,146.7,47.1,144.1z M84.9,169
		c-9.2-4.3-17.2-10-26.2-14.6c0.1,0.4,0.1,0.8-0.4,0.7c-0.8,0-1.2-0.5-1.5-1.2c-4.6-2.8-9-5.5-13.9-7.9c-1.5-0.8-2.7-1.8-4.3-2.2
		c-0.4,0.4-1,0.7-1.1,1.4c2.3,1.5,4.4,3.2,7.3,4c0,0.2,0,0.4,0,0.6c0.8,0.5,2.4,0.5,2.4,1.1c3.4,1,4.7,2.8,7.7,4
		c-0.1,0.5,0.3,0.4,0.3,0.7c1.1,0.1,2,0.4,2.4,1.4c5,2,8.4,4.9,12.7,7.1c0,0.2,0,0.4,0,0.6c3.7,1.5,6.9,3.5,10.3,5.4
		c0.4-0.6,1.1,0.3,1.9,0.3c1,0.1,2.3-0.3,3.1-0.6C85.4,169.7,84.9,169.6,84.9,169z M127,147.8c0.4,0.2,0.4-0.1,0.9,0.1
		c4.4,3.1,10.3,6.9,15.5,10.2c0,0-0.1,0-0.1,0c-0.1,0-0.1,0.1,0,0.1c1.1-0.2,2.5,1.6,4,2.3c1.4,0.6,2.5,1.5,4.1,1.6
		c3.1,0.2,5.7-0.8,8.7-1c-3.4-2.9-7.7-4.8-11.1-7.8c-2.3-1-4.1-2.6-6.3-3.8c-4-2.1-7.5-4.7-11.2-7c0.1-0.4-0.5-0.1-0.3-0.7
		c-2-0.2-2.6-2.1-4.5-2.4c-0.2,0.7-0.3,1.5-0.4,2.3c1.2,0.8,1.9,2.6,3.2,3.4c0.5,0.3,1.3,0.3,1.8,0.6c0.9,0.6,1.4,1.7,2.3,2.2
		c0.8,0.4,1.4,0.5,1.9,1c5,2.3,9.1,5.5,13.9,8c0,0.3,0.2,0.3,0.2,0.6c2.2,0.8,4.2,1.8,5.7,3.4c-0.3,0.1-0.3,0.6-0.7,0.6
		c-3.5-1.7-6.3-4.3-9.9-6c-0.8-1.4-2.5-1.8-3.9-2.3c-0.9-0.3-1.7-1.5-2.7-2.1c-1.4-1-3.3-1.3-4.4-2c-1.4-0.8-2.3-2.3-3.6-3.1
		c-1.4-0.8-2.7-1.3-3.9-2.3c-0.1,0.9-0.4,1.6-0.9,2.2C125.7,146.6,126.7,146.8,127,147.8z M87.7,155.9c-0.3,0.2-0.9-0.5-1.5-0.5
		c-7.3-4.1-15-7.6-22.6-11.6c-0.1,0-0.3,0-0.4,0c-0.4,0.8-0.7,1.7-0.8,2.6c1.9,1.1,3.8,2.1,5.4,3.5c4.9,1.6,8.5,4.1,12.8,6.7
		c0,0.5,0.2,0.5,0.3,0.8c1.4,0.3,2.7,0.7,3.4,1.8c0.4-0.1,0.5,0.2,1,0.1c0.1,0.2,0.2,0.3,0.2,0.6c2.9,0.8,4.5,3,7.3,4
		c-0.1,0.4,0.5,0.1,0.3,0.7c1.5-0.1,1.8,1.1,3.2,1.1c0.1-0.9,0.2-1.9,0.9-2.4c0.1,0.7,0.5,1.1,1.2,1.2c0.4,0.7,0.7,1.6,0.7,2.7
		c1.8,1.3,5.3,0,7-0.5C100,163.2,93.7,159.8,87.7,155.9z M36.6,149.6c2.7,0.6,4.4,2.5,7,3.3c0,0.2-0.2,0.2-0.1,0.4
		c2,0.7,3.5,1.5,4.9,2.6c1.3,0.1,2.1,0.9,3.2,1.2c0,0.2-0.2,0.2-0.1,0.4c1.7,0.2,3.7,1.5,4.9,2.8c4.1,1.7,7.3,4.4,11.2,6.3
		c-0.1,0-0.2,0.1,0,0.1c2.3,0.7,4.5,2.7,7.7,3c0.3,0.6,0.7,0.8,0.7,1.5c1.2-0.1,2.9-0.2,3.7-0.7c-14.5-7.9-27.4-17.5-42.9-24.1
		c-0.2,0.5-0.9,1.1-1.2,1.9C36,148.7,36.4,149,36.6,149.6z M37,153.7c1.7,0.2,2.5,1.5,4.1,1.7c0,0.3,0.1,0.4,0.2,0.6
		c0.2,0.3,0.7-0.4,0.6,0.4c1.5,0.2,3.5,1.1,4.5,2.3c2,0.2,3.6,2,5.6,2.7c0.1,0.3,0.4,0.2,0.3,0.7c1.3,0.3,1.3,0.4,2.4,1.1
		c2.2,0.7,3.6,2.3,5.8,2.9c0,0.2-0.2,0.2-0.1,0.4c0.9,0,1.7,0.7,2.7,1.3c1.7,1,3.9,1.9,4.9,2.8c0.9-0.3,1.9,0.4,2.5,0.8
		c1.1-0.1,3,0,4-0.4c-3.7-1.5-7.1-3.4-10.3-5.5c-4.4-2.4-8.4-5.2-12.7-7.7c-1.5-0.5-3-1.2-4.2-2.2c-3.6-1.8-7.3-3.5-10.6-5.6
		c-0.9,0.1-1.2-0.6-2.1-0.7c-0.2,0.7-0.8,1.1-0.9,1.9C34.7,152.3,36.2,152.6,37,153.7z M86,160.8c-7.7-4.6-15.7-9-24.1-13.1
		c0,0-0.1,0-0.1,0c-0.4,0.6-0.6,1.4-1,2.1c1.8,1.1,3.7,2,5.2,3.4c1.9,0.6,3.7,1.4,4.9,2.8c2,0.4,3.6,1.4,5,2.4
		c2.2,0.9,4.3,1.9,6,3.4c3.1,1.4,6.1,3.3,9.1,5c1.5,0.9,3.1,2.2,5.7,1.6c0.1-0.6-0.3-1.2-0.1-1.4C92.7,165.6,89.5,162.9,86,160.8z
		 M35.9,157.2c1.2,0.3,2.2,0.8,3,1.5c1.1,0.2,2,0.7,2.7,1.4c1.2,0.4,2.3,0.8,3,1.7c0.9,0.2,2.7,0.9,3.1,1.4c0.2,0.3-0.2,0.4,0,0.6
		c0.5,0.3,1.7,0.3,1.6,0.8c2.7,0.6,4.7,3.2,7.7,3.8c1.4,1.2,2.9,2.7,4.8,2.4c0.5,0.3,0.7,1,1,1.5c2-0.2,3.7,0,5.4-0.6
		c-11.5-6.4-22.9-13.3-35.1-19.3c-0.4,0.5-0.9,0.9-1,1.6C33.5,155.2,34.5,156,35.9,157.2z M61.4,155.2c4.7,2,9.1,5.1,13,7.5
		c0.5-0.2,1.2,0.6,1.6,0.9c1.5,0.4,3.1,1.6,4.7,2.3c0,0.2,0,0.4,0,0.6c2.4-0.2,4,2.6,6.5,2.3c0.4,0.2,0.3,1,0.8,1.1
		c1.4-0.4,3.1-0.5,4.4-1c-2.8-1.9-5.9-3.4-8.5-5.5c-5.7-2.7-10.7-6-16.5-8.6c-1.2-1-2.6-1.7-4.2-2.2c-0.7-0.7-1.7-1.2-2.8-1.4
		c-0.5,0.6-0.6,1.4-1,2.1C59.9,154,61,154.1,61.4,155.2z M29.9,157.5c2.7,2.3,5.7,4.1,9.3,5.4c0,0.3,0.3,0.3,0.2,0.7
		c1.8,0.1,3,1.4,4.3,2.2c1.4,0.7,2.9,2,4,2.2c0,0.2,0,0.4,0,0.6c3.3,1,5,3.7,8.7,4.2c0-1.3-0.4-2.2-0.5-3.4
		c-7.8-5.4-17-9.1-24.8-14.5C30.8,155.8,30.1,156.4,29.9,157.5z M45,167.6c-4.2-2.8-10.3-5.9-15.6-8.5c-0.4,0.5-0.7,1.2-1.9,1
		c1,1.6,3.4,1.6,4.2,3.3c0.5-0.1,0.7,0.1,1,0.1c0.6,1.4,2.9,1,3.5,2.4c0.8,0,1.5,0,1.6,0.8c0.2,0,0.5,0,0.7,0c0,0.2,0.1,0.4,0.2,0.6
		c3.7,1.4,6.8,3.6,10.7,5.5c0.2-0.2,0.5-0.3,0.8-0.3c0.2,1.3,2.7,1.1,3.2,0.4C50.4,171.2,47.4,168.7,45,167.6z M44.1,170.5
		c-3.1-1.6-7.1-3.5-10.1-5.7c-2.6-0.6-5-2.7-7.6-3.8c-0.7,0.7-1.7,1.1-2.3,1.9c1.7,0.3,2,2.1,4,2c0,0.2,0.1,0.4,0.2,0.6
		c4,2.4,8,3.9,12,6.3c2.1,0.2,3.3,1.4,5,2c0.7,0,2.7,0.3,3.3-0.5C47.2,172.2,44.9,171.6,44.1,170.5z M22.8,163.4
		c-1,0.5-1.8,1.1-2.8,1.6c0.7,1.2,2.6,1,2.9,2.7c2.5,0.1,3.2,2.4,5.8,2.5c0,0.2,0,0.4,0,0.6c0.6,0,1.4-0.1,1.3,0.6
		c0.9-0.3,1.1,0.4,1.3,0.6c1.4,0.9,3.6,0.9,4.9,2c0,0.3,0.1,0.7-0.1,0.9c2.7-0.4,4.4-0.2,6.8-0.9C36.5,170.2,29.7,166.7,22.8,163.4z
		 M34.8,174.2c-5.9-2.1-10.4-5.9-16.1-8.3c-0.5,0.5-1.2,0.8-1.8,1.3c2,1.4,4.2,2.7,6.4,3.9c-0.1,0.3-0.4,0.3-0.1,0.6
		c0.5-0.3,0.8,0,1.3,0.1c0.3,0.3,0,0.2,0,0.6c2.7,0,4.6,2.9,7.5,2.7c0.5,1.2,1.8,0,3.2,0.1C35.4,174.6,34.8,174.8,34.8,174.2z
		 M173.7,160.2c1.2,0,2.4-0.1,3.3-0.2c-1.1-0.6-2-1.6-3.3-2.1C173.9,158.8,173.6,159.3,173.7,160.2z M207.9,157c0.7-0.1,1,0.2,1.7,0
		c-0.3-0.6-0.9-0.9-1.6-1C208,156.4,208.1,156.8,207.9,157z M18,176.8c0.1-0.5,0.2,0.2,0.2,0.4c2.2-0.2,3.7-0.3,5.7-0.8
		c-1.3-0.2-2.4-1.6-3.7-2.3c-0.9-0.5-2.4-0.5-2.3-1.7c1.9,0.7,3.8,1.8,4.9,3c2,0.2,4.5,1.6,7.5,0.4c-4.7-1.8-8.4-4.8-13.1-6.6
		C17.2,171.1,18,174.8,18,176.8z M136.6,163.7c0.9,0.1,1.6,0,2.6-0.3c-1-0.4-1.8-1.1-2.8-1.4C136.3,162.6,136.2,163.1,136.6,163.7z
		 M58,172.6c1-0.1,2-0.1,3-0.2c-0.9-0.9-2-1.5-3.3-1.9C57.8,171.2,57.7,172.2,58,172.6z"/>
	<path class="st0" d="M192.5,38.1c1.1-0.1,1.2,0.8,2.2,0.7c1.2,1.4,3,2.1,4.8,2.9c1.2,1.3,2.8,1.5,3.8,2.8c1.1-0.1,1.6,0.5,2.1,1.2
		c0.9-0.2,1.2,0.2,1.7,0.5c-1.6,1.1-4.1-1.3-5.3-2.1c-3.2-1.6-5.9-3.7-9.2-5C192.9,38.6,192.2,38.7,192.5,38.1z"/>
</g>
<g>
	<path class="st1" d="M165.1,35.5c3.2,2.8,0.6,6.8-3.3,6.3c-1.2-1-2.3-2.1-2.3-4.6C160,35,162.9,34.7,165.1,35.5z M162.8,36.9
		c0.4-0.3,0.8,0.3,0.9-0.1C163.5,36.6,162.8,36.3,162.8,36.9z"/>
	<path class="st1" d="M155.1,42.8c-0.8,0,0.1,1.5-0.7,1.6c0-1.3-0.1-2.5,0.2-4.2c-3.3-9.7,10.4-14.2,15.4-8c0.3,1.5,2,2.7,1.5,4.2
		c1.5,2.6-1.4,8-4.1,10c-1.2,0.9-3.3,2.3-5.4,1.9C159,47.7,157.6,44.4,155.1,42.8z M166.9,31.8c-0.1-0.5,0.5,0.3,0.4-0.2
		c-0.9-0.5-1.4-1.6-3-1.2C164.9,31.3,166.8,31,166.9,31.8z M167.6,32.6c-2.7-1.8-7.9-1.2-9.9,1.6c-1.6,2.2-2.2,5.3-1,7.8
		c1.8,1.8,3.9,3.3,6.8,3.7C169.5,45,172.5,35.9,167.6,32.6z"/>
</g>
<g>
	<path class="st1" d="M137.3,72c3.2,2.8,0.6,6.8-3.3,6.3c-1.2-1-2.3-2.1-2.3-4.6C132.2,71.5,135.1,71.2,137.3,72z M135,73.4
		c0.4-0.2,0.8,0.3,0.9-0.1C135.7,73.1,135.1,72.8,135,73.4z"/>
	<path class="st1" d="M127.4,79.3c-0.8,0,0.1,1.5-0.7,1.6c0-1.3-0.1-2.5,0.2-4.2c-3.3-9.7,10.4-14.2,15.4-8c0.3,1.5,2,2.7,1.5,4.2
		c1.5,2.6-1.4,8-4.1,10c-1.2,0.9-3.3,2.3-5.4,1.9C131.2,84.2,129.8,80.8,127.4,79.3z M139.2,68.3c-0.1-0.5,0.5,0.3,0.4-0.2
		c-0.9-0.5-1.3-1.6-3-1.2C137.1,67.8,139.1,67.5,139.2,68.3z M139.8,69.1c-2.7-1.8-7.9-1.2-9.9,1.6c-1.6,2.2-2.2,5.3-1,7.8
		c1.8,1.8,3.9,3.3,6.8,3.7C141.8,81.5,144.8,72.4,139.8,69.1z"/>
</g>
<g>
	<path class="st1" d="M101.6,85.1c0.2,0,0.5-0.1,0.7-0.1c-0.2,0.9,0.7,0.4,1,0.7c0.9,1.2-0.1,2.9-1,3.9c-0.5,0.1-0.6-0.4-1.1-0.3
		C101,87.3,101,86.7,101.6,85.1z"/>
	<path class="st1" d="M92,90.3c-1.5,0.5-2.9-0.1-3.6-1.1c0.3-0.7,0.4-1.6,0.8-2.2C91.6,86.2,92.9,88.2,92,90.3z"/>
	<path class="st1" d="M89.1,74.2c-0.1,2.3,2.1,7.6,0.4,9.4c-0.6,0.1-0.5-0.6-1-0.7c-0.2-4.9-2.3-9.7-2.9-14.1
		c-0.2-1.1-2.3-5.9,0.8-5.8c0.4,0,0.5,0.3,1.1,0.5c-0.5,1.6,1,3.4,0.7,4.3c-0.2,0-0.1-0.3-0.3-0.3c-0.2,0.4,0.2,0.8,0.5,1
		c0,1-0.4,1.2,0.2,1.8c-0.7,0.4,0.9,2.6,0.1,4.1C88.9,74.6,89,74.6,89.1,74.2z"/>
	<path class="st1" d="M97,86.1c0.7,0.7,0.3,2.9-0.7,3.5C93.3,89.6,95,84.7,97,86.1z"/>
	<path class="st1" d="M92.9,61.4c1.1,2.3,0.8,4.7,1,6.8c0.2,1.5,0.7,2.8,1,4.2c0.4,1.7-0.4,4.3,0.8,6.1c-0.1,1.2-0.1,1.9-0.2,2.9
		c-0.6,0-0.5,0.6-1,0.7c-0.4-0.2-0.4-0.8-0.9-1c-0.7-7-2.3-12.2-3.4-18.7C90.9,61.5,91.8,60.9,92.9,61.4z"/>
	<path class="st1" d="M99.7,59c0.1,5.7,1.8,12.2,1.5,17.3c0.1,0.7,0.7,0.8,0.8,1.6c-0.1,0.4-0.7,0.4-0.7,1c-1.6-0.2-1.3-1.8-1.7-3.1
		c-0.5-2-1.3-4.8-1.4-7.4C97.3,65.2,95.1,58.3,99.7,59z M99,62.4c-0.5-0.4,0.2-1.5-0.5-1.9C98.2,61.1,98.2,62.3,99,62.4z M99.1,67.1
		c-0.2-1.7,0.2-2.7-0.7-4C98.6,63.9,98.3,66.4,99.1,67.1z M99.6,71.4c0.5,0.2,0.3-0.9,0.1-0.9C99.5,70.8,99.6,70.8,99.6,71.4z"/>
</g>
<g>
	<path class="st0" d="M105.2,1.5c-0.7,0.8-1.5,1.2-1.7,2.2c-0.5-0.2-1.5-0.8-2.8-0.5c-0.8,4.1,1.5,7.4,2,11.3
		c-0.3,0.4-0.7,0.7-1.4,0.6c0.2-2.1-0.1-3.8-0.7-5.5c-0.5,0.2-0.8,0.3-1.2-0.1c0.3,1.7,1.4,4,1.6,5.7c-0.2,0.5-0.7,0.5-1.1,0.7
		c-0.6-2.3-1.7-3.1-1.9-5.4c0.5,0,0.3,0.6,0.7,0.7c0-2.4-1.9-4.9-1.9-7.2c-1.5-0.1-2.3,0.8-3.7,0.9c-0.1,0.4,0.2,0.3-0.1,0.6
		c0.7,0.6,2,0.6,2.6,1.6c-1.6-0.6-3.4-1.2-5.1-1.4c0-0.2,0.1-0.6-0.1-0.6c0.5-0.6,1.7-0.4,1.9-1.5c4.2-0.7,8.1-1.8,12.2-2.5
		C104.8,1.1,105,1.3,105.2,1.5z M98,3.8c0.5,1.5,1,4.1,2.4,5.6c-0.4-1.8-0.4-4.3-1-6.1C98.8,3.4,98.1,3.3,98,3.8z"/>
	<path class="st0" d="M65.1,7.1c-1.3,1.4-3.4,1.8-5.9,1.7c-1.2,4.8-0.3,8.8,0.3,12c1,0.4,1.3-0.1,2.3-0.1c-1.4,1.4-3.3,2.7-5.9,1.9
		c-0.7-2.4,0.2-5.6-0.5-7.7c-0.6-1.9-2.4-2.7-3.2-4.3c-0.9-0.3-1.8-0.7-1.5-2.1c2.3-1.2,5.5-0.9,8.2-1.2C61.2,7,63.5,5.9,65.1,7.1z
		 M56.9,9c0.4,4.6,0,7.6,0.3,12c0.5,0,1.1,0.2,1.4,0c-0.2-3.6-1.3-7-0.4-12C57.5,8.8,57.3,9.1,56.9,9z M51.9,9.6
		c1.8,1.6,2.8,3.1,4.2,5.2c0.4-1.6-0.1-3.6-0.4-5.6C54.3,9.3,52.5,8.8,51.9,9.6z"/>
	<path class="st0" d="M49.5,13.8c-0.5,0.2-0.9,0.6-1.4,0.8c-0.4-0.6,0.1-1.7-0.4-2.6c-1.2-1-2.8-1.1-4.3-0.7
		c-2.4,0.7-6.2,2.3-6.5,4.1c4.1,0.9,9.3,0.6,11.9,3.3c-0.1,0.9-0.4,2.3-1.2,2.9c-1.3,1.1-4.8,2.9-6.4,3.3c-0.8,0.2-2.3,0.5-2.9,0.5
		c-1.1,0-1.9-0.8-2.8-0.8c-1.4-0.1-2.6,0.3-4.2-0.4c0.6-1.7,3.7-0.4,5.3-0.6c3.1-0.3,5.4-2.4,7.4-4c-1.1-1.2-3.9-1.1-4.9-2.4
		c-1.8,0.1-9.2-1.4-6.5-4.9c2-2.7,13.4-5.9,16.3-1.1C49,12.3,49.5,12.6,49.5,13.8z M41,9.7c-1.2,1.1-7.9,1.3-7.6,4.1
		c0.1,0.8,1.2,1.1,2.3,1.4c0-0.3,0.1-0.6,0.1-0.9c2-1.5,4.3-2.6,6.9-3.4c0-0.4,1.5-0.3,1.9-0.7C43.7,9.6,41.4,10.3,41,9.7z
		 M45.1,19.6c-0.1,1.7-3.3,2.6-4.5,3.6c2.1-0.2,6.3-1.5,6.4-3.2c0.2-2-3.4-2.5-5.3-2.7C42.9,18.3,45.2,17.9,45.1,19.6z"/>
	<path class="st0" d="M90.6,9c-1.7,1-3.9,1.5-5.6,2.5c2.8,2.5,7.3,2.8,9.5,5.8c-0.5,0.5-0.9,1-1.7,1c-0.3-0.4,0.2-0.5,0.1-1
		c-2.6-2.3-7.2-3.5-10.3-3.6c-0.8,1.1-0.6,2-0.6,3.7c-1.4,0-0.4,1.5-0.8,2.2c-0.8-0.5-0.5,0.2-0.9,0.4c-0.7-0.2-0.3-0.8-0.3-1.2
		c-0.5-2.6-2.3-5.5-2.7-8.3c-0.2-1.3-0.3-1.9-0.6-2.9c-0.9-2.5,6.6-3.6,8.8-3.1C88.2,5,89.1,7.6,90.6,9z M78.7,6.9
		c0.4,1.9,1.4,3.4,2.8,4.4c2.7-0.5,5.6-0.9,6.1-4.1C85.7,5,81.2,6.1,78.7,6.9z M88.1,9c0.2,0.2,1.1,0.1,1.2-0.3
		C88.9,8.5,89,8,88.5,7.9C88.3,8.3,88,8.4,88.1,9z M79.3,11.9c-0.1-1.1-0.5-2-1.1-2.6C78.4,10.3,78.1,11.7,79.3,11.9z M84.7,12.9
		C82.8,12.5,83.3,13.2,84.7,12.9L84.7,12.9z M80.5,15.2c0.2-0.4-0.2-1.3-0.4-1.8c-0.2,0-0.4,0-0.6-0.1C79.5,14.1,80,14.7,80.5,15.2z
		"/>
	<path class="st0" d="M69.9,6.1c1.1,1.3,2.7,3.3,3.7,5.1c0.9,1.5,1.6,3.2,2.6,5c0.8,1.4,1.8,2.6,0.7,3.5c-2.5-0.2-1.5-3.5-2.9-4.6
		c-3.9-0.1-6.9,0.5-7.8,4.9c-1.3,0-1.3,1.5-2.8,1.2c-0.1-1.1,0.5-2.5,0.9-3.8c0.4-1.3,0.7-2.8,1.1-4.1c0.8-2.4,1.8-4.6,2.7-6.5
		C68.5,6.9,68.9,7,69,7.3C69.6,7.2,69.5,6.4,69.9,6.1z M68.3,14.9c1.7,0.3,3.4-0.9,5.2-1c-0.4-1.8-1.8-2.7-2.6-4.1
		c-0.2,0-0.5,0-0.7-0.1C69.2,11.7,68.7,12.5,68.3,14.9z M65.9,15.4c0.5,0.3,0.4-0.1,0.9-0.1c0.4-1.8,1.6-3.8,1.3-5.7
		C66.8,11.5,66.7,13.2,65.9,15.4z M65.1,17.7c0.6,0.2,0.6-0.4,1-0.7c-0.2-0.1-0.3-0.2-0.6-0.2C65.3,17.2,65.4,17.3,65.1,17.7z"/>
</g>
</svg>
