<?xml version="1.0" encoding="utf-8"?>
<!-- Generator: Adobe Illustrator 22.1.0, SVG Export Plug-In . SVG Version: 6.00 Build 0)  -->
<svg version="1.1" id="Capa_1" xmlns="http://www.w3.org/2000/svg" xmlns:xlink="http://www.w3.org/1999/xlink" x="0px" y="0px"
	 viewBox="0 0 512 512" style="enable-background:new 0 0 512 512;" xml:space="preserve">
<style type="text/css">
	.st0{fill:#FFFFFF;}
</style>
<g>
	<g>
		<path class="st0" d="M415.2,129.9c-54.6-12-107.6,21.4-145.4,58.3c-4.1,4-11.7,6.5-16.6,3.7c-19.8-11.4-61.7-45.8-71-50.6
			c-23.7-12.3-54.4-16.7-80.5-11c-59.1,13-94,55.5-100.9,115.2C-5.7,302.1,26.7,359.1,80,378.7c55.8,20.5,118.4-16.1,160.9-48.7
			c16.9-13,86.8,38.4,103.7,45c26.6,10.4,54,9.9,81.2,3.8c55.9-12.4,84-73.3,86.1-125.1C514.4,192.2,473.8,142.8,415.2,129.9z
			 M41.9,178.7c10-15.9,22.5-26.2,36.5-32c5.2-2.2,6.4-0.1,2.4,3.9c-11.1,10.8-22.7,22-34.8,33.7c-9.7,10,10.5-9.7,35.3-33.9
			c4-3.9,7.5-7.2,7.6-7.2c0.2,0-3,3.1-7,7c-11.4,11.1-24,23.2-37.3,36.2c-4.1,3.9-7.4,5.8-7.5,4.1C36.9,189,38.9,183.5,41.9,178.7z
			 M485,300.3c-11.7,41.9-44.1,68.8-86.8,70.5c-5.7,0.2-9.7-0.6-9.1-1.2c0.6-0.6,0.1-1.5-1.1-2c-1.2-0.5-3.1-0.1-4.1,1
			c-1,1-3.8,1.7-6.3,1.3c-1.5-0.2-3-0.4-4.5-0.7c-3.7-0.6-7.5-1.6-11.2-2.7c-5.4-1.6-7.8-5.3-5.5-7.6c2.3-2.4,1.2-6-2.4-8.1
			c-3.6-2.2-8.7-1.8-11.5,1c-2.8,2.8-7.2,3.9-9.9,2.4c-2.7-1.5-2.5-5.1,0.4-8.1c2.9-3,4.9-5.6,4.5-5.9c-0.5-0.3-3.2,1.9-6,4.9
			c-2.9,3.1-8.2,3.8-11.9,1.5c-3.6-2.3-4-6.9-0.9-10.2c3.1-3.3,3.1-7.9,0.1-10.3c-1.9-1.5-3.7-3.1-5.4-4.5c-0.4-0.3-0.7-0.6-1.1-0.9
			c-0.6-0.4-3.9,2-7.3,5.4c-3.4,3.4-8.5,4.5-11.4,2.4c-1.8-1.3-3.5-2.7-5.2-4c-18.1-13.8-33.1-18.3-53.7-5.7
			c-33.4,20.4-69.3,44.3-104.8,49.9c-5.6,0.9-12.2,0.2-14.7-0.9c-2.5-1.1-5.3-1.3-6.4-0.3c-1.1,1.1-6.6,1.5-12.1,0.2
			c-6.1-1.4-12.1-3.6-18-6.7c-5-2.6-5.7-8.1-1.9-11.7c3.8-3.6,5.5-8.1,3.9-10.1c-1.6-2-5.9-0.4-9.8,3.8c-0.2,0.2-0.3,0.3-0.5,0.5
			c-3.9,4.1-10.6,4.7-14.6,0.8c-4-3.9-3.8-10.5,0.2-14.5c1.5-1.4,2.9-2.9,4.4-4.3c4-4,7.1-7.5,7-7.7c-0.2-0.3-3.5,2.7-7.5,6.8
			c-1.5,1.5-3,3-4.5,4.5c-4,4-8.7,5.6-10.5,3.4c-1.7-2.2,0.2-7.3,4.2-11.3c3.6-3.6,7.2-7.2,10.8-10.7c0.5-0.5,1-1,1.5-1.5
			c0.8-0.8,0.7-3.5-0.2-5.9s-4.7-1.2-8.6,2.8c-2.7,2.8-5.4,5.6-8.1,8.3c-3.9,4.1-8.3,5.4-9.7,2.9c-1.3-2.5-2.2-5.6-2.1-6.9
			c0.1-1.3,3.4-5.7,7.3-9.8c2.9-3,5.8-6,8.6-8.9c3.9-4.1,6.1-11.8,5.4-17.4c-0.1-0.6-0.2-1.2-0.2-1.9c-0.7-5.6-4.2-7-8.2-3
			c-1,1-2,1.9-2.9,2.9c-4,4-6.9,2.6-6.4-3c0.5-6.2,1-12.1,1.4-17.2c0.4-5.6,4.1-13.3,8.3-17.2c0.8-0.7,1.6-1.5,2.4-2.3
			c4.1-3.9,7.7-8.3,8.1-9.8c0.4-1.5-2.5,0.5-6.5,4.5c-1.4,1.4-2.7,2.7-4,4.1c-4,4-7.1,5.5-7,3.3c0.1-1.8,0.2-3.2,0.2-4
			c0-1.3-0.1-4.7-0.4-9.8c-0.3-5.4,2.7-13.1,6.6-17.1C63.6,185,81.8,166.4,99.9,148c4-4,11.8-7.5,17.4-7.1
			c39.5,2.6,82,27.2,109.8,54.4c16.3,15.9,29.2,18.6,48.4,6.1c0.8-0.5,1.4-0.9,1.8-1.3c14.7-15.4,31.9-29.2,50.3-39.5
			c4.9-2.8,5.7-1.6,1.6,2.2c-11.1,10.3-22.3,20.7-33.4,31c-4.1,3.9-4.1,9.8,0.9,10.4c5.1,0.6,12.3-4.7,16.5-8.6c3-2.8,6-5.5,8.9-8.3
			c2.9-2.8,6-5.7,9.3-8.6c9.8-9.1,19.5-18.2,29.2-27.2c4.1-3.9,12-8,17.6-8.8c30-3.9,60.3,4.5,86.1,32.3
			C494.8,208.1,496.4,259.7,485,300.3z"/>
		<path class="st0" d="M453.6,240c-4,4-7.5,4.3-8.2,0.7c-0.7-3.6,1.6-9.6,5.6-13.7c1.5-1.5,3-3.1,4.5-4.6c4-4,6.2-8.3,4.9-9.4
			c-1.3-1.1-5.6,1.3-9.4,5.5c-0.7,0.8-1.5,1.6-2.3,2.4c-3.9,4.1-8.5,4-11,0.1c-2.6-3.9-2.8-9.2,0.2-12.3c2.9-3.2,2.8-6.7-0.5-7.5
			c-3.2-0.8-7.5,0.4-9.5,2.3c-1.9,1.9-7.2,0.7-12.2-2c-16.4-8.6-36.6-10.6-53.4-4.1c-25.2,9.8-75.1,42.7-64.2,74.4
			c1.9,5.3,8.2,12.1,12.5,15.8c28.8,24.6,61.2,39.4,99.2,23.7c15.7-6.5,26.7-19,32.5-33.7c2.1-5.3,6.2-13.1,10.1-17.1
			c5.6-5.7,11.2-11.5,16.8-17.2c4-4,6.1-10.3,4.3-13.8c-1.8-3.5-6.9-2.8-10.9,1.2C459.6,234,456.6,237,453.6,240z M412.7,295.1
			c-24.8,27.7-60.7,4.7-83.8-15.1c-4.3-3.7-10.8-10.5-11.9-16c-4.5-21.6,26.8-43.6,42.6-53.5c28-17.5,56.9,7.5,65.6,31.8
			C431.7,260.5,425.2,281.2,412.7,295.1z"/>
		<path class="st0" d="M244.1,245.8c-0.3-0.4-0.6-0.7-1-1.1c-0.5-0.6-4.3,2-8.5,5.8c-4.1,3.8-8.1,7.5-12.1,11.3
			c-4.1,3.9-6.1,4.3-5.6,0.6c0.3-2.1,0.2-4.3-0.3-6.6c-0.2-1-0.5-2-0.8-3c-0.5-1.6,2.4-6.1,6.5-10c1-0.9,2-1.8,3-2.8
			c4.1-3.9,6.9-7.6,6.1-8.4c-0.7-0.8-4.6,1.9-8.6,5.9c-0.7,0.7-1.3,1.3-2,2c-4,4-9,3-12-1.8c-0.9-1.4-1.8-2.8-2.8-4.1
			c-3.3-4.5-4-10.5-0.7-13.9c3.2-3.3,4.3-7.2,2.3-8.6c-2-1.4-6.1,0.1-9.2,3.1c-3,3-8.9,2.4-13.6-0.9c-2.4-1.7-5-3.4-7.6-4.9
			c-4.9-2.9-8.1-5.8-6.9-7c1.2-1.2-0.3-2.1-3.4-1.7c-3.1,0.4-9.7-0.8-15.2-2.4c-8.5-2.4-16.9-3.5-24.6-3.1
			c-33.6,1.7-60.7,29.7-62.4,62.7c0,0.2,0,0.2,0.1,0.4c0.1,0.2,0.1,0.5,0,0.7c-0.1,0.1-0.1,0.2-0.1,0.4c1.7,35.1,31,63.1,67,60.2
			c14.8-1.2,28-6,40.3-13c4.9-2.8,5.8-2.6,2.2,0.7c-3.6,3.3-4.8,6.2-2.7,6.4c1.2,0.1,2.5,0.1,3.8,0.1c2.2,0,4.4-0.2,6.6-0.6
			c3.6-0.6,9.8-4.5,14-8.3c15-13.8,30-27.6,45-41.5c4.1-3.8,7.1-9.4,5.9-12.1C246.2,248.8,245.3,247.2,244.1,245.8z M170.8,293.3
			c-16.7,12.3-36.5,17.5-56.5,9.2c-15.9-6.6-24.9-22.2-28.3-38.4c-1.1-5.5-1.2-14.8,0-20.3c4.1-19.4,16.7-34.9,38.5-38.4
			c26.9-4.3,52.7,26.6,68.1,44.5C207.9,267.8,182.6,284.6,170.8,293.3z"/>
		<path class="st0" d="M449.4,280.5c-7.2,7.3-14.3,14.7-21.5,22c-3.9,4.1-3,6,1.8,3.5c4.7-2.6,10.2-7.4,12.7-10s7.5-8.2,10.1-13.2
			c0-0.1,0.1-0.1,0.1-0.2C455.2,277.6,453.3,276.4,449.4,280.5z"/>
	</g>
</g>
</svg>
