<?xml version="1.0" encoding="utf-8"?>
<!-- Generator: Adobe Illustrator 22.1.0, SVG Export Plug-In . SVG Version: 6.00 Build 0)  -->
<svg version="1.1" id="Layer_2" xmlns="http://www.w3.org/2000/svg" xmlns:xlink="http://www.w3.org/1999/xlink" x="0px" y="0px"
	 viewBox="0 0 138 116.1" style="enable-background:new 0 0 138 116.1;" xml:space="preserve">
<style type="text/css">
	.st0{fill:#E23D41;}
</style>
<g>
	<path class="st0" d="M135.8,75.1c-0.5,0.1-1,0.2-1.5,0.3c0-0.1,0-0.2,0-0.3c1.2,0.1,2.6-1,2-2.5c-4.5-12.1-9.7-24-14.8-35.9
		c-2.6-6-5.4-11.9-8-17.9c-2.2-5.1-4.3-10.3-6.7-15.4c0.4-0.7,0.7-1.4,1.1-2.1c0.9-1.6-1.2-2.9-2.5-2.1c-1.5,0-3,0.8-4.5,1.3
		c-2.1,0.8-4.3,1.5-6.4,2.3c-4.3,1.5-8.7,3-13,4.4c-9.1,2.9-18.2,5.7-27.2,8.7C45.1,18.9,36,21.7,27,25c-8.5,3.1-17.3,5.8-25.3,10.2
		c-0.1-0.1-0.1-0.2-0.1-0.3c-0.3-0.6-1.2-0.3-1,0.4c0.1,0.2,0.1,0.4,0.2,0.6c-0.2,0.2-0.2,0.5-0.1,0.8c-0.1,0-0.3-0.1-0.4-0.1
		C0,36.4-0.1,36.9,0.2,37c0.4,0.2,0.8,0.3,1.1,0.5c3.8,12.6,8.6,24.9,13.4,37.1c5.2,13.3,10.4,26.6,15.5,39.9
		c0.4,0.9,1.2,1.1,1.9,0.9c0,0,0,0,0,0c4.5-0.2,8.6-1.3,13-2.5c4.5-1.2,8.9-2.6,13.3-4.1c9-3.2,17.9-6.7,26.8-10.2
		c8.6-3.4,17.1-6.9,25.7-10.3c4.3-1.7,8.5-3.3,12.8-4.9c4.4-1.6,9.2-2.7,13.3-4.9C138.9,77.7,137.7,74.8,135.8,75.1z M124.1,74.9
		c0,0,0,0.1,0,0.1c-1.8-1.3-3.9-2.5-5.9-3.5c-0.2-0.9-0.2-1.9,0.1-2.8c1.5,1.2,3,2.4,4.6,3.5c1.9,1.5,4.1,3.2,6.4,4.6
		c-0.7,0.3-1.4,0.5-2.1,0.8c-0.8-0.9-1.7-1.7-2.7-2.4c0-0.2,0-0.3-0.1-0.5C124.3,74.6,124,74.7,124.1,74.9z M86.3,48.1
		c0.2-0.5,0.5-0.9,0.7-1.4c3.2-5.9,7.6-11.2,10.5-17.3c2.6-5.3,4-11.1,5.7-16.8c0.7-2.4,1.5-4.8,2.5-7.1c1.4,4.5,3.2,9,4.9,13.4
		c2.4,6.1,4.8,12.1,7.3,18.1c4.2,9.9,8.3,19.7,12.2,29.8c-0.6,2.2,0.4,5,1.3,7.6c-0.8-0.4-1.6-0.8-2.3-1.3c-1.9-1.2-3.7-2.6-5.5-4
		c-3.6-2.8-7.1-5.5-11.1-7.7C104.1,56.6,95.6,51.1,86.3,48.1z M118.1,68.5c-0.4,0.8-0.5,1.8-0.3,2.7c-0.9-0.4-1.8-0.9-2.7-1.3
		c-0.6-0.3-1.1-0.5-1.7-0.8c0.1-1.3,0.1-2.5,0.5-3.7C115.3,66.4,116.7,67.4,118.1,68.5z M21.8,31.4c0.5,1,1.3,2.7,1.4,2.9
		c0.5,1.3,1,2.7,2,3.7c0.2,0.2,0.5-0.1,0.4-0.3c-0.8-2-2-3.8-2.9-5.6c0-0.1-0.2-0.4-0.4-0.8c1.8-0.6,3.6-1.2,5.5-1.8
		c0.3-0.1,0.6-0.2,0.9-0.3c0.4,0.4,0.9,0.9,1.2,1.4c0.7,1.1,0.9,2.3,1.3,3.5c0.1,0.2,0.4,0.2,0.5,0c0.1-2.1-1-3.8-2.5-5.1
		c4.9-1.5,9.7-3.1,14.5-4.7c0.6,1.5,1.1,3.1,1.7,4.6c0.1,0.1,0.3,0.1,0.2-0.1c-0.6-1.5-1.2-3.1-1.7-4.6c2.5-0.8,5.1-1.7,7.6-2.5
		l1.1,3.1c0.1,0.1,0.3,0.1,0.2-0.1l-1.1-3.1c1.1-0.4,2.3-0.7,3.4-1.1c5.8-1.9,11.5-3.9,17.3-5.9c-0.7,3-1.1,6.1-1.2,9.1
		c0,0.1,0.2,0.1,0.2,0c0.2-3.2,1.3-6.2,1.8-9.4c2.6-0.9,5.2-1.8,7.8-2.7c-0.6,2-1,4.1-1.8,6.1c-0.1,0.2,0.3,0.4,0.4,0.2
		c1-2,1.6-4.3,2-6.5c0.2-0.1,0.4-0.1,0.6-0.2c4.3-1.5,8.6-3,13-4.6c2.1-0.8,4.3-1.5,6.4-2.3c0.4-0.2,0.9-0.3,1.4-0.5
		c-0.4,0.9-0.7,1.8-1.1,2.8c-1.2,1.8-2.6,3.4-4.5,4.5c0,0,0,0.1,0,0c1.6-1,2.9-2.1,4.1-3.5c-0.9,2.6-1.6,5.2-2.4,7.7
		c-1.8,6.3-3.9,12.1-7.5,17.7c-3.6,5.6-6.9,11.4-10.1,17.3c-1.1,2-1.9,4.2-2.9,6.2c-0.7,1.6-1.7,1.7-3.3,1.7
		c-5.4,0-10.8-1.6-15.9-3.3c-5.6-1.8-11-4.1-16.5-6.3c-5.5-2.2-11.1-4.1-16.8-5.7c-4.2-1.2-8.4-2.2-12.6-3.2
		c-0.6-1.8-1.7-3.4-2.8-4.9c1.9-0.6,3.8-1.2,5.8-1.8c0.7,2,1.5,4.1,3.4,5.3c0.3,0.2,0.5-0.2,0.3-0.4c-1.6-1.5-2.5-3.1-3.3-5
		C18.3,32.5,20.1,31.9,21.8,31.4z M10.2,35.1c0.9,1.5,1.8,3,2.5,4.6c-2.3-0.6-4.6-1.2-6.8-1.8c-1.1-0.3-2.2-0.6-3.3-0.9c0,0,0,0,0,0
		C5.1,36.5,7.7,35.8,10.2,35.1z M37.8,50c7.5,3,15,6.6,22.8,9c-1.9,2.7-3.6,5.5-5.2,8.4c-0.1-0.1-0.2,0-0.1,0.1c0,0,0,0,0,0.1
		c-2.3,4.1-4.4,8.4-6.4,12.7c-0.2-0.1-0.3-0.1-0.5-0.2c-0.2-0.1-0.3,0.2-0.1,0.3c0.2,0.1,0.3,0.1,0.5,0.2c-0.5,1.1-1,2.2-1.5,3.4
		c-0.4,1-0.9,2-1.3,3c-0.3,0-0.6,0.1-0.9,0.2c-0.1,0.1-0.1,0.3,0.1,0.2c0.2-0.1,0.4-0.1,0.7-0.2c-1.6,3.7-3.1,7.5-4.5,11.3
		c-0.1,0.2-0.2,0.4-0.3,0.6c0,0-0.1-0.1-0.1-0.1c-0.2-0.3-0.6,0-0.4,0.3c0.1,0.1,0.2,0.2,0.2,0.3c-2.3,4.6-4.8,9.2-7.8,13.3
		c-4.7-12.9-9.8-25.7-14.9-38.5c-4.8-12.1-9.7-24.2-14.9-36C14.4,43,26.5,45.5,37.8,50z M36.8,111.3c-0.5,0.3-1,0.7-1.4,1.3
		c-0.1,0.1,0.1,0.2,0.1,0.1c0.3-0.4,0.7-0.7,1.1-1c-0.1,0.4-0.3,0.9-0.4,1.3c0,0.1,0,0.1,0,0.2c-1,0.4-2,0.9-3,1.4
		c0.1-0.2,0.1-0.5,0.1-0.7c0,0,0,0,0,0c1.6-1.6,3.1-3.4,4.4-5.2C37.4,109.5,37.1,110.4,36.8,111.3z M38.8,112.2
		c0.1-0.2,0.1-0.5,0.2-0.7c0.3,0.1,0.6,0.2,0.9,0.3C39.5,111.9,39.2,112.1,38.8,112.2z M110.3,84.1c-8.6,3.4-17.1,6.9-25.7,10.5
		c-8.6,3.5-17.2,7-25.9,10.3c-4.3,1.6-8.7,3.3-13,4.8c-1.7,0.6-3.4,1.2-5.1,1.8c-0.5-0.3-1-0.4-1.5-0.5c0.6-1.7,1.1-3.4,1.7-5.2
		c0.5,0.3,0.9,0.8,1.2,1.5c0.1,0.3,0.6,0.1,0.4-0.2c-0.3-0.7-0.8-1.4-1.5-1.7c0.5-1.4,0.9-2.7,1.4-4.1c1.3,1.2,2.8,2.1,4.4,2.9
		c0.3,0.1,0.5-0.3,0.2-0.4c-1.7-0.8-3.1-1.7-4.4-3c0.1-0.1,0.1-0.2,0.2-0.4c1-1.9,2.2-3.8,3.3-5.8c1.4,1,2.8,2.1,4.2,3.1
		c0.2,0.2,0.5-0.2,0.3-0.3c-1.4-1-2.9-2-4.3-3.1c1.1-2.1,2.2-4.3,3-6.5c0.8,0.4,1.5,1,2.3,1.5c0.2,0.1,0.4-0.2,0.3-0.4
		c-0.7-0.6-1.5-1.2-2.4-1.6c0.4-1.1,0.7-2.2,0.9-3.3c0.1-0.5-0.6-0.8-0.9-0.4c-0.1,0.1-0.2,0.2-0.3,0.3c0.4-0.9,0.8-1.8,1.2-2.7
		c0.5,0.2,1,0.5,1.5,0.7c1.2,0.6,2.3,1.3,3.6,1.6c0.2,0.1,0.4-0.3,0.2-0.4c-1-0.7-2.2-1-3.2-1.5c-0.6-0.3-1.2-0.5-1.9-0.8
		c0.7-1.7,1.5-3.3,2.2-4.9c0.8,0.4,1.6,0.8,2.4,1.2c0.8,0.4,1.8,1.1,2.7,1.2c0.2,0,0.4-0.3,0.2-0.4c-0.6-0.6-1.6-0.8-2.4-1.1
		c-0.9-0.4-1.8-0.8-2.8-1.2c1.1-2.4,2.2-4.7,3.4-7c0.9,1,1.9,1.9,3.2,2.5c0.3,0.1,0.5-0.3,0.2-0.4c-1.3-0.6-2.3-1.4-3.3-2.3
		c1.6-3.1,3.3-6.2,5-9.2c2.7,0.8,5.4,1.5,8.2,1.9c3.4,0.5,8.3,1.6,10.9-1.3c1.1-1.2,1.6-2.9,2.2-4.4c0.9-2.2,2-4.3,3.1-6.4
		c1.4,0.8,2.9,1.6,4.3,2.4c0,0-0.1,0.1-0.1,0.2c-0.1,0.8-0.2,1.5-0.4,2.3c-0.2,0.9-0.6,1.6-0.8,2.5c0,0.2,0.3,0.4,0.4,0.2
		c1-1.3,1.1-3.4,1.2-4.9c0,0,0,0,0,0c1.5,0.8,2.9,1.6,4.4,2.5c0.1,1.9,0.3,3.9,1,5.6c0.1,0.3,0.5,0.1,0.4-0.2
		c-0.5-1.7-0.8-3.4-1-5.1c2.5,1.4,4.9,2.9,7.4,4.3c0.1,0.3,0.2,0.7,0.3,1c0.2,1,0,2-0.1,3.1c0,0.3,0.4,0.4,0.5,0.1
		c0.4-1.3,0.3-2.6,0-3.8c1.8,1.1,3.5,2.1,5.3,3.2l0,0c0.4,1.2,0,2.4-0.2,3.6c0,0.2,0.2,0.2,0.2,0c0.1-1.2,0.4-2.4,0-3.6
		c0.9,0.5,1.7,1,2.6,1.5c0.8,0.5,1.5,0.9,2.3,1.4c-0.4,1.2-0.6,2.4-0.7,3.6c-5.3-2.3-10.8-4.1-15.9-6.8c0,0-0.1,0,0,0.1
		c5.1,2.7,10.6,4.6,15.9,6.9c0,0.3-0.1,0.6-0.1,1c0,0.3,0.4,0.4,0.5,0.1c0-0.3,0-0.6,0.1-0.9c0.2,0.1,0.3,0.1,0.5,0.2
		c1.3,0.6,2.6,1.2,3.9,1.9c0.1,0.4,0.2,0.8,0.3,1.2c0.1,0.3,0.6,0.1,0.4-0.2c-0.1-0.3-0.2-0.5-0.3-0.8c2,1,4,2.2,5.8,3.6
		c0,0.6-0.4,1.3-0.6,1.8c-0.1,0.2,0.2,0.3,0.3,0.1c0.2-0.5,0.6-1.1,0.6-1.7c0.9,0.7,1.7,1.4,2.4,2.2c-1.3,0.5-2.5,1-3.7,1.4
		C118.9,80.8,114.6,82.4,110.3,84.1z"/>
	<path class="st0" d="M37.9,31.6l-1.7-4.5c-0.1-0.2-0.5-0.1-0.4,0.1l1.7,4.5C37.6,32,38,31.9,37.9,31.6z"/>
	<path class="st0" d="M60.6,26.2c0.6-2.5,0.5-4.9,0.3-7.4c0-0.2-0.3-0.2-0.3,0c0.3,2.5,0.4,4.9-0.1,7.3
		C60.4,26.3,60.5,26.3,60.6,26.2z"/>
	<path class="st0" d="M91.3,14.5c0.6-0.6,1.1-1.4,1.5-2.1c0.5-0.8,1-1.7,1.2-2.7c0.1-0.3-0.3-0.4-0.5-0.2c-0.5,0.7-0.8,1.5-1.2,2.3
		c-0.4,0.8-0.9,1.6-1.5,2.3C90.4,14.4,91,14.8,91.3,14.5z"/>
</g>
</svg>
