<?xml version="1.0" encoding="utf-8"?>
<!-- Generator: Adobe Illustrator 22.1.0, SVG Export Plug-In . SVG Version: 6.00 Build 0)  -->
<svg version="1.1" id="doodle" xmlns="http://www.w3.org/2000/svg" xmlns:xlink="http://www.w3.org/1999/xlink" x="0px" y="0px"
	 viewBox="0 0 53.8 98.4" style="enable-background:new 0 0 53.8 98.4;" xml:space="preserve">
<style type="text/css">
	.st0{fill-rule:evenodd;clip-rule:evenodd;fill:#141414;}
	.st1{fill-rule:evenodd;clip-rule:evenodd;fill:#E23D41;}
</style>
<g>
	<path class="st0" d="M20.1,57.8c0.1,0.1,0,0.1,0.1,0c-0.1,0.2,0,0.4-0.2,0.5C20,58.2,20,57.9,20.1,57.8z"/>
	<path class="st0" d="M12.3,56c0,0.1,0.1,0,0.2,0c0,0.1-0.2,0.1-0.3,0.2c-0.1,0,0-0.1,0-0.2c-0.6,0.1-1.3,0.6-1.9,0.5
		c-0.5,0-0.7-0.5-1.1-0.7c-0.2,0.1-0.3-0.2-0.5-0.1c-0.2-0.3-0.5-0.5-0.8-0.7c-0.3-0.3-0.5-0.6-0.7-1c-0.4-0.7-0.7-1.3-0.9-2.2
		c-0.1-1.8-0.1-4,1.1-5c0.2,0,0.3-0.1,0.4-0.1c0.1,0,0-0.1,0.1-0.1c0.5-0.3,0.9-0.6,1.3-1c0.5-0.2,1.8-0.3,2.2,0.1
		c0.4-0.1,0.6,0.5,1.1,0.5c0,0.2,0.2,0.2,0.3,0.2c0,0.1,0.1,0.1,0.1,0.2c1,1,1.9,2,2,4c0,0.1-0.1,0-0.1,0.1c0.2,1.5-0.1,3.1-0.9,4.1
		c-0.3,0.2-0.6,0.5-0.8,0.8c-0.2,0.1-0.3,0.1-0.4,0.3C12.5,55.9,12.4,56,12.3,56z M9.6,46.9c0.2-0.3,0.4-0.5,0.5-0.8
		C9.8,46.1,9.7,46.7,9.6,46.9z M10.8,46.8c0.2-0.1,0.3-0.2,0.5-0.3c0,0,0.1,0.1,0.1,0.1c0,0.1,0,0.2-0.1,0.2c0.1,0,0.2,0,0.2,0.1
		c0.2-0.1,0.3-0.3,0.4-0.4c-0.1-0.2-0.4-0.2-0.6-0.3C11.2,46.3,10.7,46.3,10.8,46.8z M10.5,46.4c0-0.1,0.2-0.2,0.1-0.2
		C10.6,46.2,10.4,46.3,10.5,46.4z M8.6,46.5c0.1,0,0.2-0.1,0.2-0.1C8.8,46.4,8.6,46.3,8.6,46.5z M10.3,46.6c0,0,0.1-0.2,0.1-0.2
		C10.4,46.5,10.2,46.6,10.3,46.6z M7.9,48.6c0.2-0.6,0.7-1.2,0.9-1.8C8.4,47.2,8.1,48,7.9,48.6z M6.9,49c0.3-0.7,0.6-1.4,1-2.1
		c0,0,0,0,0,0C7.3,47.3,6.7,48,6.9,49z M11.8,47.3c0.1-0.1,0.2-0.3,0.3-0.4C11.9,46.9,11.9,47.1,11.8,47.3z M12.1,47.7
		c0.2,0,0.2-0.5,0.6-0.5c0-0.1-0.1-0.2-0.2-0.3C12.4,47.1,12.2,47.5,12.1,47.7z M9.5,47.3c0.1-0.1,0.2-0.2,0.2-0.3
		C9.7,47,9.6,47.3,9.5,47.3z M10.4,47.3c0.1-0.1,0.3-0.2,0.1-0.3C10.5,47.1,10.3,47.2,10.4,47.3z M11.1,47.2c0.1,0,0,0.1,0.1,0.1
		c0.1-0.1,0-0.2,0-0.3C11.2,47.1,11.1,47.1,11.1,47.2z M10.4,47.5c0,0.1,0.1,0.2,0.2,0.2c0-0.2,0.2-0.4,0-0.5
		C10.5,47.3,10.6,47.5,10.4,47.5z M12.4,48.1c0.1,0,0.1,0.2,0.2,0.2c0.2-0.1,0.2-0.3,0.2-0.5c0.1,0,0.2-0.1,0.3,0
		c0-0.2-0.1-0.4-0.2-0.5C12.7,47.6,12.4,47.7,12.4,48.1z M9.6,47.8c0.1,0,0.1,0.1,0.2,0.1c0.1-0.1,0.1-0.2,0.1-0.4
		C9.7,47.5,9.6,47.6,9.6,47.8z M8.8,47.9c0-0.1,0.1-0.1,0.1-0.2C8.8,47.7,8.7,47.8,8.8,47.9z M10.5,48c-0.1-0.1-0.1-0.3-0.3-0.3
		C10.2,47.9,10.3,48.1,10.5,48z M11.2,47.9c0.1-0.1,0-0.2-0.1-0.2C11.1,47.8,11.2,47.9,11.2,47.9z M9.9,48.2c0.2,0,0.1,0.3,0.3,0.3
		c0-0.2-0.1-0.5-0.3-0.6C10,48,10,48,9.9,48.2z M11,48.3c0.2-0.1,0.1-0.4-0.1-0.4C10.8,48,10.8,48.2,11,48.3z M13.1,48.4
		c0.1,0,0.2,0,0.2,0.1c-0.2,0.2,0,0.7,0.2,0.8c0-0.2,0.1-0.4,0.2-0.5c-0.2-0.3-0.3-0.6-0.5-0.9C13.1,48,13.1,48.2,13.1,48.4z
		 M14.1,49.1c0,0.3,0,0.3,0.1,0.5c-0.1,0.3,0,0.7,0.1,0.9c-0.2,0.6,0,1.4-0.1,2.1c0,0.1-0.2,0.3-0.3,0.4c-0.1,0.1,0,0.3-0.1,0.4
		c-0.2,0.6-0.6,1-0.7,1.6c1-0.6,1.4-2.1,1.4-3.6c0.1-1.4-0.1-2.8-1-3.6C13.7,48.4,14,48.7,14.1,49.1z M11.5,48.4
		c0.1,0,0.1-0.1,0.1-0.1c-0.1-0.1,0-0.1-0.1-0.2C11.4,48.2,11.4,48.3,11.5,48.4z M9.4,48.5c0.1-0.1,0.1-0.4-0.1-0.4
		C9.3,48.3,9.2,48.5,9.4,48.5z M10.5,48.5c0.1,0.1,0.1,0.3,0.3,0.3C11.1,48.6,10.7,48.3,10.5,48.5c0.1-0.1,0.1-0.1,0.1-0.2
		C10.5,48.3,10.6,48.3,10.5,48.5z M12.3,48.6c0.1-0.1,0-0.3-0.1-0.3C12.1,48.4,12.2,48.5,12.3,48.6z M10.1,48.8
		c0.1-0.2-0.1-0.4-0.3-0.5C9.8,48.5,9.9,48.7,10.1,48.8z M11.2,48.6c0.1,0,0.1,0.1,0.1,0.2c0.2-0.2-0.1-0.2-0.1-0.4
		C11.3,48.5,11.2,48.5,11.2,48.6z M8.8,48.6C8.8,48.6,8.8,48.6,8.8,48.6C8.8,48.6,8.8,48.7,8.8,48.6c0.1,0,0.2-0.1,0.1-0.2
		C8.9,48.5,8.8,48.5,8.8,48.6z M9.9,49.2c0.1-0.3-0.2-0.4-0.3-0.6C9.5,48.8,9.7,49.1,9.9,49.2z M10.7,49c-0.1-0.1-0.1-0.4-0.3-0.4
		c0,0.1,0,0.1,0,0.2C10.6,48.8,10.6,49,10.7,49z M11.9,48.8c0,0.2,0,0.3,0.2,0.3c0.1-0.2,0.1-0.3,0-0.4C12,48.8,11.9,48.9,11.9,48.8
		z M9,49.2c0.1,0,0.1-0.2,0.2-0.3c0,0-0.1-0.1-0.1-0.1C8.9,48.9,9,49,9,49.2z M10.9,49.1c0.1,0,0.1,0.1,0.2,0.1
		c0.1-0.1,0.1-0.3-0.1-0.3C11,49,11,49.1,10.9,49.1z M10.5,49.5c0-0.1,0-0.1,0.1-0.2c-0.1-0.1-0.2-0.3-0.3-0.4
		C10.2,49.2,10.4,49.4,10.5,49.5z M11.7,49.2c0,0.1,0.1,0.2,0.2,0.2C12,49.3,11.8,49.1,11.7,49.2z M9.5,49.8
		c0.3-0.2-0.1-0.5-0.2-0.6C9.2,49.5,9.4,49.7,9.5,49.8z M13.6,49.8c0.2-0.1,0.4-0.4,0.2-0.6C13.7,49.4,13.5,49.6,13.6,49.8z M6.6,50
		c0-0.2,0.1-0.6,0-0.7C6.6,49.6,6.5,49.8,6.6,50z M10.4,49.8c0.1-0.2-0.2-0.4-0.3-0.5C10,49.5,10.2,49.7,10.4,49.8z M13.2,49.8
		c0.1-0.2-0.1-0.3-0.2-0.5C13,49.5,13.1,49.7,13.2,49.8z M12.4,49.8c0.1-0.2,0.2-0.4,0-0.5C12.4,49.5,12.2,49.7,12.4,49.8z
		 M8.6,49.9c0.2,0.1,0.3-0.2,0.3-0.4C8.7,49.4,8.6,49.7,8.6,49.9z M11.4,49.8c0.1,0,0.1,0.1,0.2,0.1c0-0.1,0.1-0.4-0.1-0.4
		C11.5,49.7,11.4,49.7,11.4,49.8z M10.7,49.9c0.1,0,0.2-0.1,0.2-0.2c-0.1,0,0-0.1-0.1-0.1C10.7,49.7,10.6,49.7,10.7,49.9z M10.1,50
		c0-0.2-0.1-0.3-0.2-0.3C10,49.8,10,50,10.1,50z M12.3,50c0-0.1-0.1-0.2-0.2-0.3C12.1,49.9,12.2,49.9,12.3,50z M12.9,50.5
		c0-0.1,0.1-0.1,0.1-0.2c-0.1-0.2-0.2-0.3-0.3-0.4C12.4,50,12.7,50.3,12.9,50.5z M9.1,50.5c0.1,0,0.2-0.2,0.2-0.3
		c-0.1-0.1-0.2-0.3-0.3-0.4C8.8,50,8.9,50.5,9.1,50.5z M9.7,50.1c0.2,0,0.3,0.5,0.4,0.1C10,50.1,10,50,9.8,49.9
		C9.8,50,9.7,50,9.7,50.1z M10.9,50.2c0.1,0,0.2-0.3,0.1-0.2C11,50,10.9,50.1,10.9,50.2z M10.6,50.1c0-0.1,0-0.1-0.1-0.1
		C10.5,50.1,10.5,50.1,10.6,50.1z M11.8,50.4c0.1,0.1,0.1,0.2,0.2,0.3c0-0.1,0.1-0.2,0.1-0.3c-0.1-0.1-0.1-0.2-0.2-0.3
		C11.9,50.2,11.9,50.3,11.8,50.4z M11.1,50.4c0.1,0,0.1,0.1,0.2,0.1c0-0.1,0.1-0.1,0.1-0.2c0,0,0-0.1-0.1-0.1
		C11.2,50.3,11.1,50.3,11.1,50.4z M10.5,50.4c0-0.1,0-0.1-0.1-0.2C10.3,50.3,10.4,50.4,10.5,50.4z M9.9,50.7
		c-0.1-0.1-0.2-0.3-0.3-0.3C9.6,50.5,9.8,50.8,9.9,50.7z M11.4,50.8c0-0.1,0.1-0.2,0.1-0.3c0,0,0,0-0.1,0
		C11.4,50.5,11.2,50.7,11.4,50.8z M8.2,50.8c0.1,0,0.2-0.1,0.2-0.2c-0.1,0-0.1-0.1-0.2-0.1C8.1,50.5,8.2,50.7,8.2,50.8z M9.3,50.8
		c0.1,0.1,0.2,0.2,0.3,0.3c0.1-0.1,0.1-0.2,0.1-0.3c-0.1-0.1-0.1-0.3-0.3-0.4C9.5,50.7,9.3,50.7,9.3,50.8z M10.2,50.8
		c0.2,0,0.2-0.3,0-0.3C10.2,50.6,10.2,50.7,10.2,50.8z M13.2,51c0-0.1-0.1-0.3-0.1-0.5c0,0-0.1,0-0.1,0C13,50.7,13.1,50.9,13.2,51z
		 M9,50.8C9,50.8,8.9,50.8,9,50.8c0-0.1-0.1-0.3-0.2-0.3C8.8,50.7,8.9,50.9,9,50.8z M6.5,51.3c0-0.2,0.1-0.6-0.1-0.8
		C6.4,50.9,6.4,51.1,6.5,51.3z M12.2,50.9c0.1,0.2,0.1,0.2,0.2,0.3c0.1-0.1,0.1-0.2,0.2-0.3c-0.1-0.1-0.1-0.3-0.3-0.4
		C12.3,50.8,12.2,50.8,12.2,50.9z M7.1,50.9c0.1,0,0.1-0.2,0-0.2C7.2,50.8,7.1,50.8,7.1,50.9z M11.5,51.1c0.1,0.1,0.1,0.2,0.2,0.3
		c0-0.1,0.1-0.2,0.1-0.3c-0.1-0.1-0.1-0.3-0.3-0.3C11.6,50.8,11.5,50.9,11.5,51.1z M8.1,51.2c0.1-0.1,0-0.3-0.1-0.3
		C7.9,51,8,51.1,8.1,51.2z M8.6,51.5c0.1-0.1,0.2-0.2,0.2-0.3c-0.1-0.1-0.1-0.3-0.3-0.3C8.4,51.2,8.5,51.3,8.6,51.5z M10.2,51.1
		c0.1-0.1,0-0.2-0.1-0.2C10.1,51,10.1,51.1,10.2,51.1z M13.5,51.3c0.1,0,0.1-0.3,0-0.3C13.4,51.1,13.3,51.3,13.5,51.3z M10.6,51.4
		c0.2,0.1,0.3-0.2,0.1-0.2C10.7,51.2,10.7,51.3,10.6,51.4z M12.6,51.5c0.1,0.1,0.1,0.2,0.2,0.3c0.1-0.1,0.2-0.2,0.2-0.4
		c-0.1-0.1-0.1-0.2-0.2-0.3C12.7,51.3,12.6,51.4,12.6,51.5z M10,51.5c0.1-0.1,0.2-0.3,0-0.3C10,51.3,9.8,51.5,10,51.5z M7.9,51.5
		c0.1-0.1-0.1-0.2-0.1-0.3C7.8,51.4,7.8,51.5,7.9,51.5z M13.5,51.6c0.1,0,0.2-0.2,0.2-0.3C13.5,51.3,13.4,51.4,13.5,51.6z
		 M11.9,51.6c0.1,0,0.1,0.2,0.3,0.2c0.1-0.2,0.1-0.4-0.1-0.5C11.9,51.3,12,51.5,11.9,51.6z M8.3,51.7c0.1,0,0.1,0.1,0.2,0.1
		c0.1-0.2-0.1-0.3-0.2-0.4C8.2,51.4,8.3,51.6,8.3,51.7z M10.9,51.6c0.1,0,0.1-0.1,0.1-0.2c0,0-0.1,0-0.1,0
		C10.8,51.5,10.9,51.5,10.9,51.6z M7.1,53c0-0.5-0.1-1.1-0.3-1.5C6.7,52,6.9,52.6,7.1,53z M11.5,51.7c-0.1-0.1-0.1-0.3-0.2-0.2
		C11.3,51.6,11.4,51.8,11.5,51.7z M9.1,52.2c0.1-0.1,0.2-0.2,0.2-0.4c-0.1-0.1-0.1-0.3-0.3-0.3C8.8,51.7,8.8,52,9.1,52.2z M9.8,51.9
		c0-0.1,0-0.1,0-0.1c0,0,0,0-0.1,0C9.7,51.7,9.7,51.8,9.8,51.9z M11.1,52c0.2,0,0.1,0.2,0.3,0.2c0-0.1-0.1-0.4-0.2-0.4
		C11.1,51.8,11.1,51.8,11.1,52z M13,52.2c0.1,0,0.1,0.1,0.2,0.1c-0.1-0.3,0.1-0.4-0.1-0.6C13,51.9,12.9,52,13,52.2z M8.3,52.2
		c0.1-0.2,0-0.3-0.1-0.4C8.1,51.9,8.2,52.1,8.3,52.2z M10.3,52c0.1,0,0.2-0.2,0.1-0.2C10.4,51.9,10.3,51.9,10.3,52z M12.3,52.2
		c0,0.1,0.1,0.2,0.2,0.2c0-0.1,0.1-0.2,0.1-0.3c-0.1-0.1-0.2-0.1-0.2-0.3C12.3,51.8,12.3,52,12.3,52.2c0-0.1,0.1-0.2,0.1-0.2
		C12.4,52,12.4,52.1,12.3,52.2z M10.5,52.2c0.1,0,0.1-0.1,0.1-0.2c0,0-0.1-0.1-0.1-0.1C10.5,52.1,10.5,52.2,10.5,52.2z M11.9,52.3
		c0-0.2-0.1-0.3-0.2-0.3C11.7,52.1,11.8,52.3,11.9,52.3z M7.4,52.5c0.1-0.2,0-0.4-0.1-0.5C7.3,52.2,7.3,52.4,7.4,52.5z M7.9,52.3
		c0.1-0.1,0.2,0.1,0.3,0c-0.1-0.1-0.1-0.2-0.2-0.2C8,52.2,7.9,52.2,7.9,52.3z M9.4,52.7c0-0.2,0.3-0.3,0.2-0.5c0,0,0,0-0.1,0
		C9.5,52.3,9.2,52.5,9.4,52.7z M11.2,52.5c0-0.1-0.2-0.3-0.3-0.3C11,52.3,11.1,52.4,11.2,52.5z M11.7,52.6c0.1-0.1-0.1-0.3-0.2-0.3
		C11.5,52.4,11.6,52.5,11.7,52.6z M11,52.8c0-0.1,0.1-0.1,0.1-0.2c-0.1-0.1-0.1-0.3-0.3-0.3C10.7,52.5,10.9,52.7,11,52.8z M8.7,52.8
		c0.1,0,0.1-0.1,0.2-0.2c0-0.1-0.1-0.2-0.2-0.3C8.5,52.5,8.6,52.6,8.7,52.8z M12.9,52.9c0-0.1,0.1-0.1,0.1-0.2
		c-0.1-0.1-0.2-0.3-0.3-0.4C12.6,52.6,12.7,52.9,12.9,52.9z M10.3,52.7c0,0,0.1-0.3,0-0.3C10.3,52.5,10.2,52.6,10.3,52.7z
		 M13.6,52.9c0.1-0.1,0.1-0.3,0.2-0.4c-0.1,0-0.1-0.1-0.2-0.1C13.6,52.6,13.4,52.8,13.6,52.9z M8,52.7c0.2,0,0.1-0.2,0-0.2
		C7.9,52.6,8,52.6,8,52.7z M12.2,52.8c0-0.1,0-0.2-0.1-0.2C12.1,52.7,12.1,52.8,12.2,52.8z M11.5,52.9c0-0.1-0.1-0.3-0.2-0.2
		C11.4,52.8,11.4,52.9,11.5,52.9z M10.7,53.2c0,0.1,0.1-0.1,0.1-0.1c0-0.2-0.1-0.3-0.3-0.4C10.4,53,10.6,53.1,10.7,53.2z M9.9,53.4
		c0.2-0.1,0.2-0.3,0.3-0.5c0,0-0.1-0.1-0.1-0.1C10,53.1,9.7,53.2,9.9,53.4z M7.7,53.3c0.1-0.1,0-0.3,0-0.4C7.6,53,7.5,53.2,7.7,53.3
		z M12.1,53.1C12.1,53.1,12.1,53.1,12.1,53.1c0.1-0.1,0-0.2-0.1-0.2C12,53,12,53.1,12.1,53.1z M8.4,53.4c0.1,0,0.1-0.2,0.2-0.3
		c-0.1,0-0.1-0.2-0.3-0.2C8.2,53.1,8.3,53.2,8.4,53.4z M11.2,53c0,0.1,0,0.1,0,0.1c0.1,0,0.1,0.1,0.2,0.1C11.4,53.1,11.4,53,11.2,53
		C11.3,53,11.2,53,11.2,53z M9.1,53.4c0.1-0.1,0.2-0.4,0-0.4C9,53.1,9,53.3,9.1,53.4z M12.6,53.4c0.1-0.2-0.1-0.3-0.2-0.4
		C12.3,53.2,12.6,53.3,12.6,53.4z M13.3,53.7c0.1-0.2,0.1-0.2,0.1-0.5C13.3,53.2,13.3,53.6,13.3,53.7z M10.1,53.7
		c0.1,0.1,0.1,0.2,0.2,0.3c0.2-0.1,0.3-0.3,0.3-0.5c-0.1-0.1-0.2-0.2-0.2-0.3C10.2,53.4,10.2,53.6,10.1,53.7z M11.8,53.4
		C11.8,53.4,11.8,53.4,11.8,53.4c0.1,0,0.2,0,0.2-0.1C11.8,53.2,11.8,53.3,11.8,53.4z M11.5,53.5c0.2,0.1,0.2-0.2,0-0.2
		C11.5,53.4,11.5,53.4,11.5,53.5z M11.1,53.6c0.1-0.1,0.1-0.2,0-0.3C10.9,53.4,11,53.6,11.1,53.6z M8.8,54c0.1-0.1,0.1-0.2,0.2-0.3
		c-0.1-0.1-0.1-0.2-0.2-0.2C8.7,53.7,8.6,53.9,8.8,54z M11.7,53.7c0.1-0.1,0-0.2-0.1-0.2C11.6,53.6,11.6,53.7,11.7,53.7z M12,53.7
		c0.1,0,0.1,0.2,0.2,0.2c0-0.1,0.1-0.1,0.1-0.2c-0.1,0-0.1-0.2-0.2-0.2C12.1,53.6,12,53.6,12,53.7z M9.6,53.9c0.1,0,0.2-0.1,0.2-0.2
		c0,0,0,0-0.1,0C9.6,53.8,9.5,53.8,9.6,53.9z M11.2,53.9c0.1,0,0.2-0.2,0.1-0.2C11.3,53.8,11.2,53.8,11.2,53.9z M10.5,54.4
		c0.1,0,0.1,0.1,0.1,0.1c0.1-0.2,0.2-0.4,0.3-0.6c-0.1,0-0.1-0.1-0.1-0.1C10.6,54,10.5,54.1,10.5,54.4z M12.6,54.5
		c0.2-0.1,0.4-0.4,0.4-0.7C12.8,54.1,12.7,54.3,12.6,54.5z M11.4,54.1c0.1,0,0.1-0.2,0-0.2C11.4,54,11.4,54,11.4,54.1z M12,54.1
		c0.1-0.1,0-0.2-0.1-0.2C11.8,54,11.9,54.1,12,54.1z M8.3,54.2c0.2,0,0-0.1,0.1-0.2C8.3,54,8.4,54,8.3,54.2z M9.9,54.4
		c-0.1,0-0.1,0-0.2,0c-0.1,0.3-0.5,0.7,0,0.8c0.2-0.3,0.4-0.6,0.5-0.9c-0.1-0.1-0.1-0.2-0.2-0.3C9.8,54.1,9.9,54.3,9.9,54.4z
		 M8.6,54.6c0.1-0.1,0.1-0.4-0.1-0.4C8.3,54.2,8.4,54.5,8.6,54.6z M9.1,54.7C9.2,54.7,9.2,54.7,9.1,54.7C9.2,54.7,9.2,54.8,9.1,54.7
		c0.2-0.1,0.3-0.3,0.4-0.5c-0.1,0,0-0.1-0.1-0.1c-0.1,0.1-0.2,0.2-0.3,0.4C9.1,54.6,9.3,54.7,9.1,54.7C9.2,54.7,9.2,54.7,9.1,54.7z
		 M11.7,54.5c0.2-0.1,0.2-0.2,0-0.3C11.6,54.3,11.7,54.4,11.7,54.5z M11,55c0.1-0.2,0.2-0.3,0.3-0.6c0,0,0,0-0.1,0
		C11.1,54.6,10.8,54.8,11,55z M9.8,55.4c0.3,0.1,0.5,0.2,0.8,0.3c0.1-0.1,0.2-0.3,0.1-0.5c-0.1-0.1-0.1,0.2-0.3,0.2
		c0-0.1-0.1-0.1-0.1-0.2c0.1-0.2,0.2-0.5-0.1-0.6C10.1,54.9,10,55.1,9.8,55.4z M11.2,55.3c0.1-0.1,0.3-0.3,0.3-0.5
		c0,0-0.1-0.1-0.1-0.1C11.4,54.9,11.1,55.1,11.2,55.3z M12,55.2c-0.2,0-0.1-0.2-0.3-0.2c-0.1,0.2-0.2,0.4-0.3,0.5
		c0.4-0.1,0.8-0.3,1.1-0.6C12.2,54.8,12.2,55.2,12,55.2z M11.8,55.8c0.3,0,0.4-0.2,0.6-0.4C12.2,55.5,12,55.7,11.8,55.8z M10.2,56
		c-0.5-0.1-0.8-0.4-1.2-0.4C9.4,55.8,9.8,56.1,10.2,56z M10.3,56.3c-0.1,0-0.3-0.1-0.4-0.1C10.1,56.2,10.2,56.4,10.3,56.3z"/>
	<path class="st0" d="M14.5,97.1c-0.2,0.2-0.4,0.6-0.8,0.7c-0.1,0-0.1,0.1-0.1,0.2c-0.4-0.1-0.6-0.5-0.7-0.9c0-0.1,0.1-0.1,0.1-0.2
		c-0.1-0.3-0.3-0.5-0.2-0.9c0,0,0.1,0,0.1,0c0.2,0,0.2,0.2,0.4,0.3c0.1-0.2-0.1-0.2-0.1-0.3c0-0.2,0-0.3-0.1-0.4
		c0.2-0.9,1-1.1,1.6-1.7c0-0.3,0.1-0.4,0.2-0.6c-0.1-0.2-0.1-0.6-0.3-0.8c0.3-0.9-0.1-1.8,0-2.6c-0.1-0.1-0.1-0.1-0.1-0.2
		c0.1-0.7-0.2-1.3-0.2-2c-0.1-0.1-0.2,0.2-0.3,0.2c-0.2-0.3,0.1-0.6,0.2-0.8c0-0.2-0.1-0.5-0.1-0.7c-0.1,0-0.1,0.2-0.3,0.2
		c0-0.4,0.4-1,0-1.5c0-1.5-0.2-2.6-0.4-3.8c-0.1,0-0.2-0.1-0.2-0.1c0.3-0.8-0.2-1.7-0.2-2.6c-0.1-0.2-0.2,0-0.3-0.1
		c-0.1-0.2,0-0.4,0.2-0.5c0-0.1,0-0.2-0.1-0.4c0.1-0.1,0.2-0.1,0.1-0.3c-0.2,0-0.1,0.1-0.2,0.1c-0.2-0.1-0.5-0.2-0.7-0.3
		c-0.1,0.1-0.1,0.2-0.1,0.3c0,0-0.1,0-0.2,0c-0.7,1.2-0.6,2.4-0.9,3.9c0.2,0.2-0.1,0.5-0.2,0.8c-0.1,0.3,0,0.6,0.1,0.9
		c-0.2,1.3,0.1,2.6,0,4.1c0.1,0.1,0.2-0.1,0.3,0c0.1,0.3-0.2,0.4-0.3,0.7c0,0.1,0.1,0.2,0.1,0.3c0,0.3-0.1,0.6,0,0.9
		c0,0.3,0.2,0.5,0.2,0.7c-0.1,0,0,0.1-0.1,0.1c0,0.5,0.5,0.9,0.4,1.4c-0.2,0-0.3,0-0.4-0.1c0.1,0.8-0.1,1.7,0.2,2.3
		c-0.1,0.1,0.1,0.4,0,0.7c0,0-0.1,0-0.1,0c-0.1,0-0.1-0.1-0.1-0.2c-0.4,0.2,0.1,0.4,0.1,0.6c0.4,0,0.7,0.4,0.9,0.3
		c0.1,0.2,0.3,0.3,0.5,0.5c-0.1,0.2,0,0.6-0.1,0.9c0,0.1,0.2,0,0.2,0.1c0,0.1-0.1,0.2-0.1,0.3c0.1,0.1,0.2,0.2,0.4,0.2
		c0,0.1,0.1,0.2,0,0.3c-0.2,0-0.4-0.1-0.5-0.3c-0.2,0.2,0.1,0.4,0,0.7c-0.4,0-0.4-0.3-0.7-0.4c-0.3,0.3-0.1,0.6,0.4,0.6
		c0.1,0.7-0.8,0.4-1.5,0.4c-0.7,0-1.5,0.3-2,0.1c-0.2,0-0.1,0-0.3,0.1c-0.2-0.1-0.3-0.3-0.5-0.4c0.1-0.1-0.1-0.2,0.1-0.2
		c-0.3-0.1-0.7-0.7-0.3-0.8c0.1,0.1,0.2,0.3,0.3,0.5c0-0.4-0.3-0.6-0.3-1c0.1-0.1,0.4-0.2,0.4-0.5c0.7-0.4,1.2-0.9,1.8-1.4
		c0-0.1-0.1-0.4,0-0.6c0-0.1-0.2-0.1-0.2-0.2c0-0.2,0.1-0.4,0.2-0.5c-0.2-2.1-0.4-4.4-0.5-6.6c-0.1-1.3-0.1-2.4-0.2-3.9
		c0-0.4,0-1-0.1-1.4C8.5,80,8.1,79,8.3,77.9c0-0.1-0.2,0.2-0.3,0c-0.1-0.1,0-0.3,0.1-0.3C7.6,77,7,76.2,6.4,75.8
		c-0.2-0.5-0.5-0.8-0.9-1.2C6,73.9,6.2,73,6.2,72.1c-1.5-1.8-2.9-3.7-4.7-5c-0.3-0.3-0.8-0.6-1.1-0.8c-0.1,0.1-0.1,0.1-0.2,0.2
		c-0.1,0-0.1-0.1-0.2,0C0.1,66,0.4,66,0.6,65.7c0-0.1-0.1-0.1-0.1-0.2C0.7,65.4,0.6,65,0.8,65c0.7-2,2.3-3.3,3.5-4.8
		c0.5-0.6,0.9-1.2,1.4-1.9c0.1-0.3,0.2-0.5,0.4-0.7c0-0.1,0-0.1,0-0.2c0.1-0.1,0.3-0.3,0.4-0.5c0.5,0.1,1,0,1.6-0.1
		C8.2,57,8.5,57,8.9,57c0,0.1,0,0.1,0,0.2c0.5,0,1.1,0.2,1.4-0.1c0.1,0,0.1,0.1,0.1,0.2c1.6,0.1,2.5-0.5,3.8-0.6
		c0-0.2-0.1-0.3-0.1-0.5c0.2-0.1,0.2,0.1,0.3,0.3c0.1,0.2,0.3,0.4,0.4,0.6c0.2,0.2,0.3,0.6,0.6,0.6c0-0.1,0-0.2,0.1-0.2
		c0.1,0,0.1,0.1,0.2,0.1c0.1,0.1,0,0.2,0,0.3c0.1,0,0.1,0.2,0.2,0.2c0.3,1,0.4,1.8,0.8,2.7c0-0.5-0.2-0.8-0.2-1.3c0,0,0-0.1,0-0.1
		c-0.3-0.8-0.8-1.7-0.8-2.6c0.1,0.1,0-0.1,0.1-0.1c0.1,0,0.1,0.2,0.2,0.3c0.1,0.4,0.1,0.7,0.2,1.1c0,0.1,0.1,0,0.1,0.1
		c0.3,0.9,0.6,1.6,0.9,2.4c0.4,0.8,0.8,1.6,1.2,2.5c0.1,0,0.2-0.1,0.2,0c0.3-1.2,0.6-2.6,0.8-4.1c0.1-1,0-2.1-0.1-3.1
		c0-0.2-0.1-0.4,0.2-0.5c0.1,0,0.2,0,0.3,0.1c0.1-0.4,0-0.9,0.1-1.4c-0.2,0-0.1,0.2-0.2,0c0,0.2,0,0.4-0.2,0.5
		c-0.3-0.3-0.1-0.8-0.1-1.2c0.1-1.1-0.1-2.5-0.3-3.5c0,0,0.1,0,0.2,0c0.2,0.5,0.1,1.1,0.2,1.8c0.1,0,0.1,0,0.2-0.1
		c-0.1-0.7,0-1.1-0.1-1.7c-0.1-0.2-0.3-0.2-0.4-0.4c0.1,0,0.1-0.1,0.1-0.2c0.1,0,0.2,0.2,0.3,0.2c0.2-0.1,0.2-0.2,0.4,0
		c0.1,0.7-0.2,1.4-0.1,2.1c0,0.2,0.3,0.8,0.4,1.1c0.1,0.2,0.1,0.3,0.3,0.5c0.1,0.1,0.1,0.3,0.1,0.3c0.1,0.2,0.4,0.2,0.6,0.3
		c-0.1,0.8-0.3,1.7-0.5,2.4c-0.1,0.3-0.2,0.6-0.3,0.9c-0.1,0.3,0,0.6-0.2,0.7c0,0.2-0.1-0.1-0.2-0.1c-0.3,1.3-0.2,3.3-0.4,4.9
		c0,0.8,0.2,2.2-0.4,3.3c0,0.1,0.1,0.3,0.2,0.5c-0.2,0.2-0.5,0.1-0.4-0.3c0,0-0.1,0-0.2,0c0,0.1,0.1,0.2,0.1,0.3
		c-0.1,0-0.1,0.1-0.1,0.1c-0.4-0.1-0.3-0.5-0.4-0.8c-0.2-0.7-0.7-1.4-1-2c-0.2-0.4-0.3-0.9-0.6-1.3c-0.1-0.6-0.4-1-0.6-1.6
		c-0.1,0.2-0.1,0.8,0,1.1c-0.1,1.7-0.2,4-0.4,5.7c0.1,0,0.1,0.2,0.2,0.3c-0.1,0.1-0.2,0-0.2,0c0.1,0.4-0.2,0.7-0.1,1.2
		c0.1,0.3,0.5,0.4,0.5,0.7c-0.3,0-0.2-0.3-0.5-0.4c-0.1,0.4,0.1,0.8-0.2,1.1c0.1,0.1,0,0.1,0,0.2c0,0.2,0.2,0.5,0,0.9
		c0,0.6,0,1.4,0,1.9c0,0.1-0.1,0-0.2,0.1c0,0.3,0,0.4,0,0.7c0.1,0.1,0.1-0.2,0.2,0c0,1.6,0.2,2.8,0.2,4.4c0,0.1,0.1,0.1,0.1,0.2
		c-0.2,0.5,0,1.5-0.1,2.1c0.1,0,0.1,0.1,0.2,0.1c0,0.2-0.1,0.3-0.2,0.4c0.1,1.9-0.1,3.4,0.1,5c-0.1,0.3-0.1,0.5,0,0.7
		c-0.2,0.3,0,0.6,0,0.9c0,0.1,0.2,0.1,0.2,0.2c-0.2,0.6,0.1,1.4,0.1,2c0,0.2,0,0.3,0.1,0.5c0,0.1,0.2,0,0.2,0
		c-0.1,0.3-0.3,0.7-0.2,1.1c0,0,0.2,0,0.3,0.1c-0.3,0.6-0.4,1.2-0.3,1.9c0,0.2,0.2,0.3,0.2,0.5c0,0.1,0,0.1,0,0.2
		c0.1,0.1,0.2,0.2,0.3,0.3c0,0.1,0.1,0.2,0.1,0.3c0.4,0.5,1.1,0.8,0.9,1.6c0.1,0.1,0.2,0.2,0.2,0.5c0,0.1-0.2,0-0.3,0
		c0,0.2,0.2,0.2,0.3,0.4c-0.1,0.3-0.5,0.2-0.7,0.4c-0.2-0.2-0.6,0-0.8,0c-0.2,0-0.3-0.2-0.5-0.1c-0.1,0-0.2,0.2-0.3,0.3
		c-0.7-0.2-0.8,0.4-1.3,0.5C13.8,97.9,14.5,97.4,14.5,97.1z M19.5,53c0.1,0,0.1,0.1,0.2,0.1c0-0.3,0.1-0.6,0-0.9
		C19.6,52.5,19.6,52.8,19.5,53z M19.8,53c0.1,0,0.2-0.1,0.3,0c0-0.2-0.1-0.4-0.2-0.5C19.9,52.6,19.9,52.8,19.8,53z M20.2,55.9
		c-0.1-0.6,0.4-1.3,0.1-1.7c0-0.4,0-0.6-0.2-0.8C20.1,54.1,19.9,55.2,20.2,55.9z M20.5,56.1c0.2-0.7,0.3-1.4,0.4-2
		c-0.2,0.1-0.3-0.4-0.4-0.4C20.5,54.3,20.4,55.6,20.5,56.1z M20,56.5c0-0.1,0-0.3-0.1-0.4C19.8,56.2,20,56.4,20,56.5z M19.9,56.9
		c0.1,0,0.1,0,0.1,0c0-0.1,0-0.2-0.1-0.3C20,56.8,19.9,56.8,19.9,56.9z M13.4,57.3c0.1,0,0.1,0.1,0.1,0.2c0.1,0,0.2,0,0.2,0
		c0,0.1,0.1,0,0.1,0.1c0,0.1-0.1,0.1-0.1,0.2c0.1,0,0.2,0.1,0.1,0.2c0.2,0.1,0.2,0.3,0.4,0.4c0-0.1,0.1-0.1,0.1-0.2
		C14.3,58,14,57.9,14,57.6c0,0,0-0.1,0.1-0.1c0.4,0,0.3,0.5,0.6,0.5c0,0,0-0.1,0-0.2c-0.1-0.1-0.1,0.1-0.1,0
		c0.1-0.2-0.4-0.5-0.1-0.7c0,0-0.1-0.1-0.1-0.1C14,57,13.6,57.1,13.4,57.3z M6.4,57.5c0-0.1,0,0.1,0.1,0c0.1-0.2,0.4-0.2,0.5-0.4
		C6.9,57.2,6.4,57.3,6.4,57.5z M7.5,57.5c0.1,0.1,0,0.2,0,0.3c0.2,0,0.2-0.2,0.3-0.2c0-0.1-0.1-0.2-0.2-0.1
		C7.7,57.4,7.6,57.5,7.5,57.5C7.5,57.5,7.6,57.5,7.5,57.5C7.6,57.5,7.5,57.5,7.5,57.5z M8.2,57.6c0.2,0,0.3-0.1,0.3-0.2
		c-0.1,0-0.2,0-0.2,0C8.2,57.5,8.2,57.5,8.2,57.6z M8.8,57.7c0.1-0.1,0.1-0.1,0.2-0.2C8.8,57.5,8.7,57.7,8.8,57.7z M9.2,57.9
		c0.1,0,0.1,0.1,0.2,0.1c0.1-0.2,0.3-0.3,0.4-0.4C9.5,57.5,9.3,57.6,9.2,57.9z M12,57.5c0.1,0.2,0.2,0.4,0.3,0.5
		c0.1-0.1,0.2-0.2,0.3-0.3c0-0.1-0.1-0.1-0.1-0.2C12.3,57.5,12.2,57.5,12,57.5z M13,57.9c0.2,0,0.3-0.1,0.3-0.2c0,0-0.1-0.1-0.1-0.2
		C13.1,57.6,12.9,57.7,13,57.9z M9.5,58.1c0.2-0.2,0.3-0.4,0.5-0.6C9.8,57.6,9.6,57.9,9.5,58.1z M11.1,57.7c0.2,0.3,0.4,0.7,0.9,0.7
		c-0.1-0.4-0.3-0.5-0.4-0.8C11.4,57.5,11.3,57.7,11.1,57.7z M6.9,58.1C7,58,7.1,57.8,7.2,57.7c-0.1,0,0-0.1-0.1-0.1
		C7,57.8,6.8,57.9,6.9,58.1z M8.6,58.3c0.2-0.1,0.4-0.5,0.4-0.6C8.9,57.9,8.4,58,8.6,58.3z M10.2,58c0.2,0,0.2-0.1,0.3-0.2
		c-0.2,0-0.3-0.1-0.4-0.1C10.1,57.9,10.2,57.9,10.2,58z M10.5,58.4c0.2,0,0.2-0.2,0.4-0.3c0-0.1-0.1-0.1-0.1-0.2
		C10.7,58.1,10.5,58.1,10.5,58.4z M13.3,58.3c0,0.1,0.1,0.1,0.1,0.2c0.3,0,0.3-0.3,0.1-0.4C13.4,58.1,13.3,58.1,13.3,58.3z
		 M6.3,58.4c-0.1-0.1,0.1-0.2,0.1-0.4c-0.2,0-0.2,0.2-0.3,0.3C6.2,58.4,6.3,58.5,6.3,58.4z M7.9,58.3c0-0.1,0.3-0.2,0.2-0.3
		C8.1,58.1,7.8,58.2,7.9,58.3z M8.8,58.6c0.1-0.1,0.5-0.3,0.3-0.5C9,58.2,8.8,58.3,8.8,58.6z M9.7,58.4c0.1,0,0.1,0.1,0.2,0.1
		c0.1-0.1,0.2-0.2,0.2-0.3C9.9,57.9,9.7,58.2,9.7,58.4z M14.8,58.3c0.1,0,0.1,0.1,0.1,0.2c0,0,0.1,0,0.1,0c0-0.1,0-0.1,0-0.2
		C14.9,58.3,15,58.2,14.8,58.3C14.9,58.3,14.8,58.3,14.8,58.3z M12.6,58.5c0.2,0,0.2-0.1,0.3-0.2c0,0,0,0,0,0c0,0,0,0-0.1,0
		C12.8,58.4,12.6,58.4,12.6,58.5z M11.4,58.7C11.5,58.6,11.5,58.6,11.4,58.7c0.1-0.2-0.1-0.4-0.2-0.3C11.4,58.4,11.4,58.6,11.4,58.7
		z M8.9,58.8c0.2-0.1,0.3-0.2,0.4-0.4c0,0,0,0-0.1,0C9.2,58.5,9,58.6,8.9,58.8z M8.1,58.6c0.1,0,0.1,0.2,0.2,0.2
		c0.1-0.1,0.3-0.3,0.1-0.4C8.3,58.5,8.1,58.4,8.1,58.6z M11.1,59c0.1-0.1,0.2-0.2,0.2-0.3c-0.1-0.1-0.1-0.2-0.3-0.3
		C10.9,58.6,10.8,58.9,11.1,59z M10,58.7c0-0.1,0.2-0.1,0.1-0.2C10,58.5,9.9,58.6,10,58.7z M13.6,58.8c0.1,0,0.1,0.1,0.2,0.1
		c0.1,0,0.2-0.1,0.2-0.2c-0.1,0-0.1-0.2-0.2-0.2C13.7,58.6,13.6,58.6,13.6,58.8z M11.9,58.7c0.2,0,0.2,0,0.2-0.2
		C12,58.5,11.9,58.5,11.9,58.7z M12.8,58.8c0.1,0,0.1,0.1,0.2,0.1c0.1-0.1,0.2-0.1,0.2-0.3c0,0-0.1-0.1-0.1-0.1
		C13,58.6,12.9,58.7,12.8,58.8z M14.8,59c-0.2-0.1-0.1-0.4-0.3-0.4c0,0.1-0.1,0-0.1,0.1C14.5,58.8,14.7,59,14.8,59z M7.5,58.7
		c0,0,0,0.1,0,0.1c0.1,0,0.2-0.2,0.1-0.2C7.6,58.7,7.5,58.6,7.5,58.7z M9.2,59c0.1,0,0,0.1,0.1,0.1c0.1-0.2,0.3-0.3,0.2-0.5
		c0,0-0.1,0-0.1,0C9.4,58.8,9.2,58.8,9.2,59z M10.1,58.9c0.1,0,0.2-0.2,0.2-0.3C10.2,58.7,10.1,58.8,10.1,58.9z M15.5,59
		c0-0.1-0.2-0.3-0.3-0.2C15.3,58.8,15.4,59,15.5,59z M8.5,59.1c0-0.1,0.3-0.2,0.2-0.3C8.6,58.8,8.4,58.9,8.5,59.1z M12.2,59
		c0,0,0.1,0,0.2,0c0-0.1-0.1-0.2-0.1-0.2C12.3,58.9,12.2,58.9,12.2,59z M11.9,58.9c-0.1,0-0.1-0.1-0.2-0.1
		C11.5,59.1,11.9,59.2,11.9,58.9z M10.3,59.1c0.1,0,0.2-0.2,0.1-0.3C10.3,58.9,10.2,59,10.3,59.1z M7.7,59c0,0.2,0.2,0.1,0.2,0.3
		c0.1,0,0.1-0.1,0.1-0.1C8,59,7.9,59,7.7,59C7.8,59,7.7,59,7.7,59z M8.7,59.2c0-0.1,0.2-0.2,0.2-0.3c0,0,0,0-0.1,0
		C8.7,59,8.5,59.2,8.7,59.2z M10.7,59c0,0.1,0.1,0.2,0.2,0.3C11,59.1,10.8,58.9,10.7,59z M14,59.1c0.1,0.1,0.2,0.1,0.2,0.3
		c0.1,0,0.2,0,0.2-0.1C14.3,59.1,14.1,58.8,14,59.1z M9.4,59.2c0.2,0.1,0.2-0.1,0.3-0.2C9.5,59,9.5,59.2,9.4,59.2z M13.2,59.2
		c0.1,0.1,0.1,0,0.2,0C13.5,58.9,13.2,59,13.2,59.2z M15.5,59.6c-0.1-0.3-0.3-0.5-0.5-0.6C15.2,59.2,15.4,59.6,15.5,59.6z
		 M11.4,59.3c0.1,0,0.2,0,0.2,0c0-0.1-0.1-0.1-0.1-0.2C11.5,59.2,11.4,59.2,11.4,59.3z M6.8,59.8c0.1-0.1,0-0.1,0-0.3
		c0,0,0.1,0,0.1,0c0-0.2-0.2-0.2-0.1-0.4c0,0-0.1,0-0.1,0C6.8,59.4,6.6,59.6,6.8,59.8z M11.9,59.3c0.1,0,0,0.1,0.1,0.1
		c0-0.1,0.1-0.1,0.2-0.3c-0.1,0,0-0.1-0.1-0.1C12,59.2,11.9,59.2,11.9,59.3z M12.5,59.3c0.1,0,0.2-0.2,0-0.2
		C12.5,59.2,12.5,59.3,12.5,59.3z M10.5,59.4c0.1,0,0.1,0.1,0.2,0.2c0-0.1,0-0.1,0.1-0.1c-0.1-0.1,0-0.2-0.2-0.3
		C10.5,59.2,10.4,59.3,10.5,59.4z M7.7,59.5c0.2-0.1,0-0.3-0.1-0.3C7.5,59.3,7.7,59.4,7.7,59.5z M8.8,59.5
		C8.8,59.5,8.9,59.5,8.8,59.5c0.2,0,0.2-0.1,0.3-0.2c-0.1,0,0-0.1-0.1-0.1C8.9,59.3,8.8,59.3,8.8,59.5z M10.1,59.4
		c0.1-0.1,0-0.1-0.1-0.2C10,59.3,10.1,59.4,10.1,59.4z M6.5,59.6c0-0.1,0-0.2,0-0.3c-0.2,0-0.2,0.2-0.2,0.4
		C6.5,59.7,6.3,59.5,6.5,59.6z M8.4,59.5c0,0,0.1,0,0.1,0C8.5,59.4,8.5,59.4,8.4,59.5C8.4,59.4,8.4,59.4,8.4,59.5z M13,59.5
		c0.1,0.1,0.1,0,0.2-0.1C13.1,59.3,13,59.4,13,59.5z M12.1,59.7c0.1,0,0.3-0.2,0.2-0.3C12.2,59.5,12.1,59.6,12.1,59.7z M9.1,59.8
		c0-0.1,0.3-0.2,0.1-0.3C9.2,59.5,8.9,59.7,9.1,59.8z M9.8,59.7C9.8,59.7,9.8,59.7,9.8,59.7c0.2,0.1,0.1,0,0.2,0
		c0-0.1,0-0.2-0.1-0.2C9.8,59.5,9.8,59.5,9.8,59.7z M13.9,59.8c0-0.2-0.1-0.3-0.3-0.4C13.6,59.6,13.8,59.8,13.9,59.8z M5.7,59.9
		C5.3,60.4,5,61,4.5,61.4c0,0.1,0,0.1,0.1,0.1c-0.1,0-0.1,0.2-0.2,0.2c0,0,0,0.1,0,0.1c-0.7,0.9-1.4,1.8-2,2.8
		c-0.1,0-0.1,0.2-0.2,0.1c0,0,0,0.1,0,0.1C2,64.9,2,65,1.9,65c0,0.3-0.6,0.5-0.3,0.7c0.1-0.1-0.1-0.2,0.1-0.2c0.2,0.1,0,0.3,0,0.4
		C1.9,66,2,66.2,2.1,66.4c0.1,0,0.2,0,0.2,0c0.5,0.6,1.2,1,1.6,1.7c1.1,1,1.8,2.3,2.9,3.3c0.3-0.2,0.4,0.5,0.1,0.4
		C7,72,7.1,72.2,7.3,72.3c0,0,0-0.1,0.1-0.1c0,0,0,0.2,0.1,0.1c0-0.5-0.2-1.1-0.1-1.5c-0.2-0.6-0.3-1.2-0.3-1.9
		c-0.2-0.5-0.2-1.1-0.3-1.7c-0.1-0.7-0.2-1.7-0.1-2.3c-0.3-1.6-0.3-3.5-0.6-5.3c0,0,0-0.1-0.1-0.1C5.8,59.7,5.8,59.7,5.7,59.9z
		 M7.3,59.7c0,0.1,0.1,0.1,0.2,0.1c0-0.1,0.1-0.1,0.1-0.1C7.6,59.5,7.4,59.4,7.3,59.7z M10.4,59.8c0-0.1,0.1-0.1,0.1-0.1
		c-0.1-0.1-0.1-0.2-0.2-0.2C10.2,59.6,10.2,59.8,10.4,59.8z M14.5,59.6c0.1-0.1,0.1,0,0.1,0.1c0,0,0-0.1,0.1-0.1
		C14.6,59.6,14.6,59.5,14.5,59.6C14.5,59.6,14.5,59.6,14.5,59.6z M7.8,59.8c0.1,0,0.2-0.1,0.2-0.2C7.9,59.6,7.9,59.7,7.8,59.8z
		 M8.7,59.9c0.1,0,0.1-0.2,0.1-0.3C8.6,59.6,8.5,59.9,8.7,59.9z M12.3,59.9c0-0.1,0.2-0.1,0.1-0.2C12.2,59.7,12.2,59.9,12.3,59.9z
		 M13.3,59.8c0,0.1,0.1,0.2,0.2,0.3c0,0,0,0,0.1,0C13.7,59.9,13.5,59.8,13.3,59.8C13.4,59.8,13.4,59.9,13.3,59.8z M8,60.1
		c0-0.1,0.2-0.2,0.1-0.3C8.1,59.9,7.9,60,8,60.1z M10.1,60.1c0.1,0,0.2,0,0.2-0.2C10.2,59.7,10,59.9,10.1,60.1z M11.5,59.9
		c0.1,0,0.1,0.1,0.2,0C11.7,59.8,11.5,59.8,11.5,59.9z M15.5,60.7c-0.2,0-0.4,0.1-0.4,0.2c0.2,0.2,0.3,0.4,0.4,0.7
		c-0.1,0-0.2,0-0.2,0.1c0,0.2,0.1,0.5,0.2,0.7c0.1-0.7,0.4-2.2-0.4-2.6c0,0,0,0.1,0,0.1C15.2,60.1,15.4,60.3,15.5,60.7z M8.7,60
		c0,0.1,0,0.1,0,0.2c0.1,0,0.2-0.1,0.2-0.2c0,0,0-0.1-0.1-0.1C8.8,60,8.8,59.9,8.7,60z M9.3,60.1c0.1,0.1,0.1,0.1,0.2,0.1
		c0-0.1,0.1-0.2,0.2-0.3c0,0-0.1-0.1-0.1-0.1C9.6,59.9,9.4,59.9,9.3,60.1z M6.4,60.1c0-0.1,0.1-0.2,0-0.2C6.2,60,6.2,60.2,6.4,60.1z
		 M8.1,60.3c0.1,0,0,0.1,0.1,0.1c0.1-0.1,0.2-0.2,0.2-0.3c-0.1,0-0.1-0.1-0.2-0.1C8.3,60.2,8.2,60.2,8.1,60.3z M10.7,60.3
		c0.1,0,0.2-0.1,0.2-0.3C10.7,60.1,10.6,60.2,10.7,60.3z M12.5,60.2c0,0.1,0.1,0.1,0,0.2c0.1,0,0.2,0,0.3-0.1
		C12.7,60.2,12.7,60.1,12.5,60.2C12.6,60.2,12.5,60.1,12.5,60.2z M9.7,60.5c0.1,0,0,0.1,0.1,0.1c0.1-0.1,0.2-0.1,0.2-0.3
		c0,0-0.1-0.1-0.1-0.1C9.9,60.3,9.6,60.3,9.7,60.5z M6.9,60.8c0.1-0.2,0.2-0.4,0-0.6C6.8,60.3,6.8,60.6,6.9,60.8z M12,60.4
		c0-0.1,0.1-0.1,0-0.2c0,0-0.1,0-0.1,0C11.8,60.2,11.8,60.4,12,60.4z M6.9,66.1c0.2-0.1,0.2-0.3,0.2-0.5c-0.1,0-0.2,0-0.2-0.2
		c0-0.1,0.2-0.2,0.2-0.3c0-1.3-0.4-2.5-0.5-3.6c-0.1-0.4,0-0.9-0.2-1.2C6.5,61.7,6.7,64.1,6.9,66.1z M14.8,60.8
		c0.1,0,0.2-0.1,0.3-0.2c-0.2-0.1-0.2-0.3-0.5-0.4C14.5,60.4,14.9,60.5,14.8,60.8z M9,60.5c0.1,0,0.1,0.1,0.2,0.2
		c0.1-0.1,0.1-0.2,0.2-0.3C9.3,60.2,9.1,60.3,9,60.5z M3.6,61.4c0.4-0.1,0.8-0.8,0.9-1.1C4.2,60.7,3.8,61,3.6,61.4z M8.3,60.6
		c0.2,0,0.2-0.2,0.3-0.3c0,0,0,0-0.1,0C8.5,60.4,8.3,60.5,8.3,60.6z M13.3,60.4c0,0-0.2-0.2-0.2-0.1C13.1,60.4,13.2,60.5,13.3,60.4z
		 M7.4,60.8c0.1-0.1,0.4-0.3,0.2-0.4C7.6,60.5,7.5,60.6,7.4,60.8z M10.9,60.7c0.1,0.1,0.2-0.1,0.2-0.2c0,0,0,0-0.1-0.1
		C11,60.5,10.9,60.5,10.9,60.7z M8,60.5c0,0,0.1,0,0.2,0C8.1,60.5,8.1,60.5,8,60.5C8,60.5,8,60.5,8,60.5z M12.1,60.6
		c0.1,0.1,0.1,0.2,0.2,0.3C12.5,60.7,12.4,60.5,12.1,60.6C12.2,60.5,12.3,60.6,12.1,60.6z M12.8,60.6c0.1,0,0.2,0.1,0.3,0
		c0-0.1-0.1-0.1-0.2-0.2C12.9,60.5,12.8,60.6,12.8,60.6z M15.8,60.5c-0.1,1.6-0.3,2.8-0.3,4.8c0,0.1,0.1-0.1,0.2,0
		c-0.2,0.5-0.2,1.3-0.2,1.9c0.1-0.8,0.3-1.7,0.3-2.7c0.1-1.3,0.1-2.6,0.1-4C15.9,60.5,15.9,60.5,15.8,60.5
		C15.9,60.5,15.8,60.5,15.8,60.5z M9.3,60.9c0.1,0,0.1,0.1,0.1,0.1c0-0.1,0.1-0.1,0.2-0.3C9.5,60.6,9.4,60.7,9.3,60.9z M10.1,61
		c0.1,0,0.4-0.2,0.2-0.3C10.3,60.7,10.1,60.8,10.1,61z M14.3,61c0-0.2,0-0.2,0-0.4C14,60.6,14.1,61.1,14.3,61z M8.6,61
		c0,0.1,0.2,0.1,0.1,0.3c0.2-0.1,0.4-0.3,0.3-0.6C8.7,60.7,8.7,60.9,8.6,61z M13.2,60.9C13.2,60.9,13.2,60.9,13.2,60.9
		c0-0.1,0-0.2,0-0.2C13.1,60.8,13.1,60.9,13.2,60.9z M11.2,61c0,0,0,0.1,0.1,0.1c0.2,0,0.2-0.2,0.3-0.3C11.4,60.7,11.3,60.8,11.2,61
		z M11.9,60.9c0.1,0,0.1,0.1,0.1,0.1C12,61,12,60.9,11.9,60.9c0,0.3,0.1,0.1,0.2,0.2C12.2,61,12,60.7,11.9,60.9z M12.5,60.9
		c0,0.1,0,0.1,0,0.2c0,0,0.1,0,0.1,0c0.1,0,0.1-0.1,0.2-0.2C12.6,60.8,12.6,60.9,12.5,60.9z M13.6,61c0.1,0,0.1-0.2,0-0.1
		C13.6,60.9,13.6,61,13.6,61z M8,61c0.1,0,0.1,0.1,0.1,0C8.1,60.9,8,60.9,8,61z M14.5,61.1c0-0.1,0-0.2-0.1-0.2
		C14.5,61,14.4,61.1,14.5,61.1z M10.4,61.3c0.1-0.1,0.2-0.2,0.3-0.3c0,0,0,0-0.1,0C10.6,61.1,10.4,61.2,10.4,61.3z M6.9,61.1
		c0.1,0.1,0,0.3,0.1,0.4c0.1-0.1,0.3-0.4,0.1-0.5C7.1,61.1,6.9,61,6.9,61.1z M7.5,61.4c0.1-0.1,0.2-0.2,0.2-0.3c0,0,0-0.1-0.1-0.1
		C7.6,61.1,7.4,61.2,7.5,61.4z M13.5,61.2c0-0.1,0-0.1-0.1-0.2C13.3,61.1,13.3,61.3,13.5,61.2z M9,61.6c0.1-0.2,0.4-0.3,0.3-0.5
		C9.1,61.2,8.7,61.4,9,61.6z M11.5,61.4c0.2,0,0,0.3,0.2,0.3c0.1-0.1,0.2-0.2,0.3-0.4c-0.1-0.1-0.2-0.2-0.2-0.2
		C11.6,61.1,11.6,61.3,11.5,61.4z M12.6,61.2c0,0.1,0.1,0.2,0.2,0.2c0-0.1,0.2-0.1,0.2-0.2C12.9,61,12.7,61.1,12.6,61.2z M14,61.4
		c0.1-0.1-0.1-0.2-0.2-0.3C13.9,61.2,13.9,61.4,14,61.4z M7.5,61.5c0,0.1,0,0.1,0,0.2c0.2-0.1,0.4-0.3,0.2-0.5
		C7.7,61.3,7.7,61.5,7.5,61.5z M14.6,61.5c0.1,0,0.1,0.1,0.1,0.1C15,61.4,14.7,61.1,14.6,61.5z M8.6,61.5c0-0.1-0.1-0.2-0.2-0.2
		C8.3,61.4,8.4,61.5,8.6,61.5z M10.7,61.6c0,0.1,0,0.2,0.1,0.2c0.1-0.1,0.2-0.2,0.2-0.3c0-0.1-0.1-0.1-0.2-0.1
		c-0.1,0.1-0.1,0.2,0,0.3C10.9,61.6,10.8,61.5,10.7,61.6z M13.6,61.5c0.1,0,0.1,0.1,0.2,0.1c0-0.1-0.1-0.3-0.2-0.3
		C13.6,61.4,13.6,61.5,13.6,61.5z M17.9,63.9c-0.1-0.5-0.2-0.9-0.5-1.2c-0.1-0.4-0.2-1-0.4-1.4C17,62.4,17.4,63.2,17.9,63.9z
		 M12.6,61.6c0-0.1-0.1-0.2-0.2-0.2C12.5,61.5,12.5,61.6,12.6,61.6z M10.2,61.6c0.1,0,0.1,0,0.1,0C10.3,61.3,10,61.5,10.2,61.6z
		 M13,61.8c0-0.1,0.1-0.1,0.1-0.2c0-0.1-0.1-0.1-0.1-0.1C13.1,61.6,12.9,61.6,13,61.8z M14.1,61.6C14.1,61.7,14.3,61.5,14.1,61.6
		C14.1,61.5,14.1,61.5,14.1,61.6z M11.9,61.9c0.1-0.1,0.2-0.2,0.3-0.4C12,61.6,11.8,61.8,11.9,61.9z M8.2,61.8
		C8.1,61.8,8.1,61.7,8.2,61.8c-0.2,0.1-0.5,0.3-0.1,0.4c0.1-0.2,0.2-0.3,0.3-0.5c-0.1,0,0-0.2-0.1-0.2C8.2,61.7,8.3,61.8,8.2,61.8z
		 M11.1,61.9C11.1,61.9,11,62,11.1,61.9c0.1,0.1,0.1,0.3,0.2,0.3C11.3,62.1,11.2,61.9,11.1,61.9z M11.3,62c0.1,0.1,0.2-0.1,0.2-0.1
		c-0.1-0.1-0.1-0.2-0.3-0.3c0,0.1-0.1,0.1-0.1,0.3C11.2,61.9,11.3,61.9,11.3,62z M12,62c0.1,0,0,0.1,0.1,0.1
		c0.2,0.1,0.3-0.1,0.4-0.3c-0.1,0-0.1-0.1-0.2-0.1C12.1,61.8,12,61.9,12,62z M13.2,62c0.3,0.1,0.4-0.2,0.2-0.3
		C13.3,61.8,13.2,61.8,13.2,62z M14,61.8c0.1-0.1,0-0.2-0.1-0.2C13.9,61.8,13.9,61.8,14,61.8z M8.7,61.7c0,0.1,0.1,0.1,0.1,0.1
		C8.9,61.8,8.7,61.6,8.7,61.7z M10.6,62.1c0,0,0.1,0,0.1-0.1C10.6,61.7,10.3,62,10.6,62.1z M7,62.1c0,0.1-0.1,0.3,0.1,0.4
		c0.1-0.2,0.4-0.4,0.2-0.6C7.2,62,7.1,62,7,62.1z M19.3,62c0,0.1,0,0.2,0,0.4c0,0.5-0.2,1.1-0.2,1.4c0.2-0.1,0.1-0.3,0.1-0.4
		c0.1-0.5,0.2-0.9,0.2-1.4c0,0,0-0.1-0.1-0.1C19.3,61.9,19.3,62,19.3,62z M9.6,62.3c0.2-0.1,0.2-0.2,0.3-0.4
		C9.8,61.9,9.5,62.2,9.6,62.3z M8.2,62.5c0.2,0,0.4-0.3,0.4-0.5C8.4,62,8.2,62.3,8.2,62.5z M13.3,62.2c0.1,0,0.1,0.2,0.2,0.2
		c0.1,0,0.1-0.2,0.2-0.2C13.7,62,13.4,61.9,13.3,62.2z M14.1,62.2c0.1,0,0.2,0,0.2-0.1c0,0,0,0-0.1,0C14.2,62.1,14,62,14.1,62.2z
		 M11.5,62.3c0.1,0,0.3-0.2,0.1-0.2C11.7,62.1,11.5,62.1,11.5,62.3z M13.1,62.3c0-0.1,0-0.2-0.1-0.2C13,62.2,13.1,62.2,13.1,62.3z
		 M14.7,62.3c0.1,0.1,0.2-0.2,0-0.2C14.7,62.2,14.6,62.2,14.7,62.3z M10.8,62.4c0.1,0,0.2,0.1,0.3,0.2c0-0.1,0.1-0.1,0.1-0.1
		c-0.1-0.1-0.1-0.2-0.3-0.3C10.8,62.2,10.8,62.3,10.8,62.4z M12.3,62.5c0.2,0.1,0.3-0.1,0.3-0.3c-0.1,0,0-0.1-0.1-0.1
		C12.5,62.3,12.4,62.3,12.3,62.5z M11.6,62.3c0,0.1,0.2,0.2,0.1,0.3C11.6,62.6,11.6,62.5,11.6,62.3c-0.2,0.3,0,0.2,0,0.4
		c0.2,0,0.3-0.2,0.4-0.4c-0.1,0-0.1-0.1-0.2-0.2C11.7,62.2,11.7,62.3,11.6,62.3z M7.7,62.7c0.1,0,0.2-0.1,0.2-0.2
		c-0.1,0-0.1-0.1-0.2-0.2C7.6,62.3,7.6,62.5,7.7,62.7z M13.4,62.6c0-0.1-0.1-0.2-0.2-0.3C13.2,62.4,13.3,62.5,13.4,62.6z M14.3,62.5
		c0.1,0,0.1,0,0.2,0c0-0.1,0-0.2-0.1-0.2C14.3,62.3,14.3,62.3,14.3,62.5z M9.9,62.7C9.9,62.7,10,62.7,9.9,62.7
		c0.2,0,0.3-0.1,0.4-0.3C10.1,62.2,10,62.5,9.9,62.7z M12.6,62.7c0.1,0,0.2-0.1,0.3-0.2C12.8,62.3,12.7,62.6,12.6,62.7z M9.4,62.6
		c0.1,0,0.1-0.1,0.1-0.2c0,0-0.1,0-0.1,0C9.4,62.5,9.3,62.6,9.4,62.6z M15.3,62.5c0,0.1-0.1,0.2-0.1,0.3c0.2,0.1,0,0.4,0.2,0.5
		C15.4,63.1,15.5,62.8,15.3,62.5C15.4,62.5,15.3,62.5,15.3,62.5z M12.7,62.8c0.1,0.1,0.1,0.2,0.3,0.3c0.1-0.1,0.2-0.2,0.2-0.3
		C13.1,62.6,12.8,62.4,12.7,62.8z M14,63c0.1-0.1,0.2-0.2,0.1-0.4c0,0,0,0-0.1,0C14,62.7,13.9,62.9,14,63z M12.1,62.9
		c0.2,0,0.2-0.1,0.2-0.2C12.2,62.5,12,62.7,12.1,62.9z M10.2,62.9c0.1,0.1,0.2,0.2,0.3,0.3c0.1-0.1,0.2-0.2,0.2-0.3
		C10.5,62.6,10.3,62.6,10.2,62.9z M7.7,63.1C7.9,63,8,62.9,8.1,62.7c0,0-0.1,0-0.1,0C7.9,62.9,7.8,62.9,7.7,63.1z M11.2,62.8
		c0.1,0,0.2,0.1,0.3,0.1c0,0,0-0.1,0.1-0.1c0-0.1-0.1-0.2-0.2-0.2C11.4,62.8,11.2,62.8,11.2,62.8z M8.8,63.3C9,63.2,9.3,63,9.2,62.7
		C9.1,62.9,8.9,63,8.8,63.3z M18.7,65c0-0.8-0.3-1.6-0.7-2.2C18.2,63.6,18.4,64.2,18.7,65z M7.1,63.5c0.2-0.1,0.4-0.6,0-0.7
		C7,63,7.1,63.2,7.1,63.5z M9.7,63c0.1,0,0.2,0,0.2-0.1c-0.1,0-0.1-0.1-0.1-0.1C9.7,62.9,9.6,62.9,9.7,63z M14.3,63
		c0-0.1,0.1-0.2,0-0.2C14.3,62.9,14.2,63,14.3,63z M2.8,63.4c0.2-0.2,0.3-0.3,0.4-0.5C3,63,2.8,63.2,2.8,63.4z M12.6,63.5
		c0.4-0.2,0-0.5-0.2-0.6c-0.1,0.1-0.1,0.1-0.1,0.3c0.1,0,0.1,0,0.1,0C12.3,63.3,12.6,63.5,12.6,63.5z M18.9,63
		c-0.1,0.2-0.2,0.6,0,0.7c0.1-0.2,0.1-0.4,0.2-0.5C18.9,63.2,18.9,63,18.9,63C18.9,62.9,18.9,63,18.9,63z M13.2,63.3
		c0.1,0,0.1,0,0.1,0c0-0.1,0.2-0.1,0.2-0.3c-0.1,0-0.1-0.1-0.2-0.1C13.3,63.2,13.1,63.1,13.2,63.3z M9.2,63.7
		c0.2-0.1,0.3-0.3,0.4-0.5c-0.1,0,0-0.1-0.1-0.1C9.4,63.4,9.1,63.5,9.2,63.7z M10.2,63.5c0.1,0,0.1-0.1,0.1-0.1
		c-0.1,0-0.1-0.2-0.3-0.2C9.9,63.3,10.1,63.4,10.2,63.5z M10.7,63.5c0,0.3,0.4,0.2,0.4,0c-0.1-0.1-0.1-0.2-0.2-0.3
		C10.9,63.3,10.8,63.4,10.7,63.5z M11.8,63.3c0-0.1,0.1,0,0.1-0.1c0,0-0.1,0-0.1,0C11.7,63.2,11.7,63.3,11.8,63.3z M14.1,63.3
		c0-0.1,0-0.2-0.1-0.2C14,63.3,14,63.4,14.1,63.3z M9.1,63.4c0.1,0,0.2-0.2,0.1-0.2C9.2,63.3,9.1,63.4,9.1,63.4z M14.6,63.6
		c0.3,0.1,0.2-0.4,0.1-0.4c0,0-0.1,0-0.1,0C14.6,63.4,14.6,63.5,14.6,63.6z M12.6,63.7c-0.1-0.2-0.2-0.4-0.4-0.4
		C12.3,63.4,12.4,63.6,12.6,63.7z M13.4,63.6c0.1,0,0.3-0.2,0.2-0.3C13.6,63.4,13.4,63.4,13.4,63.6z M8.4,64
		c0.1-0.2,0.3-0.3,0.4-0.5c-0.1,0,0-0.1-0.1-0.1C8.6,63.6,8.1,63.8,8.4,64z M13.5,63.7c0.1,0,0.1,0.2,0.2,0.2c0-0.1,0.1-0.1,0.2-0.2
		c0-0.1-0.1-0.2-0.2-0.2C13.6,63.5,13.5,63.5,13.5,63.7z M12.4,63.8c-0.1-0.1-0.2-0.3-0.4-0.4C12,63.6,12.2,63.9,12.4,63.8z M9.4,64
		c0.2,0,0.1,0.3,0.3,0.3c0.1-0.1,0.2-0.3,0.3-0.4C9.9,63.2,9.5,63.7,9.4,64z M12.9,63.8c0.1,0,0.2-0.1,0.2-0.3c-0.1,0,0-0.1-0.1-0.1
		C12.9,63.6,12.7,63.7,12.9,63.8z M7.2,64c0.1,0,0.1,0.1,0.2,0.1c0-0.2,0.3-0.3,0.2-0.4C7.5,63.9,7.3,63.9,7.2,64z M10.5,63.7
		c0,0.1,0.1,0.2,0.2,0.3c0-0.1,0.1-0.1,0.1-0.2C10.7,63.8,10.7,63.6,10.5,63.7C10.5,63.7,10.5,63.8,10.5,63.7z M12.2,64.1
		c-0.1-0.2-0.2-0.3-0.4-0.4C12,63.8,12.1,64.1,12.2,64.1z M11.2,64c0.1,0.1,0.2-0.1,0.2-0.2C11.3,63.8,11.2,63.9,11.2,64z M13.1,64
		c0.1,0.1,0.2,0.2,0.2,0.3c0.1,0,0.2-0.2,0.2-0.3c-0.2,0-0.2-0.2-0.3-0.3C13.2,63.9,13.1,63.9,13.1,64z M1.2,65.4
		c0.3-0.1,0.5-0.4,0.7-0.7c0.2-0.3,0.5-0.6,0.6-0.9c0,0-0.1,0-0.1,0C2,64.4,1.6,64.8,1.2,65.4z M13.9,64c0.1,0,0,0.2,0.2,0.2
		c0-0.1,0.1-0.3,0-0.4C14,63.9,13.9,63.9,13.9,64z M8.8,64.4c0.1-0.2,0.3-0.3,0.4-0.5C8.9,63.8,8.6,64.2,8.8,64.4z M10.1,64.8
		c0.1-0.2,0.2-0.4,0.4-0.5c0-0.2-0.1-0.2-0.2-0.3C10.1,64.3,9.8,64.6,10.1,64.8z M11.5,64.3c0.1,0.2,0.2,0.2,0.3,0.4
		c0.1,0,0.2-0.1,0.2-0.3c-0.2-0.1-0.2-0.3-0.4-0.3C11.6,64.1,11.5,64.1,11.5,64.3z M18.5,65.3c-0.1-0.3-0.2-0.8-0.3-1.1
		c-0.1,0-0.2,0-0.2,0C18.1,64.5,18.3,64.9,18.5,65.3z M7.9,64.6c0.2,0,0.2-0.2,0.3-0.3c0-0.1,0-0.1-0.1-0.1
		C8,64.3,7.8,64.3,7.9,64.6z M13.2,64.3c-0.1,0-0.1-0.2-0.2-0.1C13,64.2,13.1,64.4,13.2,64.3z M14.2,64.4c0-0.1,0.1-0.1,0.1-0.2
		C14.2,64.2,14.1,64.3,14.2,64.4z M11,64.3C11,64.3,11,64.4,11,64.3c0.1,0,0.1-0.1,0.1-0.1c0,0-0.1,0-0.1,0C11,64.3,11,64.3,11,64.3
		z M8.9,64.5C9,64.7,9,64.8,9.1,64.9c0.1,0,0.2-0.1,0.2-0.2c-0.1-0.2-0.1-0.4-0.2-0.5C9.1,64.4,9,64.4,8.9,64.5z M12.5,64.5
		c0.1-0.1,0-0.2-0.1-0.2C12.3,64.3,12.4,64.5,12.5,64.5z M13.5,64.6c0.1,0,0,0.1,0.1,0.1c0.1-0.1,0.1-0.1,0.2-0.2
		c-0.1,0-0.1-0.1-0.2-0.1C13.6,64.4,13.5,64.4,13.5,64.6z M9.5,64.5c0.1-0.1,0-0.2-0.1-0.2C9.4,64.4,9.4,64.5,9.5,64.5z M14.5,64.7
		c0.1,0,0.2-0.1,0.2-0.2c0-0.1,0-0.2-0.1-0.2C14.5,64.5,14.5,64.5,14.5,64.7z M11.5,64.8c0,0,0.1,0,0.1,0c-0.1-0.1-0.1-0.3-0.3-0.3
		c0-0.1,0-0.1-0.1-0.2c0,0.1,0,0.1,0,0.1C11.3,64.6,11.5,64.6,11.5,64.8z M13.7,64.7c0,0.1,0.1,0.1,0.1,0.2
		C14.2,64.7,13.8,64.3,13.7,64.7z M7.3,64.7c0.1,0,0-0.3-0.1-0.2C7.3,64.6,7.3,64.7,7.3,64.7z M12.6,64.7c0.1,0.1,0.2,0.2,0.2,0.3
		c0.4-0.1,0-0.4-0.1-0.5C12.7,64.6,12.6,64.6,12.6,64.7z M10.3,65.1c0.2-0.1,0.5-0.4,0.4-0.6C10.6,64.7,10.4,64.9,10.3,65.1z
		 M8.2,65C8.2,65,8.2,65,8.2,65c0.1-0.2,0.4-0.3,0.2-0.4C8.4,64.8,8,64.9,8.2,65z M12,64.9C12,64.9,12,64.9,12,64.9
		c0.2,0.1,0.2-0.1,0.3-0.2c-0.1,0-0.1-0.1-0.2-0.1C12.1,64.7,12,64.7,12,64.9z M11.4,65.1c0.1,0,0.1,0,0.1-0.1
		c-0.1-0.1-0.3-0.2-0.4-0.3C11.1,64.9,11.4,64.9,11.4,65.1z M10,65.1c0-0.2-0.1-0.3-0.2-0.3C9.7,64.9,9.8,65.1,10,65.1z M9,65.2
		c0-0.2-0.1-0.3-0.3-0.4C8.8,64.9,8.8,65.1,9,65.2z M10.5,65.4c0.1,0.1,0.1,0.4,0.4,0.4c0.1-0.2,0.3-0.3,0.4-0.5
		c-0.1-0.1-0.2-0.3-0.4-0.4C10.8,65,10.6,65.2,10.5,65.4z M7.4,65.4c0.1-0.1,0.2-0.2,0.2-0.4c-0.1,0,0-0.1-0.1-0.1
		C7.4,65,7.3,65.2,7.4,65.4z M8.3,65.3c0.1,0.1,0.2,0.2,0.4,0.3c0-0.2,0.2-0.2,0.2-0.4C8.7,64.8,8.4,65,8.3,65.3z M9.4,65.2
		c0.1,0.1,0,0.2,0.3,0.2c0.2-0.2-0.1-0.3-0.2-0.5C9.6,65,9.4,65,9.4,65.2z M12.3,65.2c0.1,0.1,0.1,0.2,0.3,0.2c0,0,0-0.1,0.1-0.1
		C12.7,65,12.3,64.8,12.3,65.2z M13.1,65.3c0.1,0,0.1-0.1,0.1-0.2c0,0-0.1-0.1-0.1-0.1C13.1,65.1,13,65.2,13.1,65.3z M13.1,65.4
		c0.1,0,0.1,0.1,0.2,0.1C13.7,65.3,13.2,65,13.1,65.4z M14.5,65.7c0.1-0.1,0.1-0.2,0.1-0.4c-0.1,0,0-0.1-0.1-0.1
		C14.4,65.3,14.5,65.5,14.5,65.7z M11.6,65.4c0.1,0.1,0.2,0.1,0.2,0c-0.1,0-0.1-0.1-0.2-0.1C11.7,65.3,11.6,65.3,11.6,65.4z
		 M9.2,65.7c-0.1,0-0.1-0.1-0.1-0.1C9,65.7,9,65.8,8.9,65.9C9,66,9,66.1,9.2,66.2C9.3,66.1,9.4,65.9,9.2,65.7c0.1,0,0.1,0.1,0.2,0.1
		c0.2-0.1,0-0.4-0.2-0.4c0,0,0,0.1,0,0.1C9.2,65.6,9.4,65.6,9.2,65.7z M15.1,65.6c0.1,0,0,0.3,0.1,0.3c0-0.1,0-0.4,0-0.5
		C15.2,65.6,15,65.5,15.1,65.6z M7.7,65.6c0.1,0,0.2-0.1,0.1-0.2C7.7,65.5,7.7,65.5,7.7,65.6z M12.7,65.6c0.1,0.1,0.3-0.1,0.2-0.2
		C12.8,65.5,12.7,65.5,12.7,65.6z M11,66c0.1,0,0.1,0.1,0.2,0.1c0.1-0.2,0.3-0.3,0.4-0.5c-0.1,0-0.1-0.2-0.2-0.2
		C11.3,65.7,11.1,65.8,11,66z M8.2,65.5c0,0.2,0.2,0.2,0.2,0.4c-0.2,0-0.2-0.2-0.3-0.3c-0.3,0.4,0.4,0.7,0.4,0.1
		C8.4,65.7,8.3,65.4,8.2,65.5z M11.9,65.7c0.1,0,0.1,0.2,0.2,0.3c0.1,0,0.1-0.1,0.2-0.2c-0.1-0.1-0.2-0.1-0.2-0.3
		C12,65.5,11.9,65.6,11.9,65.7z M9.9,65.7c0-0.1,0.2-0.2,0-0.2C10,65.6,9.8,65.7,9.9,65.7z M10.7,66c-0.1-0.2-0.2-0.3-0.4-0.4
		C10.3,65.7,10.5,65.9,10.7,66z M12.8,65.8c0.1,0,0.1,0.1,0.2,0.2c0.3-0.1,0.1-0.3,0-0.4C13,65.6,12.9,65.7,12.8,65.8z M13.5,65.8
		c0,0.2,0.2,0.2,0.2,0.3c0-0.1,0.1-0.2,0.2-0.3c0-0.1-0.1-0.1-0.2-0.1C13.7,65.7,13.6,65.8,13.5,65.8z M10.2,66.1c0,0,0.2,0,0.1,0.1
		c0.1,0,0.1,0,0.2,0C10.6,65.7,9.9,65.7,10.2,66.1z M7.4,66c0.1,0,0.2-0.2,0.1-0.2C7.5,65.9,7.3,65.9,7.4,66z M11.4,66.4
		c0.1,0.1,0.2,0.2,0.3,0.3c0.1-0.2,0.3-0.3,0.4-0.5c-0.1-0.1-0.2-0.2-0.3-0.3C11.6,66,11.4,66.2,11.4,66.4z M9.6,66
		C9.6,66,9.6,66,9.6,66c0.1,0.1,0.2,0,0.2-0.1C9.7,65.9,9.6,65.9,9.6,66z M1.1,66C1.1,66,1,66.1,1,66.1c0,0.1,0.1,0.2,0.2,0.3
		c0.1-0.1,0.3,0.1,0.2,0.2c0.3,0,0.6,0.4,0.8,0.7C2,66.8,1.6,66.2,1.1,66z M12.3,66.2c0.1,0,0.3-0.2,0.1-0.3
		C12.4,66.1,12.2,66.1,12.3,66.2z M13.2,66.1c0,0.2,0.1,0.2,0.2,0.3C13.6,66.2,13.5,66,13.2,66.1z M14.1,66.4c0.1,0,0.1,0.1,0.2,0
		c0-0.1,0.1-0.3-0.1-0.4C14,66.1,14.2,66.3,14.1,66.4z M8.6,66.3c0,0.1-0.1,0.1-0.1,0.2c0.1,0.1,0.1,0.2,0.3,0.3
		C8.8,66.6,9,66.5,9,66.3c-0.1-0.1-0.2-0.2-0.3-0.3c-0.1,0.2,0.1,0.3,0.2,0.5C8.8,66.5,8.8,66.3,8.6,66.3z M10.1,66.7
		c0-0.1,0.2-0.1,0.2-0.3c-0.1-0.1-0.2-0.3-0.3-0.3c-0.1,0-0.1,0.1-0.2,0.2c0.1,0,0.1,0.1,0.1,0.2c-0.1,0-0.1-0.1-0.2-0.1
		c0,0.1-0.1,0.2-0.2,0.3c0.1,0.1,0.2,0.2,0.4,0.3C9.9,66.9,10,66.8,10.1,66.7C10.1,66.7,10,66.6,10.1,66.7
		C10.1,66.6,10.1,66.7,10.1,66.7z M12.6,66.5c0.3-0.1,0.2-0.4,0-0.4C12.4,66.2,12.4,66.4,12.6,66.5z M7.7,66.9
		c0.2-0.2,0.3-0.6,0-0.8C7.5,66.4,7.4,66.8,7.7,66.9z M11.8,66.9c0.2-0.1,0.3-0.3,0.4-0.5C12,66.4,11.9,66.7,11.8,66.9z M10.7,66.5
		c0.1,0,0.1,0.1,0.2,0.1C11,66.5,10.7,66.3,10.7,66.5z M13.6,66.6c0.1,0.1,0.2,0.1,0.3,0.2c0.1-0.2-0.1-0.4-0.2-0.4
		C13.6,66.5,13.6,66.5,13.6,66.6z M6.9,66.5C7,66.5,7,66.6,6.9,66.5C7,66.5,7.1,66.4,6.9,66.5C7,66.5,6.9,66.5,6.9,66.5z M12.4,66.7
		c-0.1-0.4-0.6,0.2-0.5,0.5c0.1,0,0.1,0.1,0.2,0.1C12.2,67,12.5,66.9,12.4,66.7z M12.8,66.9c0.1,0,0.1,0.1,0.2,0.1
		c0.1-0.1,0.1-0.2,0.2-0.3c-0.1,0-0.1-0.1-0.2-0.1C12.9,66.7,12.7,66.7,12.8,66.9z M8.3,66.7c0,0.1,0.1,0.3,0.2,0.4
		c0.1,0,0.1-0.1,0.2-0.1C8.5,66.9,8.4,66.6,8.3,66.7z M10.5,67.1c0.1-0.1,0.1-0.1,0.1-0.2C10.5,66.5,10.1,67.1,10.5,67.1z
		 M11.3,67.1c0.1-0.2-0.1-0.3-0.2-0.4C11,66.9,11.1,67.1,11.3,67.1z M9.4,67.5c0.1-0.1,0.2-0.2,0.3-0.4c-0.1-0.2-0.2-0.3-0.4-0.4
		C9.1,67,9.1,67.4,9.4,67.5z M7.1,67.2c0-0.1,0-0.3,0-0.4c0,0-0.1,0-0.1,0C7,66.9,7,67.1,7.1,67.2z M8.1,67.5
		c0.2-0.1,0.3-0.2,0.3-0.4c-0.1,0-0.1-0.2-0.3-0.3C8.1,67.1,8.2,67.3,8.1,67.5z M12.3,67.5c0.1,0.1,0.1,0.1,0.2,0.2
		c0.2-0.1,0.3-0.3,0.4-0.5c0-0.1-0.1-0.2-0.2-0.2C12.6,67.2,12.3,67.2,12.3,67.5z M3,67.4c-0.1,0.1,0,0.1,0,0.2c0.3,0.3,0.7,0.6,1,1
		c0.2-0.1,0.2,0.3,0.3,0.1c-0.5-0.6-1-1.2-1.6-1.6C2.7,67.2,2.8,67.3,3,67.4z M10.3,67.4c0.1-0.1,0.1-0.3-0.1-0.4
		C10.2,67.1,10.1,67.3,10.3,67.4z M13.4,67.3c0.1,0,0.2-0.1,0.2-0.3c-0.1,0-0.1-0.1-0.2-0.1C13.4,67.1,13.5,67.3,13.4,67.3z
		 M13.2,67.3c0-0.1,0-0.2,0-0.2C13.1,67.1,13.1,67.3,13.2,67.3z M10.7,67.3c0.2,0,0.1,0.2,0.3,0.3c0.3-0.2,0-0.4-0.1-0.5
		C10.8,67.2,10.7,67.2,10.7,67.3z M15,67.2c0-0.1,0.1,0.1,0.1,0c-0.1,0,0-0.2-0.1-0.1C15.1,67.2,14.9,67.2,15,67.2z M15.2,68.6
		c0.1,0,0.1,0.2,0.2,0.2c0-0.6,0-1-0.1-1.5c0,0-0.1,0-0.1,0C15.2,67.7,15.3,68.1,15.2,68.6z M13.4,67.5c0.1,0,0,0.1,0.1,0.1
		c0.2-0.1,0.3-0.2,0.3-0.3c0,0,0,0,0-0.1C13.6,67.3,13.5,67.4,13.4,67.5z M8.8,68.3c0.1-0.2,0.3-0.4,0.5-0.6
		c-0.1-0.1-0.2-0.2-0.3-0.3C8.8,67.6,8.3,68,8.8,68.3z M11.6,67.4c0,0.1,0.1,0.2,0.2,0.2c0-0.1,0-0.1,0-0.2
		C11.7,67.4,11.6,67.4,11.6,67.4z M12.8,68c0.2-0.2,0.5-0.5,0.1-0.7C12.9,67.6,12.4,67.9,12.8,68z M9.9,67.6c-0.2,0-0.1,0.3,0,0.3
		c0.1-0.2,0.2-0.1,0.3-0.4C10.1,67.4,9.8,67.4,9.9,67.6z M10.5,67.5c0,0.2,0.2,0.2,0.3,0.4c0-0.1,0.1-0.1,0.1-0.2
		C10.8,67.6,10.7,67.3,10.5,67.5z M8,68.3C8.1,68.3,8,68.2,8,68.3c0-0.3-0.1-0.6-0.3-0.7C7.7,67.8,7.6,68.2,8,68.3z M11.2,67.8
		c0-0.1,0.2,0,0.1-0.2c0,0-0.1,0-0.1,0C11.2,67.7,11,67.7,11.2,67.8z M7.2,68.9c0.1-0.3-0.1-0.7-0.2-1.1C7,68.1,7.1,68.8,7.2,68.9z
		 M10.2,67.9c0,0.1,0.1,0.2,0.3,0.3c0-0.1,0.1-0.1,0.1-0.1C10.5,67.8,10.3,67.7,10.2,67.9z M11.2,67.9c0,0.1,0.1,0.1,0.2,0.2
		c0-0.1,0.1-0.1,0.1-0.2c-0.1-0.1-0.1-0.2-0.2-0.2C11.3,67.8,11.2,67.9,11.2,67.9z M7.5,69c0.2-0.3,0-0.8,0-1.1c0,0-0.1,0-0.1,0
		C7.4,68.2,7.4,68.6,7.5,69z M12,67.9c0.1,0,0.2,0,0.2,0.1c0.2,0,0-0.1,0-0.2C12,67.8,12,67.9,12,67.9z M12.9,68.2
		c0.1,0,0.1,0.1,0.2,0.1c0-0.1,0.1-0.2,0.1-0.4c-0.1,0,0-0.1-0.1-0.1C13.1,68,12.9,68,12.9,68.2z M10.9,68c0.1,0,0.1-0.1,0.2-0.1
		C11,67.9,10.9,67.9,10.9,68z M14.3,68C14.3,68,14.4,68,14.3,68c0.3,0.1,0,0.5,0.2,0.6C14.5,68.3,14.6,67.8,14.3,68z M9.1,68.6
		c0,0.1,0.2,0,0.2,0.2c0.3-0.1,0.3-0.4,0.5-0.6C9.7,68.1,9.7,68,9.5,68C9.4,68.2,9.2,68.3,9.1,68.6z M11.1,68.1
		c0,0.1,0.1,0.2,0.2,0.2c0.1-0.1,0-0.3-0.1-0.4C11.1,68,11.1,68.1,11.1,68.1z M10.3,68.4c0.1-0.2-0.1-0.3-0.2-0.4
		C10,68.2,10.2,68.3,10.3,68.4z M13.4,68.5c0.1-0.2,0.2-0.2,0.3-0.4c0,0-0.1-0.1-0.1-0.1C13.5,68.2,13.3,68.4,13.4,68.5z M14.1,68.2
		c0.1,0,0.1,0.1,0.2,0.1c0-0.1,0.1-0.2,0-0.3C14.2,68.2,14.1,68.2,14.1,68.2z M8.6,68.6c0.1-0.2-0.1-0.3-0.2-0.4
		C8.3,68.3,8.5,68.5,8.6,68.6z M12.5,68.4c0.1-0.1-0.1-0.1-0.1-0.2c0,0-0.1,0-0.1,0C12.4,68.3,12.4,68.4,12.5,68.4z M10.6,68.4
		c0.1,0,0.2-0.1,0.1-0.2C10.7,68.3,10.6,68.3,10.6,68.4z M11.9,68.6c0,0,0.1-0.1,0.1-0.1c-0.1,0-0.1-0.2-0.2-0.2
		C11.6,68.4,11.7,68.5,11.9,68.6z M10.8,68.6c0.1,0,0.1,0.1,0.1,0.2c0.2,0,0.1-0.2,0.2-0.2c0-0.1-0.1-0.2-0.2-0.3
		C10.9,68.4,10.8,68.5,10.8,68.6z M9.9,68.4c-0.2,0.3-0.7,0.6-0.2,0.8c0.2-0.2,0.3-0.4,0.5-0.6C10.1,68.5,10.1,68.4,9.9,68.4z
		 M8.5,68.8c0.1-0.2-0.1-0.3-0.2-0.4C8.1,68.5,8.3,68.7,8.5,68.8z M12.2,68.5c0.1,0,0.1,0.1,0.2,0.2c0,0,0,0,0.1,0
		C12.4,68.5,12.2,68.4,12.2,68.5z M11.5,68.6c0.1,0.1,0.1,0.1,0.2,0.2c0-0.1,0.1-0.1,0.1-0.1c-0.1,0-0.1-0.2-0.2-0.2
		C11.6,68.5,11.5,68.5,11.5,68.6z M14,69.1c0.1-0.1,0.2-0.2,0.3-0.3c-0.1-0.1-0.1-0.2-0.3-0.2C13.9,68.7,13.9,69,14,69.1z
		 M10.6,68.8c0.1,0,0.1,0.2,0.2,0.2C10.9,68.8,10.8,68.7,10.6,68.8C10.7,68.7,10.6,68.7,10.6,68.8z M12,68.7c0,0.1,0.1,0.2,0.2,0.2
		C12.2,68.8,12.1,68.6,12,68.7z M12.4,68.8c0,0.1,0.1,0.2,0.2,0.3c0.1,0,0-0.1,0.1-0.1C12.6,68.8,12.5,68.6,12.4,68.8z M13.8,69
		c0-0.1,0-0.2,0-0.3C13.6,68.8,13.6,68.9,13.8,69z M8.8,69c0.1,0,0.1,0.1,0.1,0.2c0.1,0,0.2-0.1,0.2-0.2c-0.1-0.1-0.1-0.2-0.2-0.2
		C8.9,68.9,8.8,68.8,8.8,69z M15.2,70.5c0.2-0.4,0.1-1.1,0.2-1.5c-0.1,0-0.1-0.2-0.2-0.2C15.1,69.5,15.3,69.7,15.2,70.5z M11.4,69.2
		c0-0.1,0.2-0.1,0.2-0.2c-0.1,0-0.1-0.1-0.2-0.2C11.2,68.9,11.1,69.1,11.4,69.2z M7.9,69.5c0.2-0.1,0.3-0.5,0-0.6
		C7.8,69,7.9,69.3,7.9,69.5z M11.9,68.9c0,0.1,0.1,0.1,0.2,0.2C12.1,69,12,68.8,11.9,68.9z M10,69.6c0.1,0,0.2,0.1,0.2,0.2
		c0.2-0.1,0.3-0.4,0.5-0.6c-0.1-0.1-0.1-0.1-0.2-0.2C10.3,69.1,10.1,69.3,10,69.6z M8.7,69.2c0.2,0,0.1,0.2,0.2,0.2
		c0,0,0-0.1,0.1-0.1c0-0.1-0.1-0.1-0.1-0.3c0,0-0.1,0-0.1,0C8.8,69.2,8.6,69.1,8.7,69.2z M13.8,69.3c0-0.1-0.2-0.3-0.3-0.2
		C13.6,69.2,13.7,69.3,13.8,69.3z M12.8,69.4c0-0.1,0.1-0.1,0.1-0.3C12.8,69.1,12.7,69.3,12.8,69.4z M11.3,69.4
		c0-0.1-0.1-0.2-0.2-0.2C11.1,69.3,11.1,69.4,11.3,69.4z M12.3,69.4c0-0.2-0.1-0.3-0.3-0.3C12.1,69.3,12.2,69.4,12.3,69.4z
		 M9.2,69.4c0.1,0.1,0.1,0.2,0.2,0.2c0-0.1,0.1-0.1,0.2-0.3C9.5,69.2,9.3,69.1,9.2,69.4z M11.6,69.5c0.1,0,0.2-0.1,0.2-0.3
		c0,0-0.1,0-0.1-0.1C11.6,69.3,11.5,69.4,11.6,69.5z M7.5,69.3c0,0.3,0.1,0.5,0.1,0.6c0.1-0.2,0.1-0.6,0-0.7
		C7.6,69.2,7.6,69.3,7.5,69.3z M14.5,69.6c0-0.1,0.1-0.3,0-0.4C14.4,69.2,14.4,69.6,14.5,69.6z M4.7,69.5c0-0.1-0.2-0.3-0.3-0.3
		C4.5,69.3,4.5,69.5,4.7,69.5z M13.5,69.4c-0.1,0-0.1-0.1-0.2-0.1C13.4,69.3,13.5,69.5,13.5,69.4z M8.5,69.6c-0.1,0,0-0.1-0.1-0.1
		c0,0.1,0,0.1-0.1,0.1c0,0.1,0,0.1-0.1,0.2c0,0.1,0.2,0.1,0.2,0.3c0.2-0.1,0.3-0.3,0.4-0.5c-0.1-0.1-0.1-0.2-0.2-0.3
		C8.4,69.4,8.5,69.5,8.5,69.6z M10.6,69.7c0.1,0,0.1,0.2,0.2,0.2c0-0.1,0.2-0.2,0.2-0.3c-0.1-0.1-0.1-0.2-0.2-0.2
		C10.8,69.5,10.7,69.6,10.6,69.7z M12,69.8c0.1,0,0.1-0.1,0.2-0.2c0-0.1-0.1-0.2-0.3-0.3C11.7,69.5,11.7,69.8,12,69.8z M9,69.6
		c0.1,0,0.1,0.2,0.3,0.2c0-0.1-0.1-0.2-0.2-0.3C9.2,69.6,9,69.5,9,69.6z M11.6,69.6c0-0.1-0.1-0.1-0.1-0.1
		C11.4,69.6,11.5,69.6,11.6,69.6z M13.1,69.8c0-0.1,0.1-0.2,0-0.2C13.1,69.6,13,69.8,13.1,69.8z M13.3,69.9c0.2,0,0.2-0.3,0-0.3
		C13.3,69.7,13.3,69.8,13.3,69.9z M14.1,69.9c0.2,0,0.1-0.2,0.1-0.3c0,0-0.1,0-0.1,0C14.2,69.8,14.1,69.9,14.1,69.9z M9.9,70.2
		c0.1-0.1,0.2-0.2,0.2-0.3c-0.1,0-0.1-0.2-0.3-0.1C9.7,69.9,9.7,70.2,9.9,70.2z M11.1,70.2c0.2,0,0.2-0.2,0.3-0.3
		c-0.1,0-0.1-0.1-0.2-0.1C11.2,69.9,11,70,11.1,70.2z M11.9,70c0-0.1-0.1-0.2-0.2-0.2C11.6,69.9,11.8,69.9,11.9,70z M8.6,70.3
		c0.1,0.1,0.1,0.1,0.2,0.1C8.9,70.3,9,70.2,9.1,70C8.9,69.6,8.7,70.1,8.6,70.3z M10.5,70c0.1,0,0.2,0.2,0.3,0.1
		c-0.1,0,0.1-0.1,0.1-0.1c-0.1,0-0.1-0.1-0.2-0.1C10.6,69.8,10.5,69.9,10.5,70z M12.2,70.1c0.1,0,0.3-0.2,0.2-0.3
		C12.3,69.9,12.1,70,12.2,70.1z M13.4,70.2c0.1,0,0.3-0.3,0.2-0.3C13.5,69.9,13.4,70,13.4,70.2z M13.1,70.2
		c-0.1-0.1-0.1-0.2-0.3-0.3C12.9,70.1,13,70.1,13.1,70.2z M11.2,70.3c0,0.1,0.1,0.1,0.2,0.2c0.1-0.1,0.2-0.2,0.3-0.3
		c-0.1-0.1-0.1-0.2-0.2-0.2C11.4,70.1,11.3,70.2,11.2,70.3z M14.6,70.4c0-0.1,0.1-0.2,0-0.4C14.5,70.1,14.5,70.3,14.6,70.4z
		 M9.8,70.3c0-0.1-0.1-0.2-0.2-0.2C9.5,70.2,9.7,70.2,9.8,70.3z M7.7,70.2c0.1,0.1,0.2,0.3,0.3,0.3c0-0.2,0-0.4-0.2-0.4
		C7.8,70.2,7.8,70.2,7.7,70.2z M12.5,70.4c0.1,0.1,0.1,0.2,0.3,0.2c0.2-0.1,0.2-0.4-0.1-0.5C12.6,70.2,12.5,70.3,12.5,70.4z
		 M10.3,70.7c0.1-0.1,0.2-0.2,0.2-0.4c0,0-0.1,0-0.1-0.1C10.1,70.2,10,70.5,10.3,70.7z M10.8,70.4c0.1,0.1,0.3-0.2,0.1-0.2
		C10.9,70.2,10.8,70.3,10.8,70.4z M13.6,70.4c0.1,0,0,0.1,0.1,0.1c0-0.1,0.2-0.3,0-0.3C13.7,70.3,13.6,70.3,13.6,70.4z M9,70.7
		c0.1,0.2,0.1,0.2,0.1,0.3c0.4,0,0.4-0.3,0.5-0.5c-0.1-0.1-0.2-0.2-0.3-0.2C9.2,70.4,9.2,70.6,9,70.7z M11.6,70.8
		c0.1,0,0.3-0.2,0.3-0.4c0,0,0,0-0.1,0C11.8,70.5,11.6,70.6,11.6,70.8z M11.1,70.4c-0.1,0.1,0.2,0.4,0.3,0.2c0-0.1-0.1-0.2-0.1-0.3
		C11.1,70.4,11.1,70.4,11.1,70.4z M14,70.8c0.1,0.1,0.2,0.2,0.3,0.3c0.1-0.1,0-0.4,0-0.7C14.1,70.5,14.1,70.7,14,70.8z M10.5,70.9
		c0.1-0.1,0.2-0.2,0.3-0.4c0,0-0.1-0.1-0.1-0.1C10.6,70.6,10.3,70.8,10.5,70.9z M8.4,71c0.1-0.1,0.2-0.2,0.2-0.3
		c-0.1-0.1-0.1-0.1-0.2-0.2C8.3,70.6,8.2,70.9,8.4,71z M12.8,70.8c0.1-0.1,0.2-0.2,0.2-0.3c0,0-0.1,0-0.1,0
		C13,70.7,12.8,70.7,12.8,70.8z M14.5,71c0.2,0,0.2-0.5,0-0.5C14.4,70.7,14.4,70.8,14.5,71z M10.6,71.1c0.1,0.1,0.1,0.2,0.2,0.2
		c0.1-0.1,0.2-0.2,0.3-0.4c-0.1-0.1-0.2-0.1-0.3-0.2C10.8,70.9,10.7,70.9,10.6,71.1z M9.4,71.3c0.1,0.1,0.1,0.1,0.2,0.1
		c0.1-0.2,0.3-0.3,0.4-0.5c-0.1-0.1-0.1-0.2-0.3-0.2C9.7,71,9.5,71.1,9.4,71.3z M12,71.1c0.1,0.1,0.1,0.2,0.2,0.3
		c0-0.2,0.2-0.2,0.2-0.4c-0.1,0-0.1-0.2-0.3-0.2C12.2,70.9,12,71,12,71.1z M13.3,71c0-0.1,0.1-0.1,0.1-0.2c0,0-0.1,0-0.1,0
		C13.3,70.9,13.2,70.9,13.3,71z M11.5,71c0.1,0,0.2,0,0.2-0.1c0,0-0.1,0-0.1,0C11.5,70.9,11.4,70.9,11.5,71z M13.3,71.3
		c0.1,0,0.2-0.2,0.2-0.3C13.4,71,13.3,71.1,13.3,71.3z M8.7,71.3c0.1,0.1,0.1,0.2,0.3,0.2c0.1,0,0-0.1,0.1-0.2C9,71.2,9,71.1,8.8,71
		C8.8,71.1,8.7,71.2,8.7,71.3z M7.9,71.3c0.1,0.1,0.1,0.2,0.1,0.3c0.2-0.1,0.3-0.4,0.1-0.5C8,71.2,7.9,71.2,7.9,71.3z M12.3,71.5
		c0.1-0.1,0.4-0.3,0.2-0.4C12.5,71.2,12.3,71.3,12.3,71.5z M9.8,71.7c0.2-0.1,0.3-0.3,0.5-0.5c0,0-0.1-0.1-0.1-0.1
		C10.1,71.3,9.9,71.4,9.8,71.7z M11.1,71.6c0.1-0.1,0.2-0.2,0.3-0.4c-0.1,0,0-0.1-0.1-0.1C11.2,71.3,11,71.4,11.1,71.6z M13.5,71.5
		c0,0.1,0.1,0.2,0.2,0.2c0-0.2,0.1-0.4,0-0.5C13.6,71.3,13.6,71.4,13.5,71.5z M11.9,71.5c0.1,0,0.1,0,0.2,0c0-0.2-0.1-0.2-0.2-0.3
		C11.8,71.3,11.9,71.4,11.9,71.5z M10,71.9c0.1,0,0.2,0.1,0.2,0.2c0.2-0.1,0.3-0.4,0.4-0.5C10.5,71.1,10.1,71.6,10,71.9z M12.6,71.8
		c0.2,0,0.2-0.2,0.3-0.4C12.7,71.3,12.5,71.7,12.6,71.8z M11.4,71.9c0.1,0.1,0.1,0.1,0.2,0.2c0.2,0,0.2-0.3,0.4-0.3
		C11.8,71.4,11.5,71.6,11.4,71.9z M9.3,72c0.1-0.1,0.1-0.1,0.1-0.2c0-0.1-0.1-0.2-0.2-0.2c0,0.1-0.1,0.1-0.1,0.2
		C9.2,71.8,9.3,71.9,9.3,72C9.3,71.9,9.3,72,9.3,72z M8.6,72c0-0.1,0.1,0,0.1-0.1c0,0-0.1-0.3-0.2-0.3C8.5,71.8,8.5,72,8.6,72z
		 M12.8,72c0.2,0,0.3-0.2,0.2-0.4C12.9,71.8,12.7,71.8,12.8,72z M8.5,72.2c0-0.2,0-0.3-0.1-0.5C8,71.7,8.3,72.2,8.5,72.2z M14,72.2
		c0.1,0,0.4-0.2,0.3-0.4C14.1,71.9,14,72,14,72.2z M10.4,72.3c0.3,0,0.3-0.3,0.4-0.5c0,0,0,0-0.1,0C10.7,72,10.5,72.1,10.4,72.3z
		 M12.5,72c0-0.1-0.1-0.1-0.2-0.1C12.3,72,12.5,72.1,12.5,72z M11.9,71.9c0,0.1-0.3,0.3-0.1,0.4c0-0.2,0.3-0.3,0.2-0.4
		C12,71.9,11.9,71.9,11.9,71.9z M13.3,72.4c0.1-0.1,0.2-0.2,0.2-0.3c-0.1,0-0.1-0.2-0.2-0.2C13.3,72.1,13.2,72.3,13.3,72.4z
		 M9.2,72.2c0-0.1-0.1-0.2-0.2-0.2C8.9,72,9,72.3,9.2,72.2z M9.5,72.2c0.1,0,0.2-0.2,0.1-0.3C9.5,72,9.5,72.1,9.5,72.2z M8.7,72.5
		c0,0,0.1,0,0.1,0.1c0,0-0.1,0-0.1,0c0.3-0.1,0.4-0.4,0.1-0.6C8.8,72.2,8.6,72.3,8.7,72.5z M8,72.5c0.1,0,0.1,0.2,0.2,0.1
		c0-0.1,0-0.4-0.2-0.4C7.9,72.2,8.1,72.4,8,72.5z M9.7,72.4c0.1,0,0.2,0.1,0.3,0.2c0.1-0.1,0-0.4-0.2-0.4
		C9.7,72.2,9.7,72.3,9.7,72.4z M10.8,72.7c0.1,0.1,0.1,0.2,0.2,0.2c0.1-0.2,0.3-0.3,0.4-0.5c-0.1-0.1-0.1-0.2-0.2-0.2
		C11.1,72.4,10.9,72.5,10.8,72.7z M11.9,72.6c0.1,0,0.1,0,0.2,0c0.1-0.1,0.1-0.2,0.2-0.3c-0.1,0,0-0.2-0.1-0.1
		C12.1,72.3,12,72.4,11.9,72.6z M6.7,72.3c0.1,0.2,0.2,0.4,0.3,0.5c0-0.1,0.1-0.2,0.1-0.3c-0.2,0-0.2-0.2-0.3-0.3
		C6.8,72.3,6.8,72.3,6.7,72.3z M9.3,72.5c0.1,0,0.2-0.1,0.1-0.2C9.3,72.4,9.3,72.4,9.3,72.5z M12.3,72.7c0-0.1,0.2-0.2,0.2-0.3
		C12.4,72.3,12.2,72.6,12.3,72.7z M13.1,72.5c-0.1,0-0.1-0.2-0.2-0.1C12.9,72.4,13,72.6,13.1,72.5z M9.4,72.6
		c0.1,0.1,0.2,0.2,0.3,0.3c0-0.1,0-0.1,0.1-0.1C9.7,72.6,9.5,72.3,9.4,72.6z M11.2,73c0.2-0.1,0.3-0.3,0.4-0.5
		C11.3,72.6,11.3,72.9,11.2,73z M12.4,73c0.1,0.1,0,0.2,0.2,0.3c0.1-0.1,0.2-0.3,0.4-0.4c-0.1-0.1-0.2-0.2-0.3-0.3
		C12.6,72.8,12.5,72.8,12.4,73z M10.1,72.8c0.1,0,0.2-0.2,0.1-0.2C10.1,72.7,10.1,72.7,10.1,72.8z M8.3,72.9C8.5,72.8,8.4,73,8.6,73
		c0-0.1,0.1-0.1,0.1-0.2C8.5,72.6,8.3,72.7,8.3,72.9z M6.6,73.8c0-0.4,0-0.8-0.2-1.1C6.3,73.1,6.2,73.7,6.6,73.8z M9.1,73
		c0.2,0,0.2,0.2,0.3,0.2c0-0.1,0.2-0.2,0.2-0.3C9.5,72.7,9.2,72.7,9.1,73z M13.9,73.2c0.2,0.2,0.3,0,0.4-0.2c-0.1-0.1,0-0.4-0.2-0.4
		C14.1,72.9,13.9,73,13.9,73.2z M6.9,73.4c0.1-0.3,0.2-0.5-0.1-0.6C6.7,73,6.8,73.2,6.9,73.4z M11.4,73.3
		C11.4,73.4,11.5,73.3,11.4,73.3c0.3-0.1,0.4-0.3,0.5-0.5C11.6,72.7,11.5,73.1,11.4,73.3z M8.3,73.4c0.1,0,0.1-0.1,0.2-0.2
		c-0.2,0-0.1-0.2-0.3-0.2C8,73.2,8.2,73.2,8.3,73.4z M9.9,73.1c0-0.1,0.2-0.2,0-0.2C9.9,73,9.8,73.1,9.9,73.1z M11.6,73.6
		c0.3-0.1,0.3-0.4,0.5-0.5C12,73.1,12,73,12,73C11.9,73.2,11.6,73.3,11.6,73.6z M10.7,73.3c0.1-0.1,0-0.3-0.2-0.3
		C10.4,73.2,10.6,73.3,10.7,73.3z M6.8,73.7c0,0.3,0,0.4-0.1,0.6c-0.1-0.1-0.1,0-0.2,0c-0.1-0.1-0.1-0.3-0.2-0.2
		c0.1,0.1,0.1,0.2,0,0.3c0.2,0.1,0.1,0.6,0.2,0.8c0.1,0,0.1,0,0.2,0c0.2-0.6,0.4-1.3,0.4-2C7,73.3,7,73.6,6.8,73.7z M8.8,73.4
		c0.2,0,0.2,0.1,0.3,0.2c0.1,0,0.1-0.1,0.1-0.1c-0.1-0.1-0.1-0.3-0.3-0.4C8.9,73.3,8.8,73.3,8.8,73.4z M9.5,73.5
		c0.2,0,0.3-0.2,0.2-0.3C9.7,73.3,9.6,73.4,9.5,73.5z M13.2,73.6c0.2,0,0.2-0.2,0.2-0.3c0,0,0,0-0.1,0
		C13.3,73.4,13.3,73.5,13.2,73.6z M10.2,73.5c0.1,0,0.1,0.1,0.2,0.1c0.1,0,0.1-0.1,0.1-0.1c0-0.1-0.1-0.2-0.2-0.2
		C10.3,73.4,10.2,73.5,10.2,73.5z M10.8,73.5c0.1,0,0.2-0.2,0.1-0.2C10.8,73.4,10.8,73.5,10.8,73.5z M11.9,73.7c0.1,0,0,0.1,0,0.1
		c0.1,0,0.1,0.1,0.2,0.1c0.1-0.1,0.1-0.1,0.2-0.2c-0.1-0.1,0-0.3-0.1-0.4C12.1,73.5,12,73.7,11.9,73.7z M9.8,73.6
		c0.1,0,0.2-0.1,0.2-0.2C9.8,73.4,9.8,73.5,9.8,73.6z M14.2,73.5c0,0.1,0,0.2,0.1,0.2c0.1,0,0.1-0.1,0.1-0.3
		C14.2,73.4,14.2,73.5,14.2,73.5z M8.5,73.7c0,0.1,0.2,0.2,0.1,0.3c0.2,0,0.3-0.1,0.3-0.2c-0.1-0.1-0.2-0.2-0.3-0.3
		C8.7,73.6,8.5,73.6,8.5,73.7z M13.4,74c0.2,0,0.3-0.2,0.3-0.4c0,0,0,0-0.1,0C13.6,73.7,13.3,73.8,13.4,74z M7.5,74.8
		c0.2,0.5,0.4,1,0.6,1.5c0.1-0.2,0-0.5,0.1-0.8c-0.1,0-0.1,0.1-0.2,0c0-0.1,0-0.1-0.1-0.1c0.2-0.4,0.2-0.7,0.1-1.1
		c-0.1,0-0.2,0.1-0.4,0.1c-0.1-0.3,0.3-0.6-0.1-0.9C7.6,74,7.6,74.4,7.5,74.8z M11.1,73.9c0-0.1,0.1-0.1,0.1-0.2
		c0,0-0.1-0.1-0.1-0.1C11,73.7,11,73.8,11.1,73.9z M10,73.9c0.1,0,0.1,0.1,0.2,0.1c0.2-0.1,0.1-0.3-0.1-0.4
		C10.1,73.7,10,73.7,10,73.9z M9.3,73.8c0.1,0,0.1,0,0.1-0.1C9.3,73.7,9.3,73.8,9.3,73.8z M10.6,73.9c0-0.1,0.1-0.1,0.1-0.2
		C10.6,73.6,10.4,73.9,10.6,73.9z M11.4,74.1c0-0.1,0.1-0.1,0-0.2c0,0-0.1,0-0.1,0C11.2,74,11.2,74.1,11.4,74.1z M12.6,74.5
		c0.1-0.2,0.3-0.3,0.4-0.5c-0.1,0,0-0.1-0.1-0.1C12.8,74.1,12.4,74.3,12.6,74.5z M14,74c0,0,0-0.1,0-0.1c0,0-0.1,0-0.1,0
		C14,74,14,74,14,74z M10.4,74.2c0-0.1,0.1-0.1,0.1-0.2C10.3,73.9,10.3,74.2,10.4,74.2z M10.7,74.1c0.1,0,0.1,0.1,0.2,0.1
		c0-0.1,0.1-0.1,0.1-0.2c0,0-0.1-0.1-0.1-0.1C10.8,74,10.7,74,10.7,74.1z M9,74.3C9,74.2,9.1,74.1,9.2,74C9.1,74,9,74.2,9,74.3z
		 M10,74.2c0-0.1-0.2-0.2-0.2-0.2C9.9,74.1,9.9,74.3,10,74.2z M13.6,74.2c0.1,0,0.1,0,0.1,0c0-0.1,0-0.2,0-0.2
		C13.7,74.1,13.6,74.1,13.6,74.2z M5.9,74.4c0.1,0.2,0.2,0.3,0.3,0.5c0-0.3,0-0.6-0.2-0.8C6,74.2,6,74.3,5.9,74.4z M8.3,74.7
		c0.1-0.1,0.2-0.2,0.2-0.3c-0.1-0.1-0.1-0.3-0.3-0.3C8.2,74.3,8.3,74.5,8.3,74.7z M9.1,74.6c0.1-0.1,0.2-0.2,0.2-0.4
		c0,0,0-0.1-0.1-0.1C9.2,74.2,9,74.4,9.1,74.6z M11,74.4c0.1,0,0.1,0.1,0.2,0.1c0-0.1,0.1-0.1,0.1-0.2c0-0.1-0.1-0.1-0.1-0.1
		C11.1,74.3,11,74.3,11,74.4z M11.6,74.4c0.1,0,0.2,0,0.2,0c0-0.1-0.1-0.2-0.2-0.2C11.5,74.3,11.5,74.3,11.6,74.4z M10.5,74.4
		c0.1,0,0.1,0.1,0.2,0.1c0.1-0.1,0-0.2-0.1-0.2C10.6,74.3,10.6,74.3,10.5,74.4z M12.8,74.8c0.2-0.1,0.3-0.2,0.3-0.4c0,0,0,0-0.1,0
		C13,74.5,12.7,74.6,12.8,74.8z M9.3,74.8c0,0.1,0,0.2,0.1,0.2c0.1-0.1-0.1-0.3,0.1-0.3c0,0,0,0.1,0.1,0.1c0-0.1,0.1-0.1,0.1-0.2
		c-0.1-0.1-0.1-0.2-0.2-0.2C9.5,74.6,9.4,74.7,9.3,74.8z M13.3,75c0.2-0.1,0.2-0.2,0.3-0.4c-0.1,0-0.1-0.2-0.3-0.2
		C13.2,74.6,13.2,74.8,13.3,75z M14.1,74.7c0.1,0,0.1,0.1,0.1,0.1c0-0.1,0.2-0.3,0.1-0.4C14.3,74.5,14.1,74.6,14.1,74.7z M10.8,74.5
		c0,0.1,0.1,0.1,0.2,0.2c0,0,0-0.1,0-0.1C11,74.5,10.9,74.5,10.8,74.5C10.8,74.5,10.8,74.5,10.8,74.5z M11.8,74.7
		c0.1,0,0.2-0.2,0.1-0.2C11.9,74.6,11.8,74.6,11.8,74.7z M11.3,74.7c0.1,0,0.1,0.1,0.1,0.1c0.3,0,0.2-0.3,0-0.3
		C11.4,74.6,11.3,74.6,11.3,74.7z M10.4,74.8c0.1-0.1,0.1-0.2-0.1-0.2C10.3,74.7,10.3,74.8,10.4,74.8z M14.6,75.2
		c0.2,0,0.2-0.5,0-0.5C14.5,74.8,14.6,75,14.6,75.2z M9.7,74.9c0,0.1,0,0.1,0.1,0.1c0-0.1,0.1-0.1,0.1-0.3c0,0,0,0-0.1,0
		C9.8,74.8,9.8,74.8,9.7,74.9z M10.5,75c0.1,0,0.1,0.1,0.2,0.1c0-0.1,0.1-0.1,0.1-0.2c0-0.1-0.1-0.1-0.1-0.2
		C10.6,74.9,10.5,74.9,10.5,75z M11.3,75c0-0.1-0.1-0.2-0.1-0.2C11.1,74.9,11.2,75,11.3,75z M8.6,75.1c0.1,0,0.1,0.1,0.2,0.1
		c0-0.1,0.1-0.1,0.1-0.3c-0.1,0-0.1-0.1-0.2-0.1C8.7,75,8.6,75,8.6,75.1z M12.2,75c0.1,0,0.1-0.2,0-0.2C12.2,74.9,12.1,74.9,12.2,75
		z M13.1,75.1c0-0.1,0.1-0.2-0.1-0.2C13,74.9,13,75.1,13.1,75.1z M7,75.3c0.2,0,0.3-0.4,0.1-0.4C7.1,75,7,75.2,7,75.3z M9.9,75.3
		c0.1,0,0.2-0.1,0.3-0.3c-0.1,0-0.1-0.1-0.1-0.1C10.1,75.1,9.9,75.1,9.9,75.3z M10.8,75.4c0,0.1,0.1,0.1,0.2,0.1
		c0-0.1,0.2-0.1,0.2-0.3c-0.1,0-0.1-0.1-0.2-0.1C10.9,75.2,10.8,75.2,10.8,75.4z M12.4,75.3c0,0,0.1-0.2,0-0.2
		C12.4,75.2,12.3,75.2,12.4,75.3z M12.7,75.2c0.1,0.1,0.2,0.2,0.2,0.3C13.2,75.4,12.8,75,12.7,75.2z M11.9,75.4
		c0.1,0.1,0.2-0.1,0.2-0.2C12,75.1,11.8,75.2,11.9,75.4z M14,75.7C14,75.7,14,75.7,14,75.7c0.2,0,0.4-0.1,0.4-0.4
		c-0.1-0.1-0.2,0-0.2-0.1C14.2,75.4,14,75.5,14,75.7z M10.1,75.6c0,0.1,0.1,0.1,0.2,0.1c0.1-0.1,0.1-0.2,0.2-0.3
		C10.3,75.1,10.1,75.4,10.1,75.6z M7.1,76.1c0.1,0,0.1-0.1,0.2-0.1c0.1,0.1,0.3,0.2,0.4,0.1c-0.1-0.2-0.2-0.4-0.2-0.6
		c-0.1,0-0.1,0.2-0.2,0.2c-0.2-0.1-0.4-0.2-0.6-0.4C6.6,75.7,7,75.8,7.1,76.1z M8.9,75.5c0.1,0,0.2-0.2,0.1-0.2
		C9,75.3,8.9,75.4,8.9,75.5z M9.4,75.5C9.4,75.4,9.5,75.4,9.4,75.5c0-0.1,0-0.2-0.1-0.2C9.2,75.4,9.3,75.4,9.4,75.5z M12.9,75.7
		c0-0.2-0.1-0.2-0.3-0.3C12.7,75.5,12.7,75.7,12.9,75.7z M11.1,75.6c0-0.1,0.1-0.1,0.2-0.2C11.2,75.4,11.1,75.6,11.1,75.6z
		 M9.1,75.6c0,0.1,0.1,0.1,0.1,0.2c0,0,0-0.1,0.1-0.1C9.3,75.6,9.2,75.5,9.1,75.6C9.1,75.6,9.1,75.6,9.1,75.6z M10.4,76
		c0.1,0.2,0.4-0.1,0.4-0.3c-0.1,0-0.1-0.1-0.2-0.1C10.5,75.7,10.4,75.8,10.4,76z M12.2,75.7c0,0.2,0.1,0.3,0.3,0.4
		c0.1-0.1,0-0.5-0.1-0.5C12.3,75.6,12.4,75.7,12.2,75.7z M14.6,76.2c0.2,0,0.2-0.4,0.1-0.5C14.5,75.8,14.6,76,14.6,76.2z M10.8,76
		c0.1,0,0.2-0.1,0.1-0.2C10.8,75.9,10.8,75.9,10.8,76z M8.9,76.2C9,76.2,9,76.1,9,76C9,76,9,75.9,8.9,75.9C8.8,76,8.8,76.1,8.9,76.2
		z M9.7,75.9c0,0.2,0.1,0.2,0.2,0.2C10,76,9.9,75.8,9.7,75.9z M13.3,76.2c0-0.1,0-0.2-0.1-0.2C13.2,76.1,13.2,76.2,13.3,76.2z
		 M14.3,76.1c0,0.1,0,0.1,0.1,0.1c0.1-0.1,0-0.1,0-0.2C14.3,76,14.4,76.1,14.3,76.1z M11.8,76.4c0.1,0.1,0.1,0.2,0.2,0.2
		c0-0.2,0.1-0.2,0.3-0.2C12.2,76.1,11.9,76,11.8,76.4z M8.6,76.6c0.3,0,0.3-0.3,0.1-0.5C8.4,76.1,8.7,76.5,8.6,76.6z M12.8,76.4
		c0.2,0,0.2,0.1,0.3,0.2c0.1,0,0.1-0.1,0.1-0.2c-0.1-0.1-0.2-0.2-0.3-0.2C12.9,76.2,12.8,76.3,12.8,76.4z M15.3,76.5
		c0-0.1,0-0.3-0.1-0.3C15.2,76.3,15.2,76.5,15.3,76.5z M9.8,76.3c-0.1,0-0.2-0.1-0.2,0C9.6,76.3,9.8,76.5,9.8,76.3z M10,76.5
		C10,76.5,10.1,76.5,10,76.5c0.2,0.1,0.2,0,0.3-0.1c-0.1,0-0.1-0.1-0.2-0.1C10.1,76.4,10,76.4,10,76.5z M10.8,76.5
		c0-0.1,0.2-0.1,0.1-0.2C10.9,76.3,10.7,76.4,10.8,76.5z M14.7,76.5c0-0.1,0.1-0.2,0-0.2C14.7,76.4,14.6,76.5,14.7,76.5z M8,77
		c-0.1-0.2-0.2-0.7-0.6-0.6c0.1,0.2,0.3,0.3,0.4,0.6C8,77,8,77.1,8,77z M9.2,76.7c0.1,0,0.1,0.2,0.2,0.2c0.1-0.1,0.3-0.4,0-0.5
		C9.3,76.5,9.2,76.6,9.2,76.7z M14.1,76.6c0.2,0,0.1-0.2,0-0.2C14,76.6,14.2,76.6,14.1,76.6z M10.3,76.7c0-0.1,0.1-0.1,0.1-0.2
		C10.3,76.5,10.2,76.7,10.3,76.7z M11.5,76.8c0.1,0,0.2,0,0.2-0.1c-0.1,0-0.1,0-0.1,0C11.6,76.7,11.5,76.7,11.5,76.8z M12.3,76.9
		c0.1,0,0.2,0,0.2-0.1C12.4,76.8,12.3,76.8,12.3,76.9c0-0.2-0.1-0.2-0.1-0.3c-0.1,0-0.2,0-0.2,0.1C12.1,76.8,12.3,76.8,12.3,76.9z
		 M14.3,76.8c0,0.1,0,0.2,0.1,0.2c0,0,0.1-0.3,0-0.3C14.4,76.8,14.3,76.8,14.3,76.8z M12.9,76.9c0.1-0.1,0-0.1-0.1-0.2
		C12.8,76.9,12.8,76.9,12.9,76.9z M9.2,77.2c0.2-0.1-0.1-0.3-0.1-0.4C8.9,76.9,9,77.1,9.2,77.2z M9.5,77.2c0.1,0,0.3-0.2,0.3-0.4
		C9.6,76.8,9.5,77,9.5,77.2z M10.4,77.4c-0.3,0-0.6,0.5-0.3,0.7c0.4-0.3,0.4-0.8,0.7-1.3c0,0,0,0-0.1,0C10.6,77,10.5,77.2,10.4,77.4
		z M14.6,77.1c0.1,0,0.2-0.1,0.2-0.3C14.7,76.9,14.6,77,14.6,77.1z M15.4,78.6c0.2-0.4,0.1-1.1,0-1.6C15.2,77.5,15.2,78.1,15.4,78.6
		z M13.6,77c0.1,0,0.1,0.1,0.2,0.1C13.8,77.1,13.7,77,13.6,77C13.6,77,13.6,77,13.6,77z M13,77.3c0.1,0.1,0.3-0.2,0.3-0.3
		C13.2,77.1,13,77.2,13,77.3z M10.8,79c0,0-0.2,0-0.1,0.1c0.1,0,0.1-0.1,0.2,0c0.1-0.6,0.2-1.3,0.2-2C10.9,77.7,10.9,78.3,10.8,79z
		 M13.4,77.3c0.1,0,0.2,0,0.2-0.1c-0.1,0,0-0.1-0.1-0.1C13.5,77.2,13.4,77.2,13.4,77.3z M9.7,77.4c0.1,0.1,0.3-0.2,0.2-0.3
		C9.8,77.2,9.8,77.4,9.7,77.4z M8.6,78c0.2-0.1,0.2-0.2,0.3-0.4c-0.1-0.1-0.1-0.3-0.2-0.4C8.5,77.4,8.6,77.9,8.6,78z M14,77.5
		c0-0.1-0.1-0.2-0.1-0.2C13.8,77.4,13.9,77.6,14,77.5z M9.4,77.5c0,0,0.1-0.1,0-0.2C9.4,77.4,9.2,77.4,9.4,77.5z M13.7,77.6
		c0-0.1,0-0.1,0-0.1c0,0-0.1-0.1-0.1-0.1C13.6,77.5,13.7,77.6,13.7,77.6z M9.5,77.7c0,0,0.2,0.1,0.2,0C9.6,77.6,9.6,77.6,9.5,77.7
		C9.5,77.6,9.5,77.6,9.5,77.7z M13.2,77.8c0-0.1,0.1-0.1,0-0.2C13.1,77.7,13.1,77.7,13.2,77.8z M14.1,77.8c0.1,0,0.2-0.2,0.1-0.2
		C14.2,77.7,14.1,77.7,14.1,77.8z M14.3,78c0.1,0.1,0.3-0.2,0.2-0.3C14.4,77.9,14.3,77.9,14.3,78z M13.7,78c0-0.1-0.1-0.2-0.2-0.2
		C13.5,77.9,13.6,78,13.7,78z M9.3,78.2c0-0.1,0.1-0.1,0.1-0.3c0,0-0.1,0-0.1,0C9.2,78,9.3,78.1,9.3,78.2z M13.1,78.3
		c0.1,0,0.1,0.3,0.1,0.3c0.1-0.1,0.2-0.3,0.3-0.5c-0.1-0.1-0.1-0.2-0.2-0.3C13.2,78,13.2,78.1,13.1,78.3z M14.7,78.2
		c0.1,0,0.1-0.1,0.2-0.2c-0.1,0-0.1-0.1-0.2-0.1C14.7,78.1,14.7,78.1,14.7,78.2z M9,78.6c0-0.1,0.3-0.2,0.2-0.4
		C9,78.2,8.8,78.5,9,78.6z M9.6,78.8c0.3-0.1,0.2-0.4,0.1-0.5C9.6,78.4,9.5,78.6,9.6,78.8z M14,78.6c0.1-0.1,0-0.2-0.1-0.2
		C13.9,78.4,14,78.5,14,78.6z M14.8,78.7c0,0.1,0.1,0.1,0.1,0.2c0-0.2,0-0.2-0.1-0.3C14.8,78.6,14.7,78.6,14.8,78.7z M13.7,78.6
		c-0.1,0-0.1,0.2-0.2,0.3c0.1,0,0.1,0.1,0.2,0.1C13.8,78.9,13.8,78.6,13.7,78.6C13.7,78.6,13.7,78.6,13.7,78.6z M8.7,79.4
		c0.1,0,0.1,0,0.2,0c0-0.1,0.1-0.2,0.1-0.3c0-0.2-0.3-0.2-0.3-0.4C8.6,78.8,8.7,79.1,8.7,79.4z M9.4,79.1c0.2,0,0.2-0.2,0-0.3
		C9.4,78.9,9.3,79,9.4,79.1z M9.8,79c0-0.1,0-0.1,0-0.2c0,0-0.1,0-0.1,0C9.8,78.9,9.7,79.1,9.8,79z M14.6,79.4
		c0.1-0.1,0.1-0.4-0.1-0.4C14.4,79.1,14.5,79.3,14.6,79.4z M9.9,79.3c0.2,0,0.3-0.2,0.1-0.2C10,79.2,10,79.2,9.9,79.3z M13.4,79.7
		c0-0.1,0.1-0.3,0.2-0.4c-0.1,0-0.1-0.2-0.3-0.2C13.2,79.3,13.3,79.5,13.4,79.7z M15.5,79.7c0-0.1,0-0.3,0-0.4
		C15.3,79.3,15.3,79.6,15.5,79.7z M14.7,79.6c0,0.1,0.2,0.1,0.1,0.2c0.2,0,0.2-0.4,0.1-0.5C14.9,79.4,14.7,79.4,14.7,79.6z
		 M14.2,79.5c0.1,0,0.1,0.2,0.2,0.2c0-0.1,0.1-0.1,0.1-0.1c-0.1-0.1-0.1-0.2-0.2-0.2C14.3,79.4,14.1,79.4,14.2,79.5z M9.1,79.6
		c0-0.1,0.1-0.1,0.1-0.3C9.2,79.4,9,79.6,9.1,79.6z M10.2,79.7c0,0.1,0.1,0.2,0.2,0.3c0-0.2,0.1-0.3,0-0.5
		C10.4,79.6,10.3,79.6,10.2,79.7z M9.2,79.9c0.1,0,0.1-0.2,0.2-0.3c0,0,0,0-0.1,0C9.4,79.7,9.3,79.8,9.2,79.9z M13.9,79.9
		c0,0.1,0.1,0.1,0.2,0.2c0-0.1,0-0.1,0-0.2C14.1,79.8,14.1,79.8,13.9,79.9C14,79.8,14,79.8,13.9,79.9z M14.6,80
		c0.1-0.1,0-0.2-0.1-0.2C14.4,79.8,14.5,79.9,14.6,80z M13.4,80.1C13.5,80.1,13.4,80.2,13.4,80.1c0.1,0,0.2,0,0.2,0
		C13.5,80,13.4,80,13.4,80.1z M14.2,80.1c0.1,0.1,0.2,0.3,0.3,0.4c0-0.1,0.1-0.2,0-0.2C14.4,80.3,14.4,80,14.2,80.1
		C14.2,80,14.2,80.1,14.2,80.1z M14.6,80.7c0.2-0.1,0.4-0.4,0.3-0.6C14.8,80.3,14.7,80.5,14.6,80.7z M13.6,80.5
		c0.1-0.1,0.3-0.3,0.2-0.4C13.7,80.3,13.6,80.4,13.6,80.5z M15.4,80.7c0.1,0,0.1-0.4,0-0.5C15.4,80.4,15.4,80.5,15.4,80.7z
		 M8.9,80.8c0-0.3,0.2-0.3,0.1-0.6C8.8,80.2,8.8,80.7,8.9,80.8z M9.7,80.7c0.1-0.1,0.3-0.3,0.3-0.5C9.8,80.4,9.8,80.6,9.7,80.7z
		 M14.3,80.8c0.1-0.3-0.2-0.4-0.3-0.6C14,80.5,14.1,80.7,14.3,80.8z M10.7,81.3c0.2-0.2,0.1-0.7,0.1-0.9c0,0-0.1,0-0.1,0
		C10.6,80.7,10.7,80.9,10.7,81.3z M13.6,80.9c0,0,0,0.5,0,0.4c0,0.2,0.1,0.4,0.1,0.6c0.2-0.2,0.2-0.6,0.5-0.8c0-0.2-0.2-0.5-0.4-0.7
		C13.9,80.7,13.6,80.7,13.6,80.9z M10.1,82.1c0-0.1,0.1-0.1,0.1-0.3c-0.2-0.3,0.3-0.8,0.1-1.2C10.3,81.2,9.8,81.7,10.1,82.1z
		 M9.9,81.1c0-0.1,0.2-0.2,0-0.3C9.9,80.9,9.8,81,9.9,81.1z M14.6,81.3c0,0,0.2-0.2,0-0.2C14.6,81.2,14.5,81.3,14.6,81.3z M9.7,81.4
		c0.3,0,0.1-0.4,0-0.3C9.7,81.2,9.7,81.3,9.7,81.4z M8.9,81.3c0,0.1,0,0.2,0,0.3C9,81.6,9.1,81.2,8.9,81.3C9,81.3,9,81.3,8.9,81.3z
		 M14.9,81.9c0.1-0.2,0.2-0.5,0-0.6C14.7,81.5,14.7,81.8,14.9,81.9z M14.5,81.6c0-0.1,0-0.1-0.1-0.2C14.3,81.5,14.3,81.6,14.5,81.6z
		 M9.2,82.1c0.1,0,0.1,0.2,0.3,0.3c0.1-0.2,0-0.4-0.2-0.5C9.4,81.9,9.3,81.9,9.2,82.1z M14.7,82.1c0,0,0-0.1,0.1-0.1
		c-0.1,0-0.1-0.1-0.2-0.1C14.5,81.9,14.6,82,14.7,82.1z M10.4,82.1c0-0.1,0.1-0.2,0-0.3C10.3,82,10.2,82.1,10.4,82.1z M13.9,82.1
		c-0.1,0-0.1-0.1-0.1-0.2c0,0.3,0,0.6,0.1,1c0-0.4,0.5-0.7,0.2-1C14,82,13.9,82,13.9,82.1z M15.1,82.4c0-0.1,0-0.2,0-0.2
		C15,82.2,15,82.3,15.1,82.4z M10,82.8c0-0.1,0.3-0.3,0.1-0.4C10.1,82.4,9.9,82.7,10,82.8z M14.2,82.7c0-0.1,0.3-0.3,0.1-0.3
		C14.3,82.5,14.1,82.6,14.2,82.7z M9.1,83.4c0.2-0.3,0.2-0.7,0-1C9,82.8,9,83,9.1,83.4z M10.3,83.3c0.1-0.2,0.3-0.6,0.1-0.8
		C10.3,82.7,10.1,83.1,10.3,83.3z M14.8,82.9C14.8,82.8,14.8,82.9,14.8,82.9c0.1-0.1,0.1-0.2,0-0.2C14.7,82.7,14.6,82.9,14.8,82.9z
		 M15.4,83.1c0.1-0.1,0-0.4,0-0.5C15.3,82.8,15.2,83,15.4,83.1z M14.5,83.2c0.1,0.1,0.2-0.1,0.2-0.2C14.5,83,14.5,83.1,14.5,83.2z
		 M15,83.5c0.2,0,0.2-0.3,0.1-0.5C15,83.1,14.9,83.3,15,83.5z M9.7,83.4c0-0.1,0.1-0.1,0-0.2c0,0,0,0-0.1,0
		C9.7,83.2,9.7,83.3,9.7,83.4z M13.9,83.7c0-0.1,0.1-0.2,0.2-0.3c-0.1-0.1-0.1-0.3-0.3-0.2C13.9,83.4,13.8,83.5,13.9,83.7z
		 M14.9,83.6c0,0,0.1-0.1,0.1-0.1c-0.1,0,0-0.1-0.2-0.1C14.7,83.5,14.8,83.7,14.9,83.6z M10,83.8c0.1-0.1,0.1-0.3-0.1-0.3
		C9.8,83.6,9.9,83.7,10,83.8z M10.4,84.5c0.1-0.1,0.1-0.6,0-0.9C10.4,83.9,10,84.3,10.4,84.5z M9.1,83.8c0,0.2,0,0.5,0.1,0.6
		C9.3,84.2,9.6,83.5,9.1,83.8z M15.5,84.2c0-0.2-0.1-0.3,0-0.5C15.3,83.8,15.3,84.2,15.5,84.2z M14.5,83.9c0.1,0,0.1,0,0.1,0
		c0,0,0-0.1,0.1-0.1c0-0.1,0-0.1-0.1-0.2C14.6,83.8,14.5,83.8,14.5,83.9z M14.7,84.3c0.1,0,0.2-0.2,0.1-0.3
		C14.7,84.1,14.7,84.2,14.7,84.3z M14.3,84.4c0-0.1,0.3-0.2,0.1-0.3C14.4,84.2,14.2,84.3,14.3,84.4z M9.4,84.6
		c0.2,0,0.3-0.3,0.1-0.4C9.5,84.4,9.4,84.4,9.4,84.6z M14.4,84.4c0,0.1,0.1,0.2,0.2,0.2c0.1,0,0.1-0.1,0.1-0.2
		c-0.1,0-0.1-0.1-0.2-0.1C14.6,84.4,14.5,84.4,14.4,84.4z M15,84.6c0,0.1,0.1,0.1,0.1,0.2c0.1,0,0.3-0.3,0.1-0.3
		C15.1,84.6,15.1,84.6,15,84.6z M9.7,84.9c0.1-0.1,0.1-0.3,0-0.3C9.6,84.7,9.5,84.9,9.7,84.9z M10.1,84.9c0.1-0.1,0-0.2-0.1-0.2
		C10,84.8,10,84.9,10.1,84.9z M15.3,85.2c0.1,0,0.2,0,0.2,0.1c-0.1-0.2,0.1-0.4-0.1-0.6C15.4,84.9,15.3,85,15.3,85.2z M14,85
		c0.1,0.1,0,0.3,0.1,0.4C14.4,85.2,14.3,84.5,14,85z M15,85.1c0-0.1-0.1-0.2-0.2-0.3C14.8,85,14.9,85.1,15,85.1z M9.5,85.5
		c0-0.1,0.1-0.1,0.1-0.2c-0.1,0-0.1-0.2-0.2-0.2C9.4,85.2,9.4,85.4,9.5,85.5z M9.8,85.2c0.1,0,0.1,0.1,0.1,0
		C10,85.1,9.8,85.1,9.8,85.2z M14.8,85.7c0-0.1,0.1-0.1,0.1-0.3c-0.1-0.1-0.1-0.3-0.3-0.3C14.5,85.3,14.7,85.5,14.8,85.7z M9.3,86.1
		c0-0.2,0.1-0.3,0.1-0.5c-0.2-0.1-0.1-0.3-0.2-0.5C9.2,85.5,9.2,85.9,9.3,86.1z M10.5,85.8c0-0.2,0-0.4,0-0.6c0,0-0.1,0-0.1,0
		C10.3,85.4,10.2,85.7,10.5,85.8z M15.3,85.5c0.1-0.1,0-0.1-0.1-0.2C15.1,85.3,15.2,85.4,15.3,85.5z M14.7,85.9
		c0.1-0.2-0.1-0.4-0.3-0.5C14.3,85.7,14.6,85.8,14.7,85.9z M15.1,86.2c0-0.1,0.2-0.3,0-0.4C15,85.9,15,86.1,15.1,86.2z M14.3,86.6
		c0.2-0.2,0-0.4-0.1-0.6C14.2,86.1,14.2,86.4,14.3,86.6z M10.2,86.7c0.3-0.2,0.2-0.5-0.1-0.7C10,86.3,9.9,86.5,10.2,86.7z
		 M15.5,86.8C15.5,86.8,15.5,86.7,15.5,86.8c0-0.3,0-0.4,0-0.6c0,0-0.1,0-0.1-0.1C15.5,86.3,15.3,86.6,15.5,86.8z M9.5,86.4
		C9.6,86.4,9.6,86.4,9.5,86.4c0.1,0,0.2-0.2,0.1-0.2C9.6,86.3,9.5,86.3,9.5,86.4z M14.9,86.4C14.8,86.4,15,86.4,14.9,86.4
		C15,86.4,15,86.3,14.9,86.4C14.9,86.3,14.9,86.4,14.9,86.4z M9.4,87c0.1-0.2,0.1-0.5-0.1-0.6C9.3,86.7,9.2,86.9,9.4,87z M14.8,86.8
		c0.1-0.1,0-0.2,0-0.3c0,0-0.1,0-0.1,0C14.6,86.7,14.7,86.8,14.8,86.8z M10.1,86.8c0.1-0.1-0.1-0.1-0.2-0.2
		C9.9,86.8,10,86.7,10.1,86.8z M15.1,86.7c0.1,0,0.1,0.1,0.2,0.1C15.3,86.7,15.1,86.6,15.1,86.7z M10.4,87.2c0.1,0,0.1,0.2,0.2,0.1
		c-0.1-0.1,0-0.3-0.1-0.4C10.5,87,10.5,87.1,10.4,87.2z M14.4,87.8c0.2-0.2,0.4-0.6,0.2-0.9C14.3,87,14.5,87.4,14.4,87.8z M15,87.4
		c0.2,0,0.2-0.3,0-0.4C15,87.1,14.9,87.3,15,87.4z M9.5,87.7c0.1-0.2,0.2-0.3,0.3-0.5c-0.1,0.1-0.1,0-0.2,0
		C9.6,87.3,9.3,87.6,9.5,87.7z M15.5,88c0.1-0.1,0.1-0.5-0.1-0.6C15.5,87.7,15.5,87.8,15.5,88z M14.9,87.7c0,0,0.1-0.2,0-0.2
		C14.8,87.6,14.8,87.7,14.9,87.7z M10.2,87.9c0-0.1,0.1-0.1,0.1-0.1c0-0.1-0.1-0.2-0.1-0.2C10.2,87.7,10.1,87.8,10.2,87.9z
		 M9.4,88.1c0.1,0.1,0,0.2,0.1,0.3c0.1-0.3,0.3-0.4,0.3-0.8c0,0-0.1-0.1-0.1,0C9.8,87.7,9.6,88,9.4,88.1z M10,88.2
		c0-0.1,0.2-0.2,0.1-0.2C10.1,88,9.9,88.1,10,88.2z M10.6,88.5c0-0.1,0-0.3,0-0.4C10.6,88.3,10.4,88.5,10.6,88.5z M14.6,88.9
		c0.2-0.1,0.3-0.4,0.2-0.6C14.4,88.4,14.6,88.7,14.6,88.9z M15.3,89c0-0.1,0.1-0.2,0.1-0.3c0,0-0.1,0-0.1,0
		C15.3,88.8,15.1,88.9,15.3,89z M9.8,89c0.1,0,0.1,0.1,0.2,0.1c0-0.1,0.1-0.2,0.1-0.3c-0.1,0,0-0.1-0.1-0.1
		C9.9,88.8,9.8,88.9,9.8,89z M15.6,89.6c0.3-0.1,0-0.6,0-0.8C15.5,89,15.7,89.2,15.6,89.6z M14.9,89.4c0.1,0,0.1,0.1,0.2,0.1
		c0.1-0.1,0.1-0.3,0.2-0.4c-0.1,0-0.1,0-0.2-0.1C15,89.2,15,89.3,14.9,89.4z M10.2,89.5c0-0.1,0.1-0.1,0.1-0.2
		c0-0.1-0.1-0.2-0.2-0.2C10.1,89.3,10,89.5,10.2,89.5z M10.3,89.6c0,0.1,0,0.2,0.1,0.2c0-0.1,0.1-0.1,0-0.2
		C10.4,89.6,10.3,89.6,10.3,89.6z M15.4,89.9c0-0.1,0.1-0.1,0.1-0.2c-0.1,0-0.1-0.1-0.2-0.1C15.2,89.7,15.3,89.9,15.4,89.9z
		 M9.9,89.9c0.1,0,0.1-0.1,0.1-0.2c0,0-0.1,0-0.1,0C9.9,89.8,9.9,89.8,9.9,89.9z M14.8,90.2c0-0.1,0.1-0.1,0.1-0.2
		c-0.1,0,0-0.1-0.1-0.1C14.7,89.9,14.7,90.1,14.8,90.2z M10.2,90.5c0.1-0.1,0.1-0.3,0.1-0.4c-0.1,0-0.1-0.2-0.2-0.2
		C10,90.1,10,90.4,10.2,90.5z M15.3,90.2c0-0.1-0.1-0.1-0.1-0.2C15,90.1,15.2,90.3,15.3,90.2z M9.7,90.3c0.1,0,0.2-0.2,0-0.2
		C9.8,90.2,9.7,90.2,9.7,90.3z M15.4,90.6c0-0.1,0.1-0.1,0.1-0.3C15.3,90.3,15.2,90.6,15.4,90.6z M10.1,90.7
		c-0.1-0.1-0.2-0.2-0.3-0.3C9.9,90.6,10,90.7,10.1,90.7z M14.9,90.6c0,0,0.2-0.2,0.1-0.3C15,90.5,14.9,90.5,14.9,90.6z M15.7,90.6
		c0.1,0.1,0,0.2,0,0.3c0.2,0,0.1-0.2,0.1-0.4C15.8,90.5,15.7,90.5,15.7,90.6z M15.1,90.9c0.1,0,0,0.1,0.1,0.1c0-0.1,0.1-0.1,0.1-0.2
		c0,0-0.1,0-0.1,0C15.1,90.8,15.1,90.8,15.1,90.9z M15.5,90.9c0.1,0,0.1,0.2,0.2,0.2c0-0.2,0-0.3-0.1-0.4
		C15.6,90.9,15.5,90.8,15.5,90.9z M9.8,91.4c0.1-0.2,0-0.3,0-0.5C9.7,91,9.8,91.2,9.8,91.4z M10.5,91.7c0-0.1-0.1,0-0.2-0.1
		c-0.2,0.2,0,0.4,0.1,0.6c0.1,0,0.2-0.1,0.3-0.1c0-0.5,0-0.9-0.1-1.2C10.4,91.2,10.8,91.4,10.5,91.7z M15,91.3c0-0.1,0-0.2-0.1-0.2
		C14.9,91.2,14.9,91.3,15,91.3z M15.5,91.4c0-0.1,0-0.2-0.1-0.3C15.2,91.2,15.4,91.5,15.5,91.4z M15.2,91.8c0-0.1,0.1-0.1,0.1-0.2
		c-0.1,0-0.1-0.1-0.1-0.1C15.1,91.6,15.2,91.7,15.2,91.8z M9.9,91.8c0.1,0,0.2-0.2,0.1-0.2C10,91.7,9.9,91.8,9.9,91.8z M15.9,92.1
		c0.1-0.1,0.1-0.4,0.1-0.5C15.9,91.7,15.7,92,15.9,92.1z M15.3,92.1c0.1,0,0.2-0.1,0.2-0.2C15.4,91.9,15.4,92,15.3,92.1z M10.3,92.4
		c0.1,0,0.2,0,0.2-0.1c-0.1,0-0.2-0.2-0.3-0.3C10.1,92.1,10.2,92.3,10.3,92.4z M15.7,92.5c0-0.2,0-0.3,0-0.5
		C15.7,92.2,15.4,92.5,15.7,92.5z M10.1,92.7c0-0.1-0.1-0.3-0.1-0.2C10.1,92.6,10,92.7,10.1,92.7z M14.9,92.6c0.1,0,0,0.2,0.1,0.2
		c0,0,0-0.1,0.1-0.1c0-0.1-0.1-0.1,0-0.2C15,92.5,14.9,92.5,14.9,92.6z M9.9,93c0-0.1,0.2-0.2,0-0.3C9.9,92.7,9.9,92.9,9.9,93z
		 M10.3,93c0.1-0.1,0-0.2-0.1-0.2C10.2,92.9,10.2,92.9,10.3,93z M14.9,93.7c0.1-0.2,0.6-0.5,0.3-0.7C15.1,93.2,15,93.4,14.9,93.7z
		 M9.8,93.8c0.1-0.3,0.3-0.4,0.4-0.8c-0.1,0,0-0.1-0.1-0.1C10,93.2,9.7,93.4,9.8,93.8z M10.4,93.3c0.1,0,0,0.2,0.1,0.2
		c0,0,0.1-0.1,0.1-0.1c0-0.1-0.1-0.2-0.2-0.2C10.5,93.2,10.4,93.2,10.4,93.3z M15.6,93.8c0-0.1,0-0.2-0.1-0.2
		C15.5,93.7,15.6,93.7,15.6,93.8z M9.9,94.2c0.2-0.1,0.2-0.2,0.3-0.4c0,0,0-0.1-0.1-0.1C10.1,93.9,10,94.1,9.9,94.2z M15.6,94.1
		c0.1,0.1,0.2,0.4,0.3,0.3c-0.2-0.1-0.2-0.4-0.6-0.3c0,0.1-0.1,0.3-0.1,0.4C15.3,94.4,15.3,94.2,15.6,94.1z M14.4,94.7
		c0.1,0.1,0.1,0.2,0.2,0.2c0-0.3,0.2-0.4,0.3-0.7C14.5,94.3,14.5,94.6,14.4,94.7z M10,95c0.2-0.1,0.4-0.4,0.5-0.6
		C10.2,94.5,10.2,94.8,10,95z M10.9,94.5c-0.1,0-0.1,0.1-0.2,0.2c0.2,0.1,0.3,0.2,0.4,0.5c0.2-0.1,0.3-0.2,0.4-0.4
		C11.3,94.7,11,94.6,10.9,94.5C10.9,94.6,10.9,94.6,10.9,94.5z M15.4,94.7c0.1,0.1,0.1,0.2,0.2,0.3c0-0.1,0.1-0.1,0.1-0.2
		c-0.1-0.1-0.1-0.2-0.2-0.2C15.5,94.6,15.4,94.7,15.4,94.7z M13.4,95.4c0.1,0,0.1,0.1,0.2,0.1c0.1-0.3,0.5-0.7,0.4-0.9
		C13.8,94.9,13.5,95,13.4,95.4z M9.4,94.8c-0.1,0.1-0.3,0.1-0.3,0.3c0.1,0.1,0.2,0.2,0.3,0.3C9.6,95.4,9.6,94.9,9.4,94.8z
		 M16.4,95.2c-0.1-0.1-0.1-0.3-0.3-0.4C16.2,95,16.4,95.2,16.4,95.2z M14,95.2c0.1,0.1,0.2,0.2,0.3,0.3c0.1,0,0.2-0.1,0.2-0.3
		c0,0-0.1-0.1-0.2-0.1c0,0,0-0.1,0-0.1c-0.1,0-0.2,0-0.2-0.1C14.1,95.1,14.1,95.1,14,95.2z M11.4,95.5c0.1,0,0.1,0.1,0.2,0.1
		c0.1-0.1,0.2-0.3,0.4-0.2c0-0.2-0.2-0.3-0.3-0.4C11.7,95.2,11.5,95.3,11.4,95.5z M15,95.5c0.1,0,0.1,0.1,0.1,0.2c0.1,0,0.1,0,0.2,0
		c0.1-0.2,0.3-0.6,0-0.7C15.1,95.2,15,95.3,15,95.5z M10.5,95.5c0-0.1,0.2-0.2,0.2-0.3c0,0,0,0,0-0.1c-0.2-0.1-0.2,0.1-0.3,0
		C10.2,95.2,10.3,95.5,10.5,95.5z M15.8,95.3c0.2,0.1,0.3,0.5,0.6,0.4c-0.1-0.2-0.3-0.3-0.4-0.6C15.8,95.1,15.8,95.2,15.8,95.3z
		 M17.1,95.7c0-0.2-0.3-0.3-0.4-0.5C16.9,95.4,17,95.6,17.1,95.7z M8.7,95.5c0.1,0,0.1-0.1,0.2,0c0-0.1,0-0.1-0.1-0.1
		C8.7,95.4,8.6,95.4,8.7,95.5z M10.7,95.7c0-0.1,0.2-0.2,0.1-0.3C10.8,95.5,10.7,95.7,10.7,95.7z M15.8,96.4
		c0.1-0.1,0.3-0.3,0.2-0.4c-0.2,0-0.3-0.4-0.5-0.4C15.3,95.9,15.5,96.2,15.8,96.4z M12.2,96.1c-0.1-0.2,0-0.5-0.2-0.6
		C11.8,95.8,11.7,96.2,12.2,96.1z M9.4,96.3c0.1,0.1,0.2,0.2,0.3,0.4c0.1,0,0.2-0.1,0.2-0.3c-0.1-0.1-0.2-0.2-0.3-0.4
		c0.1,0,0.1-0.1,0.2-0.1c0.1,0,0.2,0.1,0.3,0.2c0.1-0.1,0.1-0.3,0.2-0.4c-0.1-0.1-0.1,0-0.1,0c-0.1-0.1-0.1-0.2-0.2-0.3
		C9.9,95.9,9.6,96.1,9.4,96.3z M13.9,96C14,96,14,95.9,13.9,96c0.1-0.2,0-0.3-0.1-0.3C13.7,95.7,13.8,95.9,13.9,96z M8.3,95.8
		c0,0.3,0.2,0.4,0.4,0.5c0-0.1-0.1-0.2-0.2-0.4c0-0.1,0.1-0.1,0.2-0.1C8.8,95.9,8.8,96,9,96c0.1-0.1-0.1-0.2-0.1-0.3
		C8.7,95.7,8.5,95.7,8.3,95.8z M14.7,95.9c0,0.1,0.1,0.2,0.2,0.3c0.1-0.1,0-0.2,0.2-0.3c-0.1-0.1-0.2-0.2-0.3-0.2
		C14.8,95.8,14.7,95.8,14.7,95.9z M16.7,95.9c-0.1,0-0.2,0-0.2,0.1c0.1,0,0.2,0.1,0.3,0.2c0,0,0.1-0.1,0.1-0.1
		c-0.1-0.1-0.2-0.1-0.2,0C16.6,96,16.6,96,16.7,95.9C16.7,96,16.7,95.9,16.7,95.9z M11.1,96.2c0-0.1,0.2-0.3,0-0.3
		C11.1,96,11,96.2,11.1,96.2z M17.5,96.2c-0.1-0.1,0-0.2-0.1-0.2C17.2,96,17.4,96.1,17.5,96.2z M14.2,96.3c0-0.1,0.1-0.2,0.1-0.3
		c0,0.1-0.1,0-0.1,0C14.2,96.1,13.9,96.2,14.2,96.3z M13.6,96.3c0.1,0,0.1,0,0.1-0.1c-0.1,0-0.1-0.1-0.1-0.1
		C13.6,96.1,13.6,96.2,13.6,96.3z M8.3,96.6c-0.1-0.2-0.2-0.3-0.3-0.5c0,0-0.1,0-0.1,0C8,96.3,8,96.5,8.3,96.6z M11.9,96.4
		c0-0.1-0.1-0.2-0.2-0.2C11.6,96.2,11.7,96.5,11.9,96.4z M14.6,96.4c0.1,0,0.1,0,0.1,0c-0.1,0-0.1-0.3-0.2-0.2
		C14.6,96.3,14.6,96.3,14.6,96.4z M15.6,96.6c0-0.2-0.2-0.3-0.4-0.4C15.3,96.4,15.4,96.6,15.6,96.6z M16.6,96.5
		c0.1-0.1-0.2-0.3-0.2-0.2C16.5,96.3,16.4,96.4,16.6,96.5z M10.9,96.6c0-0.1,0.2-0.2,0-0.2C10.9,96.4,10.7,96.5,10.9,96.6z M14,96.6
		c0-0.1,0-0.2-0.1-0.2C13.8,96.5,13.8,96.6,14,96.6z M16.3,96.8c0,0,0.1-0.1,0.2-0.1c0-0.1-0.1-0.2-0.2-0.3
		C16.1,96.5,16.1,96.7,16.3,96.8z M11.5,96.6c0.1,0,0.2,0,0.2-0.1c-0.1,0-0.1,0-0.1-0.1C11.5,96.4,11.5,96.5,11.5,96.6z M14.5,96.7
		c0-0.1-0.1-0.2-0.2-0.3C14.3,96.5,14.4,96.7,14.5,96.7z M15.3,96.6c0-0.1-0.1-0.2-0.1-0.2C15.1,96.5,15.3,96.6,15.3,96.6z
		 M10.9,96.7c0.1,0,0,0.1,0.1,0.1c0-0.1,0.2-0.2,0-0.2C11.1,96.7,11,96.7,10.9,96.7z M9.6,96.9c0-0.2-0.1-0.3-0.2-0.3
		C9.4,96.8,9.5,96.8,9.6,96.9z M13.8,96.9c0-0.1-0.1-0.2-0.2-0.3C13.6,96.8,13.7,96.8,13.8,96.9z M8.2,97.3c0-0.1,0.1-0.1,0.1-0.2
		c-0.1-0.1-0.2-0.2-0.3-0.4C7.9,96.8,8.1,97.1,8.2,97.3z M14.9,96.9c0.1,0.1,0.1,0.3,0.2,0.4c0.1,0,0.2-0.1,0.2-0.2
		c-0.1-0.1-0.2-0.3-0.3-0.4C15,96.8,14.9,96.8,14.9,96.9z M16.8,96.9c0.3,0,0.3,0.7,0.6,0.4C17.2,97.1,17,96.4,16.8,96.9z
		 M14.2,97.1c0.1,0,0.1-0.1,0.1-0.1c0-0.1-0.1-0.1-0.2-0.2C14.1,96.9,14.1,97,14.2,97.1z M10,97.1c0.1,0,0.3-0.2,0.2-0.3
		C10.2,96.9,10.1,97,10,97.1z M11.2,97.1c0.1,0.1,0.3-0.2,0.1-0.3C11.3,96.9,11.2,96.9,11.2,97.1z M13.6,97.3c0-0.1,0-0.1,0.1-0.2
		c-0.2,0-0.1-0.3-0.3-0.3C13.4,97,13.4,97.2,13.6,97.3z M16.1,97c-0.1,0-0.1-0.1-0.1-0.1C15.7,97,16,97.2,16.1,97z M10.8,97
		c0.1,0,0.1,0.1,0.2,0.1C10.9,96.9,10.8,96.8,10.8,97z M16.6,97.2c0.1,0,0.1,0.1,0.2,0.1c0-0.1-0.1-0.2-0.2-0.3
		C16.7,97.1,16.7,97.1,16.6,97.2z M8.7,97.3c0.1,0.1-0.1,0.3-0.2,0.4c0.2,0,0.2,0,0.3,0c0,0.1-0.1,0-0.1,0.1c0.7,0,1.3,0,1.9-0.1
		c0-0.1,0.2-0.3,0-0.4c-0.2,0.1-0.3,0.4-0.5,0.5c-0.1,0-0.2-0.1-0.3-0.2c-0.1,0-0.1,0.2-0.2,0.2C9.2,97.7,9.1,97,8.7,97.3z
		 M16.1,97.4c0.1,0,0.3-0.1,0.1-0.2C16.2,97.2,16,97.3,16.1,97.4z M14.4,98c0.1,0,0.2-0.1,0.2-0.2c-0.1,0-0.1,0-0.2,0
		C14.4,97.9,14.4,97.9,14.4,98z"/>
</g>
<g>
	<path class="st1" d="M53.1,25.7c-0.1,0.5-0.1,1.2,0,1.8c-0.1,0.1-0.2,0.2-0.2,0.4c0.1,1.1,0.1,2.1,0.3,3.2c0.1,0.4,0.4,1-0.1,1.3
		c-0.4-1-0.6-2.3-0.6-3.4c0-1.1-0.3-2.3,0.1-3.3C52.9,25.5,53,25.6,53.1,25.7z"/>
	<path class="st1" d="M50.9,25.9c-0.2,0.7,0,1.6,0.1,2.3c0,0.2-0.1,0.2-0.1,0.2c0,0.4,0.4,1.2-0.1,1.3c0.4,1,0.3,2.3,0.3,3.4
		c-0.4-0.3-0.4-1.2-0.5-1.7c-0.2-2,0-3.4-0.4-5.5C50.4,25.7,50.6,25.8,50.9,25.9z"/>
	<path class="st1" d="M48.8,26.1c0.3,0.2,0.2,0.9,0.2,1.4c0,0.2-0.1,0.1-0.1,0.1c0.1,1.7,0.5,3.5,0.6,5.7c-0.5-0.2-0.5-1-0.6-1.6
		c-0.3-1.7-0.3-3-0.6-4.7c-0.1-0.1-0.2-0.2-0.2-0.4C48.2,26,48.4,26.2,48.8,26.1z"/>
	<path class="st1" d="M27.1,32.8c0.2,0,0.2,0.2,0.3,0.3c-0.1,0.2-0.3,0.3-0.4,0.6c-0.2,0.1-0.3-0.1-0.4-0.1c0-0.2,0.2-0.3,0.1-0.6
		c0.1,0,0.2,0.1,0.3,0.3C27.2,33.1,27.1,33,27.1,32.8z"/>
	<path class="st1" d="M30.1,39.9c-0.3-0.2-0.2-0.6-0.1-1.1c0.1-1.2-0.5-2.8-0.4-4c0.1,0,0.1,0.3,0.2,0.3c0.3-0.3-0.2-0.2,0.1-0.6
		c-0.2-0.1-0.4-0.2-0.5-0.3c0-0.6,1.3-0.9,2.2-0.8c1.4,0.1,2.7,1.2,3,2.1c0,0.7,0,1.4-0.3,1.9c-0.2,0.4-0.7,0.5-1.1,0.9
		c-0.2,0.2-0.2,0.4-0.4,0.6C32.3,39.5,31,40,30.1,39.9z M32,38.9c0.5-1.1,2.2-1.3,2.1-2.9c-0.2-1.4-2.1-2.2-3.9-1.8
		c-0.1,2,0.3,3.6,0.4,5C31.1,39.2,31.4,38.9,32,38.9z"/>
	<path class="st1" d="M53.8,36.4c-0.2,0.3-0.2,0.7-0.7,0.6c-0.1-0.2,0-0.3-0.1-0.6C53.2,36.4,53.6,36.1,53.8,36.4z"/>
	<path class="st1" d="M51.8,36.8c-0.1,0.3-0.1,0.5-0.4,0.6C50.8,37.3,51.2,36.3,51.8,36.8z"/>
	<path class="st1" d="M49.6,36.9c0.2,0.2,0.2,0.6,0.4,0.8c-0.3,0.1-0.4-0.1-0.9-0.1C49,37.4,48.9,36.7,49.6,36.9z M49.3,37.4
		c0-0.1,0.1-0.2,0.2-0.1c0-0.3-0.3-0.2-0.4-0.3C49.2,37.2,49.2,37.4,49.3,37.4z"/>
	<path class="st1" d="M37.2,38.3c0.6,0.2,2.2,0.3,2.7-0.1c0.2-0.1,0.2,0.1,0.4,0.1c0,0.3,0.2,0.6,0.1,0.7c-0.2,0.2-0.8,0.1-0.9-0.1
		c-0.7,0.2-2.1,0.3-2.9,0.3c-0.3-1-0.1-2.5-0.6-3.4c0.2-1-0.2-1.8-0.3-2.7c1.1-0.5,2.5-0.4,3.5-0.5c0.1,0.3,0.4,0.9,0,1.1
		c-0.3,0-0.5-0.2-0.5-0.6c-0.6-0.2-1.3,0.3-2.3,0.4c0,0.8,0,1.1,0.4,1.8c0.9-0.3,2.1-1,3-0.4c-0.3,0.5-1.1-0.1-1.6,0.5
		c-0.2,0-0.2-0.1-0.4-0.1c-0.3,0.2-0.6,0.4-1,0.6c0,0.3,0,0.5-0.2,0.6C36.9,37.1,36.9,37.4,37.2,38.3z"/>
	<path class="st1" d="M43.2,32c0.3-0.1,0.4,0.1,0.6,0.1c0.1,0.6,0.8,1,0.6,1.7c0.9,0.8,0.6,2.2,1.6,3c0,0.9,0.1,1.4,0.8,1.6
		c0,0.3,0.1,0.3,0,0.6c-0.2,0-0.4,0.2-0.6,0c-0.2,0,0.1,0.5-0.2,0.4c-0.3-0.2,0-1-0.6-1.3c0-0.2,0.1-0.3,0.1-0.5
		c-0.3-0.4-0.6-0.9-0.8-1.4c-0.5,0.2-1.4,0.1-1.9,0.4c-0.1,0.8-0.5,2.2,0.1,2.8c-0.1,0.4-0.7,0.5-1.1,0.3
		C42.4,36.8,42.7,34.4,43.2,32z M43.2,35.6c0.7,0,0.9,0,1.6,0c-0.3-1-0.6-1.9-1.2-2.6c-0.1,0.5-0.1,1.4-0.4,1.4
		C43.4,34.7,43.1,35.2,43.2,35.6z"/>
	<path class="st1" d="M27.9,39.8c0.3,0,0.6,0,0.8,0.1c-0.1,0.2-0.2,0.3-0.2,0.5c-0.4,0-0.5,0.1-0.9,0.2c-0.5-1.3-0.3-3.4-0.3-4.8
		c-0.1-0.3-0.4-0.3-0.6-0.4c0-0.1,0-0.3-0.1-0.3c0.2-0.3,0.6-0.4,0.8-0.6c0.2,0,0.5,0.3,0.6,0.6C27.6,36.7,27.8,38.1,27.9,39.8z"/>
</g>
<g>
	<path class="st0" d="M26.1,19.8c-0.3-0.5,0-1.1,0.1-1.6c0.5-0.1,1-0.4,1.4-0.1C28.5,18.8,27.4,20.4,26.1,19.8z M26.8,18.8
		c0.3,0,0.4,0.2,0.5,0.4c0.2-0.1,0.2-0.2,0.2-0.5C27.3,18.6,26.9,18.5,26.8,18.8z"/>
	<path class="st0" d="M31.8,6.9c-0.1,0.9,0.4,1.7,1.1,1.9c0.9-0.2,1-1.2,2-1.3c-0.5,1.3-0.6,3,0.4,3.9c0.3,0.2,0.8,0.6,1.1,0.7
		c0.3,0.1,0.8,0,1.1,0.1c1.3,0.2,2.5,1.1,3.6,1.6c0.3,0.1,0.8,0,0.8,0.5c-0.2,0-0.3,0-0.4-0.1c0.2,0,0.3,0.4,0.1,0.5
		c-1.8-0.6-3.6,0.2-5.2,0.5c-1.1,1-3.1,1.6-3,3.3c-0.2,0.1-0.2,0.5-0.4,0.7c-0.3-0.1-0.6-0.2-0.9-0.1c-0.5,0.7,0.2,1.7,0.7,2.2
		c-0.3,0.1-0.3,0.3-0.3,0.6c-0.7-0.4-1.8-0.5-2.7-0.7c-1.9,1.2-3.2,3.3-3.3,5.8c-0.2,0.2-0.3,0.4-0.4,0.6c-0.5-0.2-0.3-0.5-0.3-0.8
		c-0.2-1.3-0.5-2.7-1.1-3.8c-0.4-0.8-1.4-1.4-2.4-1.8c-0.4-0.1-0.9-0.4-1.4-0.4c-1.4,0.2-2.3,1.4-3.4,1.9c-0.2-0.3,0-0.6,0.2-0.8
		c0.6-1.3,0.4-2.8-0.4-4c-1.1-1.6-2.8-1.2-4.5-0.4c-0.4-0.6,1-1.4,1.5-2.6c0.5-1,0.3-3.2-0.3-4c-0.4-0.5-0.8-0.7-1.3-1.4
		C12.5,9.4,12,9.3,12,8.8C12.3,8.4,12.6,9,13,9c0.6,1.3,2.4,2.1,4.2,2.2c1,0,1.8-0.6,2.4-1.1c0.2-0.5,0.1-0.8,0.1-1.4
		c0.2-0.1,0.5-0.1,0.7-0.3c0.1-1.4-0.6-2.2-1.4-2.7c0-0.2-0.1-0.2,0-0.4c1.9-0.2,2.9-1,3.9-2.4c0.3-0.5,0.7-1,0.8-1.4
		c0.2-0.6,0-1.5,0.8-1.6c0,0.8,0,2.1,0.2,2.9c0.2,0.9,0.5,1.8,0.8,2.7C25.7,5.7,25.8,6,26,6.1c0.1,0.3,0,0.3,0.1,0.5
		c0.2,0.1,0.2,0.3,0.4,0.4c0.1,0.2-0.2,0.1-0.2,0.2c0,0.2,0.5,0,0.3,0.1c0.1,0.1,0.3,0.1,0.2,0.3c0.9,0.5,2.2,1.5,3.6,0.6
		C31,7.8,31,6.9,31.8,6.9z M20.4,9c-0.1,2.2-2.9,2.8-4.8,2.2c-0.1,0.1-0.6-0.5-1-0.2c0.2,0.8,0.4,1.5,0.4,2.3c0,1.4-0.6,2.4-1.3,3.3
		c2.4-1.1,4.1,0.5,4.7,2.4c0.3,0.9,0,1.9-0.2,2.7c1-0.5,1.7-1.5,3.4-1.4c1.2,0.6,2.4,0.9,3.1,1.9c0.5,0.7,0.8,1.6,1,2.4
		c0.1,0.4,0,0.8,0.4,1c0.4-0.9,0.7-1.7,1.1-2.4c0.2-0.3,0.3-0.7,0.5-0.8c0,0,0.2,0,0.2-0.1c0.1-0.1,0-0.3,0.1-0.4
		c0.9-1.1,2.1-1.9,3.7-1c0.3-0.6-0.3-1.1-0.2-1.9c0.3-0.4,0.5-1,1.2-1c1.2-2.8,4.1-4.2,7.8-4.3c-0.9-0.7-2-1.1-3.1-1.4
		c-1.9,0.1-3.3-1.5-3.3-3.8c-0.6,0.1-0.9,0.5-1.4,0.7c-0.5-0.3-0.8-0.9-1.2-1.4c-0.6,0.5-1.2,1.1-2.5,1c-0.5,0-2.2-0.6-1.9-1.1
		C27,7.8,27,8,26.9,8c-0.5-0.7-1.3-1.5-1.8-2.5c-0.6-1.2-0.6-2.6-1.1-3.7c-1.1,1.1-1.5,3-3.4,3.4c-0.2,0.3-0.7,0.2-0.9,0.4
		C20.4,6.3,20.8,7,21,8C20.8,8.3,20.7,8.7,20.4,9z"/>
	<path class="st0" d="M21,26.3c0-0.2-0.1-0.2-0.2-0.1c0.1-0.2,0.3-0.3,0.2-0.5c0.1,0,0.1,0.1,0.2,0.1c0.1,0,0.1-0.1,0.1-0.2
		c0-0.1-0.2-0.1-0.2-0.1c0.4-0.4,0.2-1.4,1-1.4c-0.2,1.2-1,2-1.2,3c-0.6,0.7-0.8,1.4-1.2,2.4c-0.1,0-0.2,0.1-0.4,0.1
		c0.1,0.3,0.1,0.7-0.2,0.8c0.2-0.2,0-0.1-0.1,0c0.2,0.5-0.3,1-0.4,1.4c-0.2-0.1,0.3-0.5-0.1-0.4c0.8-1.7,1.5-3.4,2.4-5.1
		c0.1,0,0.1,0.2,0.2,0.1C20.9,26.4,20.9,26.3,21,26.3z"/>
	<path class="st0" d="M18.1,31.8c0.1,0,0.1,0.2,0.2,0.1c-0.1,0.3-0.2,0.7-0.4,1.1c-0.2,0-0.2-0.2-0.3,0C17.6,32.7,18,32.2,18.1,31.8
		z"/>
	<path class="st0" d="M17.6,33.8c-0.2,0-0.1,0.7-0.4,0.7c0.1,0.6-0.5,1.2-0.5,1.7c-0.2,0.3-0.4,0.7-0.5,1.1
		c-0.8,1.2-1.5,3.4-2.2,4.9c0.1,0.2-0.1,0.6-0.4,0.6c-0.1-0.3,0.2-1.4,0.5-1.4c-0.2-0.1,0-0.2-0.1-0.5c0.3-0.5,0.5-1.1,0.8-1.7
		c0.3-0.7,0.6-1.8,1-2c0-0.5,0.4-1,0.5-1.6c0.2,0,0.1,0,0.3,0c0-0.1,0-0.2-0.2-0.2c0.2-0.3,0.2-0.9,0.5-1.1
		c-0.3-0.3,0.4-0.8,0.6-1.2c0.1,0.1,0,0.6-0.4,0.5C17.3,33.7,17.6,33.9,17.6,33.8z M15,39.7c0-0.1,0.2-0.3,0-0.4
		C15,39.4,14.7,39.7,15,39.7z"/>
	<path class="st0" d="M13.9,43.1c0.1,0,0,0.4-0.2,0.3C13.6,43.2,13.8,43.2,13.9,43.1z"/>
	<path class="st0" d="M25.5,6.9c0,0.4,0.3,0.7,0.4,1.1c0.1,0.7,0.1,1.2,0.2,2.1c0,0.6,0.2,1,0.2,1.7c0,0.1,0.1,0.2,0.1,0.5
		c0.1,1.1-0.1,2.2,0.5,3.3c-0.1,0.6-0.6,1.1-1.1,1c-0.1-0.2-0.1-0.2-0.1-0.4c-0.1-0.2-0.2,0.1-0.3,0c-0.6-0.9-0.5-2.6-0.8-3.6
		c-0.1-0.5-0.1-1.1-0.2-1.4c-0.2-0.5-0.4-0.9-0.5-1.4c-0.1-0.4-0.3-0.9-0.5-1.3c0.1-0.7,0.8-1.3,1.3-1.8C25,6.7,25.2,6.8,25.5,6.9z
		 M24.7,7.2c-0.1,0.7-0.5,1.3-0.2,1.8c0.4-0.7,0.1-1.3,0.5-1.8C24.9,7.2,24.9,7.2,24.7,7.2z M23.9,8.7C24.1,8.6,24.3,8,24,7.9
		C23.7,8.1,23.7,8.6,23.9,8.7z M25.2,9.4c0-0.6,0.6-1,0.2-1.5C25.2,8.5,25.1,8.8,25.2,9.4z M25.3,12.5c0.1-0.5,0.3-1.1,0.1-1.5
		C24.9,11.3,25,12.2,25.3,12.5z M25.5,13.8c0-0.3,0-0.2,0.1-0.4C25.3,13.4,25.4,13.7,25.5,13.8z M25.8,13.9c0.1,0,0.1,0.1,0.2,0.1
		c0.1-0.1,0.1-0.5-0.1-0.5C26,13.7,25.8,13.7,25.8,13.9z"/>
</g>
</svg>
