<?xml version="1.0" encoding="utf-8"?>
<!-- Generator: Adobe Illustrator 22.1.0, SVG Export Plug-In . SVG Version: 6.00 Build 0)  -->
<svg version="1.1" id="doodle" xmlns="http://www.w3.org/2000/svg" xmlns:xlink="http://www.w3.org/1999/xlink" x="0px" y="0px"
	 viewBox="0 0 179.3 317.8" style="enable-background:new 0 0 179.3 317.8;" xml:space="preserve">
<style type="text/css">
	.st0{fill-rule:evenodd;clip-rule:evenodd;fill:#141414;}
	.st1{fill-rule:evenodd;clip-rule:evenodd;fill:#E23D41;}
</style>
<g>
	<path class="st0" d="M38.4,115.8c6-1.1,7.2,4.7,9.7,7.9c0.2,1.8,1.6,3,1.4,5c0.6,0.3,1-0.7,1,0.1c2-1.8,4.4-3.1,5.5-5.9
		c0.6-0.3,0.9-1,1.7-0.5c0.1,0.5-0.3,0.5-0.3,1c0.5,0.4,0.6,0.4,0.8,1c0.6,0,0.8-0.8,1.4-0.4c0.3,0.5-0.3,1-0.4,1.5
		c0.6,0.5,0.5-0.2,1.3-0.1c0.4,0.3,0.1,0.6,0.1,1.2c0.6,0.3,0.6-0.6,1.4-0.5c0.4,0.3,0.4,0.9,0.1,1.4c0.6,0.9,1.7,1.4,2.9,1.8
		c0,1.6,0.1,4,0.3,6.1c0.1,0.2,0.4,0.2,0.5,0.4c0.9,2.8,1.5,5.7,2.7,8.3c0.8,1.9,2,3.4,2.9,5.5c0.6,1.3,1.7,2.5,2,3.7
		c0.1,0.5-0.1,0.6,0.4,1.3c1,1.3,2,3.1,3.1,4.5c1,1.3,1.9,2.3,2.8,3.7c1.2,1.8,2.3,3.5,3.7,5.1c0.5,0,0.4,0.1,0.8,0
		c1,1,2.2,1.7,2.9,2.9c0.9,0.6,1.9,1,2.2,2.2c-1.3,0.3-1.8-1.2-2.8-1.5c-0.5,0.2-0.6,0.8-0.8,1.4c-1.5,0.6-3.3,0.1-5-0.4
		c-0.6,0.1-0.6,0.8-1.3,0.8c-0.5-0.3-1-0.6-1.1-1.3c-4.3-1-9.1-2.2-12.7-3.3c-1.8-0.6-3.5-1.1-5.2-1.7c-0.9-0.3-2-0.8-2.7-1.7
		c-0.1-0.4,0.3-0.2,0.3-0.6c0.7-0.1,1,0.3,1.7,0.3c-0.7-0.7-1.9-0.9-2.9-1.3c-0.2,1.3,0.5,3.1-0.5,4c-0.5,0-0.4-0.6-0.8-0.8
		c-1.2,0.8-0.1,2.2,0,3.5c0.8-0.1-0.1-1.3,0.5-1.4c1.5-0.4,0.5,4.7,0.5,6.5c0,1.2-0.5,2.4-0.5,3.2c0,0.5,0.2,1,0.1,1.4
		c0,0.4-0.3,0.6-0.4,1c-0.2,1.3,0,2.8-0.1,4.2c-0.1,1.6-0.4,3.1-0.6,4.6c-0.3,1.4,0,2.9-0.1,4.2c0,0.3-0.3,0.7-0.4,1
		c-0.1,0.7,0.1,1.4,0,2.2c-0.1,1.5-0.4,3.1-0.5,4.7c-0.1,3-0.6,6.3-0.1,9.6c-0.6,0.5-0.2,2.3-0.3,3.5c-0.1,1.4-0.6,2.3,0,3.7
		c-0.8,0.9-0.1,2.4-0.4,3.6c-0.1,0.5,0.6,0.1,0.5,0.5c-0.3,0.7-0.8,2.6,0.3,2.8c-0.7,1.5-0.8,4-1.4,5.1c0.4,0.1,0.6,0.5,1,0.6
		c-1.2,2.2-1.1,4.3-1.3,6.5c0.5,4.1,0,8.4,0,12.3c0.2,0.4,0.8,0.4,1,0.8c-0.2,1-0.8,1.6-1.2,2.4c0.1,0.4,0.1,0.8,0.3,1.1
		c-0.4,1.7-0.1,3.4-0.4,5.1c-0.1,0.4,0.3,1,0.3,1.4c0,0.5-0.4,0.9-0.5,1.4c0,0.1,0.3,0.4,0.3,0.5c0,0.4,0,1.4-0.1,1.8
		c0,0.1-0.4,0.4-0.4,0.5c0,0.4,0.2,0.9,0.1,1.4c-0.1,0.5-0.4,1,0,1.5c-0.7,0.7-0.2,1.8-0.3,2.6c0,0.2-0.3,0.3-0.3,0.3
		c0.1,1.9,1.7,3,1,5c-0.9,0.1-0.7-0.6-1-0.8c-0.8,1.4,0.8,3.9-0.1,5.5c0,2.6-0.1,5,0.4,7.2c-0.2,0.1-0.5,0.1-0.6,0.3
		c-0.5,1.7,0.6,3.7,0.1,5.5c1.6,2.8-0.5,5.7,2.3,7.3c0.4-0.1,0.4-0.6,1-0.4c0.3,1.9,0.3,4.4,0.9,6.4c1.3-0.4-0.2-2.4,1.5-2.6
		c0,0.1,0.2,0.1,0.4,0.1c0.7,1.5,0.6,4,1,6.3c0.3,1.6,1.5,3.2,0.5,4.3c-0.7-0.2-1.2-0.6-1.5-1.1c0-0.3,0.5-0.1,0.6-0.1
		c-0.2-1.2-0.5-2.3-0.8-3.5c-1.2,1.1-1.9,2.7-3.5,3.5c-0.2,0.3,0,0.9-0.3,1.2c-0.9,0-0.5-0.6-0.8-1.2c-0.8-0.9-1.7-1.8-3.2-2
		c-2.1,0.5-3.6,1.9-5.9,1.7c-1-0.1-2.1-0.5-3.5-0.4c-0.2-1,0.8-1.8,1.2-2.8c-0.7,0.1-0.6,0.5-1.3,0.1c0.2-1.3,1.3-2.7,1.9-4
		c-0.2-0.5-0.9-0.6-1.2-1.1c0.2-2,2-2.4,2.9-3.7c-0.9,0-1,0.8-1.9,0.8c0.4-1.1,1.5-1.7,2.8-1.9c-0.1-0.9,0.3-1.9,0.1-2.8
		c-0.1-0.4-0.4-0.8-0.5-1.2c-0.2-1.3,0.4-2.3,0.4-3.8c0-2,0-3.7-0.8-4.9c0.2-1.2,0.7-2.4,0.5-3.7c-0.1-0.4-0.5-0.7-0.5-1.2
		c-0.1-0.7,0.3-1.2,0.4-1.9c0.1-1.6-0.4-3.3-0.5-5c-0.1-0.6,0.1-1.3,0-1.9c-0.2-2-0.8-4-0.8-6c0.1-2.6-0.7-6.1-1-9.3
		c-0.5-5.7-1.4-10.7-2.3-16.1c-0.2,0.2-0.1,0.8-0.8,0.6c-0.5-0.8,0.1-1.7-0.5-2.8c-0.1-0.2-0.3-0.2-0.5-0.4
		c-0.3-0.4-0.2-1.2-0.4-1.5c-0.3-0.6-0.9-0.8-1-1.1c-0.6-0.1-0.4,0.7-0.6,1c-2.2,0.7-1.4,3.8-2.9,5.6c0,1.1-0.3,2-0.4,3.2
		c-0.1,1.8-1.2,4.4-0.6,6.1c-0.2,0.4-0.4,0.9-0.6,1.3c-0.1,0.6,0,0.4,0.1,0.9c-0.3-0.1-0.2,0.2-0.4,0.3c-0.1,1.6-0.2,3.3-0.4,4.9
		c-0.6,5-1.4,9.8-1.2,14.7c-0.1,0.2-0.3,0.4-0.5,0.5c-0.3,3.3-0.5,7.7-0.9,10.2c0.3,0.2,0.7,0.2,0.9,0.5c-0.6,1.3-1.2,3-1.1,5
		c0.1,0.3,0.7,0.1,0.8,0.5c0,0.9-0.6,1.3-0.9,1.9c0.8,1.9,0.9,3.5,0,5.5c0.2,0.7,0.8,1.7,0.4,2.7c-0.6,0-0.8-0.4-1-0.8
		c-0.8,0.9,0.2,2.5,0.6,3.3c0.6,0.2,0.6-0.4,0.8-0.6c0.5,0.3,0.7,1,1.2,1.4c-0.1,0.5-0.5,0.4-0.3,1c-0.5,0.3-0.6-0.2-1.2-0.3
		c0.8,1.6-1.4,2.5-0.5,4.2c1-1.4,2.8-2,3.1-4.1c2.2-0.1,1.6,1.3,1.7,2.8c0,2.3,2.4,5.9-0.9,6.3c-1.9,0.2-3.5-0.9-6-1.3
		c-0.4,0-0.5,0.4-0.8,0.5c-1.9-1.2-2.9,1.2-4.4,1.7c-0.4-0.2-0.7-0.5-0.6-1.2c-1.3-0.1-1.8,0.6-3.2,0c-0.1-0.1-0.4-0.4-0.4-0.4
		c-1.1,0.1-2.7,4-4,2.2c0.3-1.6,1.2-2.7,1.9-4c-0.7-1.2-1-1.8-1.5-3.2c-1.1,0.3-1.2,1.6-2.7,1.5c-0.5-0.3-0.6-0.9-0.5-1.8
		c1.3-1.8,4-2.8,6-4c0.8-0.5,1.4-1.8,2.3-2.2c1.1-0.5,2.5-0.4,3.8-0.5c0.3-0.6-0.2-1.2-0.5-1.5c-0.1-1.4,1.3-2.5,0.9-4.2
		c-0.5-0.2-0.7,1.1-1.5,1c-1-1.7,1-3.6,1.3-5.4c0.1-0.8-0.3-1.8-0.4-2.9c-0.2-2.2-0.4-4.8-0.6-7.3c-0.4-4.8-0.2-9.5,0-15.1
		c0.4-9.4,0.8-20.4,0.6-30.6c0-1.3,0-2.8-0.1-3.8c-0.2-1.8-0.4-4.7-0.5-6.8c-1.2,0.9-1.1,3.1-2.8,3.5c-0.4-1.1,0.6-2,1.1-2.9
		c0.6-0.9,1.2-1.9,1.7-2.8c0-0.5-0.5-0.5-0.5-0.9c0.9-0.5,0.2-2.1,0.4-2.8c-0.8,0.3-0.7,1.3-1.5,1.5c-0.1-0.2-0.2-0.3-0.4-0.3
		c0.2-1.6,1.1-2.5,1.7-3.8c-0.6-3.7-0.7-8-1.3-11.8c-0.5-0.6-1-0.8-1.7-1c-0.4-1.3,1-2,1.1-3.2c0.1-0.7-0.2-1.9-0.3-2.7
		c-0.3-2.1-0.6-4.3-0.9-6.3c-0.3-0.2-0.6,0.4-0.9-0.1c-0.2-0.7,0.4-1.3,0.6-2c-0.9-4.5-1.4-9.2-2-12.7c-1,1.1-1.5,2.7-1.8,4.5
		c-1.6,3.7-2.4,7-3.7,11.1c-0.1,0-0.3,0-0.4,0c-0.2,1.8-1.3,4-2.3,5.8c-0.1,1.7-1.3,3-1.7,4.9c0.6,0.9,0.3,2.4,0.3,4.1
		c-0.3,6.6,0.6,13.3-0.3,17.8c0,0.3,0.4,0.1,0.4,0.4c-0.1,1.3,0.1,2-0.3,2.7c0.1,0.2,0.3,0.2,0.4,0.5c-0.1,1,0,2.1,0.3,3.2
		c0.2,0.6-0.4,0.6-0.1,0.9c0.9,1.7,0.5,4,0.8,6.3c1.1,2.9,0.6,6.8,2.7,9c-1.2,1.6-0.8,3.5-0.3,5.2c-1.5,0.4-1-2.1-1.5-3.1
		c-1.1,1.2-1.8,2.9-2,5c2.6,0.6,0.3,6-1.2,7.5c-0.7-0.4-1.1-1.6-1.4-2.7c-0.8-3.1-0.4-7.2-2.6-9c-0.1-3.4,1.5-6.4,0.4-9.5
		c-0.1-2.3,0.6-3.4,1-5c0.7-0.1,1.1-0.4,1.7,0c0-0.7-0.1-1.4,0.6-1.4c0,0.2,0.1,0.1,0.1,0c0.5,0,0,1,0.4,1.2c0.9-2.8,0.2-6.4,0-10.1
		c-0.2-4.1,0.3-8,0.1-12c-0.8,1.9,0.2,4.5-0.9,6.4c0.3,3.3,0.2,7.5,0.8,11.5c-0.4,0.1-0.5,0.5-0.9,0.6c-0.6-0.4-0.4-1-0.4-1.8
		c0.2-6.9-2.5-16-1.7-23.7c0-0.5-0.2-1-0.3-1.4c0-1.2,0.5-2.8,0.9-3.6c0.2-0.4-0.7-2.1-0.5-3.1c0.3-0.3,0.6-0.4,1.2-0.3
		c0.4-2.5,1.6-4.2,2-6.5c1.3-2.2,2.1-4.3,2.6-7c0.2,0,0.2-0.1,0.4-0.1c0.7-2.5,1.4-5,2.2-7.4c0.9-2.8,2.2-5.5,2.7-8.3
		c0.3-1.4-0.3-3.2,1-4.2c-0.1-0.6,0-0.5-0.1-1.2c1.3-2,2.7-3.9,4.1-5.9c2.1,0.2,3.5,0.4,5.8,0.2c0.7,0.6,2.5,1.7,3.7,1.7
		c0.2-0.3-0.5-0.8-0.2-1.5c0.4,0.1,0.4-0.2,0.8-0.1c0.2,0.7,0.5,1.2,0.6,1.9c1.3,0,2.9,0.4,4.3,0.4c0.1,0,0.4-0.3,0.5-0.3
		c0.5,0,1.1,0.5,1.5,0.5c0.5,0,1-0.3,1.5-0.4c2.6-0.4,5.8-0.5,8.7-1c2.1-0.4,4.4-0.8,5.4-2.3c0.7-0.2,2.5,0.1,2.6-1.2
		c1.4-0.2,1.3,0.6,2.2,1.2c0.4-0.6,1.3-1,1.9-0.4c0.4-0.1,0.2,0.4,0.3,0.6c5.3,4,13.8,5,20.1,8.1c-3.1-5-6.3-10.3-8.7-15.7
		c-1.8-4.1-3.3-8.7-5.5-12.9c-0.6,0.2-0.7,0.9-1.5,0.9c-1.6-1.6-2.4-4.5-4.5-5.2c0.2-0.7-0.6-1.1-0.8-1.8c-1.2-0.1-2.3,0.1-3.3,0.5
		c-0.6-0.5-1.1-0.5-2-0.4c0.9,3.7,0.1,7.6-0.6,11.5c-0.7,3.6-2.5,7.1-4.6,9.2c-0.5,1.8-1.8,3.1-4.1,3.6c-1.3,0.3-2.7,1.2-3.6,1.3
		c-0.9,0.1-2.2-0.1-3.3-0.1c-1.9-0.1-4-0.2-5.4-0.6c-3.3-1-4.6-3.7-6.7-5.5c-1.3-1.7-2.1-4-3.2-6.3c-1.4-2.9-2.3-4.4-1.8-9
		c0.1-0.8,0.5-1.6-0.1-2.7c0.3-0.4,0.3-1,1-0.9c1.4-8,4.3-15.3,11-18.6c0.4,0.2,0.7-0.4,0.9,0C32.4,112.1,37,114,38.4,115.8z
		 M27.5,170.2c0.6-0.7,0.7-1.9,1.7-2.2c-0.1-0.6,0.5-0.8,0.1-1.3c-0.5,0.4-1.1,1.1-1,1.7C27.8,168.8,26.9,169.3,27.5,170.2z
		 M26.4,117.9c1.2-1.3,2.9-0.9,3.8-2.6C28.5,115.7,27.4,116.8,26.4,117.9z M32.6,116.2c0.2,0.6-0.9,0.7-0.6,1.3
		c0.9-0.5,2.2-0.6,2.9-1.3C34.1,116.3,33.3,115.8,32.6,116.2z M30.1,117.5c0.6,0.1,0.8-0.8,0.8-0.9
		C30.6,116.9,30.3,117.1,30.1,117.5z M41.2,118.6c0-0.3-0.5-1.1-1.2-1.1C40.3,118,40.7,118.3,41.2,118.6z M37.2,119.8
		c0.3-0.6,1-0.9,1-1.8C36.7,117,35.8,119.3,37.2,119.8z M23.8,122.2c0.6,0,0.3-0.7,0.8-0.8c1.9-0.5,2.4-2.4,3.6-3.6
		C26.1,118.7,24.6,120.1,23.8,122.2z M28.9,119c0.5,0,0.9-0.7,0.8-1C29.5,118.4,29.2,118.7,28.9,119z M31.6,118.6
		c0.5,0.3,1-0.2,1.1-0.6C32.3,118.1,31.8,118.3,31.6,118.6z M32.6,118.8c0.1,0.7-0.3,0-0.4,0.5c0.1,0,0.2,0.1,0.3,0.3
		c0.5-0.1,0.7-0.5,0.9-0.9C33.1,118.6,33,118.8,32.6,118.8z M30.3,119.1c0,0.5,0.3,0.8,0.8,0.8c0.1-0.3,0-1-0.3-1
		C30.7,119.1,30.6,119.1,30.3,119.1z M39.1,119c0.6,0.9,1.1,1.8,2,2.3c0.3-0.2,0.5-0.5,0.6-0.9C41.1,119.8,40.4,118.7,39.1,119z
		 M34.2,121.3c0.2-0.5,0.5-0.8,0.6-1.3c-0.2-0.1-0.3-0.2-0.3-0.4C33.2,119.3,33.3,121.2,34.2,121.3z M35.8,121.2
		c0.4,0.1,0.4-0.4,0.6-0.5c0-0.5-0.4-0.7-0.6-1C35.6,120.4,35.6,120.5,35.8,121.2z M46.6,124.5c-0.5-2.2-2-3.2-3.1-4.9
		C44.4,121.4,45.2,123.2,46.6,124.5z M31.2,120.3c0.2,0.3,0.2,0.8,0.6,0.9C32.3,120.7,31.4,119.7,31.2,120.3z M28.9,121.6
		c0.6,0.5,0.8,1.3,1.4,1.7c0.4-0.6,0.9-1,0.3-1.7c-0.2-0.1-0.8,0.2-0.8-0.1c0.4-0.3,0.2-1-0.3-1.2C29.4,120.7,28.9,120.9,28.9,121.6
		z M38.4,121.4c-0.3-0.5,0.1-0.8-0.5-0.9C37.9,121,38,121.3,38.4,121.4z M26.4,122.3c0.4-0.3,1.1-1,0.9-1.4
		C26.8,121.2,26,121.6,26.4,122.3z M34.7,122.3c0.4-0.2,0.8-0.6,0.6-1C34.9,121.4,34.8,121.9,34.7,122.3z M40.4,122.1
		c-0.2-0.2-0.3-0.5-0.6-0.6C39.3,122.2,40.1,123,40.4,122.1z M41.8,122.3c0.3,0.1,0.4,0.5,0.8,0.6c0.3-0.2,0.5-0.5,0.8-0.6
		C43.2,121.2,42,121.3,41.8,122.3z M36.7,122.7c0.1,0,0.2,0.1,0.3,0.3c0.7,0,1.1-1.1,0.3-1.3C37,122,36.8,122.3,36.7,122.7z
		 M32.4,121.9c0.1,0.5,0.3,0.8,0.9,0.9C33.1,122.4,32.8,121.7,32.4,121.9z M23.2,126.8c0.8-1.2,2.7-2.4,2.3-4
		C24.6,124,23.8,125.4,23.2,126.8z M27.8,124c0-0.4,0.8-0.7,0.4-1.2C28,123.2,27.1,123.7,27.8,124z M40.7,124.1c0.1,0,0.3,0,0.3,0.1
		c0.4-0.1,0.6-0.5,0.9-0.8c-0.3-0.1-0.3-0.5-0.8-0.4C41.1,123.6,40.6,123.6,40.7,124.1z M31,124.5c0.6,0.1,0.5,1,1.2,1
		c0.6-0.8,0.2-1.9-0.5-2.3C31.4,123.6,31.2,124.1,31,124.5z M43.6,124.3c0.4-0.2,0.8-0.3,0.9-0.8c-0.2,0-0.2-0.2-0.4-0.3
		C44,123.6,43.3,123.9,43.6,124.3z M22.9,125.4c0.1-0.8,1.1-1.4,0.9-2C23.5,124,22.7,124.7,22.9,125.4z M36.1,124.1
		c0-0.2,0.7-0.5,0.3-0.8C36.3,123.6,35.7,123.9,36.1,124.1z M38.1,124.6c0.5-0.1,0.8-0.5,0.8-1.2c-0.2,0-0.2-0.2-0.4-0.1
		C38.4,123.8,37.8,124.2,38.1,124.6z M28,124.8c0.4,0.2,0.3,0.9,0.9,0.9c0-0.5,0.4-0.6,0.5-1c-0.5-0.2-0.3-1.1-1-1
		C28.6,124.3,27.9,124.2,28,124.8z M24.4,127.2c0.7-0.6,1.7-2.3,1.5-2.9C25.6,125.3,24.2,126,24.4,127.2z M41.7,125.3
		c0-0.2,0.5-0.7,0.3-0.8C41.8,124.7,41.1,125.1,41.7,125.3z M44.5,125.3c0.7,0.8,1.4,1.6,2,2.4c-0.4-1.2-0.9-2.5-1.8-3.2
		C44.8,124.9,44.5,124.9,44.5,125.3z M48.7,129.5c-0.2-1.1-0.4-2.5-0.8-3.4c-0.2-0.5-0.6-1.3-0.9-1.3
		C47.9,126.3,47.5,128.3,48.7,129.5z M42.2,126.2c0.6-0.1,0.7-0.7,1-1.2c-0.2,0-0.2-0.2-0.4-0.1C42.8,125.5,42.4,125.7,42.2,126.2z
		 M31.5,126.8c0-0.9-0.5-1.3-1-1.7C30.7,125.8,31.2,126.2,31.5,126.8z M33.1,126.9c0.1-0.3,0.5-0.5,0.5-0.9c-0.2,0-0.1-0.4-0.4-0.4
		C33.1,126.1,32.4,126.7,33.1,126.9z M35.9,126.7c-0.2-0.5-0.4-0.9-0.9-1C34.7,126.2,35.7,126.4,35.9,126.7z M30.7,128.2
		c0.7-0.8,0-1.8-0.6-2.3c-0.1,0-0.2,0-0.3,0C29.2,126.9,30,127.8,30.7,128.2z M37.6,126.1c0,0.4,0.3,0.5,0.5,0.6
		C38.4,126.3,38.1,125.7,37.6,126.1z M40.3,127.8c0.3-0.4,0.6-0.9,0.8-1.4c-0.2-0.2-0.3-0.6-0.8-0.5
		C39.6,126.4,39.2,127.5,40.3,127.8z M27.6,128c0.5-0.8,0-1.6-0.6-1.9C26.4,126.7,27.1,127.6,27.6,128z M43.1,127.7
		c0.1,0.3,0.5,0.3,0.5,0.6c0.6-0.3,1-0.7,1.3-1.3c-0.2-0.4-0.4-0.8-0.9-1C43.6,126.5,43.4,127.1,43.1,127.7z M56.9,129.1
		c0.3-0.9,2.1-1.7,1.5-2.7C58.2,127.5,56.8,128.1,56.9,129.1z M33.6,128c0.3,0.3,0.4,0.9,0.9,1c0.3-0.2,0.3-0.5,0.5-0.8
		c-0.3-0.4-0.4-1.1-0.9-1.3C34.1,127.4,33.7,127.5,33.6,128z M39.8,128.9c-0.3-0.5-0.4-1.2-0.9-1.4C38.6,128,39.3,128.7,39.8,128.9z
		 M59.7,128.5c0.3-0.4,0.8,0.2,0.9-0.5c-0.5,0-0.7,0.1-0.5-0.4C59.5,127.6,59.4,128.3,59.7,128.5z M26.5,130
		c0.4-0.9-0.3-1.6-0.5-2.3C24.8,128.2,25.7,129.6,26.5,130z M22.5,129.6c0.2,0.2,0.2,0.7,0.5,0.8c0.3-0.7,1.3-1.8,0.6-2.6
		C23.2,128.3,22.8,129,22.5,129.6z M41.1,129.5c0.4-0.2,1.2-1.2,0.6-1.5C41.6,128.6,40.6,128.8,41.1,129.5z M45.9,128.1
		c-0.9,0.1-1,1-1.3,1.8c0.5,0,1.4-0.5,2-0.4C46.6,128.9,46,128.8,45.9,128.1z M29.6,130.1c0.1-0.6-0.5-1.5-1-1.9
		C27.9,129,29,130.2,29.6,130.1z M52.5,131.3c0.4-0.8,2-1.8,1.5-2.7c-1.5,0.2-1.6,1.8-3.3,1.8c-0.6-0.1-0.3-0.9-0.6-0.9
		C49.9,130.7,50.8,131.8,52.5,131.3z M59.2,131.6c0.9-0.9,1.5-2,2.7-2.7C61,128.4,59.4,130.8,59.2,131.6z M33.9,130
		c0.2-0.5-0.1-1.2-0.8-1.3C32.8,129.4,33.4,129.8,33.9,130z M42.2,130c0.2-0.4,0.8-0.3,0.8-0.9c-0.1-0.1,0-0.5-0.4-0.4
		C42.5,129.1,42,129.7,42.2,130z M35.4,130.1c0.3-0.2,0.8-0.6,0.5-1C35.5,129.1,35.1,129.8,35.4,130.1z M62.4,129.4
		c-0.8,1.4-2,2.5-2.7,4.1c1.3-1,2.4-2.4,3.3-3.8C62.8,129.6,62.8,129.3,62.4,129.4z M28.7,131.6c0.5-0.6-0.5-1.4-0.9-1.8
		C27.9,130.5,28.4,130.9,28.7,131.6z M32.2,130.5c0.3,0.3,0.3,0.8,0.9,0.8c0.4-0.6,0-1.1-0.5-1.5C32.7,130.2,32.2,130.1,32.2,130.5z
		 M42.1,130.9c0.1,0.4,0.2,0.7,0.5,0.9c0.2-0.6,0.9-1.4,0.8-2C43,130.2,42.6,130.6,42.1,130.9z M38.1,131.2
		c-0.5-0.3-0.5-0.9-0.9-1.3C37.2,130.5,37.8,131.3,38.1,131.2z M23.8,131.8c0.4,0.3,0.4,1,1,1c0.3-0.3,0.3-0.9,0.6-1.2
		c-0.5-0.3-0.4-1.3-1-1.5C24.2,130.7,24,131.2,23.8,131.8z M21.6,133c0.9-0.5,1.1-2,0.1-2.6C21.5,131.3,21.7,131.9,21.6,133z
		 M27.3,131.9c0.5,0.1,0.6,0.4,1,0.5c-0.3-0.7-0.6-1.4-1-1.9C26.3,131,27.8,131.6,27.3,131.9z M45.8,131.3c0.1-0.3,0.6,0,0.5-0.5
		c-0.4,0.1-0.5-0.1-0.8-0.1C45.3,130.9,45.7,131.1,45.8,131.3z M36.3,131.4c0.2,0.5,0.7,0.8,1,1.1c0-0.2,0-0.3,0.3-0.3
		c0-0.8-0.5-1.1-0.9-1.5C36.7,131.1,36.3,131,36.3,131.4z M43.4,133.3c0.6-0.4,1.2-0.8,1.5-1.5c-0.2-0.4-0.4-0.8-0.9-0.9
		C43.8,131.6,42.7,132.6,43.4,133.3z M61.4,134c1.1-0.7,2.2-1.9,2.4-3.1C62.8,131.7,62,132.7,61.4,134z M47.3,133.2
		c0-0.6,0.1-1,0.1-1.8c-0.2,0-0.2-0.2-0.4-0.1C47,132.1,47,132.6,47.3,133.2z M31.5,131.7c0.5,0,0.5,0.6,1,0.6
		C32.4,131.9,31.8,131.1,31.5,131.7z M27.5,133.7c0.2-0.8-0.7-1.4-1.2-1.9C26.6,132.6,26.8,133.4,27.5,133.7z M58.3,133.7
		c0.5-0.1,0.4-0.7,0.6-1c-0.7,0-1.1-0.3-1.2-0.9c-0.2,0-0.5,0-0.5,0.1C57.6,132.6,58.4,133.2,58.3,133.7z M47.8,144.1
		c1-1.3,1.6-3.4,2-5c-0.9-1.9-0.8-4.9-1.7-7.2C48,136.7,49.1,140,47.8,144.1z M31.5,133.5c0.9-0.2,0.1-1-0.3-1.3
		C30.7,132.7,31.4,132.8,31.5,133.5z M36.5,134c0.6-0.6-0.1-1.6-0.6-1.8C35.2,132.8,36.1,133.6,36.5,134z M38.8,132.3
		c-0.1,0-0.1,0-0.1,0.1c0.4,0.1,0.3,0.6,0.8,0.6c-0.1-0.3-0.2-0.7-0.5-0.9C38.9,132.3,38.9,132.3,38.8,132.3z M25.3,134.2
		c0.5,0.4,0.7,0.4,0.9,1.1c0.5-0.1,0.7-0.4,0.8-0.9c-0.4-0.6-0.6-1.3-1.1-1.7C25.7,133.4,25.4,133.7,25.3,134.2z M50,136.7
		c-0.3-1.3,0.8-3.5-0.9-3.8C49.6,134.1,49.5,135.8,50,136.7z M44.5,135c0.5-0.5,1.2-0.7,1.5-1.4c-0.1-0.3-0.2-0.5-0.5-0.6
		C45.1,133.6,44.7,134.1,44.5,135z M38,134c0.4,0,0.6,0.5,0.9,0.1c-0.2-0.4-0.2-0.8-0.5-1C38.2,133.3,38,133.6,38,134z M22.3,134.2
		c0.3,0.5,0.5,1,1,1.3c0.7-0.7,0.8-1.9-0.1-2.3C22.9,133.6,22.8,134.2,22.3,134.2z M31,135c0.5-0.6,0-1.4-0.5-1.7
		C30,133.9,30.4,134.8,31,135z M35.9,135c0.3-0.7-0.3-1.4-0.8-1.7C34.6,133.9,35.2,135,35.9,135z M40.9,135.4
		c-0.2-0.7-0.4-1.4-1-1.5C40.1,134.6,40.3,135.2,40.9,135.4z M37.9,135.9c0.1-0.3,0.4-0.4,0.4-0.8c-0.2-0.2-0.3-0.5-0.6-0.6
		C37,134.9,37.3,135.6,37.9,135.9z M30.3,135.5c0-0.5-0.4-0.6-0.6-0.8C29.7,135.2,30,135.4,30.3,135.5z M35.3,135.9
		c-0.3-0.4-0.5-0.9-1-1.2C34.4,135.3,35,135.9,35.3,135.9z M39.1,134.9c0.2,0.8,0.6,1.4,1.3,1.7c-0.2-0.8-0.4-1.4-1-1.8
		C39.4,134.9,39.3,134.9,39.1,134.9z M31.6,135.9c0.2,0.2,1-0.5,0.4-0.6C32,135.6,31.7,135.7,31.6,135.9z M60.3,135.9
		c0.3,0.3,0.3,0.7,0.6,0.9c0.4-0.3,0.5-1,0.6-1.5C61.1,135.5,60.6,135.6,60.3,135.9z M28.8,136.7c0.4,0.2,0.4,0.7,1,0.6
		c0.5-0.7,0-1.5-0.6-1.8C29,135.9,28.7,136,28.8,136.7z M33.9,136.5c0.3,0.1,0.4,0.4,0.8,0.4c0-0.7-0.3-1.2-0.9-1.3
		C33.8,136.1,34.1,136.1,33.9,136.5z M21.9,137.6c1.1-0.4,0.5-1.3-0.1-1.8C21.6,136.6,21.7,136.8,21.9,137.6z M23.9,137.2
		c0.6,0.5,1.3,1.1,1.5-0.1c-0.4-0.3-0.5-1-0.9-1.3C24.4,136.3,24,136.6,23.9,137.2z M37.2,136.7c0.2-0.2-0.1-0.6-0.4-0.8
		C36.7,136.1,36.8,136.7,37.2,136.7z M38.4,136.9c0.5,0.4,0.6,1.1,1.1,1.4c0.1-0.4,0.5-0.4,0.4-0.9c-0.5-0.6-0.3-1.1-1.2-1.4
		C38.7,136.3,38.4,136.5,38.4,136.9z M20.3,138.7c0.4-0.4,0.1-2-0.5-2.3C19.8,137,19.7,138.5,20.3,138.7z M42.2,137.4
		c0.3-0.4-0.1-0.9-0.4-1C41.6,136.7,41.5,137.5,42.2,137.4z M32.8,138.1c0.6-0.1,0.4,0.7,1,0.6c0.5-0.8,0-1.6-0.6-2.2
		C33,137,32.6,137.3,32.8,138.1z M44.3,137.6c0.2,0,0.2-0.2,0.4-0.2c0-0.4-0.4-0.6-0.6-0.8C43.7,136.9,43.7,137.4,44.3,137.6z
		 M36.6,137.8c0-0.5-0.3-0.7-0.5-1C35.9,137.5,36.4,137.5,36.6,137.8z M27.9,137.3c0.3,0.6,0.7,1.7,1.4,1.1c0.2-0.3-0.3-0.5,0-0.5
		c0.2,0.1-0.7-0.8-1-1C28.3,137.2,28.2,137.3,27.9,137.3z M19.7,143.8c-0.9-2.1-1-5-1.4-6.8C18,139.5,18.2,142.9,19.7,143.8z
		 M45.3,137.8c-0.4,0.7-0.2,1.5,0.3,2.2c0.4-0.8,0.7-1.8,0.9-2.8c-0.1-0.1-0.3-0.2-0.6-0.1C46.2,137.6,45.4,137.5,45.3,137.8z
		 M65.1,138.2c0.3-0.4-0.1-0.9-0.4-1.2C64.7,137.6,64.8,138,65.1,138.2z M38.8,138.7c-0.2-0.4-0.4-1.3-0.9-1
		C38,138.3,38.8,138.8,38.8,138.7z M41.6,138.3c0-0.4-0.2-0.7-0.5-0.8C41.2,137.8,41.2,138.3,41.6,138.3z M22,138.6
		c0.9,0.2,1,1.3,1.7,1.7c0.7-0.8,0-1.7-0.5-2.3c-0.5,0-0.4,0.6-1,0.5C22,137.6,21.8,137.8,22,138.6z M35.9,139
		c0.6-0.4,0.1-0.8-0.4-1.2C35.5,138.4,35.8,138.6,35.9,139z M43.2,139.2c0.3-0.3,0.1-1-0.3-1.1C42.6,138.5,42.8,139,43.2,139.2z
		 M28.1,140.3c0.7-0.8,0-1.6-0.6-2.1C26.9,138.9,27.6,139.8,28.1,140.3z M40,139.4c0.1,0.2,0.3,0.4,0.5,0.5c0.1-0.4,0.5-0.4,0.5-0.9
		c-0.1-0.2-0.3-0.4-0.5-0.5C40.4,138.8,40,138.9,40,139.4z M37.4,139.4c0.5,0.2,0.7,0.7,1.2,0.9c-0.1-0.8-0.6-1.3-1.2-1.7
		C37.4,138.8,37.4,139.1,37.4,139.4z M32.4,141.3c0.1-0.6,0.5-0.9,0.6-1.4c-0.5-0.2-0.6-0.9-1.1-1.1
		C30.9,139.6,31.2,140.7,32.4,141.3z M34.9,140.8c0.1-0.5,0.4-0.8,0.6-1.2c-0.3-0.1-0.2-0.6-0.6-0.6
		C34.6,139.5,34.4,140.3,34.9,140.8z M38,141.1c0.1-0.7-0.8-1.4-1.3-1.9C36.6,140.4,37.5,140.6,38,141.1z M45.4,142.7
		c0.1-0.3,0.6-0.1,0.9-0.1c0.2-1.1,1.1-2.2,0.4-3.2C46.4,140.5,45.2,141.9,45.4,142.7z M23.9,142.9c0-1.2-1.1-2.4-1.8-3.3
		C22.1,141.3,23.1,142.1,23.9,142.9z M26.4,140.6c0.5,0.2,0.7,0.6,1,0.9c0.5-0.6-0.2-1.6-0.8-1.9C26.7,140.1,26.3,140.1,26.4,140.6z
		 M43.9,140.3c-0.1,0.7,0.4,0.9,0.5,1.4c0.6,0,0.5-0.7,0.8-1c-0.5,0-0.6-0.5-1-0.6C44.1,140.1,44.1,140.3,43.9,140.3z M21.1,142.3
		c-0.3-0.6,0-1.7-0.6-2C20.6,141,20.7,141.8,21.1,142.3z M41.6,141.7c0.2-0.5,0.6-0.7,0.6-1.3c-0.2,0-0.2-0.2-0.4-0.1
		C41.7,140.7,41,141.2,41.6,141.7z M28.8,141.8c0.1-0.5,0.4-0.9,0.5-1.4C28.7,140.4,28.5,141.3,28.8,141.8z M35.6,141.5
		c0.5,0.4,0.7,1.1,1.3,1.4c1.4-0.7,0-2-0.6-2.6C36,140.8,35.6,141,35.6,141.5z M24.2,140.9c0,0.4,0,0.6,0.3,0.8
		c0.1-0.2,0.6-0.7,0.3-1C24.7,140.9,24.3,140.7,24.2,140.9z M31.7,142.3c0.1-0.6-0.4-1.4-1-1.7C30.7,141.5,31.2,142,31.7,142.3z
		 M39.4,141.5c0.3-0.3,0.3-0.5-0.1-0.6C39.1,141,39.1,141.5,39.4,141.5z M33.5,143.1c0.5-0.3,1.1-1.6,0.1-1.9
		C33.3,141.6,32.5,142.8,33.5,143.1z M25.1,142.9c0.5,0.1,0.7,0.5,1,0.8c0.6-0.6-0.2-1.6-0.6-1.9C25.6,142.4,25,142.4,25.1,142.9z
		 M29.6,142.8c0.5,0.4,0.5,1.5,1,1.4c1-0.2,0.6-2.2-0.5-2.4C29.9,142.1,29.6,142.4,29.6,142.8z M42.5,143.2c0.4,0.2,0.3,0.9,0.9,0.9
		c0.2-0.5,0.5-0.8,0.6-1.3c-0.4-0.2-0.4-0.8-0.9-1C42.6,142,42.7,142.7,42.5,143.2z M28.1,142.8c0.6,0.1,0.4-0.8,0-0.8
		C28,142.4,28,142.4,28.1,142.8z M34,144.2c0.6,0.4,0.6,1.3,1.4,1.5c0.1-0.7,0.7-0.8,0.8-1.5c-0.5-0.5-0.7-1.3-1.4-1.5
		C34.6,143.2,34.2,143.7,34,144.2z M37.5,143.8c0.2,0.2,0.1,0.6,0.5,0.5c0.1-0.5,0.9-1.3,0-1.5C37.9,143.3,37.5,143.3,37.5,143.8z
		 M33,144.2c0.4-0.5-0.2-0.9-0.5-1.2C32.2,143.5,32.8,143.9,33,144.2z M28.9,144.2c0.5,0.2,0.7,0.7,1.1,0.9c-0.2-0.7-0.5-1.2-1-1.7
		C29.1,143.8,28.8,143.8,28.9,144.2z M39.9,144.1c0.2,0,0.4,0,0.5-0.1c-0.1-0.2,0-0.5-0.4-0.5C40.1,143.8,39.8,143.7,39.9,144.1z
		 M69,148.4c-0.5-1.8-1-4.2-2.2-4.7C67.6,145.2,68.2,147.2,69,148.4z M25.5,145c0.3-0.5-0.2-1.2-0.6-1.3
		C24.4,144.1,24.6,145.1,25.5,145z M31.9,146.1c0.6-0.5,1.1-1.7,0-2C31.2,144.5,31,145.7,31.9,146.1z M42.5,145.6
		c0.1-0.8-0.4-1.1-0.8-1.4C41.6,145,42.1,145.3,42.5,145.6z M44.3,145.4c0.4,0,0.7-1.2,0.4-1.2C44.7,144.7,43.8,144.8,44.3,145.4z
		 M26.7,145.1c0.2,0,0.3,0,0.5,0c-0.1-0.4,0.2-0.3,0.1-0.6c-0.2,0-0.2-0.2-0.4-0.1C26.9,144.6,26.7,144.7,26.7,145.1z M45.7,145.9
		c0,0.3,0,0.5,0.1,0.6c-0.6-0.1-0.5,0.5-0.4,0.8c-0.5,0.2-0.9,0.5-1.2,0.9c0.3,0.4,0.7,0.6,0.6,1.4c1.2-1,2.1-4.4,2-5
		C46.6,145.1,46.4,145.7,45.7,145.9z M39.1,146.3c0.1-0.6,1.2-1.4,0.4-1.7C39.4,145.1,38.5,145.8,39.1,146.3z M29,146.3
		c0.9-0.3-0.3-1.1-0.5-1.5C28.2,145.2,29.4,145.7,29,146.3z M34.9,146.8c-0.3-0.8-0.6-1.5-1.3-1.9C33.6,145.5,34.4,146.3,34.9,146.8
		z M35.9,146.8c0,0.3,0.4,0.2,0.3,0.5c0.6-0.3,1.5-1.8,0.5-2.2C36.5,145.7,36.1,146.1,35.9,146.8z M41.7,146
		c-0.1-0.3-0.1-0.7-0.5-0.6C41.2,145.7,41.5,145.8,41.7,146z M26.1,146.5c0.5,0.1,0.4-0.4,0.5-0.8c-0.2,0-0.3-0.1-0.4-0.1
		C26.3,146.1,26,146.1,26.1,146.5z M28.9,146.9c-0.5-0.3-0.4-1.1-1-1.3C27.5,146.2,28.6,147.4,28.9,146.9z M32.5,147.3
		c0.4,0.6,0.6,1.4,1.3,1.7c0-0.7,0.5-0.9,0.6-1.5c-0.4-0.6-0.8-1.2-1.3-1.8C33,146.2,32.6,146.6,32.5,147.3z M30.7,146.6
		c0.4-0.1,0.2,0.3,0.6,0.3c0-0.5-0.5-0.5-0.6-0.9C30.4,146.3,31.1,146.3,30.7,146.6z M21.8,149.2c2,1.9,3.5,5.1,5.9,6.1
		c-3.1-2.3-4.5-6.3-7-9.2C20.6,147.5,21.7,147.9,21.8,149.2z M40,147.2c0.2,0.4,0.4,0.8,0.8,1c0.6-0.5,1-1.8-0.1-2
		C40.6,146.6,40.3,146.8,40,147.2z M43.4,147c0.4,0.1,0.4-0.3,0.5-0.5c-0.4,0.1-0.2-0.4-0.6-0.3C43.2,146.6,43.2,146.9,43.4,147z
		 M37.6,149.2c0.7-0.2,0.7-1.1,1.1-1.5c-0.1-0.3-0.2-0.7-0.5-0.9C38.2,147.6,36.9,148.4,37.6,149.2z M30.8,148.1
		c-0.1-0.5-0.4-0.9-0.8-1.2C29.8,147.3,30.3,148.4,30.8,148.1z M68.6,150c1,1,1.4,2.4,1.7,3.7c0.7,0.8,1.6,2,1.5,3.2
		c1.2,0.9,1.4,2.7,2.4,3.7c0.1,0.5,0.4,0.8,0.8,1c0-0.5-0.3-0.6-0.5-0.9c-2.8-4.2-4.1-9.6-7-13.8C67.7,148,68.6,148.8,68.6,150z
		 M28.1,148.6c0.3-0.7-0.4-1.2-0.9-1.5C27,147.7,27.4,148.5,28.1,148.6z M35.9,148.2c0-0.4-0.2-0.7-0.5-0.8
		C35.5,147.8,35.7,148,35.9,148.2z M34.8,150.6c0.3-0.6,1.3-2,0.1-2.3C34.5,149,33.6,150.2,34.8,150.6z M38.4,150.1
		c0.2,0.3,0.3,0.8,0.8,0.9c0.3-0.9,1.5-1.9,0.3-2.7C39,148.9,38.6,149.4,38.4,150.1z M32.8,150.6c-0.3-0.7-0.7-1.3-1.3-1.8
		C31.5,149.8,31.9,150.5,32.8,150.6z M29.4,150.5c-0.1-0.4,0.4-0.3,0.4-0.8c-0.2-0.2-0.3-0.6-0.6-0.8
		C28.7,149.3,28.7,150.4,29.4,150.5z M24.2,149.2c0,0.3,0.2,0.5,0.5,0.5c0-0.3,0-0.6-0.3-0.6C24.4,149.2,24.3,149.2,24.2,149.2z
		 M42.6,151c-0.8,0.3-1.1,1.1-1.4,1.9c0.5-0.2,0.4,0.3,0.8,0.3c1.1-0.7,2-1.8,2.7-2.9c-0.4-0.4-0.8-0.9-1.4-1.2
		C43.1,149.7,42.2,150.2,42.6,151z M35.9,152.4c0.2-0.6,0.7-1,0.9-1.7c-0.2-0.2-0.1-0.6-0.5-0.5C35.9,150.8,34.9,151.9,35.9,152.4z
		 M25.3,150.4c0,0.1-0.1,0.1-0.3,0.1c0.4,1.5,1.7,2.2,2.7,3.1C27.6,152.4,26.1,151.4,25.3,150.4z M30.2,151.6
		c0.3,0.4,0.8,0.8,0.9,1.4c0.6-0.1,0.6-0.7,0.8-1.2c-0.5-0.3-0.5-1.1-1.4-1C30.5,151.3,30.3,151.4,30.2,151.6z M74.6,159.3
		c2,1.5,3,4.6,5,5.6c-0.5-2-1.2-2.6-2.4-4.1c-1.1-1.4-2.3-2.9-3.1-4.2c-1.2-1.8-1.6-3.7-2.9-5.5C71.5,154.3,73.5,156.5,74.6,159.3z
		 M33.5,152.5c0.8-0.1,0.4-1.1-0.3-1.2C33.3,152,33.8,151.9,33.5,152.5z M37.2,154.1c0.3-0.5,0.7-1.1,0.9-1.8
		c-0.2-0.2-0.4-0.6-0.8-0.6C37.1,152.4,36,153.6,37.2,154.1z M30.2,153c0-0.3,0-0.5-0.4-0.5C29.8,152.9,29.9,153.1,30.2,153z
		 M32,154.4c0.4-0.1,0.2,0.4,0.6,0.3c0.2-0.7,0.9-0.8,0.9-1.7c-0.5,0-0.6-0.2-1-0.3C32.3,153.3,32.1,153.9,32,154.4z M33.8,155.5
		c0.9-0.3,1.1-1.2,1.4-2c-0.3,0-0.2-0.3-0.5-0.3C34.5,154,33.5,154.6,33.8,155.5z M35.7,155.6c0.6,0,1.4,0.1,1.4-0.5
		c-0.7,0.4-0.7-0.3-1.3-0.4C35.9,155.1,35.7,155.3,35.7,155.6z M56.5,160.5c-0.9-0.3-1.9-1-2.7-1C54.6,159.8,55.9,160.8,56.5,160.5z
		 M52.2,159.7c0,0.7,0.6,0.1,0.9,0.4C53.2,159.4,52.5,159.5,52.2,159.7z M17.8,161.2c0.4-0.1,0.2,0.3,0.6,0.3
		c0.3-0.2,0.4-0.5,0.6-0.8C18.5,160.7,17.8,160.6,17.8,161.2z M19.8,163.5c1.1-0.5,1.5-1.8,2.4-2.6
		C19.9,160.2,19.6,161.8,19.8,163.5z M60.1,162c-1-0.4-1.8-0.9-2.8-1.1C57.7,161.6,59.3,162,60.1,162z M23,161.9
		c0-0.3,0.4-0.2,0.4-0.6c-0.2-0.1-0.6-0.2-0.9-0.3C22.7,161.2,22.7,161.7,23,161.9z M45,162.6c0.9-0.3,2.1-0.2,2.3-1.1
		C46.1,161.4,45.4,161.8,45,162.6z M50,161.7c0.5,0.4,0,1.2,0.6,1.4c0.1-0.7-0.1-1.2-0.4-1.5C50.2,161.7,50.2,161.8,50,161.7z
		 M23.9,162.9c0.8-0.4,2.4,0,2.9-0.6c-1.1,0.2-1.4-0.5-2.6-0.5C24.4,162.4,23.9,162.4,23.9,162.9z M76.2,163.3
		c-0.3-0.5-0.7-1-1.2-1.4C75.2,162.5,75.9,163.3,76.2,163.3z M38.8,162.8c1,0.1,2.7,0,2.3-0.6C40.5,162.5,38.9,162,38.8,162.8z
		 M42.7,162.8c0.5,0.1,0.7-0.1,0.8-0.4C43,162.3,42.8,162.5,42.7,162.8z M53.2,163.7c0.4,0.5,0.5,1.4,0.9,1.9
		c0.2-0.7,0.4-1.4,0.5-2.2c0.4,0.2,0.7,0.5,1.2,0.3C55.1,162.8,53.5,161.9,53.2,163.7z M13.7,165.8c0.4-0.4,0.7-0.1,1,0.3
		c0.5-1.2,1.3-2.1,1.8-3.3C15.2,163.4,14.5,164.7,13.7,165.8z M58.2,163c1.4,0.7,3.4,1.3,5,1.4C61.6,164.1,59.4,162.9,58.2,163z
		 M46.3,166.1c0.1-1,2.2-1.6,1.7-3.2C46.9,163.3,45.1,165.5,46.3,166.1z M18.3,164.2c0.3,0,0.5-0.2,0.9-0.1c0-0.4,0-0.9-0.3-1
		C18.8,163.5,18.4,163.7,18.3,164.2z M23.9,163.7c0,0.2,0,0.4-0.1,0.5c0.2,0.3,1.1-0.4,1.3,0.3c0,0.4-0.3,0.4-0.3,0.8
		c0.4-0.1,0.4,0.2,0.8,0.1c0.6-0.6,1.2-1.1,1.5-1.9C26.2,163.1,25.2,163.6,23.9,163.7z M33.3,164c0.4,0,0.6-0.2,0.6-0.5
		c-0.2,0-0.4,0-0.6,0C33.3,163.7,33.3,163.9,33.3,164z M34,165.3c0.8,0.6,1.7-0.8,2-1.5c-0.5,0-0.8,0-1.2-0.1
		C34.9,164.5,34.2,164.7,34,165.3z M37.5,164.7c0.2,0,0.3,0.2,0.3,0.4c1.2,0,1.9-0.4,2.2-1.3C38.7,163.9,37.3,163.2,37.5,164.7z
		 M43,164.3c0.3,0.4,0.2,0.8,0.5,0.9c0.5,0,1.3-1,1.7-1.5C44.3,163.8,43.5,163.9,43,164.3z M81.1,168.8c-0.4-1-0.7-2-1.4-2.7
		c-0.2,0.5-0.4,0.6-0.8,0.6c-0.8-1.1-1.8-2-2.6-3.1C77.6,165.7,78.1,168.5,81.1,168.8z M48.9,165.2c0.4,0.2,0.8-0.6,1-1
		c-0.2,0-0.1-0.4-0.4-0.4C49.4,164.3,48.5,164.6,48.9,165.2z M27.4,165.2c0.3,0,0.6,0,0.9,0c0.1-0.4-0.2-0.5-0.1-0.9
		C27.6,164.3,27.4,164.7,27.4,165.2z M23.2,165.1c0.2-0.2,0-0.4-0.3-0.5C22.7,164.7,22.8,165.1,23.2,165.1z M38.8,167.1
		c0.9,0.3,1.3-1.1,1.8-1.5c0.4-0.3,1.4-0.7,0.8-1C40.2,165.1,39.3,166,38.8,167.1z M32,165.1c0.2-0.1,0.8,0.2,0.8-0.1
		C32.5,164.6,32.1,164.6,32,165.1z M52.3,164.8c-0.3,0.7,0,2.2,0.9,2.7c-0.1,0.5-0.3,0.7,0,1.2c0-0.3,0.1-0.6,0.5-0.5
		C53.5,166.9,53.2,165,52.3,164.8z M19.6,166.7c0-0.6,0.9-1.1,0.6-1.5C20.1,165.7,19,166.4,19.6,166.7z M59.6,165.4
		c1,0.5,2.7,1.5,3.6,1.3C62,166.4,60.7,165,59.6,165.4z M44.1,166.3c0.3-0.2,0.4-0.6,0.5-1c-0.2,0-0.4,0-0.6,0
		C43.9,165.7,43.5,166.3,44.1,166.3z M49.1,167.2c0.7-0.2,1.2-1.3,1.3-1.8C49.7,165.8,49.3,166.4,49.1,167.2z M39.8,169
		c0.6,0.8,0.6,1.3,1.3,1.9c0.5-1,1.4-1.8,1.8-2.9c-0.5-0.5-0.2-2-0.8-2.4C41.3,166.7,40.3,167.7,39.8,169z M47.1,168.3
		c0.3-0.8,1.5-1.3,1.2-2.4C47.5,166.2,46.3,167.6,47.1,168.3z M20.1,167.5c0.3-0.4,0.4-0.9,0.8-1.3C20.4,166.4,19.8,167,20.1,167.5z
		 M25.7,167.6c0.8,0,1.4-0.9,1.3-1.4C26.4,166.5,25.9,166.9,25.7,167.6z M26.6,169.4c1.2-0.6,1.4-2.1,2.3-2.9c0-0.2,0-0.3-0.3-0.3
		C27.9,167.2,27,168.1,26.6,169.4z M35.9,166.3c-0.3,0.5-0.6,0.9-0.9,1.4c0.1,0.3,0.2,0.6,0.5,0.6c0.5-0.5,0.8-1.2,1.5-1.4
		c-0.4-0.1,0.3-0.2,0.1-0.5C36.9,166.1,36.5,166.3,35.9,166.3z M30.8,167.1c-0.1-0.5,0.5-0.3,0.5-0.8
		C30.8,166.2,30.6,167,30.8,167.1z M68.7,167.2c-1.3-0.1-2.4-1-3.6-0.8C66,166.5,67.6,167.4,68.7,167.2z M44.4,167.5
		c0.1,0.5,0.7,0.9,0.5,1.3c0.5-0.1,0.5-0.6,0.5-1.3c-0.3-0.2-0.6,0.3-0.6,0c0-0.3,0.4-0.2,0.4-0.6c-0.1-0.2-0.1-0.3-0.3-0.4
		C45,167.1,44.4,167,44.4,167.5z M32.2,168.1c0.7-0.2,0.9-0.9,1.3-1.5C32.9,167,32.3,167.2,32.2,168.1z M31.2,168.3
		c0-0.5,0.8-1,0.5-1.4C31.3,167.1,30.4,167.9,31.2,168.3z M35.7,168.5c0.1,0.5,0,0.8,0.5,1c0.4-0.7,1.6-2.1,1.1-2.4
		C36.6,167.3,36.7,168.5,35.7,168.5z M39.1,168c0.4-0.1,0.9-0.7,0.6-1C39.5,167.3,39.2,167.5,39.1,168z M23.2,168.5
		c0.5-0.4,1-0.7,1.2-1.4C23.4,167,23.4,167.9,23.2,168.5z M21.2,169.2c0.7,0.1,0.7-1.2,0.1-1.3C21.1,168.2,20.7,168.8,21.2,169.2z
		 M21.2,167.4c-0.1,0.4-0.5,0.5-0.5,1C21.1,168.3,21.6,167.7,21.2,167.4z M17.7,169.7c0.5-0.5,1.2-1.5,1.2-2.2
		C18.4,168.2,17.8,168.7,17.7,169.7z M31.9,169.5c0.3,0.4,0,0.7,0.6,0.8c0.5-0.8,1.2-1.5,1.4-2.6C33.1,167.7,32.6,169.1,31.9,169.5z
		 M47.8,170.1c0.1-0.8,1.5-1.5,0.6-2.4C48.4,168.4,46.5,169.4,47.8,170.1z M51,168.8c0.6,0.1,0.4-1.2,0-1.2
		C50.7,167.9,51,168.4,51,168.8z M49.9,168.3c-0.1,0-0.3,0-0.4,0c0,0.4,0,0.8,0.4,0.8c0.4-0.1,0.2-1.2,0-1.1
		C49.9,168,49.9,168.1,49.9,168.3z M29.7,168c-0.2,0.6-0.8,1.5-1.4,2c0.1,0.1,0.5,0,0.4,0.4c-0.3,0.2-0.8,0.2-0.9,0.6
		c0.5,0.3,0.5,1,1.2,1.2c0.5-1,2.3-2.5,1.1-3.6c-0.1,0.1-0.5,0.5-0.5,0.2C29.7,168.8,30.3,168.1,29.7,168z M18.4,169.2
		c0.4,0.6-0.5,1.2-0.9,0.6c0,0.6,0.3,0.3,0.5,0.5c-0.1,0.3-0.6,0.8-0.1,0.9c0.4-0.9,1.8-2.1,1.3-3.1C19.2,168.5,19,169.1,18.4,169.2
		z M36.6,170.2c0.1,0.6,0.7,0.5,0.4,1.1c1.1-0.5,2.1-2.4,0.8-3.2C37.6,169.1,36.9,169.4,36.6,170.2z M24.9,168.8
		c-0.2,0.6-0.8,0.8-0.8,1.5c0.2,0.1,0.9-0.2,0.9-0.6c-0.4-0.3-0.4,0.5-0.5,0.1C24.6,169.5,25.3,169.1,24.9,168.8z M34,173
		c0.3-1.1,2-1.8,1-3.1C34.2,170.5,32.6,172.3,34,173z M34,170.8c-0.4-0.7,1.1-1.1,0.6-1.9c-0.8,0.6-1.7,1.8-1.5,2.9
		C33.2,171.3,33.6,171.1,34,170.8z M45.5,170.1c0.5,0.1,0.5-1,0.1-1C45.5,169.3,45.3,169.6,45.5,170.1z M41.6,171.8
		c0,0.5,0.4,0.6,0.4,1c1.1-0.7,2.4-2.4,1.2-3.7C42.9,170.1,41.6,170.9,41.6,171.8z M73.6,169.5c0.4-0.1,1.1,0.2,1.3-0.1
		C74.5,169.2,73.8,169,73.6,169.5z M78.3,170.6c-0.2-1.1-2.7-0.9-3.3-1.2C75.9,170,76.8,170.5,78.3,170.6z M18.9,173.6
		c0.1-0.3,0.4-0.6,0.1-0.9c1-0.5,2.2-2.3,0.9-3.2C20.1,170.8,17.6,172.7,18.9,173.6z M48.6,171.8c0.7-0.2,0.9-1.8,0.3-2.3
		C48.4,170.1,47.6,171.3,48.6,171.8z M38,171.2c-0.4,1.3,0.2,1.9,0.9,2.7c1.5-0.9,1-2.6,0-3.7C38.4,170.4,38.7,171.3,38,171.2z
		 M25.1,172.1c0.5-0.3,0.9-0.8,0.9-1.7c-0.2,0-0.2-0.2-0.4-0.1C25.7,171.2,24.7,171.3,25.1,172.1z M29.3,173
		c0.3,0.3,0.4,0.8,0.8,1.2c0.8-0.8,1.3-1.8,1.8-2.8c-0.4-0.5-0.6-0.5-0.9-0.9C30.2,171.1,29.8,172.1,29.3,173z M52.5,175.8
		c-0.3,0.4-0.5,2,0.1,2.2c0.6-2.6,0.3-5.3-0.6-7.5C51.5,172.2,51.5,174.6,52.5,175.8z M44.6,171.2c0.6,0,0.3-0.6,0-0.6
		C44.4,170.8,44.6,170.9,44.6,171.2z M85.3,170.6c-0.4-0.2-0.4,0.4-0.8,0.5c-0.4,0.1-1.4-0.3-2.3-0.3c-1.2,0.1-2,0.4-2.8-0.3
		c-0.1,0.6,0.6,0.7,0.9,0.5c1.1,0.6,2.8,0.7,4.1,1.2c-0.2-0.4,0.3-0.6,0.3-1C84.9,171.5,85.5,171.1,85.3,170.6z M46.6,171.8
		c0.3-0.3-0.1-0.7,0-1.1c-0.1,0-0.3,0-0.4,0C45.8,171.1,46.3,171.6,46.6,171.8z M23.3,171.5c-0.2,0.3-0.5,0.5-0.5,1
		c0.5-0.2,0,0.5,0.4,0.5c0-0.4,0.7-0.8,0.4-1.2c0,0.2-0.4,0.6-0.5,0.3C23.3,172.2,23.6,171.6,23.3,171.5z M25.7,172.9
		c0.1-0.5,1-1,0.4-1.4C26.1,172,25.1,172.4,25.7,172.9z M20.3,173.2c0.2-0.5,1-1.1,0.8-1.7C20.9,172.1,20.1,172.7,20.3,173.2z
		 M34.3,174c0.2,0.2,0.3,0.6,0.8,0.5c0.7-0.7,1.9-2.1,0.6-2.9C35.3,172.4,34.6,173,34.3,174z M43,174c0.4-0.8,1.2-1.1,1.3-2.2
		C43.6,171.8,42.1,173.4,43,174z M28.1,173.4c-0.1-0.7-0.5-1.1-0.8-1.5C27.4,172.4,27.6,173.1,28.1,173.4z M45.7,173.2
		c0.3-0.5,0.1-1.1-0.4-1.3C44.9,172.4,45.3,173.1,45.7,173.2z M12.5,174.1c0.5-0.5,1.1-1.3,0.9-2C13.1,172.6,12.2,173.4,12.5,174.1z
		 M15.4,176.1c0.3-0.3,0.3-0.9,0.4-1.3c0.3,0,0.3,0.2,0.5,0c0-0.8,1.1-1.8,0.4-2.6C16.2,173.7,15.2,174.5,15.4,176.1z M26.9,173
		c-0.2,0-0.2-0.2-0.4-0.1c-0.6,0.7-0.2,1.6,0.3,2.2c1.4-0.4,0.8-2.3,0.1-2.7C26.6,172.6,26.9,172.6,26.9,173z M30.5,175.3
		c0.9,0,0.8-0.9,1.4-1.2c0,0.8-0.6,1.1-0.8,1.8c0.3,0.1,0.3,0.2,0.1,0.4c0.2,0,0.4,0,0.5,0.1c0.5-0.7,1-1.6,1.5-2.3
		c-0.1-0.4-0.3-0.8-0.6-1c-0.1,0.2-0.6,0.6-0.6,0.4c0.1-0.5,0.4-0.6,0.5-1c-0.2,0-0.2-0.2-0.4-0.1C31.8,173.5,30.8,174.1,30.5,175.3
		z M47.3,173.5c0.3-0.3,0-0.9-0.3-1.2C46.6,172.7,47,173.3,47.3,173.5z M41.5,173.9c0.3-0.4-0.4-0.9-0.6-1.2
		C41.1,173.3,41,173.6,41.5,173.9z M50.3,174.1c0-0.5-0.2-0.9-0.3-1.4c-0.2,0-0.3,0-0.5,0C49.1,173.4,49.7,174.6,50.3,174.1z
		 M38.3,174.9c0.2-0.7-0.7-1.5-1.2-2C37.4,173.6,37.6,174.5,38.3,174.9z M23.7,173.8c-0.1,0.4,0.4,0.3,0.1,0.6
		c0.4-0.1,1-1.1,0.4-1.4C24,173.2,23.9,173.6,23.7,173.8z M43.5,174.9c0.4,0.3,0.2,0.7,0.5,0.9c0.5-0.4,0.7-1.2,1.1-1.7
		c-0.2-0.4-0.1-1-0.6-1C44.1,173.6,43.8,174.3,43.5,174.9z M39.3,174.8c0.1,0.4,0.5,0.5,0.6,0.9c1-0.2,1.4-2,0.3-2.3
		C39.8,173.8,39.5,174.3,39.3,174.8z M55,173.5c0,0.5,0,1,0.5,1c0.4-0.4,0-0.8,0.3-1.2C55.5,173.4,55.2,173.4,55,173.5z M21.2,175.7
		c0.8-0.2,0.8-1.1,1.3-1.5c-0.2-0.1-0.3-0.5-0.5-0.6C21.7,174.2,21.3,174.7,21.2,175.7z M35.4,175.9c0.3,0.4,0.8,0.6,0.9,1.3
		c1.6-0.4,1.4-2.9,0.3-3.7C36.4,174.5,35.4,175,35.4,175.9z M47.7,174.3c0-0.3,0.3-0.6-0.1-0.6C47.4,173.8,47.4,174.3,47.7,174.3z
		 M46.4,175.7c0.3,0.1,0.3-0.3,0.5-0.3c-0.3-0.8-0.4-1-0.8-1.5C45.6,174.4,46.4,175,46.4,175.7z M28.4,174.1
		c0.2,0.6,0.5,1.2,0.9,1.5C29.9,175.2,29.1,173.7,28.4,174.1z M42.2,175.2c0-0.3,0.1-0.7-0.3-0.8C41.8,174.8,41.6,175.1,42.2,175.2z
		 M28.3,177.2c0.3-0.4,0.5-1,0.8-1.2c0-0.6-0.6-0.5-0.6-1.2C27.1,175.2,27.2,176.9,28.3,177.2z M32.1,177.3c0.3,0.2,0.4,0.6,0.6,0.9
		c0.6-0.7,1-1.5,1.5-2.3c-0.2-0.3-0.3-0.7-0.4-1C32.8,175.5,32.8,176.5,32.1,177.3z M48.5,175.8c0-0.4-0.1-0.8-0.4-0.9
		C47.9,175.1,48.2,175.7,48.5,175.8z M24.7,175.9c0.7,0,0.4,1,1,1.1c0.1-0.3,0.4-0.4,0.4-0.8c-0.3-0.3-0.4-0.9-0.6-1.3
		c-0.2,0-0.3,0-0.5,0C25,175.5,24.8,175.7,24.7,175.9z M44.5,176.6c0.2,0.3,0.5,0.6,0.6,1c1-0.3,1.1-1.9,0.3-2.6
		C45.3,175.7,44.7,176,44.5,176.6z M16.4,175.4c0,1.2-0.7,2.6-0.1,3.2c1.1-0.7-0.2-2.5,1.2-2.7c0-0.3,0-0.5,0-0.8
		C16.9,175.1,16.8,175.4,16.4,175.4z M22.3,177.3c0.2-0.7,1.6-1.7,0.5-2.2C22.4,175.7,21.3,176.7,22.3,177.3z M40.9,177.2
		c0.4-0.6,1.2-1,0.6-1.9C40.8,175.5,40.2,176.9,40.9,177.2z M11.6,175.7c0.3,0.9-0.7,1.2-0.1,1.7c0.4-0.6,0.8-1.2,0.8-1.9
		C12.3,175.7,11.7,175.5,11.6,175.7z M39,177.1c0.9-0.1,0.2-1.4-0.4-1.5C38.3,176.1,39,176.5,39,177.1z M42.5,176.2
		c0.2,0.4,0.3,0.8,0.6,1c0.4-0.5,0.1-1.2-0.4-1.4C42.7,176,42.6,176.1,42.5,176.2z M29.7,176.8c0.4,0,0.6-0.4,0.6-0.8
		c-0.2,0-0.2-0.2-0.4-0.1C29.8,176.3,29.5,176.4,29.7,176.8z M46.9,176.8c0.3,0.3,0.3,0.9,0.6,1.2c0.8-0.5,0.1-1.6-0.3-2
		C47.3,176.4,46.9,176.4,46.9,176.8z M37,178.1c0.4,0.3,0.5,0.9,1,1c0.7-0.7,1.1-2.1,0-2.7C37.8,177.2,37,177.2,37,178.1z
		 M19.8,178.8c0.2-0.8,1-1.5,0.9-2.2C19.9,176.9,19.8,178.3,19.8,178.8z M30.6,178.1c0.1-0.3,0.5-0.3,0.5-0.8
		c-0.2-0.3-0.4-0.5-0.6-0.8C30.3,177,29.9,177.9,30.6,178.1z M33.4,179.1c0.4,0.4,0.5,0.9,0.8,1.1c0.7-0.3,1-1.1,1.4-1.7
		c-0.5-0.5-0.3-1.6-1-1.8C34.2,177.6,33.5,178.1,33.4,179.1z M41.3,178c0.5,0.1,0.1,1.1,0.8,1c0-0.6,0.5-0.7,0.6-1.2
		c-0.3-0.3-0.2-0.9-0.6-1C41.8,177.2,41.5,177.5,41.3,178z M24.2,177.3c0-0.1-0.1-0.2-0.1-0.3c-1,0.1-0.7,1.2-1.3,1.5
		c0.9,0.1,0.2,1.1,1.3,1.2c0.4-0.7,1-1.6,0.1-2.2c-0.2,0.2-0.5,1-0.8,0.8C23.6,178,24.1,177.8,24.2,177.3z M25.1,178
		c0-0.5-0.1-0.8-0.5-0.9C24.2,177.5,24.8,177.8,25.1,178z M29,178.5c0.1-0.5,0.6-0.7,0.6-1.3c-0.2,0-0.2-0.2-0.4-0.1
		C29,177.5,28.6,178.1,29,178.5z M26.2,178.2c0.3,0.1,0.6,0.3,0.6,0.8c1-0.2,0.2-1.7-0.5-1.7C26.2,177.5,26.2,177.9,26.2,178.2z
		 M39.8,178.6c0.7,0,0.6-1.1,0.1-1.3C39.6,177.8,39.5,178.1,39.8,178.6z M46.7,179.4c0.3-0.5,0.4-1.8-0.4-1.9
		C45.7,178.2,45.8,179.2,46.7,179.4z M35.9,178.1c0-0.3,0-0.6-0.4-0.5C35.5,177.9,35.6,178.1,35.9,178.1z M44.3,179.3
		c0.6-0.5,0.3-1.5-0.5-1.7C43.2,178.2,43.8,178.9,44.3,179.3z M20.5,180c0.7-0.2,1.7-1.9,0.6-2.3C21.2,178.7,19.9,179,20.5,180z
		 M29.7,179.5c0.2-0.4,0.6-0.6,0.5-1.3c-0.2,0-0.3-0.1-0.4-0.1C29.5,178.3,28.9,179.4,29.7,179.5z M31.5,179.9
		c1.1-0.3,0.9-1.4,0-1.8C31.2,178.8,30.9,179.3,31.5,179.9z M26.4,180.2c0.2-0.5-0.5-1.2-0.8-1.7C25.4,179.2,25.8,179.9,26.4,180.2z
		 M37.1,180.3c0.3-0.6-0.5-1.1-0.6-1.7C36,179.2,36.7,179.8,37.1,180.3z M38.3,179.8c0.1,0.4,0.3,0.6,0.6,0.6
		c0.3-0.5,0.8-0.9,0.5-1.7c-0.2,0-0.3,0-0.5,0C38.6,179,38.8,179.8,38.3,179.8z M42.5,179.9c0.2,0.3,0.6,0.4,0.5,0.9
		c0.9-0.2,0.9-1.8,0-2C43,179.3,42.5,179.4,42.5,179.9z M41.1,180.7c0.5-0.5,0.4-1.6-0.4-1.8C40.1,179.4,40.4,180.3,41.1,180.7z
		 M25.3,181.8c0.9-0.7,0.6-1.9-0.1-2.6C24.3,179.8,24.1,181.9,25.3,181.8z M45.3,181.3c0.2-0.3,0.5-0.6,0.6-0.9
		c-0.3-0.3-0.3-0.9-0.8-1C44.3,179.8,44.7,180.8,45.3,181.3z M16.1,180.3c0.6,3.5,0.8,5.7,1.3,9.3c0.9-0.3,0.4-1.5,0.4-2.1
		c-0.1-2.6-0.3-5.2-0.6-7.9c0-0.1,0-0.2-0.1-0.1C16.7,179.8,16.4,180,16.1,180.3z M27.5,179.8c-0.1,0.5,0.2,0.7,0.5,0.8
		c0.1-0.6,0.4-0.6-0.1-1C27.8,179.7,27.7,179.8,27.5,179.8z M30.8,179.5c-0.9,0.4-0.7,1.2-0.1,1.8c0.6-0.1,0.6-1.9,0-1.3
		C30.7,179.8,30.9,179.7,30.8,179.5z M34.8,181c0.1,0.5,0.5,0.7,0.6,1.3c0.6-0.3,0.9-1,1.3-1.7C36.4,178.9,35.2,179.9,34.8,181z
		 M32.8,182.2c0.5-0.1,0.7-0.6,0.9-1c-0.3-0.5-0.4-1.2-1-1.4C31.9,180.6,32.1,181.4,32.8,182.2z M47.1,180.5
		c0.2,0.1,0.2,0.5,0.5,0.5c0.3-0.3,0.2-0.9-0.1-1.3C47.4,180.1,47.1,180.2,47.1,180.5z M48.7,181c0.4,0.3,0.3,1,0.9,1
		c0.1-0.9,0.2-1.6-0.4-2C49.2,180.5,48.9,180.7,48.7,181z M39.9,182.3c0.8-0.3,0.5-1.8,0-2.2C39.2,180.6,39.1,181.9,39.9,182.3z
		 M22,182.3c0.6-0.4,1.2-1.1,0.9-2.1C22.2,180.6,21,181.9,22,182.3z M27.3,181.8c0.3-0.5,0.3-1-0.4-1.1
		C26.5,181.1,27,181.6,27.3,181.8z M38,181.9c0.2-0.4,0.2-1.1-0.3-1.1C37.4,181.2,37.6,181.7,38,181.9z M41.7,182.7
		c0.4-0.2,0.7-0.6,0.9-1c-0.1-0.4-0.3-0.7-0.6-0.9C41.2,181.2,41.6,181.9,41.7,182.7z M44.5,182.7c0.4-0.5,0.3-1.7-0.4-1.9
		C43.4,181.4,43.7,182.4,44.5,182.7z M31.9,183.2c0.4,0.1,0.5-0.1,0.8-0.3c-0.2-0.6-0.4-1.4-0.9-1.7C31,181.9,31.7,182.5,31.9,183.2
		z M25.7,182.5c0,0.5-0.1,1.1,0.4,1.2c0.3-0.5,0.7-0.9,0.8-1.7c-0.3,0-0.1-0.6-0.5-0.5C26,181.9,26.4,182.3,25.7,182.5z M54.1,185
		c0.3,0.1,0.4,0.2,0.5,0.5c-0.5,0.9-0.6,4-0.4,5.4c0.3-3.3,0.8-6,0.8-9.3C54.1,182.4,55.1,184.4,54.1,185z M27.5,182.6
		c0.3,0,0.4-0.3,0.5-0.6c-0.2,0-0.2-0.2-0.4-0.3C27.7,182.1,27.4,182.1,27.5,182.6z M45.9,182.6c0.1-0.3,0.3-0.4,0.3-0.9
		c-0.1,0-0.3,0-0.4,0C45.8,182.1,45.5,182.4,45.9,182.6z M36.7,183.9c0.2-0.5,0.6-0.9,0.8-1.5c-0.1-0.2-0.1-0.6-0.5-0.5
		C36.5,182.2,35.4,183.5,36.7,183.9z M22.6,183.2c0.3,0.1,0.4-0.5,0.6-0.1c-0.1,0.4-0.3,0.6-0.4,1c0.4-0.1,0.2,0.4,0.4,0.5
		c1.1-0.6,1.1-1.6,0.5-2.7c-0.1,0-0.3,0-0.4,0C23.4,182.6,22.6,182.5,22.6,183.2z M34.2,184.5c0.3-0.5,0.7-0.8,0.9-1.4
		c-0.5-0.2-0.4-1.1-1-1.2C33.2,182.7,33.4,183.8,34.2,184.5z M29.8,183.1c0-0.4,0-1-0.5-0.9C29.3,182.6,29.6,182.9,29.8,183.1z
		 M38.3,183c0.3,0.3,0.4,0.8,0.9,0.9c0.5-0.5,0-1.4-0.5-1.7C38.6,182.5,38.3,182.6,38.3,183z M40.4,183.4c0.1,0.2,0.4,0.3,0.4,0.6
		c0.9-0.1,0.7-1.5,0-1.7C40.8,182.8,40.3,182.7,40.4,183.4z M42.9,184.8c0.5-0.2,0.6-0.8,0.9-1.1C43.3,181.3,41.6,183.6,42.9,184.8z
		 M49.1,183.7c0-0.5-0.1-0.9-0.5-1C48.3,183.1,48.8,183.5,49.1,183.7z M31.6,184.3c-0.1-0.6-0.4-1-0.9-1.3
		C30.8,183.6,31.2,183.9,31.6,184.3z M44.9,183.2c-0.1,0.7,0.3,1.5,0.9,0.8c-0.2-0.4-0.2-0.9-0.6-1
		C45.1,183.1,45.1,183.3,44.9,183.2z M46.4,184c0.6,0.5,0.6,1.4,1.3,1.8c-0.1-0.9,0.4-2.4-0.5-2.8C47,183.3,46.7,183.7,46.4,184z
		 M20.9,184.4c0.2-0.4,0.6-1-0.1-1.2C20.6,183.8,20.4,184.1,20.9,184.4z M37.9,185.8c0.3-0.4,0.6-0.8,0.8-1.3
		c-0.4-0.3-0.2-1.2-0.8-1.3C37.3,184,36.7,185.3,37.9,185.8z M28.5,184.3c0.4,0,0.6-0.2,0.6-0.5c-0.1-0.2-0.2-0.4-0.5-0.4
		C28.5,183.5,28.3,184,28.5,184.3z M30.7,184.4c0-0.5-0.1-0.8-0.5-0.9C30.3,183.9,30.3,184.3,30.7,184.4z M51.4,186.7
		c0.1-0.9,0.3-1.6,0.4-2.4c-0.4-0.1-0.3-0.8-0.9-0.8C50.7,184.7,50.5,185.8,51.4,186.7z M33.8,185.3c0-0.8-0.3-1.4-0.8-1.7
		C32.5,184,33,185.3,33.8,185.3z M34.7,185.4c0.1,0.3,0.3,0.4,0.4,0.6c0.6-0.1,0.6-0.8,1-1.2c-0.2-0.4-0.3-0.8-0.8-0.9
		C35.2,184.6,34.7,184.8,34.7,185.4z M40,185.7C41.3,183.2,38.1,184.7,40,185.7L40,185.7z M23.9,185.5c0.1,0.4,0.7,0.2,0.5,0.8
		c0.7-0.3,1.3-1.7,0.3-2C24.3,184.6,24,184.9,23.9,185.5z M41.5,184.6c0.1,0.7,0.7,0.7,0.6,1.3C43,185.7,42,183.5,41.5,184.6z
		 M21.8,184.5C20.9,185.3,21.4,185.8,21.8,184.5L21.8,184.5z M27.9,185.8c0.2-0.3,0.5-0.5,0.5-1c-0.3,0-0.2-0.3-0.5-0.3
		C27.7,184.8,27.1,185.7,27.9,185.8z M30.1,186.4c0.2-0.2,0.4-0.5,0.5-0.8c-0.5-0.2-0.4-1.1-1-1.1C29.1,185.3,29.3,185.9,30.1,186.4
		z M43.4,185.5c0.1,0.5,0.3,0.9,0.6,1c0.3-0.5,0.6-1,0.9-1.4C44.5,183.9,43.8,185,43.4,185.5z M32.9,186.4c0.3-0.6-0.5-1.1-0.8-1.5
		C31.8,185.5,32.6,186,32.9,186.4z M22.1,186.9c0.5-0.4,0.4-1.4-0.1-1.7C21.5,185.8,21.7,186.5,22.1,186.9z M47.2,186.9
		c-0.1-0.7-0.3-1.3-0.9-1.5C46.3,186.2,46.7,186.6,47.2,186.9z M38.5,187.3c0.9,0,1.5-1.6,0.4-1.8C38.2,186.2,38.4,186.5,38.5,187.3
		z M29.2,187.7c0.7-0.5,0.2-1.7-0.4-2C28.1,186.2,28.5,187.4,29.2,187.7z M35.6,187.1c0.2,0.3,0.4,0.5,0.5,0.9
		c0.6-0.2,0.8-0.9,1.2-1.4c-0.4-0.2-0.3-0.9-0.9-0.9C36.2,186.3,35.7,186.5,35.6,187.1z M40.8,187.7c1.1-0.2,1-1.7,0-2
		C40.2,186.3,40.4,186.9,40.8,187.7z M34.8,186.9c0-0.6-0.2-1-0.6-1.1C34.2,186.4,34.1,186.8,34.8,186.9z M45.3,188.9
		c0.2-0.8,0.3-1.7,0.3-2.7c-0.2,0-0.2-0.2-0.4-0.1C44.3,186.8,44.2,188.3,45.3,188.9z M19.8,187.5c0.4-0.2,1.1-0.8,0.8-1.3
		C20.2,186.5,19.9,186.8,19.8,187.5z M26.9,187.1c0.7-0.1,0.4-0.6,0-0.8C26.9,186.6,26.9,186.8,26.9,187.1z M43.5,187.5
		c-0.1-0.5-0.2-1-0.6-1.2C43,186.7,42.9,187.5,43.5,187.5z M25.6,187.7c0-0.4,0.7-0.8,0.4-1.1C25.8,186.8,25.2,187.3,25.6,187.7z
		 M30.7,188c1.1,0.2,1.1-1.5,0-1.4C30.7,187.2,30.3,187.4,30.7,188z M48.4,187.2c0.4,0,0.5-0.6,0.1-0.6
		C48.4,186.7,48.3,186.9,48.4,187.2z M49.5,189c0.2-0.8,0.6-2.4-0.4-2.2C49.6,187.4,48.3,188.8,49.5,189z M24.1,187.3
		c0-0.2,0-0.3,0-0.5c-0.1,0-0.3,0-0.4,0C23.6,187.2,23.9,187.2,24.1,187.3z M34,188c0.3-0.4-0.2-1-0.6-1C33.1,187.3,33.5,188,34,188
		z M22.5,187.7c0.3,0.1,0.5,0.3,0.1,0.5c0.4,0,0.4,0.3,0.8,0.3c0.4-0.4,0.1-1.2-0.4-1.4C22.9,187.4,22.6,187.4,22.5,187.7z
		 M53.2,188.2c0.4,0.1,0.4-1.3,0-1.1C53.1,187.6,53.5,187.9,53.2,188.2z M39.3,188c0.2,0.4,0.4,0.9,0.9,1.1c0.6-0.6,0.1-1.2-0.1-1.9
		c-0.1,0-0.3,0-0.4,0C39.7,187.6,39.4,187.7,39.3,188z M20.9,189.4c0.2-0.4,0.4-0.8,0.6-1.2c-0.4-0.1-0.2-0.8-0.6-0.9
		C20.4,187.7,20.1,189,20.9,189.4z M25.8,188.5c0.7,0,0.6-0.6,0.9-1C26.3,187.2,25.8,187.8,25.8,188.5z M36.6,189.1
		c0.4,0,0.4,0.5,0.8,0.5c0.1-0.6,0.7-0.8,0.9-1.3c0-0.6-0.3-0.8-0.6-1C37.3,187.9,36.8,188.4,36.6,189.1z M27.4,187.8
		c0.2,0.5,0.5,1,0.9,1.3c0.5-0.6-0.2-1.2-0.5-1.7C27.8,187.7,27.7,187.9,27.4,187.8z M35.9,188.5c-0.4-0.2-0.1-1.1-0.8-1
		C35.1,188,35.8,188.6,35.9,188.5z M41.3,188.7c0.3,0.1,0.2,0.8,0.6,0.8c0.5-0.5,1.3-1.7,0.1-2C41.9,188,41.6,188.3,41.3,188.7z
		 M46.1,188.1c0,0.1,0,0.2,0,0.3c0,0.1,0,0.2,0.1,0.1c0-0.2,0.6-0.8,0-0.8c0,0.2,0.1,0.3,0.1,0.4C46.2,188.1,46.1,188.1,46.1,188.1z
		 M29.7,188.5c0.4,0,0,0.8,0.3,1c0.7-0.2,0.9-0.9,0.4-1.4c-0.2,0-0.3,0-0.5,0C29.8,188.3,29.8,188.4,29.7,188.5z M50.4,189
		c0.2-0.3,0.3-0.6-0.1-0.8C50.4,188.4,50.1,189,50.4,189z M34.8,189.9c0.3,0.1,0.3-0.3,0.5-0.3c-0.1-0.5-0.3-1-0.8-1.1
		C34.1,188.9,34.6,189.4,34.8,189.9z M32.4,190.5c0.5-0.7,1.1-1.5,0-1.9C31.6,188.9,31.6,190.2,32.4,190.5z M45.9,190.3
		c0.4,0.7,0.6,1.7,1.3,2.2c0.2-0.9,0.9-3.2-0.4-3.7C46.6,189.3,46.2,189.7,45.9,190.3z M27.4,190.3c0.5-0.3,0.5-1.3-0.1-1.4
		C26.9,189.6,26.9,189.7,27.4,190.3z M38.3,191.5c0.7-0.2,0.9-1.1,1.3-1.7c-0.2-0.4-0.4-0.8-0.8-1C38.1,189.6,37.3,190.6,38.3,191.5
		z M25.2,189.7c0.5,0.1,0.4-0.7,0.1-0.8C25.1,189.3,25,189.4,25.2,189.7z M21.1,190.3c0.2,0.1,0.2,0.5,0.5,0.5
		c0.7-0.2,0.9-1.4,0.1-1.7C21.5,189.5,21.2,189.8,21.1,190.3z M40.6,189.9c0.2,0.3,0.3,0.8,0.8,0.9c0.3-0.5,0-1.3-0.4-1.5
		C40.9,189.5,40.5,189.5,40.6,189.9z M28.7,189.9c0.4,0.2,0.2,0.9,0.8,0.9c0.1-0.2,0.1-0.3,0.3-0.4c-0.2-0.4-0.3-0.8-0.8-0.9
		C29,189.7,28.7,189.7,28.7,189.9z M43.5,192.4c0.3-0.6,0.8-1,1-1.7c-0.4-0.3-0.4-1-0.9-1.2C43.6,190.2,42.7,191.9,43.5,192.4z
		 M50.1,191c0.2,0.3,0.2,0.8,0.6,0.9c0.2-0.4,0.7-1.8,0.1-2.2C50.8,190.3,50.3,190.5,50.1,191z M31.7,191.7c0.3-0.5,0-1.4-0.4-1.7
		C30.8,190.5,31.2,191.5,31.7,191.7z M24.6,190.7c0.3,0,0.4-0.2,0.4-0.5C24.6,190.1,24.3,190.4,24.6,190.7z M32.8,191.3
		c0.2,0.4,0.3,0.9,0.8,1c0.6-0.6,0.9-1.8-0.1-2.2C33.3,190.6,33,190.9,32.8,191.3z M35.4,190.8c0.2,0.3,0.4,0.5,0.6,0.6
		c0.5-0.4,0-1.1-0.5-1.2C35.6,190.5,35.4,190.5,35.4,190.8z M26.6,191.4c0.2-0.2,0.1-0.9-0.4-0.8C26.2,191,26.2,191.5,26.6,191.4z
		 M39,192.2c0.7-0.2,0.7,0,1.3,0.3c0-0.4,0.2-0.7,0.4-0.9c-0.2-0.2-0.4-0.3-0.4-0.8C39.4,190.8,39.5,191.8,39,192.2z M28.4,192.2
		c0.7-0.1,0.5-1.1,0-1.3C28,191.3,28.3,191.5,28.4,192.2z M42.3,192.4c0-0.6,0.1-1.3-0.5-1.3C41.5,191.7,42,192.2,42.3,192.4z
		 M20.5,192.2c0.8,0.2,0.2-1.2,0-0.8C20.8,191.5,20.4,192,20.5,192.2z M24.1,192.1c-0.1-0.4,0.3-0.2,0.3-0.6c-0.2,0-0.2-0.2-0.4-0.1
		C24,191.5,23.8,192,24.1,192.1z M22.4,192.6c0.5-0.1,0.7-0.6,0.8-1.1C22.6,191.5,22.3,191.9,22.4,192.6z M30.5,193.2
		c1-0.1,0.6-1.5-0.1-1.7C29.6,192.1,30.1,192.5,30.5,193.2z M44.8,194.6c-0.2,0.2-0.2,0.5,0.1,0.5c0-1.3,0.5-2.8,0-3.5
		C44.2,192.5,43.4,193.9,44.8,194.6z M32.9,193.3c0.4-0.6-0.1-1.2-0.5-1.4C31.9,192.4,32.3,193.2,32.9,193.3z M33.8,193.2
		c0.3,0.2,0.3,0.8,0.8,0.8c0.3-0.4,0.5-0.9,0.8-1.3C34.9,191.4,34.1,192.3,33.8,193.2z M37.1,193.5c0.4,0.1,0.3-0.3,0.5-0.3
		c-0.1-0.6-0.4-1.1-0.9-1.3C36.1,192.5,37.1,192.8,37.1,193.5z M51.9,194c-0.2-0.9,0.4-1.4-0.1-1.8C51.7,192.8,51.4,193.7,51.9,194z
		 M5,198.1c0-0.2,0-0.4-0.1-0.4c-0.5,0.7-0.3,1.3-0.4,2.1c-0.1,1.8-1.7,3.5-1.3,4.9c1.7-3.6,2.9-8.5,4-12.3
		C6.1,194.2,5.6,196.3,5,198.1z M27.9,193.6c0.2-0.6,0.3-1.1-0.4-1.3C27.3,192.7,27.3,193.6,27.9,193.6z M39.8,195
		c0.8-0.2,0.8,0.9,1.4,1.3c1-0.9,1.3-3.2-0.1-3.8C40.8,193.4,39.7,193.6,39.8,195z M48.2,194.9c0.9-0.1,1.1-1.8,0.6-2.3
		C48.4,193.3,47.9,193.9,48.2,194.9z M24.8,193.6c0.5,0.1,0.7-0.7,0.3-0.8C25.1,193.2,24.8,193.2,24.8,193.6z M30.2,194.1
		c0-0.6-0.2-1.2-0.8-1.3C29.2,193.4,29.6,194,30.2,194.1z M45.8,195.5c0.3-0.4,0.6-0.9,0.8-1.4c-0.3-0.3-0.3-0.9-0.8-1
		C45.8,193.8,45.3,194.9,45.8,195.5z M21.2,194.7c0.4-0.2,0.7-0.7,0.8-1.3c-0.2,0-0.1-0.3-0.4-0.3C21.5,193.8,20.8,194.4,21.2,194.7
		z M31.1,194.2c0.2,0.3,0.3,0.6,0.8,0.6c0.1-0.3,0.4-0.5,0.4-0.9c-0.3-0.2-0.3-0.6-0.8-0.6C31.5,193.8,31.1,193.8,31.1,194.2z
		 M23.7,194.4c0.3,0,0.7-0.7,0.4-0.9C23.9,193.7,23.5,193.8,23.7,194.4z M26.7,193.6c0.1,0.5,0.5,0.6,0.6,1
		C27.5,194,27.1,193.3,26.7,193.6z M34.8,194.9c0.2,0.5,0.4,1,0.9,1.3c0.4-0.9,1.3-2.1,0-2.7C35.4,193.9,35,194.3,34.8,194.9z
		 M25.5,194.7c0.4,0,0.8-0.9,0.3-1C25.8,194.2,25.1,194.4,25.5,194.7z M33.9,194.7c0-0.5-0.1-0.9-0.5-1
		C33.1,194.1,33.4,194.7,33.9,194.7z M37.6,194.5c0.4,0.1,0.4,0.6,0.9,0.6c0.1-0.7,0-1.3-0.5-1.4C38,194.1,37.7,194.2,37.6,194.5z
		 M29,193.8c-0.5,0-0.7,0.4-0.6,1c0.3,0.5,0.8,0.3,0.5,0.9c0.4-0.1,0.4-0.5,0.6-0.8c-0.2-0.4-0.4,0.3-0.5,0
		C29.5,194.7,29.1,194.2,29,193.8z M44.6,195.9c-0.5-0.5-0.5-1.6-1.3-1.8C43.6,194.8,44.2,195.8,44.6,195.9z M50.1,197.8
		c0.3-0.8,1-3.2,0-3.7C49.3,195,49.1,197,50.1,197.8z M21.9,195.5c0-0.4,0.7-0.7,0.4-1C22.2,194.8,21.5,195.2,21.9,195.5z
		 M25.8,195.4c0.3,0.1,0.2,0.6,0.5,0.6c0.2-0.3,0.5-0.5,0.4-1.1c-0.3,0-0.3-0.3-0.5-0.4C26.4,195.1,25.9,195,25.8,195.4z
		 M31.2,195.8c-0.1-0.4-0.3-0.8-0.6-1C30.7,195.1,30.9,195.5,31.2,195.8z M32.5,196.7c0.8-0.1,1-1.6,0.1-1.8
		C32.3,195.5,31.9,196.1,32.5,196.7z M24.6,195.3c-0.1,0.3,0.2,0.3,0.1,0.6c0.4,0,0.5-0.3,0.6-0.6C25,195.2,24.8,195,24.6,195.3z
		 M28.5,195.8c-0.3-0.1-0.4-1-0.8-0.5C28.1,195.2,28.2,196.2,28.5,195.8z M43.1,199.5c0.6-0.5,1-1.2,1.3-2c-0.5-0.8-0.8-1.8-1.7-2.3
		C42.7,196.7,42,198.4,43.1,199.5z M45.9,197c0.2,0.2,0.4,0.6,0.6,0.8c0.5-0.7,0.8-2.2,0.4-2.7C46.7,195.9,46.1,196.3,45.9,197z
		 M22.3,196.7c0.5-0.1,1-0.8,0.6-1.3C22.5,195.8,22.2,196.2,22.3,196.7z M36.7,197.8c0.3-0.6,0.7-1,1-1.5
		C37.2,194.1,34.9,197.2,36.7,197.8z M35.1,196.7c-0.1-0.6-0.2-1-0.8-1.2C34.3,196.1,34.8,196.3,35.1,196.7z M25.8,197.2
		c0.3-0.6-0.1-1.1-0.4-1.5C25.2,196.1,25,197,25.8,197.2z M29.6,196.5c0.3,0.2,0.4,0.7,0.6,0.9c0.2-0.3,0.4-0.6,0.5-1
		c-0.4,0-0.3-0.7-0.8-0.6C29.8,196,29.6,196.1,29.6,196.5z M26.9,197c0.1,0.2,0.3,0.4,0.5,0.5c0.3-0.3,0.5-0.5,0.5-1
		c-0.2-0.2-0.3-0.5-0.6-0.5C27.4,196.7,26.9,196.6,26.9,197z M40.3,197.8c0.1-0.2,0.1-0.3,0.3-0.4c-0.3-0.5-0.5-1.1-1.1-1.3
		C39.3,197.1,39.5,197.8,40.3,197.8z M33.9,198.7c0.7-0.7,0.8-2-0.4-2.2C33.1,197.4,33.1,198.2,33.9,198.7z M23.4,198.1
		c0.6,0,0.8-0.9,0.3-1.2C23.6,197.3,23,197.6,23.4,198.1z M37.1,198.7c0.3,0.7,0.7,1.2,1.2,1.8c0.1-1.1,0.3-2.4,0.1-3.5
		c0-0.1-0.1-0.1-0.3-0.1C37.8,197.5,37.4,198.1,37.1,198.7z M48,200.4c0.9-0.6,1.1-3,0.1-3.5C47.9,198.4,47.9,198.8,48,200.4z
		 M25.1,198.2c0.3-0.3,0-0.8-0.3-0.9C24.6,197.6,24.9,198,25.1,198.2z M30.6,198.2c0.2,0.3,0.5,0.6,0.8,0.8c0.5-0.5,0.4-1.4-0.3-1.7
		C31,197.6,30.6,197.8,30.6,198.2z M26.9,198.6c0-0.2,0-0.3,0.3-0.3c-0.1-0.4-0.4-0.6-0.8-0.8C26.2,198.2,26.7,198.3,26.9,198.6z
		 M28,199c0.3,0.2,0.3,0.7,0.8,0.8c0.5-0.6,0.7-1.5-0.1-1.9C28.5,198.3,28.1,198.5,28,199z M24.4,199.2c0.4-0.4,0.5-0.9-0.1-1.1
		C24,198.4,23.9,199.1,24.4,199.2z M40.7,198.6c0.1,0.9,0.6,1.3,1,1.8c0.1-1.1-0.1-1.8-0.8-2.2C40.9,198.4,40.6,198.3,40.7,198.6z
		 M35.1,200.5c0.3-0.4,0.5-0.8,0.8-1.3c-0.4-0.2-0.4-0.8-0.9-0.9C34.2,199.1,34.1,199.9,35.1,200.5z M26.1,199.7
		c0.3-0.4,0.2-0.9-0.4-1C25.4,199.2,25.9,199.4,26.1,199.7z M39.1,199.6c0.1-0.2,0.8-0.8,0.1-0.9C39.4,199.1,38.8,199.4,39.1,199.6z
		 M45.3,200.8c-0.2-0.1-0.7,0.2-0.6-0.1c0.3-0.7,0.3-1.6,0-1.9c-0.5,0.4-0.6,1.1-1,1.8c0.4,0.5,0.7,0.5,1,0.9
		c0.1-0.3,0.3-0.5,0.8-0.4c0,1-0.2,3,0.9,3.3c0.6-0.7,0.2-1.6,0.8-2.4c-0.5-0.5-0.5-1.5-1-1.9c-0.2,0.2-0.4,0.4-0.5,0.6
		c0-0.2-0.5-0.5-0.5-0.3C45.2,200.4,45.3,200.5,45.3,200.8z M21,199.5c0-0.3,0-0.6-0.3-0.6C20.7,199.1,20.5,199.4,21,199.5z
		 M21.9,199.7c0.3-0.1,0.3,0.3,0.5,0.3c0.4-0.2,0.3-0.9-0.1-1C22.1,199.2,21.9,199.3,21.9,199.7z M32,201.1c0.5-0.3,0.8-0.8,1-1.3
		c-0.3-0.2-0.3-0.7-0.8-0.8c-0.2,0.3-0.6,0.4-0.5,1C32.1,200.6,32.4,200.6,32,201.1z M28.3,200.5c0-0.6-0.3-0.8-0.6-1
		C27.7,200,28,200.2,28.3,200.5z M29.8,201.5c0.1-0.5,0.5-0.7,0.6-1.3c-0.2-0.2-0.3-0.6-0.6-0.8C29.3,199.9,28.8,201.2,29.8,201.5z
		 M24.8,200.4c0.4,0.1,0.6,0.3,0.4,0.6c0.6,0,0.7-1.4,0-1.4C25.2,199.9,24.8,200,24.8,200.4z M23.8,200.2c0-0.3,0-0.5-0.4-0.5
		C23.4,200.1,23.5,200.3,23.8,200.2z M40.3,203.8c0.1-1,1.3-1.1,1.3-2c0-0.7-1.2-1.4-1.7-2C38.9,201.2,38.9,202.7,40.3,203.8z
		 M35.4,201.5c0.7,0.5,0.7,1.6,1.5,1.9c0-0.6,0.5-0.8,0.6-1.3c-0.4-0.8-0.8-1.5-1.4-2C35.9,200.5,35.6,201,35.4,201.5z M49.3,201.8
		c0.2-0.5,1.4-1.2,0.6-1.7C49.8,200.9,48.8,201.1,49.3,201.8z M23.4,201.1c0-0.5-0.1-0.9-0.5-0.9C22.7,200.7,22.9,201.1,23.4,201.1z
		 M20.9,201.1c0.5,0.2,0.7-0.5,0.4-0.6C21.2,200.8,20.7,200.6,20.9,201.1z M27.4,201.9c0.6-0.5,0.2-1-0.3-1.4
		C26.7,200.8,26.9,201.8,27.4,201.9z M52.3,201.6c0.2-0.2,0-0.9-0.1-1.2C52.2,200.9,51.8,201.5,52.3,201.6z M33.8,202.8
		c0-0.5,0.5-0.6,0.5-1.2c-0.4-0.3-0.3-1-0.9-1C32.7,201.1,33,202.7,33.8,202.8z M30.2,202.4c0.1,0.3,0.5,0.3,0.5,0.8
		c0.7-0.1,0.7-0.9,1-1.4c-0.3-0.2-0.4-0.7-0.9-0.8C30.8,201.6,30.2,201.8,30.2,202.4z M24.3,201.3c0,0.3,0.2,0.5,0.1,0.9
		c-0.3,0-0.1-0.4-0.4-0.4c-0.2,0.2-0.1,0.9,0.3,1c0.2-0.4,0.3-0.8,0.6-1C24.9,201.4,24.6,201,24.3,201.3z M29.4,202.2
		c-0.1-0.5-0.3-0.8-0.6-1C28.6,201.8,29.1,201.9,29.4,202.2z M42.6,201.8c0.1,0.4,0.3,0.7,0.6,0.8c0.5-0.3,0.2-1.1-0.3-1.2
		C42.9,201.6,42.8,201.7,42.6,201.8z M26.9,202.8c0.3-0.4-0.1-1-0.4-1.2C26,202,26.6,202.4,26.9,202.8z M27.8,203
		c0.5-0.1,0.3,0.5,0.6,0.5c0.1-0.3,0.4-0.4,0.5-0.8c-0.4-0.1-0.3-0.7-0.8-0.6C28,202.4,27.8,202.7,27.8,203z M35.6,205.7
		c0-0.7,0.6-0.8,0.6-1.4c-0.6-0.6-0.8-1.5-1.5-1.9C33.6,203.6,34.9,204.8,35.6,205.7z M31.3,204.2c0.4,0.1,0.2,0.9,0.8,0.9
		C34.1,204.1,31.9,201.4,31.3,204.2z M23.3,204.5c0.1-0.5,0.7-0.5,0.5-1.3c-0.3,0-0.2-0.4-0.5-0.3C23.3,203.3,22.8,204,23.3,204.5z
		 M25.5,203.2c0.1,0.4,0.4,0.6,0.6,0.9c0-0.1,0.1-0.2,0.2-0.3c0-0.5-0.3-0.7-0.6-0.9c-0.3,0.2,0.2,0.3-0.1,0.4
		C25.6,203.2,25.6,203.2,25.5,203.2z M30.5,203.7c0.1-0.4-0.4-0.9-0.6-0.6C30.2,203.1,29.9,203.8,30.5,203.7z M37.4,204.3
		c0.2,0.5,0.5,1.1,1,1.3c0-1.1,0-1.5,0-2.7c-0.1,0-0.3,0-0.4,0C37.9,203.5,37.4,203.7,37.4,204.3z M49.9,203.7
		c0.2-0.2,0.1-0.6,0.3-0.8C49.5,202.8,49.6,203.6,49.9,203.7z M43.8,203.4c0.2,0.5,0.4,1,0.8,1.3c0.3-0.5,0.1-1.6-0.5-1.7
		C44,203.3,43.9,203.4,43.8,203.4z M27.3,203.7c0.2,0.2,0.5,0.4,0.8,0.5c0.1-0.5-0.3-0.5-0.3-0.9C27.4,203.3,27.5,203.6,27.3,203.7z
		 M42.5,203.9c0.2-0.2,0.2-0.7-0.3-0.6C42.2,203.6,42.2,203.9,42.5,203.9z M48,204.1c0-0.2,0-0.3,0.3-0.3c-0.1-0.2,0-0.5-0.4-0.5
		C47.7,203.5,47.6,204.1,48,204.1z M40.7,204.7c0.1,0.4,0.3,0.8,0.9,0.8c0-0.8-0.2-1.2,0-1.9C41.2,203.8,41,204.4,40.7,204.7z
		 M29.3,205.4c0.9,0,0.8-1.7-0.1-1.7C28.7,204.3,29.1,204.7,29.3,205.4z M25.7,204.5c-0.5-0.2,0.1-0.6-0.5-0.6
		c-0.1,0.3,0.2,0.3,0.1,0.6C25.6,204.4,25.7,204.7,25.7,204.5z M52.2,208c0.1-1.7,0.1-2.3,0-4.1C51.4,204.9,51.3,207.2,52.2,208z
		 M26.9,205.7c-0.3-0.1-0.5-0.7-0.6-0.1c0.3,0.2,0.2,0.6,0.8,0.5c0-0.5,0.5-0.5,0.5-1c-0.2-0.3-0.2-0.7-0.6-0.8
		C26.4,204.9,26.9,205.5,26.9,205.7z M32.6,206c0.3,0.7,0.9,1,1.1,1.8c0.7-0.1,0.7-0.9,1.2-1.3c-0.4-0.7-0.8-1.5-1.4-2
		C33.2,205,32.7,205.3,32.6,206z M43.5,208.8c0.4-0.8,1-1.3,1.1-2.3c-0.6-0.6-0.8-1.6-1.5-2C42,205.6,41.9,208.1,43.5,208.8z
		 M24.1,206.4c0.1-0.5,0.3,0,0.5,0.1c0.2-0.4,0.6-0.6,0.6-1.2C24.7,204.1,23.7,205.9,24.1,206.4z M48.7,206.8c0.4,0,0.5-0.4,0.9-0.5
		c-0.2-0.5-0.2-1.1-0.8-1.3C48.7,205.4,48.8,206.1,48.7,206.8z M35.9,206.5c0.4,0.5,0.8,1,1.2,1.7c1.5-0.6,0.7-2.3-0.4-2.9
		C36.6,205.7,36.1,205.9,35.9,206.5z M31.3,206.4c-0.1-1.5-2.2-0.4-0.8,1C31.1,207.3,31.4,206.8,31.3,206.4z M47.7,207.2
		c0.6-0.1,0.5-1.5,0.3-1.5C47.9,206.1,47.4,206.6,47.7,207.2z M39.3,206.6c-0.1,0.7,0.3,0.9,0.5,1.3c1.2-0.2,1-2.3,0-2
		C40.1,206.1,39.4,206.4,39.3,206.6z M27.4,206.6c-0.1,0.7,0.2,0.9,0.5,1.2c0.6,0,0.5-0.7,0.9-0.9c-0.2-0.4-0.4-0.9-0.9-1
		C27.5,206.2,27.7,207.2,27.4,206.6z M21.2,207.5c0.3,0.3,0.3-0.2,0.6-0.2c0-0.5,0-0.9-0.3-1.2C21.3,206.4,21.3,207,21.2,207.5z
		 M45.8,206.9c0.2,0,0.3,0.1,0.5,0.1c0.3-0.3,0-0.5,0-0.9C45.9,206.1,45.7,206.4,45.8,206.9z M25.1,207.5c0.1,0.3,0.5,0.4,0.6,0.6
		c0.2-0.4,0.5-0.8,0.6-1.3c-0.2-0.3-0.2-0.6-0.6-0.6C25.5,206.7,25.3,207.1,25.1,207.5z M3.3,219.4c0.7-0.1,0.1-0.5,0.1-0.8
		c0.3-3.5,1.1-7.7,0.4-11.6C2.8,210.5,3.4,215.5,3.3,219.4z M34.4,208.8c0.5,0.3,0.1,0.5-0.1,0.8c0.2,0.3,0.5,0.1,0.6-0.1
		c0,0.1,0.1,0.2,0.1,0.3c-0.4,0.2,0.4,0.7,0.8,0.9c0.4-0.5,0.6-1.1,1-1.5c-0.6-0.5-0.9-1.4-1.4-1.9C35,207.6,34.7,208.2,34.4,208.8z
		 M31.2,208.3c0.6,0.5,0.6,1.5,1.4,1.8c0.2-0.4,0.6-0.6,0.5-1.3c-0.5-0.5-0.7-1.2-1.3-1.5c-0.1,0-0.2,0-0.3,0
		C31.7,207.8,31.2,207.8,31.2,208.3z M29.4,209.6c0.3-0.3,0.6-0.6,0.8-1c-0.3-0.4-0.6-0.9-1-1.2C28.6,208.1,28.3,209.3,29.4,209.6z
		 M40.6,208.9c0.2,0.5,0.5,1,0.9,1.3c-0.1-0.9,0.3-2.3-0.3-2.8C41.1,208.1,40.6,208.3,40.6,208.9z M26.6,210c0.6-0.2,0.7-0.8,1-1.3
		c-0.2-0.4-0.4-0.8-0.8-1C26.2,208.5,26.2,209.4,26.6,210z M49,209.1c0.3,0,0.2,0.3,0.5,0.4c0.1-0.4,0.4-1.1,0.1-1.4
		C49.4,208.4,49.2,208.7,49,209.1z M38.5,209.8c0-0.5,0-0.9,0-1.4c-0.2,0-0.3,0-0.5,0C37.8,209.1,37.9,209.6,38.5,209.8z M44.1,210
		c0.5,0,1-1.2,0.4-1.4C44.3,208.9,43.6,209.5,44.1,210z M2.1,209.3c-0.4-0.1,0.3-0.2,0.1-0.5c-0.2,0-0.2-0.2-0.4-0.1
		C1.8,209,1.8,209.8,2.1,209.3z M21.5,211.5c0.8-0.6,1.3-1.7,0.6-2.6C21.4,209.5,21.3,210.7,21.5,211.5z M45.7,210.2
		c0-0.2,0.1-0.3,0.3-0.4c0.2,0.2-0.1,0.3,0,0.8c-0.1,0-0.3,0-0.4,0c-0.1,0.4,0,1.1,0.1,1.7c1-0.2,0.6-1.8,0.9-2.7
		c-0.6,0,0.2-0.7-0.5-0.6C45.9,209.3,45.1,209.8,45.7,210.2z M42.1,209.2c0.2,0.5-0.1,0.8,0.4,1c0.3-0.3,0.2-0.7,0.1-1.2
		C42.4,209.1,42.2,209.1,42.1,209.2z M28.3,211.8c0.3-0.5,0.7-0.8,0.6-1.5c-0.4-0.2-0.3-0.9-0.9-0.9C27.5,210.1,27,211.4,28.3,211.8
		z M31.5,212.1c1.2-0.8-0.3-2.2-0.9-2.8C29.4,210.4,30.3,211.7,31.5,212.1z M24.2,210.9c0.2-0.4,0-0.8-0.4-1
		C23.6,210.2,23.6,210.8,24.2,210.9z M40.7,213.2c0.1-0.6,0.6-0.8,0.6-1.4c-0.4-0.7-0.8-1.4-1.4-1.9
		C38.6,210.9,39.9,212.4,40.7,213.2z M33.1,211.2c0.4,0.1,0.6,1.3,1,1.8c0.5-0.2,0.8-0.8,0.9-1.4c-0.5-0.6-0.7-1.4-1.4-1.7
		C33.5,210.4,33,210.5,33.1,211.2z M36.2,211.5c0.4,0.5,0.6,1.2,1.1,1.4c0.1-0.8,0.6-1.3,0.9-1.9c-0.5-0.2-0.5-0.9-1-1
		C37,210.5,36.5,210.9,36.2,211.5z M51.8,213.3c-0.2,0.1-0.7,0-0.6,0.4c0.5,0.1,0.6-0.1,0.9-0.3c-0.1-1.2,0.3-3.1-0.4-3.5
		C51.6,211.2,51.5,212.1,51.8,213.3z M49.4,211.8c0-0.1,0-0.2,0-0.3c0.1,0,0.1,0,0.1-0.1c-0.7,0-0.4-0.9-1-1
		C48.7,210.9,49,211.4,49.4,211.8z M42.5,212c0.3-0.1,0.3,0.3,0.5,0.3c0.2-0.6,1.3-1.4,0.3-1.7C43.1,211.2,42.4,211.2,42.5,212z
		 M2.4,219.6c-0.2-2.5,0.4-6-0.6-8.7C2,214,1.8,216.8,2.4,219.6z M23.7,211.6c0-0.2,0-0.3,0-0.5c-0.2,0-0.3,0-0.5,0
		C23.2,211.4,23.2,211.7,23.7,211.6z M28.5,212.6c0.4,0.7,1.1,1.1,1.4,1.9c0.5-0.3,0.7-0.9,1-1.4c-0.7-0.5-0.8-1.5-1.5-1.9
		C28.9,211.5,28.9,212.3,28.5,212.6z M24.3,212.1c0.3,0.2,0.3,0.8,0.8,0.9c0.7-0.6,0.3-1.1-0.3-1.7
		C24.6,211.6,24.4,211.8,24.3,212.1z M47.6,214.3c-0.2-1.2,0.6-2.3-0.1-2.9C47.6,212.5,46.8,213.8,47.6,214.3z M43.5,213.3
		c0.4,0.3,0.5,1,1.1,1.1c0.4-0.6,0.2-2.4-0.5-2.7C44,212.4,43.5,212.6,43.5,213.3z M31.7,213.3c0.8,0.2,1,1.1,1.5,1.5
		c0.1-0.4,0.4-0.6,0.5-1c-0.5-0.6-0.6-1.4-1.4-1.7C32.2,212.5,32,213,31.7,213.3z M21.6,213.7c0.3,0.1,0.4,0.4,0.8,0.4
		c0.2-0.5,0.5-0.9,0.4-1.7C21.8,212.4,21.7,212.9,21.6,213.7z M37.7,213.7c0.2,0.4,0.5,0.7,0.8,1c0.1-0.8,0.1-1.2,0.1-2.3
		c-0.1,0-0.3,0-0.4,0C38.3,213.1,37.8,213.1,37.7,213.7z M48.2,213c0.4,0,0.3-0.4,0.5-0.5c-0.2,0-0.3-0.1-0.4-0.1
		C48.5,212.8,48.2,212.7,48.2,213z M34.8,214.1c0.4,0.2,0.5,0.6,0.8,1c1.3-0.3,0.8-2.1,0-2.6C35.2,213,35.1,213.6,34.8,214.1z
		 M39.3,214.7c0.4-0.2,0.6-0.6,0.8-1c-0.3-0.2-0.3-0.6-0.8-0.6C39.3,213.8,39.2,214,39.3,214.7z M25.3,214.6
		c0.4,0.4,0.1,0.6,0.6,0.9c0.3-0.4,0.6-0.8,0.8-1.4c-0.4,0-0.4-0.5-0.5-0.8c-0.2,0-0.4,0-0.6,0C25.6,213.8,25.3,214,25.3,214.6z
		 M28,213.9c0.7,0,0.1,0.1,0.1,0.5c0.7,0.2,0.7,1.1,1.4,1.4c-0.2-1.1-0.9-1.7-1.4-2.6C28,213.4,28,213.6,28,213.9z M23.8,215.2
		c0.5-0.4,0.3-1.1-0.3-1.4C23.8,214.2,23.2,214.9,23.8,215.2z M42.1,215.5c0.4,0.4,0.7,1.1,1.2,1.4c0.3-0.4,0.7-0.8,0.8-1.4
		c-0.3-0.6-0.7-1.1-1.2-1.5C42.5,214.3,42.4,214.8,42.1,215.5z M30.6,215.5c0.2,0.6,0.5,1.2,1,1.5c0.4-0.3,0.6-0.8,1-1.2
		c-0.4-0.6-0.7-1.4-1.3-1.8C31.1,214.6,30.8,214.9,30.6,215.5z M46.3,216.2c-0.1-1,0.2-1.7-0.5-2.2
		C45.7,214.8,45.4,216.2,46.3,216.2z M23.2,215.5c-0.1-0.5-0.2-1-0.3-0.9C22.7,214.8,22.9,215.4,23.2,215.5z M33.5,216
		c0.6,0.4,0.8,0.7,0.8,1.2c0.6,0,0.6-0.7,1-0.9c-0.3-0.6-0.5-1.4-1.2-1.7C34.2,215.3,33.6,215.4,33.5,216z M39.4,216.4
		c0.2,0.2,0.3,0.4,0.6,0.5c0.3-0.6,0.9-0.9,1-1.7c-0.1-0.2-0.2-0.6-0.6-0.5C40.2,215.4,39.8,215.9,39.4,216.4z M36.2,216
		c0.4,0.6,0.7,1.3,1.3,1.7c0.3-0.4,0.7-0.6,0.9-1.2c-0.6-0.4-0.6-1.4-1.4-1.7C36.8,215.3,36.4,215.6,36.2,216z M26.4,216.5
		c0.4,0.8,1.1,1.4,1.4,1.9c0.5-0.2,0.5-0.9,0.9-1.2c-0.7-0.6-0.7-1.7-1.5-2.2C27,215.7,26.4,215.8,26.4,216.5z M24.3,215.6
		c-0.3,0.8-0.6,1.7,0.3,2.2c0.7-0.6,1-1.6,0.3-2.3C24.8,215.7,24.5,215.6,24.3,215.6z M31.1,218.1c0.1-0.6-0.6-1.4-1-1.9
		C29.6,216.8,30.6,217.7,31.1,218.1z M44.6,218.9c0.6-0.1,0.4-2.1-0.1-2.6C43.6,216.6,43.8,219.1,44.6,218.9z M49.9,217.4
		c0.2-0.2,0.2-0.9-0.1-1C49.7,216.6,49.4,217.2,49.9,217.4z M40.4,217.6c0.4,0.2,0.6,1.3,1,1c-0.5-0.8,0.4-1.8-0.3-2.2
		C41,217,40.7,217.3,40.4,217.6z M33.1,219.3c1.2-0.4,1.1-2.4-0.3-2.6C32.4,217.6,32.5,218.1,33.1,219.3z M36.5,219.6
		c0.2-0.3,0.4-0.6,0.5-1c-0.5-0.5-0.5-1.5-1.3-1.8C34.7,217.6,35.3,219,36.5,219.6z M50.9,219.7c0.6-0.2,0.5,0.4,1,0.3
		c0.2-1.1,0.3-2.6-0.8-3.2C51,217.7,51,218.7,50.9,219.7z M42.1,218.3c0.5,0,0.5-0.4,0.5-0.9c-0.3,0-0.2-0.4-0.5-0.3
		C42.2,217.6,41.9,218.1,42.1,218.3z M25.1,218.7c0.7,0.7,1,1.5,1.5,2.1c1.1-1.2,0.1-2.5-0.6-3.5C25.6,217.6,25.2,218,25.1,218.7z
		 M47.8,218.1c0.5,0.1,0.4-0.4,0.4-0.8c-0.2,0-0.4,0-0.4,0.1C48.2,217.6,47.7,217.8,47.8,218.1z M38,218.3c0,0.2,0,0.9,0.6,0.9
		c-0.1-0.4,0.2-1.1-0.1-1.3C38.6,218.2,38,218,38,218.3z M28.3,219.4c0.6,0.2,0.6,1,1.2,1.2c1-0.8,0-2-0.1-2.6c-0.1,0-0.3,0-0.4,0
		C28.9,218.7,28.4,218.9,28.3,219.4z M43.1,221.1c0.2-0.6,0.7-0.9,0.9-1.5c-0.4-0.2-0.3-0.9-0.8-1C42.7,219.2,41.8,220.6,43.1,221.1
		z M40.3,221.7c0.1-0.6,0.6-0.9,0.8-1.5c-0.3-0.6-0.7-1.1-1.2-1.5C38.8,219.5,39.1,221.1,40.3,221.7z M48,220.6
		c0.3-0.4,0.6-1.5,0.1-1.9C47.9,219,47.4,220.2,48,220.6z M22.5,220.8c0.9-0.2,0.9-1.9,0.1-1.8C22.6,219.5,22.2,220.1,22.5,220.8z
		 M33.8,220.4c0.2,0.5,0.7,0.8,0.9,1.3c0.6-0.3,0.8-1,1-1.5c-0.4-0.5-0.5-1.2-1.2-1.3C34.3,219.5,34,219.9,33.8,220.4z M36.7,220.6
		c0.3,0,0.4,0.4,0.8,0.4c0.5-0.4,0.7-1.2,0-1.5C37.2,219.8,36.8,220.1,36.7,220.6z M49.5,221.2c0-0.5,0.5-1.7,0-1.8
		C49.4,220,49.1,220.8,49.5,221.2z M32,219.9c0.3,0.2,0.3,0.7,0.8,0.8c0.2-0.3-0.1-1-0.5-1C32.2,219.9,32,219.8,32,219.9z M43.8,222
		c0.2-0.6,0.8-0.8,0.8-1.7c-0.1,0-0.3,0-0.4,0C44.2,221.1,42.9,221.6,43.8,222z M50.9,225.3c1.3-0.1,1-3.5,0.8-5
		C50.7,221.7,50.7,223.7,50.9,225.3z M28.1,222.5c0.6-0.6-0.1-1.5-0.5-1.9C26.7,221.1,27.4,222.3,28.1,222.5z M30.1,222
		c0.2,0.2,0.5,0.8,1,1.1c0.2-0.4,0.5-0.6,0.5-1.1c-0.3-0.3-0.5-0.9-0.9-1.1C30.5,221.3,30.3,221.6,30.1,222z M38.5,222.8
		c-0.1-0.9,0.4-1.4-0.1-1.8C38.1,221.7,37.8,222.3,38.5,222.8z M33,221.6c0.6,0.3,0.6,1.6,1.4,1.3c-0.4-0.6-0.5-1.5-1.2-1.8
		C33.4,221.4,33,221.3,33,221.6z M35.6,223.4c0.8-0.1,1-1,1.3-1.7c-0.2-0.2-0.2-0.7-0.6-0.6C36,222,35,222.4,35.6,223.4z
		 M47.7,223.3c0.2,0,0.3,0,0.5,0c-0.1-0.8,0.4-1.2,0.1-1.9C47.9,221.8,47.5,222.4,47.7,223.3z M41.3,223.5c0.4-0.5,0.1-1.6,0.1-1.9
		C40.8,221.9,40.5,223.2,41.3,223.5z M44.5,223.4c0.8-0.1,0.8-1.1,0.5-1.8C44.8,222.3,44.1,222.4,44.5,223.4z M27.4,223.8
		c0.2-0.6-0.5-1.2-0.9-1.5C26.6,222.9,26.8,223.6,27.4,223.8z M42.6,224c-0.2-0.2,0.5-0.6,0.5-1c-0.2-0.2-0.3-0.5-0.5-0.6
		C42.2,222.7,42,224.1,42.6,224z M24.9,223.5c0-0.2,0-0.4,0.1-0.5c-0.4,0-0.4-0.4-0.6-0.5C24.6,223,24.3,223.4,24.9,223.5z
		 M38.9,223c0,0.3,0,0.5,0,0.8c0.4-0.2,0.9-0.9,0.6-1.3C39.5,222.8,39.2,222.9,38.9,223z M22.4,222.8c0.1,0.9,0,1.2,0.6,1.4
		c0.3-0.4,0.4-1.4-0.3-1.5C22.8,222.8,22.6,222.8,22.4,222.8z M30.6,224.3c-0.2-0.7-0.4-1.4-1.1-1.5
		C29.7,223.4,29.9,224.5,30.6,224.3z M37.6,226.1c0.4-0.5,0.8-1,1-1.7c-0.5-0.5-0.6-1.5-1.4-1.7C36.2,223.8,36.5,225.4,37.6,226.1z
		 M31.5,224.2c0.6,0.2,0.4,1.1,1.2,1.2c-0.1-0.5,0.4-0.4,0.4-0.8c-0.1-0.6-0.6-0.8-0.6-1.4c-0.2,0-0.3,0-0.5,0
		C31.9,223.6,31.6,223.8,31.5,224.2z M50.1,226.8c0.5-0.5-0.2-1.1,0.5-1.4c-0.6-0.5-0.1-1.6-0.4-2.2C49.9,224.3,50,225.7,50.1,226.8
		z M29.9,225.2c-0.2-0.7-0.3-1.5-1-1.7C28.9,224.4,29.5,224.7,29.9,225.2z M35.3,224.5c0-0.6-0.2-0.9-0.6-1
		C34.9,224.1,34.8,224.4,35.3,224.5z M39.5,224.3c0.1,0.4,0.4,0.6,0.8,0.8c0.1-0.3,0.4-0.5,0.5-0.8c-0.3-0.1-0.2-0.8-0.6-0.8
		C39.9,223.7,40,224.3,39.5,224.3z M26.5,225.1c0.1-0.8-0.3-1.1-0.6-1.4C26.1,224,26.1,224.8,26.5,225.1z M42.7,225.6
		c0.2,0,0.1,0.3,0.3,0.4c0.6-0.4,0.9-1.1,1.1-1.8c-0.2,0-0.2-0.2-0.4-0.3C43.4,224.5,42.9,224.9,42.7,225.6z M22.5,227.9
		c1.2-1.2,0.2-2.8-0.8-3.6C21.7,225.8,22,226.9,22.5,227.9z M25.7,225.8c0.9-0.2,0-1.2-0.3-1.5C25.1,224.9,25.7,225.2,25.7,225.8z
		 M31.3,226.7c0.5,0.1,0.6-0.3,0.8-0.5c-0.4-0.5-0.6-1.2-1.2-1.5C30.6,225.6,31.3,225.9,31.3,226.7z M29.2,226.5
		c-0.1-0.8-0.5-1.2-0.9-1.7C27.8,225.2,28.7,226.7,29.2,226.5z M41.1,226.3c0.5-0.3,0.6-1.4-0.1-1.5
		C40.5,225.4,40.6,225.8,41.1,226.3z M43.4,226.7c0.2,0,0.3,0.1,0.5,0.1c0.4-0.5,1.5-1.7,0.4-2C44.1,225.5,43.6,226,43.4,226.7z
		 M36.8,227.4c0-0.1,0.1-0.1,0.3-0.1c-0.3-0.9-0.7-1.6-1.3-2.2C35.4,225.8,36.5,226.6,36.8,227.4z M47.3,226.5
		c0.5-0.1,0.5-0.7,0.6-1.2c-0.4,0.2-0.1-0.4-0.5-0.3C47.5,225.7,47.1,226,47.3,226.5z M38.5,227.6c0.4-0.6,0.8-1.1,1.2-1.8
		c-0.3,0-0.2-0.5-0.5-0.5C39,226,37.8,226.8,38.5,227.6z M33.1,226.1c0,0.5,0.5,0.3,0.4,0.9c0.9,0,0.5-1.4,0-1.5
		C33.5,225.8,33.3,225.9,33.1,226.1z M28.3,227.9c-0.2-0.6-0.3-1.4-0.9-1.5C27.2,226.9,27.7,227.6,28.3,227.9z M44.9,228.3
		c-0.1-0.3,1.1-1.3,0.3-1.9c-0.2,0.7-0.9,0.9-0.8,1.8C44.6,228.1,44.9,228.6,44.9,228.3z M38.9,227.9c0.3,0.6,0.2,1,0.6,1.3
		c0.5-0.7,1.7-2.2,0.3-2.7C39.5,227,39.2,227.4,38.9,227.9z M29.4,227.4c0.2,0.5,0.3,1.1,0.9,1.3c0.7-0.4,0-1.5-0.6-1.7
		C29.7,227.2,29.6,227.3,29.4,227.4z M26.6,227.9c0.4,0.4,0.6,1.2,0.6,1.5c1.1-0.5,0.1-1.9-0.4-2.3
		C26.8,227.4,26.6,227.5,26.6,227.9z M51,229c0.4-0.2,1.1-1.4,0.4-1.9C51.4,227.8,50.4,228.4,51,229z M35.2,229.8
		c0.4,0,0.6-0.4,0.6-0.8c-0.6-0.4-0.8-1.3-1.3-1.8C33.7,228.2,34.9,228.8,35.2,229.8z M47.7,227.9c0.4,0,0.4-0.3,0.4-0.6
		C47.7,227.2,47.7,227.5,47.7,227.9z M32.8,228.5c0.1-0.6-0.3-0.8-0.5-1.2C32,227.7,32.4,228.3,32.8,228.5z M42.5,228.1
		c0.2,0.2,0.4,0.3,0.1,0.5c0.4,0.1,0.2-0.3,0.6-0.3c0-0.6-0.1-0.9-0.5-1C42.9,227.8,42.4,227.7,42.5,228.1z M23.2,228.8
		c0.3,0.2,0.1,0.9,0.4,1.2c0.2-0.7,1-1.3,0.5-2.1c-0.3,0.2-0.4-0.1-0.5,0.1C23.9,228.2,23.1,228.4,23.2,228.8z M37.7,228.8
		c0.2-0.3,0.4-0.8-0.1-0.9C37.5,228.2,37.3,228.7,37.7,228.8z M40,229.9c0.1,0,0.1,0.1,0.1,0.2c0.6-0.3,1.7-1.6,1-2
		C40.9,228.8,40.5,229.3,40,229.9z M29,230c0.2,0,0.3,0.1,0.4,0.1c0.3-0.5-0.3-1.2-0.6-1.5C28.6,229,29.1,229.7,29,230z M43.4,229.8
		c0.4,0.4,1.2-0.9,0.4-1C43.7,229.2,43.3,229.2,43.4,229.8z M47.3,230.9c-0.2,0-0.3-0.1-0.4-0.1c0.2,0.4-0.1,0.5,0.1,0.9
		c1-0.3,1-2.4,0.3-2.9c-0.2,0.2,0.1,1.9-0.4,1.8C47.1,230.6,47.3,230.8,47.3,230.9z M38.5,230.3c1.1,0,0.1-1.2-0.3-1.4
		C37.9,229.6,38.6,229.8,38.5,230.3z M30.7,229.5c0.1,0.4,0.4,0.6,0.5,0.9c0.4,0,0.5-0.3,0.6-0.5c-0.4-0.2-0.3-0.8-0.8-0.9
		C31,229.2,30.9,229.4,30.7,229.5z M33.1,230.2c0.8,0,0.5,1.2,1.2,1.3c-0.2-0.8-0.6-1.6-1.2-2C33.3,229.8,33.3,229.8,33.1,230.2z
		 M40.7,230.8c0.3,0.1,0.2,0.6,0.5,0.6c0.1-0.5,1.1-1.5,0.4-2C41.2,229.8,41,230.4,40.7,230.8z M49.9,229.8c0.2,0-0.2,0.5,0.3,0.5
		c-0.1-0.3,0.5-0.7,0.1-0.9C50.3,229.7,49.9,229.6,49.9,229.8z M44,230.7c0.5,0.1,0.5,0.7,0.9,0.9c-0.1-0.5,0.3-0.5,0.4-0.9
		c-0.2-0.2-0.3-0.6-0.5-0.8C44.2,229.8,44,230.2,44,230.7z M28.7,231.3c0.4-0.3,0.3-1.1-0.3-1.2C27.9,230.6,28.4,231,28.7,231.3z
		 M35.9,230.8c0.5,0.3,0.8-0.7,0.3-0.6C36.3,230.6,35.9,230.4,35.9,230.8z M42.6,231.2c0.7,0.2,0.6-0.8,0.3-0.9
		C42.7,230.5,42.5,230.7,42.6,231.2z M25.2,232c-0.4-0.3-0.1-0.6-0.4-1.2c-1.2,0.8-0.9,2.3,0.1,3.1c0.4-1.4,1.5-1.9,0.3-3.2
		C25.3,231.2,25.4,231.7,25.2,232z M30.5,232.1c0.3-0.5-0.2-1.2-0.5-1.4C29.7,231.1,29.9,232,30.5,232.1z M32,231.7
		c0.3,0.1,0.7-0.3,1-0.3c-0.3-0.1-0.1-0.7-0.6-0.6C32.4,231.3,32,231.3,32,231.7z M39.4,231.6c0.2-0.1,0.6-0.6,0.1-0.8
		C39.6,231.1,39,231.3,39.4,231.6z M36.5,231.7c0.4,0.3,0.2,1.2,0.9,1.2c0.1-0.3,0.3-0.4,0.3-0.8C37.2,231.8,36.8,230.6,36.5,231.7z
		 M42.7,232.2c0,0.4,0.4,0.4,0.5,0.8c-0.8,0.2-0.2,1.2,0.1,1.4C44.6,233.4,44.3,230.4,42.7,232.2z M51.2,232.7
		c0.3-0.1,0.6-0.9,0.3-1.3C51.4,231.8,50.6,232.5,51.2,232.7z M27.3,232.9c0.7,0,0.9-1.1,0.3-1.3C27.2,231.9,26.8,232.5,27.3,232.9z
		 M49.9,232.2c0.4,0.1,0.7-0.8,0.3-0.6C50.2,232,49.8,231.8,49.9,232.2z M29,231.8c0.1,0.6,0.4,1,0.8,1.3c0.3-0.5-0.1-1.2-0.5-1.4
		C29.3,231.8,29.2,231.9,29,231.8z M40.2,233.1c0.8-0.1,0.6-1.4-0.1-1.4C39.5,232.3,40.2,232.7,40.2,233.1z M32.9,233.8
		c0.3-0.4,1-1.2,0.4-1.7C33,232.5,32.7,233.4,32.9,233.8z M27.8,234.5c0.2-0.2,0.3,0.8,0.6,0.9c0.2-0.5,0.6-0.8,0.8-1.4
		c-0.3-0.3-0.3-0.9-0.8-1C28.3,233.6,27.4,234,27.8,234.5z M23.4,234.6c0.2,0,0.3,0,0.5,0c-0.2-0.5-0.3-1.7-0.9-1.4
		C23.7,233.3,23.2,234.4,23.4,234.6z M44.8,235.9c0.3-0.6,0.7-1.1,0.9-1.8c-0.1-0.3-0.5-0.4-0.5-0.9c-0.8,0.4-1.2,1.4-1.1,2.7
		c0.4-0.1,0.2,0.3,0.6,0.3c0-0.3-0.7-0.6-0.4-0.8C44.5,235.5,44.5,235.9,44.8,235.9z M51.3,235c0.1-0.3,0.3-1.7,0-1.7
		C50.8,233.7,50.9,234.6,51.3,235z M25.5,235.5c0.6-0.3,0.9-0.9,1.2-1.5c-0.2,0-0.2-0.2-0.4-0.2C26,234.3,25.5,235.2,25.5,235.5z
		 M42.2,236.4c0.3-0.3,0.4-0.8,0.5-1.3c-0.5-0.3-0.4-0.8-1-1.2C40.7,234.8,41.6,235.8,42.2,236.4z M38.8,236.1
		c0.5-0.2,0.5-0.7,0.6-1.3c-0.7,0.1-0.5-0.7-1.2-0.6C38,234.9,38.6,235.3,38.8,236.1z M31.7,234.4c0,0.4,0.2,0.7,0.4,0.9
		c0-0.5,0.5-0.6,0.5-1C32.2,234.2,32,234.4,31.7,234.4z M34.3,234.4c-0.1,0.7-0.7,1-0.9,1.7c0.6,0.3,0,0.8,0.6,1
		c0.5-0.5,0.5-1,0.5-1.7c0.2-0.1,0.5-0.1,0.6-0.3c-0.1-0.4-0.3-0.6-0.5-0.9C34.6,234.4,34.5,234.4,34.3,234.4z M21.4,235.3
		c0.2,0.2,0.5,0.5,0.4,1c-0.1,0-0.2-0.1-0.3-0.1c0.5,3.9,0,7.2,0.3,11c0.3-0.3,0.6-0.2,0.9-0.3c1.2-2.5-1.6-5.4,0.1-7
		c0-2-0.1-3.4-0.3-5.1C22,234.8,21.8,235.2,21.4,235.3z M50.5,235.8c0-0.4,0-0.6-0.3-0.8C50.4,235.3,50.1,235.9,50.5,235.8z
		 M29.2,237c0.4-0.4,0.6-1.1,0.9-1.5c-0.2,0-0.2-0.2-0.4-0.1C29.6,235.8,28.7,236.3,29.2,237z M31.9,235.8c-0.3-0.1-0.5-0.4-0.8-0.5
		C31.1,235.7,31.6,236.4,31.9,235.8z M26,237c0.4,0.2,0.2,1.1,0.9,1.1c0.2-0.5,0.6-0.8,0.8-1.3c-0.5-0.3-0.1-0.8-0.6-1.2
		C26.5,236,26.3,236.5,26,237z M29.6,238.1c0.5,0.2,0.3,0.7,0.4,1c0.2,0,0.3,0.1,0.4,0.1c0.1-0.3,0.2-0.4,0.5-0.5
		c-0.7-0.6-0.1-1.1,0.1-1.8c-0.2-0.3-0.4-0.5-0.6-0.6C30.3,237.2,29.6,237.2,29.6,238.1z M43.2,238.1c0.2-0.4,0.6-0.7,0.8-1.1
		c-0.3-0.1-0.2-0.7-0.8-0.6C43.1,237.1,42.4,237.7,43.2,238.1z M39.7,237.8c0.9,0.4,0.5,1.4,1.3,1.9c0-0.6,0.3-0.9,0.4-1.3
		c-0.4-0.6-0.9-1.2-1.3-1.8C39.7,237.1,39.5,237.1,39.7,237.8z M46.7,238.6c0.6,0,0.8-1.6,0.3-1.9C46.6,237.3,46.6,237.9,46.7,238.6
		z M25.6,240c0.2-0.5-0.2-1.4-0.5-1.8C25,238.8,25.2,239.4,25.6,240z M43.5,239c0.4,0.1,0.8-0.5,0.5-0.8
		C43.9,238.6,43.6,238.7,43.5,239z M27.4,239.8c0.3-0.3,1-1,0.4-1.4C27.8,239,27.2,239.2,27.4,239.8z M29,240.4
		c0.4,0.1,0.3-0.3,0.6-0.4c-0.2-0.5-0.2-1.2-0.9-1.3C28.7,239.5,29.1,239.7,29,240.4z M31.2,242.1c0.7,0,0.5-0.9,1.4-0.6
		c0.6-1,0.6-2.2-0.5-2.7c-0.1,0.6-1,0.6-1.3,0.6C31.6,240.1,30.7,241.2,31.2,242.1z M39.3,241c0.1-0.2,0.2-0.3,0.4-0.3
		c-0.3-0.7-0.6-1.5-1.2-1.9C38.1,239.4,39,240.4,39.3,241z M45.3,241.6c0.3-0.3,0.4-1.7,0.1-2.2C45.1,240.2,44.3,240.9,45.3,241.6z
		 M4.2,241.8c-0.1-0.5,0.4-1.7-0.1-2.3C4.1,240.2,3.8,241,4.2,241.8z M23.9,242.8c0.8-0.6,1-2.6,0.1-2.9
		C23.9,240.4,23.2,241.9,23.9,242.8z M28.4,241.7c0-0.2,0.2-1.4-0.4-1.4C27.7,240.5,27.7,241.8,28.4,241.7z M41.8,241.3
		c0.2,0.1,0.3,0.5,0.5,0.6c0.1-0.4,0.7-1.3,0-1.4C42.3,240.9,42,241,41.8,241.3z M29.6,243.9c0.7-0.2,0.9-0.9,1.4-1.4
		c-0.4-0.2-0.2-0.9-0.6-1C29.8,242,29.4,242.6,29.6,243.9z M50.3,244.1c0.2,0.1,0.5,0.1,0.4,0.5c0.4-0.2,0.8-0.2,1.2,0
		c-0.1-1.1-0.1-1.2-0.1-2c-1.2,0.3-0.6-0.8-1-1C50.4,242.3,50.4,243.2,50.3,244.1z M5.5,244.6c0.2-0.9,0.4-2.3-0.1-2.8
		C5.2,242.9,5.4,243.8,5.5,244.6z M43.1,243.6c0.2,0.2,0.3,0.4,0.6,0.5c0.4-0.4,0.6-1.5-0.1-1.7C43.7,243.1,43.2,243.1,43.1,243.6z
		 M26.7,243.1c-0.1,0-0.1,0.2-0.1,0.4c0.5,0,0.3-1.1-0.3-0.9C26.2,243.1,26.7,242.8,26.7,243.1z M4.2,244.2c0.3-0.3-0.2-0.9,0.4-0.5
		c-0.1-0.3,0.2-0.9-0.1-1c-0.1,0.2-0.2,0-0.4,0C4.1,243.3,3.8,243.9,4.2,244.2z M29,246.9c0.5-1.5,1.8-2.8,2.2-4
		C30.5,244.2,28.6,245.4,29,246.9z M24.4,244.5c0.1-0.4,0.7-0.9,0.4-1.3C24.9,243.8,23.7,244.1,24.4,244.5z M2.1,248.1
		c-0.1-1.6,0-2.6-0.1-4C2,244.8,1.2,247.3,2.1,248.1z M29.2,248c0.1,0.2,0.3,0.3,0.3,0.6c0.7-0.2,1.1-1.3,1.8-0.4
		c0-1.5,0.9-3,0.5-4.1C30.8,245.3,30.1,246.7,29.2,248z M24.8,245.9c0.4-0.3,0.9-0.7,0.9-1.4c0-0.1-0.1-0.2-0.3-0.1
		C25.3,244.9,24.7,245.1,24.8,245.9z M40.8,245.7c0.3,0.3,0.4-0.1,0.8,0c0.7,1,0.4,3.4,1.8,3.3c0.3,1,0.8,2.4,0.8,3.3
		c1.1-1.4-0.5-2.9-0.9-4.5c-0.5,0.2-0.7,0-0.9-0.4c0.1-1.2-0.8-2.3-1.5-3.1C40.6,245.1,41,245,40.8,245.7z M4.5,246.8
		c0-1.5,0.1-1.6,0-2.3c0,0.7-0.1,0-0.4,0C4.1,245.2,3.9,246.5,4.5,246.8z M44.4,245.5c0.2,0.5,0.4,1,0.9,1.3
		c0.2-0.7,0.2-2.1-0.4-2.3C44.8,244.9,44.6,245.3,44.4,245.5z M28.3,245.7c0.4,0,0.4-0.3,0.5-0.6c-0.3,0-0.3-0.3-0.5-0.4
		C28.1,245,28.3,245.1,28.3,245.7z M50.3,249.7c0.6-0.2,0.8-0.8,1.4-0.6c-0.1-1.5,0.2-3-0.1-4C50.8,246.5,49.8,247.9,50.3,249.7z
		 M28,246.3c0-0.5-0.3-0.6-0.5-0.9C27.3,245.8,27.5,246.2,28,246.3z M49.3,246.7c0.4,0.2,0.3-0.9,0.1-0.9
		C49.3,246.1,49.2,246.3,49.3,246.7z M6.1,250.9c1.5-1,0.7-3.8,0.1-5C6.4,247.2,5.9,249.7,6.1,250.9z M25.2,247.3
		c0.5-0.2,0.8-0.6,0.9-1.2c0-0.1-0.1-0.2-0.3-0.3C25.6,246.3,25.1,246.5,25.2,247.3z M4.5,248.1c0-0.3,0.3-0.9-0.3-1.1
		C4.3,247.3,4.1,248,4.5,248.1z M3.1,255.9c0.7-0.3,0.3-1.1,0.8-1.7c0.1,0.8-0.2,2,0.3,2.4c0.2-1.6,0.7-2.9,1.2-4.2
		c-0.6,0.2-0.5,1-1,1.3c-0.5-0.4-0.4,0-0.9,0.1c-0.5-2,0.3-5-0.4-6.6C2.7,250,2.9,252.6,3.1,255.9z M21.5,253.3c1.1-0.7,1.8-3,0.5-4
		c0.1-0.6,0.3-1.6-0.3-1.9C21.5,249.6,22,251.4,21.5,253.3z M25.8,247.8c0,0.6-0.1,1.2,0.4,1.3c0.1-0.2,0.3-0.4,0.5-0.5
		c-0.2-0.3,0-1-0.5-1C26.2,247.8,26,247.7,25.8,247.8z M47.5,249.7c0.4-0.3,0.3-1.9,0.3-2.2C47.3,248,46.8,249.4,47.5,249.7z
		 M42,254.1c1.3,0.7,0.9,2.9,1.9,3.6c-0.5-2-1.1-3.5-1.1-5.6c0.2,0,0.3,0.1,0.4,0.1c-0.6-1.3-1-3.6-1.9-4.1c0.1,1.3,1,3.3,0.5,4.9
		C42,253.3,42.1,253.6,42,254.1z M23.7,249.7c0.4-0.2,0.6-0.7,0.9-1c-0.4,0,0.2-0.8-0.4-0.6C24.1,248.8,23.3,249,23.7,249.7z
		 M27.5,248.9c0.4,0.2,0.4-0.8,0-0.6C27.5,248.4,27.5,248.6,27.5,248.9z M30.5,251.5c0.7-0.4,0.5-2.4,0.6-2.9
		C30.8,249.7,29.9,250.2,30.5,251.5z M26.4,249.6c0,0.3,0.1,0.6,0.4,0.6c0.1-0.3,0.4-0.4,0.5-0.8c-0.2-0.1-0.3-0.2-0.5-0.3
		C26.6,249.4,26.7,249.7,26.4,249.6z M28.1,250.3c0.1-0.1,0.3-0.9-0.1-0.8C28.1,249.7,27.9,250.2,28.1,250.3z M49,249.7
		c0.5,0.4-0.1,1,0,1.8c0.2,0,0.3-0.1,0.5-0.1c-0.1-0.9,0-1.4-0.1-1.9C49.3,249.7,49.2,249.7,49,249.7z M24.3,251.4
		c0.7-0.2,1.1-1,0.6-1.7C24.6,250.2,23.9,250.6,24.3,251.4z M50.4,254.9c1-1.1,1.6-3.1,1-4.5C50.7,251.8,49.8,253.6,50.4,254.9z
		 M24.8,252.8c0.5-0.2,0.7-0.6,0.8-1.2c0-0.1-0.1-0.2-0.3-0.3C25.2,252,24.4,252.1,24.8,252.8z M29,255.1c-0.6,0-0.7-0.5-1-0.8
		c0.1,0.6-0.3,0.7-0.5,1c0.5,0.5,0.3,1.5,0.8,2c0.4-1.7,2-2.4,2.2-4.4c-0.8,0-0.8-0.7-1.3-0.9C28.9,253,29.8,254.5,29,255.1z
		 M25.6,254.2c0.1-0.3,1-1,0.4-1.3C25.9,253.3,25.2,253.8,25.6,254.2z M27,254.2c0.9,0,0.3-1,0-1.3C26.8,253.6,27.2,253.7,27,254.2z
		 M26.4,256.1c0.5-0.6,0.3-1.9-0.1-2.2C26,254.9,25.7,255.5,26.4,256.1z M49.6,256.1c0-0.7,0.1-1.4-0.3-1.8
		C48.9,254.8,48.9,255.9,49.6,256.1z M50.4,257.4c0.4-0.1,0.7-0.4,1.2-0.1c-0.2-0.7,0.3-2-0.3-2.3C51,255.8,50.1,256.4,50.4,257.4z
		 M22.8,256.8c0.1-0.4-0.1-0.6-0.4-0.6C22.4,256.5,22.4,256.8,22.8,256.8z M21.8,258.3c-0.2,0-0.3,0.1-0.4,0.1
		c0.1,0.3,0.1,0.8,0.3,1c0.6-1.1,0.9-2,0.4-3.2c-0.1,0-0.3,0-0.4,0C21.5,257.1,21.5,257.6,21.8,258.3z M25.3,256.6
		c-0.1-1-0.2,0.9,0.3,0.8C25.7,256.9,25.3,257.1,25.3,256.6z M29.2,260.6c0.6-1,0.8-3.2,0.8-4.3C29.1,257.5,28,259.1,29.2,260.6z
		 M26.7,256.8c0,0.8,0.2,1.5,0.6,1.8c0.4-0.6,0.1-1.4-0.3-2C27.1,256.7,27,256.8,26.7,256.8z M24.8,258.8c0.6-0.5,0.3-1.5-0.3-1.9
		C23.7,257.4,24.1,258.5,24.8,258.8z M45.2,258.2c0.1-0.1,0.3-1-0.1-0.9C44.9,257.6,44.8,258,45.2,258.2z M49.8,258.7
		c0-0.3-0.1-0.5-0.3-0.6C49.3,258.3,49.3,258.8,49.8,258.7z M51.2,259.3c-0.2,0.2-0.6,0.1-0.8,0.3c0,0.8,0,1.2-0.1,1.7
		c-0.3,0-0.5,0-0.6-0.1c-0.7,0.5-0.6,1.7,0.1,2c0.9-1.6,2.2-2.8,1.5-5.1C51.3,258.5,51.1,258.8,51.2,259.3z M26.4,259.9
		c0.8-0.1-0.1-1.3-0.5-1.4C25.9,259,26.4,259.1,26.4,259.9z M47.2,259.2c0-0.2,0-0.3,0.3-0.3c0-0.3-0.1-0.4-0.4-0.4
		C46.9,258.7,46.9,259.2,47.2,259.2z M24.1,260.1c0.2-0.4-0.2-1-0.4-1.4C23.8,259.2,23.8,259.7,24.1,260.1z M42.7,260.1
		c0.6-0.1,0.5-1.3,0-1.4C42.6,259.3,42.7,259.5,42.7,260.1z M25.7,261.1c0.6-0.4,0.2-1.2-0.3-1.7C25,259.9,25.5,260.6,25.7,261.1z
		 M22.6,259.9c-0.4,0.4-0.6,0.6-1.2,0.2c-0.2,2.6-0.1,4-0.5,6.3C21.9,264.5,23.8,262.1,22.6,259.9z M28.4,261.1c0.2-0.6,0-1-0.5-1.3
		C27.9,260.4,28.2,260.7,28.4,261.1z M4.1,261.9c0.3-0.5,0.4-1.4-0.5-1.4C3.6,261.1,3.8,261.6,4.1,261.9z M24.9,262.3
		c0.2-0.4,0-1.3-0.4-1.5C24.5,261.5,24.5,261.9,24.9,262.3z M27.4,262.7c0.8-0.2,0.3-1.5-0.3-1.5C26.9,261.6,27.4,262,27.4,262.7z
		 M43.1,263.4c-0.4,0.6,0.2,0.1,0.1-0.4c0.4-0.2,0.9-1,0.6-1.4c-0.3,0.4-0.6,0.6-1,0.9C43.1,263,43,263,43.1,263.4z M23.8,263.9
		c0.4-0.3,0.6-0.7,0.8-1.1c-0.2-0.2-0.2-0.5-0.5-0.6C23.5,262.5,24.2,263.5,23.8,263.9z M27,263.8c-0.1-0.6-0.1-1.1-0.5-1.5
		C26.5,262.9,26.6,263.6,27,263.8z M46.8,263.2c0.3,0,0.5-0.2,0.5-0.5c-0.2,0-0.2-0.2-0.4-0.1C46.8,262.7,46.8,262.9,46.8,263.2z
		 M28,263.9c0-0.4,0.7-0.7,0.1-0.9C28,263.3,27.5,263.8,28,263.9z M50,264.2c0-0.2,0.5-0.6,0.1-0.8C50.1,263.6,49.7,264,50,264.2z
		 M26.2,265.1c0.1-0.3-0.1-1.3-0.6-1.4C25.6,264.3,25.7,265,26.2,265.1z M43.2,265.2c-0.2,0.6,0,1.4,0.1,2c0.6-0.8,1.8-2.4,1.4-3.3
		C44.4,264.5,44.1,265.2,43.2,265.2z M28.3,265.1c0.2,0.3,0.3,0.6,0.6,0.6c-0.1-0.5,0.5-1.4-0.1-1.5
		C28.7,264.6,28.3,264.6,28.3,265.1z M50.3,266.6c-0.3,0.1-0.3-0.2-0.6-0.1c-0.1,0.6-0.1,0.8,0.3,1.2c0.4-0.1,0.6-0.4,1-0.5
		c-0.1-1.3,0.5-1.9,0-2.9C50.6,265.2,50.1,265.3,50.3,266.6z M24.7,265.3c0.2,0.4,0.3,0.9,0.4,1.4c0.6-0.2,0.7-1.5,0-1.7
		C25.1,265.3,24.7,265.2,24.7,265.3z M45.5,266.5c0.1-0.3,0.6-1.2,0.1-1.3C45.5,265.5,44.9,266.2,45.5,266.5z M21.9,266.6
		c0.4-0.1,1.3-0.9,0.6-1.3C22.4,266,22.2,266,21.9,266.6z M24.4,268c0-0.5-0.1-0.9-0.3-1.2C23.9,267.2,24.3,267.7,24.4,268z
		 M25.7,267.9c0-0.3,0.5-0.7,0.1-1C26,267.4,25,267.6,25.7,267.9z M27.4,267.9c0-0.2,0-0.3,0.3-0.3c-0.1-0.3-0.1-0.7-0.4-0.8
		C27,267.3,26.7,267.8,27.4,267.9z M26.2,269.4c0.2-0.4,0.6-0.5,0.5-1.1c-0.2,0-0.2-0.2-0.4-0.3C26.3,268.5,25.6,269,26.2,269.4z
		 M27.9,268.4c-0.2,0-0.2,0.2-0.5,0.1c0,0.5,0.2,0.7,0.6,0.8c0.2-0.5,0.4-1-0.1-1.3C27.9,268.2,27.9,268.3,27.9,268.4z M43.6,270.5
		c0.6-0.4,0.6-1.4,0.8-2.2c0-0.1-0.1-0.1-0.3-0.1C43.4,268.7,43.6,269.6,43.6,270.5z M47.1,269.3c-0.3-0.4,0.3-0.8-0.3-1
		C46.7,268.5,46.7,269.3,47.1,269.3z M21.6,268.6c-0.1,0.3-0.5,0.4-0.6,0.6c0.1,2.1-0.3,4.2,0,6.1c0.3-0.6,0.7-1.1,0.9-1.8
		c-0.6,0.1-0.6-0.3-0.8-0.5C21,271.1,22.9,269.7,21.6,268.6z M45.5,269.4c0.1-0.4,0.1-0.5-0.3-0.6C45,269.1,45.3,269.4,45.5,269.4z
		 M27.1,271.1c0.3-0.6,0.2-1.1-0.3-1.5C26.4,269.9,26.4,271,27.1,271.1z M46.1,271.5c0.3-0.5,0.1-1.5-0.4-1.7
		C45.3,270.3,45.4,271.5,46.1,271.5z M25.3,270.7c0.1-0.1,0.3-0.9-0.1-0.8C25,270.2,25.1,270.6,25.3,270.7z M44,271.9
		c0.1,1.1-0.1,1.7,0.4,2.4c0.7-0.9,1.7-2.6,0.5-3.3C44.7,271.4,44.5,271.8,44,271.9z M23.9,272.3c0.7,0,0.9-0.4,0.9-1.2
		C24.1,271.3,24.5,271.9,23.9,272.3z M26.1,272.8c0.4-0.5,0-1.1-0.3-1.5C25.4,271.6,25.8,272.4,26.1,272.8z M28.1,273.8
		c0-1.1-0.1-1.3-0.5-2C27.2,272.4,27.7,273.6,28.1,273.8z M48,272.9c0.5,0,0.2-1,0-1.1C47.5,272.1,48.4,272.5,48,272.9z M46.3,272.9
		c0.4,0.1,0.9-0.8,0.3-0.9C46.7,272.5,46.3,272.5,46.3,272.9z M25.3,273.9c0.1-0.3-0.1-1.1-0.3-1.4C24.8,272.9,25,273.7,25.3,273.9z
		 M49.8,273.8c0.4,0.1,0.5-0.2,0.6-0.4c-0.2-0.3-0.3-0.7-0.6-0.8C49.8,273,49.8,273.4,49.8,273.8z M26.7,275.7
		c0.5,0,0.8-0.3,0.9-0.8c-0.4-0.4-0.5-1.2-0.9-1.7C26.1,273.9,26.5,274.9,26.7,275.7z M45.4,274.4c0.3-0.2,0.8-0.7,0.5-1
		C45.6,273.6,45.6,274.1,45.4,274.4z M47.2,274.7c0.5-0.1,0.6-1,0.1-1.2C47.3,273.9,47.4,274.5,47.2,274.7z M24.6,275.2
		c0.2-0.3-0.1-0.8-0.4-1C24.1,274.7,24.4,274.9,24.6,275.2z M46.3,275.7c0.5,0.1,0.2-0.7,0.3-1c-0.2,0-0.3-0.1-0.4-0.1
		C45.9,275,46.6,275.3,46.3,275.7z M21.2,277.4c0.4-0.6,1.3-1.4,0.9-2.3C21.8,275.7,21,276.6,21.2,277.4z M47.5,276.5
		c0.3,0,0.3,0.3,0.5,0.4c0.3-0.5,0.6-1.1,0-1.4C47.9,275.9,47.6,276.1,47.5,276.5z M45.7,277.6c0.1-0.3,0.4-0.4,0.4-0.8
		c-0.3-0.2-0.3-0.8-0.6-1C45.2,276.3,45.5,277.2,45.7,277.6z M25.3,278c0.6-0.6,0.1-1.7-0.4-2.1C24.6,276.9,25.2,277,25.3,278z
		 M44.6,279.4c0.9-0.5,0.6-2.1,0-2.8C44.2,277.3,44.6,278.8,44.6,279.4z M21,279.2c-0.1,0.7,0.4,1.5,0.1,2.4
		c1.2-0.3-0.4-2.8,0.9-3.1c0.4-0.1,0.3,0.3,0.5,0.4c0.1-0.6,0.6-0.6,0.5-1.4c-0.3-0.1-0.3-0.5-0.5-0.6
		C22.3,277.9,21.2,278.3,21,279.2z M49.4,279.5c0.3-0.7,0.1-1.2-0.3-1.8C49.1,278.5,48.9,279.1,49.4,279.5z M26.6,280.4
		c0.1-0.3,0.7,0,0.9,0c-0.1-0.8,0.3-1.8,0.1-2.3C27.4,278.9,26.4,279.7,26.6,280.4z M46.1,279c0.2,0.2,0.2,0.5,0.4,0.6
		c0.1-0.3,0.3-1.2,0-1.5C46.4,278.6,46,278.6,46.1,279z M25.6,279.4c0.6,0.2,0.9-0.9,0.4-1C25.7,278.6,25.7,279.1,25.6,279.4z
		 M44.8,282c0.7,0,0.4-1.1,1.1-1.1c0-0.5,0.1-1-0.3-1.2C45.3,280.4,45,281.1,44.8,282z M23.2,281.1c-0.1-0.4,0.5-1.2-0.1-1.3
		C22.9,280.2,22.8,280.9,23.2,281.1z M47.3,282.5c1,0,0.8-1.5,0.3-1.8C47.1,281.2,47.1,281.7,47.3,282.5z M50.1,282.9
		c-0.1-0.6,0.2-1.5-0.1-1.9C49.8,281.7,49.4,282.4,50.1,282.9z M24.2,282.9c0.1-0.4,0.5-1.1-0.1-1.3
		C24.1,282.1,23.6,282.7,24.2,282.9z M21.8,283.4c0.6,0,0.6-0.6,0.3-0.9C22,282.9,21.8,283,21.8,283.4z M44.8,283.8
		c0.7,0.1,0.5-0.6,0.8-0.9C45.1,283,44.7,283.1,44.8,283.8z M26,283.9c0-0.4-0.1-0.6-0.4-0.8C25.2,283.5,25.7,283.8,26,283.9z
		 M24.7,284.2c0.2-0.2,0.5-0.7,0-0.8C24.6,283.5,24.4,284.1,24.7,284.2z M22.8,285.3c0.1-0.3,0.1-1.1-0.4-1.2
		C22.1,284.5,22.4,285.2,22.8,285.3z M24.9,285.3c0.4,0.1,0.3-0.3,0.5-0.3c-0.2-0.3-0.1-0.8-0.5-0.9
		C24.7,284.6,24.9,285.1,24.9,285.3z M45,286.8c0.7-0.4,1.6-1.9,0.8-2.7C45.6,285.1,44.7,285.8,45,286.8z M26.2,285.3
		c0.4,0.3,0.2,1.3,0.8,1.4c0.2-0.6-0.1-0.9,0.1-1.5c-0.4,0-0.4-0.4-0.6-0.5C26.5,285,26.3,285.1,26.2,285.3z M24.4,287
		c0.5-0.3,0.2-1.3-0.3-1.4C23.9,286.1,24,286.6,24.4,287z M49.8,288.4c0.5-0.9,0.2-2.1-0.4-2.7C49.4,286.2,49.1,287.9,49.8,288.4z
		 M24.7,288c0.2,0.5,0.3,1.2,0.8,1.4c0.7-0.5,0.2-1.8-0.4-2C24.9,287.5,24.9,287.9,24.7,288z M44.9,289.1c0.4,0,0.9-0.9,0.4-0.9
		C45.1,288.5,45,288.8,44.9,289.1z M48.6,290.2c-0.1-0.6,0.1-1.5-0.5-1.7C48,289,48.1,289.9,48.6,290.2z M25.6,290.3
		c0.1,0.2,0.2,0.4,0.4,0.5c0.2-0.4,0.5-0.8,0.5-1.4c-0.2,0-0.2-0.2-0.4-0.3C25.9,289.5,25.6,289.7,25.6,290.3z M22,290.8
		c0.6-0.1,0.9-1.2,0.3-1.5C21.8,289.7,21.7,290.1,22,290.8z M24.2,291.6c0.2-0.6-0.1-1-0.4-1.4C23.5,290.6,23.6,291.6,24.2,291.6z
		 M48,290.4c0,0.3,0,0.5,0.3,0.5c0.1-0.1,0.3-0.6,0-0.6C48.2,290.4,48.1,290.4,48,290.4z M47.3,292.3c0.3-0.4-0.1-1.1-0.4-1.3
		C46.7,291.6,47.1,292,47.3,292.3z M45.3,292.3c0.4,0,0.6-0.9,0.5-1C45.6,291.6,45.2,291.7,45.3,292.3z M24.6,293.2
		c0.6-0.1,0.3-1.2-0.1-1.3C24.3,292.6,24.8,292.9,24.6,293.2z M46.4,293.7c0.4-0.2,0.2-1.1-0.1-1.3
		C46.1,292.7,45.7,293.8,46.4,293.7z M47.8,294.9c0.1-0.5,0.8-0.8,0.3-1.3C47.9,294,47.4,294.6,47.8,294.9z M23.7,295.2
		c0.4-0.5,0.2-1.3-0.3-1.3C23.6,294,23.2,295.1,23.7,295.2z M25.7,295.3c0.3-0.5,0-1.4-0.5-1.5C25,294.5,25.1,295,25.7,295.3z
		 M21.1,296.2c0.4,0.2,0.5-0.7,0.3-0.8C21.3,295.7,21,295.8,21.1,296.2z M49.3,299.5c0.6-0.4,0.9-0.4,1.5,0c0.1-0.4,0.1-0.2,0-0.6
		c-0.3-0.2-0.6,0.3-0.6,0c0-1.2-0.7-2.3-1.3-3.3C48,296.9,48.6,298.2,49.3,299.5z M23.9,296.6c0.5-0.1,0,0.7,0.5,0.6
		c0.3-0.3,0.3-1.2-0.1-1.4C24.4,296.3,23.9,296.1,23.9,296.6z M45.5,300.7c0.8-0.4,0-2.6-0.3-3.6C45.5,298.3,44.9,299.6,45.5,300.7z
		 M25.2,299.4c0.1-0.2,0.2-0.3,0.4-0.4c0-0.5-0.1-0.9-0.4-1C24.9,298.4,24.6,299.1,25.2,299.4z M27,298.5c0-0.2,0.1-0.3,0.1-0.4
		c-0.2,0-0.3-0.1-0.4-0.1C26.5,298.2,26.6,298.5,27,298.5z M25.8,301.4c0.2-0.5,0.8-1.6-0.1-1.8C25.5,300.2,25.3,301.1,25.8,301.4z
		 M23,302.4c0.5,0,0.8-1.1,0.3-1.3C23.3,301.7,22.6,301.9,23,302.4z M50.5,302.1c0.4,0.1,0.4,0.7,0.9,0.4c-0.1-0.5-0.2-1-0.6-1.2
		C50.8,301.7,50.5,301.7,50.5,302.1z M47.7,302.7c0.3-0.4,0.7-0.6,0.8-1.3c-0.1,0-0.3,0-0.4,0C48.2,302.1,47,302.2,47.7,302.7z
		 M45.3,302.8c0.4,0.1,0.2-0.4,0.6-0.3c-0.1-0.3,0.2-0.8-0.1-0.9C45.4,301.8,45.4,302.4,45.3,302.8z M23.5,303.7
		c0.4-0.2,0.8,0.3,0.9,0c-0.4-0.1-0.1-0.9-0.6-0.8C23.7,303.2,23.4,303.3,23.5,303.7z M51.9,303.9c0.3,0.5,0.4,1.1,0.9,1.4
		c0.2-0.3,0.4-0.6,0.5-1c-0.6-0.2-0.5-0.9-1.2-1C52.1,303.5,51.9,303.5,51.9,303.9z M49.4,305.4c0.1-0.4,0.6-0.4,0.4-1
		c-0.2,0-0.5,0-0.5-0.1c0.2,0,0.7-0.7,0.1-0.8C49,304,48.3,305.1,49.4,305.4z M43.4,305.6c0.2-0.4,0.9-0.9,0.4-1.4
		C43.8,304.8,42.9,305.5,43.4,305.6z M51.6,306.7c0.3,0,0.2-0.5,0.5-0.6c-0.2-0.5-0.4-1-0.9-1.2C50.7,305.4,51.1,306.4,51.6,306.7z
		 M21,306.8c0.1,0.1,0.9-0.8,1.4-0.4c-0.2-0.5,0-0.9-0.3-1.4c-0.7,0-0.9,0.1-1.4,0C21.1,305.6,20.5,306.6,21,306.8z M46.4,306.3
		c0.4-0.2,0.6-0.4,0.6-0.9C46.7,305.5,46.4,305.7,46.4,306.3z M16.9,306c0.5-0.1,0.2,0.6,0.5,0.6c0.1-0.4,0.3-0.5,0.4-0.9
		C17.4,305.8,16.9,305.7,16.9,306z M54.5,307.7c-0.1-0.7-0.4-1.3-0.8-1.8C53.3,306.5,53.9,307.4,54.5,307.7z M18.2,307.6
		c0.7,0.1,0.9-0.3,1.4-0.4c-0.1-0.5-0.3-0.9-0.6-1.2C18.8,306.7,18.1,306.7,18.2,307.6z M26.4,307.8c0.4,0.2,0.3-0.2,0.5-0.3
		c-0.3-0.5-0.5-1.2-0.9-1.5C26.1,306.9,26.6,306.9,26.4,307.8z M15.4,306.4c0.1,0,0.3,0,0.3,0.1c-0.4,0.1-0.7,0.3-1,0.5
		c0.2,0.9-0.6,0.8-0.6,1.4c0.7,0,1.6-0.2,2.4,0.1c0.2-0.6-0.7-1.5-0.3-2.3C15.7,306.4,15.5,306,15.4,306.4z M50.5,307.3
		c-0.1-0.3,0.2-1-0.3-0.9C50,306.7,50.3,307.2,50.5,307.3z M46.9,307.2c0.2,0.1,0.2,0.3,0.3,0.5c0.7-0.1,0.6-0.4,0.5-1
		c-0.2,0-0.3-0.1-0.4-0.1C47.4,306.9,47.1,307,46.9,307.2z M43.9,308.5c0.3-0.3,1.3-1.1,0.5-1.7C44.2,307.2,43.2,308,43.9,308.5z
		 M22,307.1c-0.1,0.5-0.7,0.9-0.4,1.4c0.7-0.2,0.8-0.9,1.2-1.4C22.5,306.8,22.4,307.1,22,307.1z M51.9,309.9
		c-0.9-0.1-0.9,0.6-1.1,1.2c1.2-0.6,2-1.6,2.9-2.4c-0.2-0.5-0.5-0.9-0.9-1.1C52.4,308.2,51.8,309,51.9,309.9z M25.2,307.8
		c0.2,0.3-0.2,0.5,0.1,0.6c0.2-0.7,0.3,0,0.6,0.1c0-0.2,0-0.4,0.1-0.5c-0.4,0.1-0.2-0.3-0.3-0.5C25.5,307.5,25.4,307.8,25.2,307.8z
		 M49,308c0,0.4-0.1,1,0.1,1.3c0.5,0,0.4-0.6,0.9-0.6c-0.2-0.3-0.2-0.8-0.6-0.9C49.4,307.9,49.3,308,49,308z M18.4,308.6
		c0.2,0.4,0.3,0.9,0.8,1c0.2-0.6,0.8-0.8,0.8-1.5C19.2,308,18.9,308.4,18.4,308.6z M45.8,309.5c0.2-0.2,1.3-0.9,0.5-1.3
		C46.3,308.7,45.4,309,45.8,309.5z M54.6,311.7c0.7-1,2.2-1.7,1.8-3.3c-0.5,0.3-0.8,1.2-0.6,1.8C55,310.1,54.6,311.3,54.6,311.7z
		 M10,310.6c0.8,0.1,0.9-0.5,1.3-0.8c0.5-0.3,1.7-1.1,1.3-1.4C11.7,309.2,10.3,309.4,10,310.6z M22.3,309.7c0.6-0.1,0.6-0.8,0.8-1.3
		C22.4,308.6,22.4,309.2,22.3,309.7z M44,308.8c0,0.2-0.1,0.3-0.1,0.4c0.5-0.1-0.2,0.9,0.6,0.6c-0.1-0.6,0.3-0.6,0.4-1
		c-0.2,0-0.1-0.3-0.4-0.3C44.5,309.1,44.2,308.5,44,308.8z M12.8,309.4c0.5,0,0.4,0.5,0.8,0.6c0-0.6,0.1-1.2-0.4-1.3
		C13.2,309.1,12.8,309.1,12.8,309.4z M48.7,311.1c0.3,0,0.6,0,0.9,0c0.3-0.8,0.8-1.3,1.2-1.9C49.9,309.2,49.4,310.5,48.7,311.1z
		 M53.2,309.6c-0.1,0.2,0.2,0.3,0,0.4c-1.1,0-0.9,1.3-1.8,1.5c0.3,0.6,0.9,0.9,1.4,1.3C53.6,312.1,55.6,308.2,53.2,309.6z
		 M15.4,309.6c0.2,0.1,0.3,0.2,0.6,0.1c-0.1-0.2,0.4-0.4,0-0.5C15.9,309.5,15.3,309.2,15.4,309.6z M24.1,311.8c1.7,0,0.8-2.5,0-2.4
		C24.3,310,24.6,311.4,24.1,311.8z M27.6,312c1.4,1.7,1.7-1.8,2.4-2.8C28.9,309.8,28.2,310.9,27.6,312z M17.8,311.3
		c0.4,0.1,0.3-0.3,0.6-0.4c-0.3-0.6-0.4-1.3-1-1.5C17.3,309.8,17.5,310.8,17.8,311.3z M41.7,310.9c0.7,0,1.4-1.2,0.9-1.5
		C42.4,310,41.9,310.3,41.7,310.9z M45.9,312.2c0.2-0.1,0.5-0.1,0.6-0.3c-0.4-0.9,0.6-1.5,0.8-2.6C46.1,309.5,45.8,310.6,45.9,312.2
		z M19.7,311c0.7,0.1,1.2-1.1,0.6-1.4C20.1,310,19.7,310.3,19.7,311z M16.8,311.8c0.1-0.5,0.2-1.2-0.3-1.4
		C16.2,310.8,16.3,311.5,16.8,311.8z M41.8,312c0.7,0.4,2.2,0.6,3.1,0.5c0-0.5-0.6-0.6-1-0.4c-0.6-0.5,0.3-1.7-0.8-1.8
		C42.7,311,42.3,311.5,41.8,312z M29.6,313.1c0.5,1-0.9,0.7-1.1,1.3c1,0.2,2.1,0.3,3.3,0.3c0.2-1.2,0.1-2.6-0.5-3.6
		C30.3,311.5,30.7,313.2,29.6,313.1z M21.4,314.2c1.1-0.6,1.9-1.4,2.6-2.3c-0.4,0-1-0.1-1.4-0.4C22.1,312.3,21.5,313.6,21.4,314.2z
		 M25.5,313.1c0.4-0.3,0.8-0.5,0.8-1.3c-0.2,0-0.2-0.2-0.4-0.1C25.8,312.1,25.1,312.7,25.5,313.1z M15.6,312.9
		c0-0.2,0.4-0.1,0.4-0.3c-0.2-0.2-0.2-0.6-0.5-0.8C15.4,312.2,15.4,312.6,15.6,312.9z M20.5,313.5c-0.2-1.5-1.9,0.2-2,1.1
		C19.6,314.5,20.6,314.3,20.5,313.5z M26.5,313.3c0.6,0,0.8,0.2,1.2,0C27.4,313,26.6,312.5,26.5,313.3z M13.2,316.4
		c0.9-0.2,1-1.1,1.8-1.4c-0.1-0.4-0.1-0.9-0.5-1C14.1,314.9,13,315.6,13.2,316.4z"/>
</g>
<g>
	<path class="st1" d="M169.9,18.2c-1.3,2-2.8,0.7-4.3,1c-1.4,1.9-4.1,3.2-5.8,4.8c-1.2,1.2-2.6,4.5-4.2,2c2.7-4.3,7.8-6.6,11.8-9.9
		C168.9,17,168.8,17,169.9,18.2z"/>
	<path class="st1" d="M145.1,0c0.4,0.4,0.8,0.7,1.2,1c0,3.2-2.5,7.8-1.8,11.6c-0.7,0.5-1.4,1.2-2.2,1.1c-1.4-1.4-0.3-3.7,0.2-5.8
		C143.3,4.8,142.6,1.9,145.1,0z"/>
	<path class="st1" d="M179.3,40.6c-0.3,0.7-0.3,1.4-1,2.1c-0.6,0.2-1.2-0.1-1.9-0.3c-2.7,0.5-5.5,0.5-8.2,0.2
		c-1.3,1.2-2.8,1.6-4.3,0.1c0.4-0.4,0.4-0.8,0.1-1.2c4.6-2.5,9.6-0.3,14.3-1.8C178.7,40,179,40.3,179.3,40.6z"/>
	<path class="st1" d="M114.3,5.7c-1.4-0.7-1.8-4.5,0.6-4.2c2.8,3.9,3.3,8,5.1,12c-0.7,0.9-0.5,1.2-1.5,1.7c-3.3-1.8-1.4-5.6-3.7-8.2
		c-0.8,0-0.5,0.9-1.5,0.8c-0.6-0.9,1.3-1.1-0.2-2.3C113.5,5.3,113.9,5.3,114.3,5.7z"/>
	<path class="st1" d="M175.1,65.5c-0.3,1.6-1,1.6-2.3,2.7c-1.3-5.1-8-3.7-11-6c0-1,1.1-0.7,1-1.7C167.1,60.6,171.6,62.1,175.1,65.5z
		"/>
	<path class="st1" d="M151.8,94.9c-3.1-2-1.9-6.3-3.3-9.1c-1.2-1.3-1.8-2.8-2-4.2c5.2-1.7,3.7,6.3,6.7,9.1
		C153,92.2,153.4,94.5,151.8,94.9z"/>
	<path class="st1" d="M94.9,49c-0.9,0.5-1.7,1.6-2.6,2.1c-3.4-2.4-6.3,1.1-9.6,0.3c1.6-4.2,7.4-2.6,10.7-4.1
		C94,47.9,94.9,48.4,94.9,49z"/>
	<path class="st1" d="M122.7,89.7c0.1,2,0.2,3.2,1.5,4.7c-2.7,3.5-4.7,7.9-8,11.9c-1.6,2-2.5,5-3.9,6c-0.6,0.5-1.7,0.4-3.1,1.2
		c-0.5,0.2-1.1,1.1-1.5,1.3c-0.3,0.1-1-0.5-1.4-0.4c-0.9,0.3-0.9,0.9-1.3,1c-4.6,0.9-6.9-2.3-11.3-3.7c-1.2-1.1-1.6-2.8-3.2-3.2
		c-1-4.2-1.5-7.2-1.6-11.6c2.2-5.6,7.9-11,8.8-15.9c1.2,0.2,2.4-1.2,3.5-1.7c3.7-7.7,5.5-14.3,5.1-22c-0.2-4.4-1.3-7.1-0.5-11.9
		c0.7-4.2,2.4-6.3,4.7-10.5c3.2-5.9,9.3-6.8,14.6-9.2c2.4,1,5.9-1.1,8.5,0c1,0.4,0.2,0.7,1.7,0.6c3.8-0.3,10.9,1.7,15,6.4
		c6.3,7.2,9.5,16.1,7.5,24.6c0.2,10.7-14.3,20.5-23.3,20.9C130.1,81.4,126.3,86.2,122.7,89.7z M130,78.1c8.5-4.6,19.5-4.9,25.2-17.2
		c-0.6-1.5,0.3-1.7-0.3-3.2c1.5-1.7,0.8-3.3,2.1-5c-1.1-0.6-0.2-0.9-0.1-1.8c0.1-1-0.9-2.3-0.9-2.9c0,0.1,0.6,0,0.7-0.3
		c0.4-4.4-6.6-14-11.5-17c-1.8-1.1-4.2-1.5-6.3-1.6c-0.6-1.2-1.9-0.7-1.8-2.4c-0.5,0.6-0.2,1.2-1.1,1.2c-4.6-0.4-9.5-0.6-13.9,1.3
		c-1.7,0.8-5.5,2.9-6.4,3.5c-1.6,1.1-2,3.5-3,5.1c-0.7,1-2,1.6-2.5,2.5c-1,1.8-2,7.4-2,8.9c-0.1,1.3,0.7,2.6,0.8,4.1
		c0.3,3.7,0.5,8.5,0.3,11.7c-0.3,3.4-2.5,6.3-2.4,9.8c-1.6,0.8-1.8,4-2.8,4.8c1.7,2.2,2.1,3.9,5,5.6c4.4-8.2,6.1-16.2,9.7-24.4
		c1.6-4.5,1.2-8.8,1.5-13.2c1.4-0.7,2.1-1,3.8-1.4c3.6,1.3,1.2,3.7,1.8,5.8c2,0.9,3.7-1.2,5.8,0.7c0.8,1-0.4,2.2,0.7,3.2
		c2.7-0.2,7.2-2,8.2,2.3c-10.2,9.3-21.6,17.3-25.7,30.8C122.1,90.7,124.5,81.6,130,78.1z M130.5,58.5c-0.7-4.1-4.3-3.4-7.2-4
		c0,3.4-2.5,6.1-3.8,9.5c-0.7,1.8-0.6,3.9-1.4,5.6c-1.8,4.2-3.7,8.6-5.6,13.1c-0.7,1.6-3.2,4.6-0.2,5.8c0.5-2.6,2.2-4,4.5-6.8
		c0.3-0.6,0.2-1.2,0.3-1.9c5.1-5.6,10.1-15,15.6-20.3C132.5,58.4,131.2,58.7,130.5,58.5z M115.1,95.1c-4.2,2.9-8.6,4-12.7,7
		c-0.6-0.5-1.3,0.8-1.4-0.3c-1.5,3.1-5.1,2.5-7.3,5.6c1.7,2,4.1-0.2,5.6-1.1c3.2-1.9,6.2-4.2,8.7-6.2c2.7-0.8,5.3-2.5,7.9-3.8
		c1-0.4,2,0.4,2.9-0.9c0.1-0.2,0-0.5-0.3-0.7C117.4,94.9,116.3,95.9,115.1,95.1z M101.6,84c-0.9,0.8-0.6,1.6-1.7,2.4
		c1.1,0.9,2,0.2,1.5,1.7c-3.4,0.5-5.9,2.4-8,5.9c4.7-0.3,8.1-3,12.9-5.6c-0.4-1.7-2.3-1.6-3.3-1.6c0-0.5,0.2-0.9,0.8-1.4
		C103,84.6,102.3,84.4,101.6,84z M108.8,90.6c-4.3,2.5-8.7,3.5-13.1,5.4c-1.3,2.3-5.5,2.8-3.5,5.1c5.8-3.5,12.9-5.4,17.8-9.5
		C109.6,91.3,109.2,90.9,108.8,90.6z M92.6,104c6.3-2.2,13.7-6.4,19.2-10C105.4,97.2,98.9,99.5,92.6,104z M99.8,107.6
		c0.8,1.2-1.3,0.9-1.9,2.2c2,2.2,2.8-0.5,4.2-1.5c4.7-3.1,12.1-4.4,13.2-9.6C110.1,100.3,105.1,105.7,99.8,107.6z M102.3,112.6
		c2.4-1.6,8.4-3,7.8-6.1c-0.2-0.1-0.3-0.3-0.5-0.4C108,108.5,101.8,109.2,102.3,112.6z"/>
	<path class="st1" d="M100.8,28.1c-2.6,4-7.8-3-11.9-2.9c0.9-0.9-0.4-0.6-0.8-1.1C91.1,20.5,96.5,24.9,100.8,28.1z"/>
</g>
</svg>
