<?xml version="1.0" encoding="utf-8"?>
<!-- Generator: Adobe Illustrator 22.1.0, SVG Export Plug-In . SVG Version: 6.00 Build 0)  -->
<svg version="1.1" id="doodle" xmlns="http://www.w3.org/2000/svg" xmlns:xlink="http://www.w3.org/1999/xlink" x="0px" y="0px"
	 viewBox="0 0 225.5 233.6" style="enable-background:new 0 0 225.5 233.6;" xml:space="preserve">
<style type="text/css">
	.st0{fill-rule:evenodd;clip-rule:evenodd;fill:#141414;}
	.st1{fill-rule:evenodd;clip-rule:evenodd;fill:#E23D41;}
</style>
<g>
	<path class="st0" d="M172.1,39.7c1.3-0.3,0.6,0.7,0.8,1.5c1.2-1.4,2.3-3,4.2-3.9c2.1,0.2,4,0.8,5.6,1.7c1.5,2.1,3.5,4.2,3,7.2
		c1.7,2.8,0.4,7.1-1.3,9c-2.4,2.7-7.5,1.2-9.5-1.8c-0.6-0.9-1.2-2.9-1.8-4.5C171.7,45.6,170.8,42.5,172.1,39.7z M173,43.7
		c-0.2,1.6,0.7,2,1.3,3.5c0.7,2,1.2,4.7,2,5.7c1.2,1.5,3.7,1.7,4.6,2.5c7.5-2.5,4.3-18.1-4.6-15.7C175.1,40.7,173.2,41.8,173,43.7z"
		/>
	<path class="st0" d="M43,108.6c-0.6-1.1-1.9,0-2.1-1.6c-7.1,1.7-13.5,2.5-19.8,4.1c-3.8,1-7.7,2.4-11.6,2.6
		c-1.9,0.8-6.4,1.7-8.3,0.9C1,113.8,2,113.9,2,113.3c-0.8-3.4-1.4-6.7-1.1-9.9c4.8-7.1,19.8-8.5,28.8-10.7c3.2-0.8,8.8-0.8,10.5,1.7
		c1,1.4,0.9,3.1,2.1,4.7c0.1,2,0.8,4.9,1.9,6.3C44.1,106.8,43.1,107.5,43,108.6z M36.3,93.8c-3.3-0.8-7.6,0.5-11.6,1.3
		c-7.3,1.5-18.2,3-21.5,7.2c-2.4,3.1-0.4,6.2-0.4,9.1c0.7,0.7,1.2,1.6,2.1,2c12.3-1.9,24.4-5.7,36.8-8C41.2,101.2,40,94.8,36.3,93.8
		z"/>
	<path class="st0" d="M157.9,86.1c-1.7,1.9-4.5,3.4-6.7,5c-1.8,1.3-3.2,2.5-4.8,2.9c-0.3,0.1-0.1,0.5-0.1,0.8
		c-2.8,2.1-6.1,4.2-9,6.4c-1,0.8-1.8,2.3-3.1,1.6c-0.1,0.9-1.8,2.2-3.5,3.4c-1.1,0.8-2.5,1.8-3.5,1.7c-0.3-1.5,1.4-1.3,1.5-2.5
		c6.9-3.8,12.4-8.7,18.6-13c2.2-1.9,4.6-4.5,7.3-5.3C155,86.1,157,85,157.9,86.1z"/>
	<path class="st0" d="M84.8,149.7c-0.2,1-1,1.5-1.3,2.4c-3.5,1.4-3.5,5.4-6.7,7.1c-2,4.1-5.8,6.9-7.8,10.9c-0.8-0.1-0.9,0.4-1.6,0.4
		c0.1-2.4,2.5-3.9,3.8-5.5c4.1-4.8,7.6-10.2,11.5-15.3C83.7,149.7,84.2,149.1,84.8,149.7z"/>
	<path class="st0" d="M113.9,149c0.3-0.1,0.4,0.1,0.6,0.1c1.3,9.4,4.7,17.6,7.1,28.1c-0.7,0-0.3,0.9-0.6,1.3
		c-1.2-0.1-1.6-1.3-1.1-2.3c-1.6-5.6-2.6-10.5-4.3-16.7C114.3,155.2,112.5,152.1,113.9,149z"/>
	<path class="st0" d="M70.3,189.1c-0.9,0.5-1.2,1.4-1.8,2.1c-3.1-0.9-6.8,1.5-10.6,2.1c-2.7,0.4-5.5,0.3-8.1,0.9
		c-2.5,0.5-4.8,1.8-7.1,2.2c-4.1,0.8-8,1.4-11.7,2.2c-1-5.9-3.8-11.2,0.9-14.7c4.7-3.5,13.4-5,20-6c4.1-0.6,9.6-0.6,12.7,1.2
		c2.1,2.1,3.6,5.3,3.6,8.6C68.8,188.3,69.4,188.9,70.3,189.1z M63.8,180.7c-2.3-1.6-6.7-1.9-9.5-1.8c-7.5,0.2-18.5,2.6-22.6,6.5
		c-0.8,0.7-1.5,2.2-1.6,3.1c-0.1,0.7,0.4,1.3,0.5,2.2c0.1,2.4,0.7,3.8,2.2,5.3c1.1,0,1.3-0.6,1.5,0.6c10-2.5,22.2-4.3,32.8-7.5
		C66.7,185.9,65.9,182.3,63.8,180.7z"/>
	<path class="st0" d="M130.9,207.7c5.1-0.8,11-1.5,15-0.2c2.6,1.9,5.2,5.2,6.4,10.5c0.5,2.4,1.9,4.9-1.3,5.5c-0.6-1,0.3-1.1,0.3-2.1
		c-0.3-6.3-3.7-11.9-8.1-12.7c-4.2-0.7-8.9-0.6-13.1,0.7c-1.7,0.6-2.9,1.3-5.1,1.5c-2.4,0.3-4.2,1.1-6.3,1.9
		c-4.9,1.8-9.3,3.2-11.2,7.1c-0.4,1.2-0.9,3.5-1.8,4.8c0.9,1.7,0.6,4.7,2,5.7c5.8-0.5,11.1-3.3,16.7-4.3c1.7-0.3,3.2-0.2,4.8-0.7
		c3.3-0.9,7.2-1,10.7-1.6c3.9-0.8,7.2-1.8,10.5-1.4c-0.5,1.8-3.5,1.5-5.5,2c-2.5,0.5-5,1.1-8.2,1.7c-2.5,0.5-5.4,0.2-7.5,0.8
		c-1.8,0.5-3.5,1.6-5.7,0.8c-4.9,2.7-13.1,2.1-16.7,6c-1.3,0.1-1.8-0.9-2.8-1.1c-0.1-1.2,1.2-1.2,1.8-1.9c-1.3-1.8-0.7-4.1-1.2-6.2
		c1.2-2.3,1.5-5.3,3.1-7.2c3.6-3.6,8.7-5.1,14.1-7c-1.7-2.5-4.7-2.9-5.8-6.6c-0.3-1.1-0.1-3-0.4-4.3c-0.1-0.7-0.6-1-0.6-1.6
		c-0.4-5.6,4.9-14.5,11.4-11.6C132.5,190.5,134.2,200.6,130.9,207.7z M120.2,206.3c1.1,1,1.8,1.9,2.8,2.3c8.5,3.3,9-9.6,7.3-14.4
		c-0.5-1.4-0.8-3.1-1.8-4.3c-4.1-5-10.7-2.2-12.1,5.1c0.1,0.6,0.8,0.4,0.8,1.1C116.3,200.3,117.8,204.2,120.2,206.3z"/>
	<path class="st0" d="M83.6,20.3c-0.8-1.5-2.2-3.2-3.3-4.9c-0.7-5.5-2.6-13,1.5-16.1c0.6,0.1,1.1,0.3,1.5,0.6c7-2,10.2,4.2,12.6,8.2
		c-0.2,0.7,0.5,1-0.2,1.3c1.2,1.7,1.8,6.3,0.1,8.6c4.2,1.2,8.1-0.8,11.5,1.1c3.9,2.3,3.9,8.2,4.8,12.7c-0.7,0.8-1.4,0.5-2.1,1.1
		c0.3-5.3-0.6-11.8-6.1-13.2c-2.7,1-5.7,0-8,0.1C92,20,88.2,23,84.8,21.4c-0.7,0.6-2.3,1.2-3.4,1.1c-4.3,2.5-10,4-9.8,10
		c-0.4,0-0.2-0.6-0.7-0.5c0.3,1.9,0.9,3.3,1.4,7.2c2.8-0.2,5.5-1,7.9-1.1c2.6,0,4.7-2.1,6.8-2.8c1.5-0.5,3.1-0.1,4.7-0.4
		c1.2-0.2,2.2-0.9,3.6-1.1c2.8-0.3,5.7-0.1,8.6-0.5c1.6-0.2,3.4-1.2,5.1-0.3c0,0.9-0.9,1.1-1,2c-0.8-0.7-2.9,0.1-3.8-0.5
		c-2.9,0.6-8,0.8-10.9,1.5c-1.9,0.5-3.8,0.5-5.6,1c-1.9,0.5-3.4,1.8-5.4,2.4c-1.1,0.3-2.2-0.1-3.3,0c-2.8,0.2-5.3,1.5-8.2,2.1
		c-0.2,0-0.1-0.2,0-0.2c0.4-0.3-0.6-1-0.6-1.6c0.5-3.1-0.6-8.8,0.5-11.4C73.9,24.7,78.6,21.5,83.6,20.3z M82.7,16.5
		c1.6,0.8,1.8,2.8,3.5,3.2c2.7,0.6,6.4-1.8,8.1-2.7c1.8-3.2,0.5-7.9-1.2-11.6c-2-1.1-3.6-3.8-6.3-4.1c-2-0.2-3.3,0.6-5.1,1.9
		c-0.8-0.6,0.6-1.9-0.2-1.8c-0.5,0.9-0.7,2-0.6,3.4c-0.4,0.1-0.5-0.2-0.8-0.1C81.2,9.4,80.3,12.5,82.7,16.5z"/>
	<path class="st0" d="M11.2,75.6c0.2,0,0.1,0.2,0,0.2c0,0.3,0.8-0.1,0.8-0.3c0.6,1.2-1.1,1,0.1,2.2c1.1-2.4,1.4-5.4,3.3-7.2
		c9.7-0.9,13.3,19.7,2.5,21.5C12.9,90.5,9.8,81.8,11.2,75.6z M15.9,72.3c-1.7,0.4-1.7,2.2-2.4,3.8c-1.2,2.8-1.8,3.4-0.7,6.7
		c0.9,3,2.7,7.2,5.3,7.3c3.4,0.2,5.2-4.5,5.2-6.9c0-3.7-1.7-7-2.6-8.9C18.5,73.5,17.6,71.9,15.9,72.3z"/>
	<path class="st1" d="M113,116.4c1.1-0.1,3.4,0,4.6-0.8c2.9,0.4,5.9-0.2,8.7,0.3c5.3,0.8,10.3,8,10.1,13.9c-0.3,0.9-1.5,1-1.6,2.1
		c-0.6-0.1-1-0.5-1.9-0.2c-0.8,0.7-0.7,1.7-2,1.7c-0.3-0.8,0.3-1,0.2-1.7c-2-0.2-1.6,1.3-2.6,1.8c-0.3-0.3-0.6-0.6-0.6-1.4
		c-6.3,1.4-15.3,2-22.4,4.9c-0.6,0.1-0.7-0.4-1.3-0.2c-2.9,2-9.1,1.3-13.5,3.9c-0.9,0.1-1.9,0.3-2.8,0.4c1.6-2.5-1.7-7.5-1-10.4
		c0.2-1,2.2-4,3.1-4.7c3.5-3.1,9.4-4.7,14.3-6.7c-1.3-1.4-3.5-1.5-4.7-3.1c-0.4-0.5-0.4-1.4-0.9-1.9c-0.6-0.7-1.5-1-2.1-1.8
		c-1.7-2.4-2.2-7.3-2.1-11.2c0-3,1.5-7,2.7-8.6c1.8-2.3,5.3-4,8.9-3.9C113.8,92.2,118.5,108.2,113,116.4z M90.6,136.7
		c1.7-3.9,4.3-7.9,5-12c-1.1,0.2-0.9,0.3-1.8,0.7c-1,2.8-2.9,4.9-3.4,8.1c0.8,0.2,0.8-1.1,1.2-0.6C90.8,133.7,90.3,135.7,90.6,136.7
		z M99.6,96.2c-1.8,0.5-1.8,2.5-1.5,4.1c0.7-2.6,3.1-4.8,3.1-7.2c0.6-0.4,1.8-2.1,1.1-2.2C100.8,92.1,99,94,99.6,96.2z M101.1,104
		c0,0.2,0.2,0.5,0.2,0.2c2.2-4.1,4.1-8.5,6.1-12.8c-1.3,0.3-1.9,1.9-2.3,3c-1.3,3.2-2.5,6.4-4.1,9.2
		C101.2,103.6,101.3,104,101.1,104z M99.4,101.2c1-0.1,0.2-1.6,1.5-1.4c-0.5,1-0.9,2.2-1.4,3.3c1.1-1.4,2.1-3.5,3-5.3
		c0.8-1.7,2-4.2,1.7-5.6C102,94.7,100.5,97.7,99.4,101.2z M106.4,96.1c-1.3,4.9-4.5,8.3-4.9,13.8c0,0.2,0.2,0.5,0.2,0.2
		c2.2-4.5,4.2-9.1,6.4-13.6c-0.3-1.6,1.9-2.7,0.7-3.8C107.4,93.4,107.8,95.4,106.4,96.1z M110.2,95.2c-2.6,5.6-5.6,11.1-7,17
		c2.5-2.8,3.5-6.7,5-10.1c1-2.3,2.3-4.3,2.8-6.8C110.6,95.4,110.5,95.1,110.2,95.2z M111.4,102.9c0.8-0.3,1.2,0.3,1.6-0.2
		c-0.2-0.6-0.2-1.5-0.8-1.5C112,101.7,111.6,102.2,111.4,102.9z M109.8,103.1c0.1-0.3,1-1.5,0-1.4
		C110,102.5,108.8,102.6,109.8,103.1z M107.9,106.2c0.7-0.4,1.5-1.7,1.1-2.2C108.6,104.6,108,105.2,107.9,106.2z M107.3,113.3
		c1.2-1.1,1.7-2.8,2.3-4.2c0.7-1.5,1.3-3.2,1.6-5c-0.1-0.2-0.2-0.2-0.4-0.1C110.2,107.2,105.9,110.1,107.3,113.3z M110.4,109.2
		c0.6,0.5-0.3,1.3,0.2,1.6c0.6-2.1,2.1-3.6,2.5-5.9c-0.1-0.2-0.2-0.2-0.4-0.1C111.7,106.1,112,108.3,110.4,109.2z M98.9,110.9
		c-1.3-0.8-0.7-3.1-1.8-3.9C96.7,107.8,97.7,111.5,98.9,110.9z M106.9,108.8c0-1.1,1.3-1.2,1.1-2.4
		C107.2,106.8,106.6,108.2,106.9,108.8z M106.8,115.8c0-0.3,0.2-0.4,0.1-0.8c-0.3,0-0.5,0.1-0.8,0.1
		C106.1,115.6,106.2,116,106.8,115.8z M118.1,117.6c-2.8,3.3-3.2,7.5-5.8,10.7c-0.1,1.5-0.8,2.9-1,5.1c1.3,0.3,0.6-0.6,0.9-1.1
		c1.5-3.2,2.9-6.5,4.7-9.5c0-2.1,1.7-2.8,1.6-5C118.5,117.6,118.4,117.5,118.1,117.6z M107.6,126.4c-0.3,2.1-1.1,3.7-2.4,5.1
		c0.5,1.3-0.6,1.8-0.2,3.3c0.5,0.5,1.1,0.2,1.8,0c0-0.5-0.1-0.8-0.3-1c2.4-4.8,5.7-10,6.8-15.3C109.9,120,110.3,124.4,107.6,126.4z
		 M114,121.9c0.8-0.7,2.1-3,1.4-3.7C114.9,119.5,114.1,120.4,114,121.9z M120.6,117.5c-2.1,4-3.8,8.3-5.8,12.3
		c0.1,0.4,0.1,0.8,0.2,1.2c-0.7,0.4-0.7,1.3-1,2c0.6,0.1,1.2-0.1,1.8-0.5c-0.2-0.7-0.6-0.4-0.4-1.2c1.7-4.6,4.6-8.6,6.1-14
		C121.3,117.4,120.9,117.4,120.6,117.5z M107.3,122.6c-0.1,3.6-3,5.1-3.5,7.9c0.2,0,0.5,0,0.5,0.4c2-3.7,4.8-7.6,5.7-11.5
		C108,119.6,109.1,122.2,107.3,122.6z M122.8,118.4c-1.7,3.9-3.3,7.9-5.7,11.3c1.1,1-0.5,1.6-0.7,2.8c1.3,0.1,1.4-1.7,1.6-2.1
		c0.5-1.1,1.5-2.3,2.4-3.8c1.9-3.3,3.1-7,5.2-8.7c-1.2,0-2.3,0-3,0.4C122.7,118.2,122.8,118.2,122.8,118.4z M102.6,126.1
		c-0.3,3.2-3.8,6.5-3.3,10.3c1.9-1.9,2.1-4.9,3.3-7.2c0.7-1.2,1.7-2.3,2.4-3.4c0.4-1.8,1.3-3.2,2-4.8c-0.1-0.2-0.1-0.5-0.5-0.4
		C104.8,122.1,104.1,124.4,102.6,126.1z M99.1,127.4c-0.4,0.4-1,0.9-1.2,1.6c-1,2.9-2.3,6.3-2.2,8.3c1.8-0.5,2-2.8,2.7-4.3
		c1.6-3.4,3.2-6.4,4.5-9.5c0.2-0.5,0.8-1.5,0.4-1.9C100.6,122.5,100.7,125.8,99.1,127.4z M125.2,121.4c-0.6,3.9-3.9,6.7-4,10.4
		c0.1-0.5,1.1-0.2,1.6-0.4c1.1-4.6,3.7-8.1,5.1-12.4C126.1,118.6,126.6,120.9,125.2,121.4z M94.3,131.5c0.5,0.7-0.2,1.1,0.2,1.8
		c-1.6,1-2.1,2.8-1.3,4.3c2.1-4.7,4.2-9.6,6.5-14.7C95.5,124,96.7,129.1,94.3,131.5z M124,130.8c0.5,0.1,0.7,0.5,1.3,0.4
		c1.1-4,3.3-7.1,5.4-10.4c-0.5-0.3-0.6-1.1-1.4-1C127.2,123.3,125.8,127.6,124,130.8z M88.4,131.1c0.4,0.6-0.1,0.7,0.4,1.2
		c-0.3,0.4-0.7-0.2-0.8,0.5c0.6,0,0.4,0.9,1.1,0.7c0.4-2.5,1.5-4.4,2.6-6.3C90.4,127.5,89.5,129.8,88.4,131.1z M130.7,127
		c0.9-1.6,2.6-3.8,0.8-5c-2,2.6-3.7,5.3-4.6,8.7c0.5,0.1,0.9-0.1,1.6,0C128.9,129.5,130,128.4,130.7,127z M108.4,134.3
		c1.3-0.4,1.4-2.1,1.8-3.1c0.5-1.2,0.7-2.6,1.6-3.5c-0.3-0.9,0.9-1.5,0.4-1.9C110.6,128.4,109.2,131.1,108.4,134.3z M130.5,129.9
		c0.5-0.3,1.2-0.4,2-0.5c0.4-1.4,1.7-2.9,1.1-4.5c-0.1-0.2-0.2-0.2-0.4-0.1C132.7,126.9,131.1,128.1,130.5,129.9z M103.5,133.2
		c-0.1-0.8,1.4-1.4,0.5-2.1C104,131.7,102.9,132.6,103.5,133.2z M102.4,135.6c0.8-0.4,0.6-1.5,0.9-2.2
		C102.6,133.7,102.8,134.8,102.4,135.6z"/>
	<path class="st0" d="M145,136.4c2.7,1.3,5,2.9,7.2,4.8c5,1.3,8.5,4.6,13,6.5c-0.1,0.6,0.7,0.2,0.5,1c4.3,1.2,7.8,4.7,11.2,6.3
		c0.1,0.6,0.5,0.9,0.7,2c-1.9-0.3-3.6-1.6-5.1-2.6c-4.2-2.8-8.3-5.6-12.6-8.2c-4.1-2.1-8.5-3.7-11.8-6.8
		C146.4,139.1,145.4,138.2,145,136.4z"/>
	<path class="st0" d="M46.7,158.7c2.8,1.2,5.8,5.9,5.7,10.6c-0.1,5.4-4.5,9-8.9,6.1c-4.1-2.7-5.2-10.9-3.7-15.6
		c2.4-0.5,4.6-4.7,7.6-1.8C47.3,158.3,46.7,158.1,46.7,158.7z M41.9,160c0.6,1.3-1,1.8-1.3,2.9c-0.7,2.6,0.6,8.6,2.7,10.6
		c1,0.9,2.4,0.7,3.1,1.6c8.1-0.9,4.7-15-1.8-16.4c0.2-0.1,0.4-0.1,0.4-0.3C43.6,158.6,43.1,159.2,41.9,160z"/>
	<path class="st0" d="M91.3,47.1c0.6,0.1,1,1.6,0.4,1.8c1.2,1.9,1.2,5.1,1.8,7.6C95,62.3,97,67.8,98,75c-2.8-0.2-2.6-4.5-3-7
		c-0.8-5.8-3.5-12.8-4.4-20.2c0.1-0.2,0.2-0.4,0.1-0.6C90.9,47.1,91.1,47.1,91.3,47.1z"/>
	<path class="st0" d="M207.5,73.4c-1.6-0.7-0.4-1.7-1-3.2c-5.5-0.9-15.7,3.9-21.8,3.3c-0.7,1.1-3.5,0.5-4.3,1.4
		c-1.8-0.1-2.1,0.6-3.2,0.4c-2.3,1.8-7.8,2.3-10.9,3.3c-0.8,0.3-1.5,0.9-2.3-0.1c-0.3-1,0.8-1,1-1.6c-4.6-10.7,5.9-14.4,14.5-17.6
		c0.5-0.2,1.3-0.4,1.8-0.4c5.9-1.1,13.6-2.3,18-2c1.5,0.5,2.3,1.5,3.6,2.4c1.8,1.2,2,1.2,3.2,3.7c0.2,0.4,0.6,0.7,0.8,1.1
		c0.7,1.5,0.6,3.1,1,4.2c0.3,0.7,0.7,0.7,0.8,1.3C208.8,71.1,207.9,72.3,207.5,73.4z M203.4,60.8c-1.6,0.2-2.6-1.6-4-1.9
		c-2.6-0.7-6.1,0-8.2,0.3c-1.9,0.3-3.8,0.2-5.7,0.6c-1.9,0.4-3.6,1-5.4,0.9c-4,2.3-11.1,3.5-13.6,7.4c-2,3-1.4,5.6,0.4,9.2
		c3.8-0.3,7.5-2.3,11.5-3.2c1.8-0.4,3.1-1,4.2-1.2c2.3-0.5,4.8-0.2,7.1-0.7c2-0.5,3.8-1.4,5.7-1.8c1.4-0.3,3-0.2,4.4-0.6
		c2.4-0.6,4.4-1.2,6.4-1.5C206.1,65.7,204.1,62.9,203.4,60.8z"/>
	<path class="st0" d="M81.6,117c-0.1,1.1,0.9,1.5,0.5,2.2c-2.1-0.1-3.6-0.9-4.8-2c-8.3-3.9-18.6-5.2-26.1-10.3
		c0.1-0.7,0.7-1,1.3-1.4c0.2-0.1,0.2,0.1,0.2,0.2c3.4,3.2,10.9,4.9,16.3,6.7c1.2,0.4,2,1.7,3.7,1.2C75.4,115,78.2,116.3,81.6,117z"
		/>
	<path class="st0" d="M206.4,141.3c-1.9-0.6-2-2.9-2.8-4.1c-1.8-2.7-4.2-4.7-7.9-5.3c-1.7,0.8-2.4,2.4-3.9,3.4
		c-0.3,1.7,0.3,7.4,1.6,8.8c2.4,1.5,4.2,6.3,7.6,5.8c1.7-0.3,2-1.8,3.6-2.5c0.5-1.8,0.8-5,1.5-5.6c1.5,2.4-0.4,5.4-0.8,7.5
		c1.3,0.7,4.8-0.8,6.6,0.3c4.1-1.6,6.8,0.8,9,2.5c1.9,1.9,2.1,5.5,3.1,8c0.4,0.4,1.5-0.1,1.5,0.8c-3.7,1.8-8.3,2.2-13,3
		c-1.8,0.3-3.8,0.4-5.7,0.8c-2.7,0.6-5.3,2.5-8.2,1.7c-4.6,1.2-9.7,2.4-14.1,4c-0.1-0.2-0.3-0.4-0.7-0.3c-0.7-4.7-0.1-8.7,1.7-11.6
		c0.5-0.7,0.8-1.6,1.2-2c2.6-2.7,7.6-3.2,10.8-5.6c-1.9-0.9-2.8-3.1-4.2-5c-1.7-2.4-3.2-4-3.3-7.8c1.5-1.2,0.7-3.3,1.8-5
		c2.1-3.3,6.4-3.5,9.1-1.2C202,135.1,206.1,135.9,206.4,141.3z M214.8,150.5c-9.8-0.1-19.3,1.7-26.7,6.7c-2.7,3-4.6,7.2-2.8,11.5
		c2.9,0,5.3-1.6,8.1-2.3c2.9-0.7,6.1-0.4,9.3-1.3c2-0.5,3.7-1.6,5.9-1.8c4.8-0.6,9.2-1.8,13.1-2.4
		C221.5,154.9,219,152.3,214.8,150.5z"/>
</g>
</svg>
