<?xml version="1.0" encoding="utf-8"?>
<!-- Generator: Adobe Illustrator 22.1.0, SVG Export Plug-In . SVG Version: 6.00 Build 0)  -->
<svg version="1.1" id="doodle" xmlns="http://www.w3.org/2000/svg" xmlns:xlink="http://www.w3.org/1999/xlink" x="0px" y="0px"
	 viewBox="0 0 313 103.7" style="enable-background:new 0 0 313 103.7;" xml:space="preserve">
<style type="text/css">
	.st0{fill-rule:evenodd;clip-rule:evenodd;fill:#FFFFFF;}
	.st1{fill-rule:evenodd;clip-rule:evenodd;fill:#E23D41;}
</style>
<g>
	<path class="st0" d="M171.9,47.9c-0.3-0.7,0-1,0-1.7c1.3-1.8,2-4.1,2.8-6.2c-0.7-0.3-1.2,0.6-1.9,0.7c-1.4,1.3-3.4,2.1-5,3.1
		c-0.3,0.2-0.5,0.6-0.8,0.7c-0.3,0.1-0.6,0-0.9,0.2c-1.6,0.9-3.1,2.4-4.4,2.9c-0.7,0.3-0.9,0.3-1.4,0.6c-1.1,1.3-3.2,1.8-4.4,3.2
		c-1.1,0.3-2.3,1.3-3.3,2.2c-0.6,0-0.7,0.4-1.3,0.4c-3.4,2.5-7.2,4.7-10.6,6.4c-0.5,0.6-1.2,1.1-2,1.4c-0.8,0.8-2,1.2-3.1,1.8
		c-1.1,0.6-1.9,1.5-3,1.7c-2.7,2.9-7.2,5.1-10.7,7.5c-0.4,0.8-1.5,2-2.4,1c-0.1-2.2-1-4.2-1.1-6.4c-0.1-1.8-0.8-3.7-1-5.6
		c-0.1-0.8,0-1.7,0-2.6c0-2.1,0.1-4.1-0.7-5.6c-1.5,0.1-2.6,1.4-3.2,1.4c-0.8,1-1.7,1.9-3.1,2.4c-0.6,1.1-2.3,1.3-2.9,2.3
		c-5.3,2.9-9.8,6.6-15.4,9.3c-0.2,0.1-0.2,0.3-0.2,0.6c-0.8-0.3-1,0.9-2.1,0.5c-0.4-4.2-0.6-8.9-1.1-12.5c-1.3,0.8-2.9,1.1-4.2,2.1
		c-0.4,0.3-0.7,0.9-1.2,1.2c-0.5,0.3-1.2,0.2-1.7,0.5c-0.9,0.5-1.4,1.1-2.5,1.5c-1.1,0.4-2.2,1.3-3.4,1.9c-1.6,0.9-2.9,1.5-4.6,2.5
		c-0.5,0.1-0.7,0.1-1,0.2c-0.7,0.4-1.6,1.1-2.5,1.1c-2,1.5-4.6,2.5-6.8,3.6c-3,2-7,3.4-9.7,5.1c-0.2,0.1-0.3-0.1-0.4-0.1
		c-0.4,0.4-1,0.6-1.4,1c-0.3-0.3-0.9,0.3-1.3,0c-0.5-2.3,0.7-4.7,1.1-7.1c0.2-1-0.1-2.1,0.4-3c-1,0.1-1.8,0.6-2.4,1.4
		c-3.2,1.6-5.8,4.1-8.6,6c-1.1,0.8-2.4,1.4-3.2,2.5c-1.2,0.3-1.9,1-2.4,1.9c-0.7,0.2-0.9,0.8-1.7,0.9c-0.5,0-0.1,0.8-0.6,0.8
		c-1-0.6-0.4-2.5-0.5-3.8c0.5-0.2,0.6,0.2,1,0.1c0.4-0.2,0.8-0.4,0.9-0.9c3.6-2.3,6.4-5.2,10.3-7.2c2.6-1.9,5.1-4.1,7.9-6
		c1.2-0.8,2.3-1.8,3.7-2.2c0.5,1.1-0.2,2.8-0.8,3.7c-0.3,2.3-1.6,4.4-0.9,7c-0.1,0.2-0.3,0.5-0.3,0.8c1.8-0.1,3.1-0.9,5-1.6
		c1.6-0.6,3.1-1.8,4.8-2.6c1.3-0.7,2.5-1.4,3.8-2c4.2-1.8,8.4-4.5,12.6-6.7c2-1.1,4-2.4,6.3-3.4c2.4-1,4.6-2.7,7-3.3
		c0.6,1.1,0.4,3,0.3,4.1c0.9,2.1,0.5,4.3,1.4,6.7c2.3-1,4.4-2.6,6.5-4c2.3-1.5,4.8-2.5,7.1-4c4-2.9,8.2-5.3,12.4-8
		c0.1,0.1,0.3,0.2,0.5,0.2c0.5,1.8,0.4,3.2,0.6,5.5c1.7,4.8,1.4,8.9,2.4,13.7c3.6-1.4,6.8-3.1,10.1-4.8c3.6-2.2,6.6-4.9,10.5-6.8
		c0.4-0.6,1.5-0.6,1.8-1.3c3.5-1.8,7.1-4,9.8-6.1c0.3,0.1,0.3-0.2,0.7-0.2c5.3-3.5,10.6-7,16.3-10.2c-1.5-0.7-2.2-0.5-3.7,0.3
		c-0.4,0.2-0.1-0.5-0.4-0.4c-1.3,0.2-2.1-0.3-3.1,0.2c-0.5-0.8,0.2-1.2,0.9-1.3c0.3-0.1,0.4-0.4,0.6-0.6c4-1.4,8.1-3.2,12.1-5
		c1.9-0.9,4.3-1.2,6-2.6c1.3-0.2,2.3-0.8,3.2-1.4c0.6,0,1,0.2,1.4,0.6c-0.8,1.3-1.9,2.3-3.1,3.2c-0.6,1.8-2.4,2.7-3.1,4.5
		c-2.6,3.2-5.6,6.5-7.8,9.7C173.4,46.4,173.6,47.9,171.9,47.9z M171.7,35.6c-0.5,0.3-1.3,0.2-1.4,0.8
		C170.8,36.2,171.3,35.9,171.7,35.6z M179.5,38.5c0.3-0.9,1.2-1.3,1.5-2.1C180.4,36.9,179.1,37.8,179.5,38.5z M162.9,44.1
		c-0.5,1-1.6,1.3-2.5,1.9c-3,1.8-6,4.1-9,5.6c-0.7,0.9-2.2,1.9-3.4,2.1c-1.5,1.4-3.3,2.2-5.1,3.2c-3.4,1.9-6.1,4.7-9.7,6.3
		c-2.6,2.4-7.1,3.3-9.5,5.9c-0.6,0.3-1.5,0.9-2.3,0.7c-0.3-0.1-0.4-0.6-0.6-0.8c1-1,0.3-2.1,0.2-3.4c-0.3-2.4-0.4-5.7-0.9-8.2
		c-0.1-0.5-0.4-1-0.6-1.5c-0.5-2.1-0.5-4.4-1.3-6c-3,1.4-5.7,3.4-8.4,5c-1.6,1-3.3,2.3-4.7,3.2c-1.2,0.7-2.4,1.5-3.6,1.7
		c-0.3,0.6-1,0.8-1.4,1c-0.6,0.3-0.7,0.4-1.1,0.8c-1.1,0.9-2.3,1.6-3.5,1.9c0,0.5-0.5,0.5-0.7,0.8c-0.7,0.8-1.2,1.9-2.2,2.2
		c-0.1,0-0.6-0.2-0.8,0.1c-0.2-4.1-0.9-7.5-1.5-11.7c-2.7,1.1-5.4,2.2-8,3.6c-4.6,2.5-9,5.6-13.8,7.9c-1.3,0.6-2.8,1.1-4.1,1.8
		c-0.6,0.3-1.1,0.8-1.7,1.1c-0.7,0.4-1.5,0.5-2.2,0.8c-1.5,0.9-2.6,1.9-4.2,2.6c-0.7,0.3-1.4,0.3-2.1,0.7c-0.8,0.5-2.2,2-3.3,1.7
		c-0.9-0.2-1-1.5-0.2-1.9c0.1-0.5,0-0.8,0.3-1.2c-0.6-3.1,1.5-5.9,1.2-8.8c-1.1,0.6-2.3,1.3-3.5,2.2c-0.9,0.6-1.8,1.4-2.6,2.1
		c-1.7,1.5-3.7,2.7-5.6,3.9c-2.9,1.9-5.4,4-8.1,6c-0.8,0.6-2.2,1.2-1.8,2.6c1.7-0.3,1.7-2.1,3.5-2.3c5.1-3.7,10.3-8,15.8-11.1
		c-0.1,3.8-1.2,6.9-1.3,10.4c5.6-1.8,10.2-5.1,15.2-7c1.6-1.5,4.3-2.1,6.4-3.2c2.9-1.5,6.2-3.3,8.9-4.9c0.8-0.5,1.5-1,2.3-1.4
		c0.5-0.2,1-0.3,1.5-0.5c0.5-1.2,2.7-1.8,4-2.6c0.6-0.3,0.9-0.9,1.6-0.9c0.2,0,0.5,0.1,0.7,0.3c0.3,0.6,0.1,0.9,0.1,1.5
		c0,0.3,0.8-0.2,0.7,0.3c-0.1,0.5-0.5-0.1-0.6,0.4c0.2,3,0.6,6.5,1,9.5c6-2.7,10.3-6.3,15.9-9.4c0.7-0.6,0.9-1.1,2-1.4
		c0.6-0.9,1.7-1.2,2.7-2c1.9-1.5,3.9-3.8,6.3-2.7c0.7,4.7,0.3,9.2,1.6,13.2c0.2,0.4-0.2,0.3-0.2,0.7c0.8,2.1,0.3,3.8,1.3,5.7
		c1.3-1.4,3.3-2.1,5.1-3.2c2.2-1.3,4.4-3.3,6.4-4.6c0.8-0.5,1.6-0.8,2.5-1.3c4.5-2.6,8.6-5.9,13.6-8.1c1.6-1.6,3.9-2.6,5.9-3.9
		c1.7-1.1,3.2-2.5,5.1-3.2c0.6-0.8,1.7-1.2,2.8-1.7c2.4-1.8,5.2-3.4,7.8-4.7c1.5-1.5,3.9-2.4,5.6-3.8c-0.1,0-0.1,0-0.2,0
		C170,39.5,167,42.5,162.9,44.1z"/>
</g>
<g>
	<path class="st1" d="M12,86.5c-0.8-0.2-1.2,0.1-1.4-0.6C11.4,85.8,12,85.5,12,86.5z"/>
	<path class="st1" d="M11.6,89.7c4.3-2,5.3,5.3,0.5,4.6C10.2,94,9.7,90.6,11.6,89.7z M12.9,92.7c0.8,0.3,1-1.4,0.8-1.1
		C13.6,92.2,12.8,92.1,12.9,92.7z"/>
	<path class="st1" d="M14.7,103.3c-0.1,0.7,1.1,0.6,0.7,0.9c-5.2-0.2-9.2-1.7-12.7-4c-1-1.9-2.5-2.7-2.7-5.1c-0.1-0.6,0.3-1.3,0.3-2
		c0-1.5-0.5-3.1-0.4-4.5c0.3-1.7,1.5-3.3,2.4-4.9c1.9-3.1,6.9-6.1,10.2-5.8c0.7,0.1,1.6,0.7,2.4,0.8c1.5,0.3,3,0.4,4.3,2
		c0.7,0,1.3,0.3,1.9,0.5c0.3,1,1.4,1.4,2,2.3c2,3.3,1.6,9.1,0,12.7c0.1,0.3-0.2,0.3-0.5,0.4C21.8,100.4,19,102.5,14.7,103.3z
		 M10.8,83.1c0.3,0,0.6,0,0.8-0.1c0.4-0.7,0.1-2.2-0.4-3.1C9.7,79.8,10.3,82.4,10.8,83.1z M13.1,82.6c0.3-0.5,0.4-1.9,0-2.5
		c-0.2,0-0.3,0-0.5,0C12.6,81,12.6,82.1,13.1,82.6z M8.7,84.4c1.5-0.8,0.4-2,0.7-3.6c-0.3-0.1-0.4-0.2-0.7-0.3
		C8.1,81.1,8,83.6,8.7,84.4z M14,82.5c0.4,0.2,0.8,0.3,1.4,0.4c-0.2-0.7,0.5-2.8-1.1-2.7C14.2,81.1,14,81.5,14,82.5z M16.6,83.4
		c0.3-0.1,0.4,0.2,0.7,0.1c0.2-1.3-0.2-2.8-0.6-3.3C16.2,81.3,16.2,82,16.6,83.4z M6,82c1,0.7-0.5,3.6,0.5,4.1
		c1.4-1.2,0.8-2.9,0.8-4.9C6.8,81.4,6.3,81.6,6,82z M18.2,81.8c0.1,0.9,0.2,1,0,1.7c0.4-0.2,0.4,0.3,0.7,0.3
		c0.5-0.7,0.3-1.7,0.2-2.2C18.6,81.6,18.3,81.7,18.2,81.8z M4.7,83.7c0.4,0,0.6-0.1,0.8-0.2c0-0.2,0-0.4-0.1-0.7
		C4.9,82.9,4.7,83.2,4.7,83.7z M4,87.9c0.9,0.2,0.1,1.5,0.7,1.9C5.3,88,6,86.6,5.4,84.3C3.7,84.8,4.5,86.8,4,87.9z M7.6,95.7
		c1.9,0.8,2.6,2.2,4.9,2.3c4.9,0.1,6.9-4.1,6.8-8.5c-1.2-2.2-2.3-4.4-4.7-5.1c-1.5,0.7-2.6-1-3.6,0.5c-1.8,0.5-2.9,1.5-3.8,2.6
		c1.1-0.4,2.3-1.6,3.2-1.8c0,0.2,0.1,0.4,0.2,0.5C7.2,87.7,5.7,92,7.6,95.7z M21.7,94.9c2.3-2.1-0.7-7.1,0.4-9.7
		c-0.4-0.4-0.4-1.2-1.1-1.2C20.9,87.7,21.4,91.4,21.7,94.9z M2.9,86.7c0.5,0.2,0.7-1,0.1-0.8C2.9,86.1,2.8,86.3,2.9,86.7z
		 M20.1,87.8c0.1,0.3,0.3-2.4-0.4-2.6C18.7,85.8,20,87,20.1,87.8z M4.5,98.4c-0.3-4.2-1-8.1-1.2-10.6c0-0.1-0.2-0.2-0.3-0.1
		C1.9,90.8,2.8,94.8,4.5,98.4z M5.4,99.3c0.6,0,0.6,0.7,1.4,0.6c0.4-2.1-0.5-4.7-1.6-5C5.2,96.7,5.4,97.9,5.4,99.3z M20.1,97.8
		c1.9,0,1.2-2.6,0.6-3.4C20.3,95.5,20.6,96.9,20.1,97.8z M18.2,97.1c0.5,0.6,0.2,1.7,0.2,2.8c0.9-0.1,1.4-0.6,1.6-1.3
		c-1.2-0.2,0-2.1-0.7-2.8C19,96.3,18.4,96.5,18.2,97.1z M8.6,101.4c0.3,0,0.6,0,0.8-0.1c0-1-0.3-2.1-0.1-2.8
		c-0.7,0.2-0.8-0.3-1.4-0.2C7.6,99.5,8.3,100.3,8.6,101.4z M16.7,101.1c0.4,0,0.3-0.3,0.8-0.2c-0.2-1,0.2-2.6-0.3-3.1
		C16.6,98.3,16.1,99.8,16.7,101.1z M10.5,100.1c0-0.3,0.6-1.2-0.1-1.2C10.2,99.1,10.1,100,10.5,100.1z M14.2,101.1
		c0.5,0.1,0.9,0.8,1.4,0.4c-0.5-0.9,0-2.1-0.2-2.6C14.3,98.5,14.5,100.4,14.2,101.1z M11,100.9c0.9-0.1,0.1-0.8,0.4-1.2
		C10.8,99.8,10.9,100.5,11,100.9z M12.9,101.7c0.2,0,0.3,0.2,0.7,0.1c-0.1-0.6,0-2-0.5-2.1C12.7,100.5,13.1,100.8,12.9,101.7z"/>
</g>
<g>
	<path class="st1" d="M209.3,4.6c-0.7,0.6-1.7,1.4-2.6,1.2c-0.5-0.7-0.1-1.5,0.3-2.1c-2.1-1-4.3-1.5-6.9-0.9c0.7,2.4-1.9,5.5,0,7.8
		c5.7,1.3,9.5,4.9,7.3,11.1c-2.7,2.9-10.6,3.8-16.1,2.7c-1.7-0.3-3.7-1.2-4.3-2.4c0.1,0,0.2-0.1,0.2-0.2c1.6-0.8,3.1,0.7,4.8,0.9
		c2.8,0.4,5-0.9,7.2-1.4c0.7-1.7,2.1-3.5,1-5.3c-1.7-2.8-7.9-2.7-8.8-6.7c-0.3-1.5,0.5-2.7,1.3-4.3C196.3,2,206.5-1.4,209.3,4.6z
		 M199.3,3.3c-3.7-0.4-5.4,5.2-1,6.1C199,7.7,198.5,5.5,199.3,3.3z M192.6,9.4c0.9,2.8,5.9,3.2,8.7,5.5c1.1,1,2.3,2.7,2.1,4.3
		c-0.5,2.9-4.5,2.7-6.6,4.3c3.4-0.1,7,0.2,9.3-1.6c1.6-1.3,2-4.5,0.7-6.6c-1.9-3.3-9.2-3.3-11.4-6.7c-0.6-1-0.6-2.6-0.8-3.7
		C193.1,6.1,192,7.8,192.6,9.4z M201.2,18.1c0.3,1-0.5,1.2-0.1,2c0.2-0.3,0.3-0.6,0.9-0.4C202.2,18.7,202.2,17.8,201.2,18.1z"/>
	<path class="st1" d="M260.8,9.1c-1.1-0.1-1.1,0.9-2.1,0.9c0-1-0.3-2.1-1.2-1.9c0.3-1.2-0.7-1.2-1.2-1.6c-2.9,3.2-3.3,9.3-2.5,13.5
		c0.9-0.1,1.6-0.4,1.9-1c1.1,0.6,2.3-0.6,2.8,0.5c-1.3,2.2-5.1,3.1-9.2,2.8c-1.1-1-1.7-2.4-2.6-3.7c-1.6-5.2,0-9.8,3.8-12.9
		c2.6-0.7,6.1-1.9,8.8-0.1C259.8,6.8,261,7.4,260.8,9.1z M251.9,7.8c-3.2,2.4-5.4,10.2-0.5,11.9c0.3-0.2,0.4-0.6,1-0.4
		c0.2-4.3,0.4-7.8,1.3-10.7C253,8.4,252.7,7.9,251.9,7.8z"/>
	<path class="st1" d="M277.6,12.3c-3,1.7-6.4,0.9-10.4,1.4c-0.8,1.8,0.8,3.4-0.3,5.3c2.9,0.3,6.4-0.2,8.4-1.5
		c0.6,0.3,1.3,0.4,1.6,0.9c-1.2,4-6.7,6.1-11.4,4c-2.6-3.2-5-5.6-3.5-10.4c1.3-4.4,7.7-7.9,13.1-5C276.6,8.5,276.9,10.4,277.6,12.3z
		 M267.9,7.6c0.4,2-1.4,2.9-0.6,5.1c1.7-0.1,3.3-0.2,4.8-0.4c0.6-1.5,0.8-3.6,1.8-4.7C272.1,7,269.4,6.5,267.9,7.6z M273.5,11.1
		c0.6,0.3,1.3,1.2,2.3,0.6c0-1.3-0.2-2.4-1.2-2.9C274.3,9.5,273.9,10.2,273.5,11.1z M265.1,19.1c1-2,1-2.8,1-4.9
		c-0.8,0.1-1.1-0.3-1.1-0.9c0.3-0.3,0.5-0.6,1.2-0.4c-0.1-1.5,0.2-2.4,0.2-4.1C262.5,10,261,17,265.1,19.1z M265.7,20.4
		c1.8,3,8.1,2,9.2-1.1C272,19.8,268.4,20.3,265.7,20.4z"/>
	<path class="st1" d="M299.3,5.6c1.3-1.7,4-1.9,6.3-2.5c0.1-1-0.3-1.7,0-2.5c0.3,0.1,0.3-0.1,0.3-0.3c0.5,0,0.6,0.3,1,0.4
		c0.5,0.2-0.3,1.8-0.3,2c0.4,1,1.9,0.8,2.9,1.3c1.7,0.9,3.3,2.4,3.4,4c-2.5,1.6-3.2-2.3-6.1-1.7c-0.6,1.9-0.1,3.4-0.6,5.1
		c1.2,1.1,2.8,1.8,4,2.9c1.4,2.3,0.6,4-0.2,6.8c-1.1,0.6-2.2,1.1-3.6,1.5c-0.7,0.7-0.8,2-2.1,2c-0.4-0.3-0.6-1.2-0.2-1.8
		c-2.4-0.8-4.5-1.7-5.8-3.5c0-0.3,0.5-0.2,0.4-0.6c2,0.2,4.4,0.1,5.9-0.8c0-2.2,0.7-2.7,0.4-4.6c-2.5-0.6-4-2.3-5.1-3.8
		c0.1,0.1,0,0.2,0.2,0.2C299.5,9.2,299.3,7.1,299.3,5.6z M300.1,6.5c0,1.5,0.8,3.3,2.3,4c-0.7-3.5,1.8-4.2,3.5-5.5
		c-0.2,0-0.2-0.3-0.1-0.5C303.6,4.1,301.2,5,300.1,6.5z M306.7,4.7c0,0.8,1.8,0.8,1.8,0.1C307.7,4.8,307.4,4.4,306.7,4.7z M304,10.7
		c0.2-1.1,0.6-2.4,0.2-3C303.5,8.3,303.1,10,304,10.7z M306.6,17.2c0.6-0.6,1.5-0.9,1.5-2.2c-0.4-0.4-0.8-1-1.8-0.9
		C306.8,14.8,305.9,16.7,306.6,17.2z M305.9,18.6c-0.2,1-0.6,1.7-0.7,2.8c0.9,0.3,1.5,0.2,2.2-0.2c-0.2-0.5-0.1-1,0.6-1
		c0.2,0.4-0.6,0.7,0.1,0.7c1.7-0.4,2.3-2.8,2-4.9C308.4,16.7,307.9,18.5,305.9,18.6z M301.1,20c0.5,0.9,1.8,1.1,2.9,1.3
		c-0.1-0.8,0.8-1.6,0-2C303.1,19.6,302.4,20.1,301.1,20z"/>
	<path class="st1" d="M289.7,0c0.2,0,0.3,0,0.5,0c0.2,1.4-0.2,2.5,0.1,3.8c2.1,2.1,8.7,0.2,7.9,4.5c-0.4,0.1-0.7,0.3-1.2,0.3
		c-0.5,0-0.2-0.7-0.8-0.7c-2.6,0.9-2.8-2.8-5.6-1.7c-0.4,0.4,0.3,0.8,0.3,1.3c-0.5,0.8-1.6,2.5-0.9,3.8c0.7,1.3,4.1,2.1,4.6,3.9
		c0.3,1.2-0.3,3.3-0.7,4c-0.8,1.1-2.3,1.3-4.3,1.6c-0.7,1.4-0.3,2.6-0.2,4.1c-0.4,0-0.5,0.5-1,0.4c-1.1-0.6-1.1-2.7-0.1-3.5
		c-0.9-1.4-3-0.5-4.6-0.9c-1.1-0.3-1.8-1.2-2.9-1.2c-0.1-0.3,0.5-0.5,0-0.7c0.3-0.8,1.4-0.7,1.4-1.7c2.1,0,3.9,1.7,5.8,0.8
		c0-2,0.2-3,0.3-5.3c-2.1-1.5-5.1-1.7-7-3.1c-1.6-5.2,4.2-5.2,7.8-5.7C289,2.2,289.2,1,289.7,0z M282.1,9.2c0.6,0.3,1,0.8,2,0.8
		c0.5-2.8,3.7-2.6,4.9-4.5C286.6,5.3,281.1,5.2,282.1,9.2z M285.5,9.4c0.7,0.7,1.8,1.1,2.7,1.7c0.5-1.4,0.3-2.2,0.5-3.6
		C287.3,7.8,286.2,8.4,285.5,9.4z M289.6,18.5c0.8-0.7-0.1-3.4,1.5-3.2c1,0.5-0.2,1.8,0.2,2.5c1-0.1,1.4-0.9,1.8-1.7
		c-0.7-1.4-2.1-2.2-3.7-2.9C289.1,15,288.6,17.1,289.6,18.5z"/>
	<path class="st1" d="M228.6,5.6c-0.8-0.2-0.9,0.4-1.4,0.6c-0.4,2.3-0.7,5.3-1.8,8.2c-0.5,1.5-1.7,2.8-2.1,4.2c-1,3.7-4.4,5-8.7,3
		c-1.1-2.3-2.4-4.6-1.9-7.4c0.4-1.8,1.4-3.2,1.6-5.1c0.1-1.3-0.4-2.8-0.1-4.7c0.8-0.7,3.7-0.9,4.3,0.3c0.1,0.8-0.9,0.3-0.9,0.9
		c-0.2,0.5,0.6,0.2,0.3,0.8c-0.3,0-0.3-0.2-0.5-0.2c-0.6,1.2-0.4,3.2-1.2,4.1c0.3,1.6,0.9,3.2,1,4.9c0.2,1.9-1,4,0.9,5
		c1.5-0.9,2.8-2,3.7-3.6c-0.9-2.8,1.1-6.1,1.4-9.1c0.1-1-0.2-2.3,0.7-3.3C225.7,4.6,228.5,3.6,228.6,5.6z M215.6,5.5
		c-0.8,1-0.4,2.3-0.5,3.6c-0.5,4.1-3.1,8.3,0.1,11.7c0.5,0.1,1.5,0.8,1.8,0.1c-0.7-0.7-0.8-1.8-0.8-2.7c-0.1-4.2-1.2-8.8,0.4-12.6
		C216.3,5.5,216,5.5,215.6,5.5z M224.6,6.3c-0.4,3-1.6,5.2-2.1,8c0.5,0.4,0.8-1,1.5-0.1c1.1-2.1,1.7-4.8,1.8-8.1
		C225.2,6.1,225.1,6.4,224.6,6.3z M219.3,21.3c0.5-0.1,1.1,0,1-0.8C219.8,20.6,219.6,21,219.3,21.3z"/>
	<path class="st1" d="M242.7,9.2c-1.2-1-1.5-3.8-4-2.6c-1.5,4.6-2.9,8.4-1.8,12.9c2.4,0.3,4.2-3.6,5.7-1.5c-1.3,1-2.5,2.4-4.2,3.4
		c-1.3,0.8-4.3,1.6-6.1,1.1c-1.5-0.4-3.4-2.9-3.6-4.5c-0.4-3.7,1.2-8.6,2.9-10c1.1-0.9,2.7-1.4,3.9-1.8c1.1-0.9,3.4-2.1,5.7-1.5
		C243.4,5.4,245.5,8.9,242.7,9.2z M236,7.3c-3.6,2.5-4.9,7.8-2.7,11.7c0.5,0.2,1.5,0.7,2.1,0.3c-0.1-4.2,1.3-8,1-11.8
		C236.3,7.5,236.3,7.3,236,7.3z M232.6,21.6c0.6,0.1,1.9,0.1,2-0.7c-0.3-0.6-1.5-0.3-2-0.8c-0.7-2.1-2.2-4.7-1.6-7.3
		c0.4-1.5,1.8-2.6,2.1-4.2C228.9,9.5,228.4,20.7,232.6,21.6z"/>
</g>
</svg>
