<?xml version="1.0" encoding="utf-8"?>
<!-- Generator: Adobe Illustrator 22.1.0, SVG Export Plug-In . SVG Version: 6.00 Build 0)  -->
<svg version="1.1" id="Capa_1" xmlns="http://www.w3.org/2000/svg" xmlns:xlink="http://www.w3.org/1999/xlink" x="0px" y="0px"
	 viewBox="0 0 512 512" style="enable-background:new 0 0 512 512;" xml:space="preserve">
<style type="text/css">
	.st0{fill:#FFFFFF;}
</style>
<path class="st0" d="M441,77.5v-40c0-19.3-15.7-35-35-35H46c-19.3,0-35,15.7-35,35v40c0,19.3,15.7,35,35,35c2.8,0,5-2.2,5-5
	s-2.2-5-5-5c-13.8,0-25-11.2-25-25v-40c0-13.8,11.2-25,25-25h360c13.8,0,25,11.2,25,25v40c0,13.8-11.2,25-25,25c-2.8,0-5,2.2-5,5
	s2.2,5,5,5C425.3,112.5,441,96.8,441,77.5z"/>
<path class="st0" d="M466,289.5h-85v-227h15c2.8,0,5-2.2,5-5s-2.2-5-5-5H56c-2.8,0-5,2.2-5,5s2.2,5,5,5h15v411.9v0.1
	c0,19.3,15.7,35,35,35h300c19.3,0,35-15.7,35-35v-65h55c2.8,0,5-2.2,5-5v-80C501,305.2,485.3,289.5,466,289.5z M106,499.5
	c-13.8,0-25-11.2-25-24.9v-0.1v-412h290v412c0,7.6,2.4,14.9,7,21l3,4H106z M431,324.5v150c0,13.8-11.2,25-25,25s-25-11.2-25-25v-175
	h60l-3,4c-4.6,6.1-7,13.3-7,20.9V324.5z M491,399.5h-50v-75c0-13.8,11.2-25,25-25s25,11.2,25,25V399.5z"/>
<path class="st0" d="M290.4,242.9l0.1-0.1c0.1-0.1,0.1-0.2,0.2-0.3l0.1-0.3c0.2-0.6,0.3-1.1,0.3-1.6v-0.5l-10-100
	c0-0.5-0.2-1-0.4-1.4l-0.2-0.4c-0.1-0.1-0.1-0.2-0.2-0.3l-0.1-0.1c0-0.1-0.1-0.1-0.2-0.2l-0.1-0.2c0,0-0.1-0.1-0.1-0.2l-0.8-0.7
	l-0.1-0.1l-0.2-0.1c-0.1-0.1-0.2-0.1-0.2-0.1l-0.4-0.2c-0.1-0.1-0.3-0.1-0.4-0.1h-0.1c-0.5-0.1-0.9-0.2-1.4-0.2h-25v-15
	c0-13.8-11.2-25-25-25s-25,11.2-25,25v15h-25c-0.5,0-1,0.1-1.4,0.2h-0.1c-0.1,0-0.3,0.1-0.4,0.1l-0.3,0.1c-0.1,0-0.1,0-0.2,0.1
	l-0.5,0.3c-0.1,0.1-0.2,0.1-0.3,0.2l-0.1,0.1c-0.1,0.1-0.2,0.1-0.2,0.2l-0.1,0.1c-0.1,0.1-0.1,0.2-0.2,0.2v0.1
	c-0.2,0.2-0.4,0.5-0.5,0.7v0.1c-0.1,0.2-0.2,0.3-0.2,0.4c-0.2,0.4-0.3,0.9-0.4,1.3v0.4l-10,99.8c0,0.1,0,0.1,0,0.1v0.3
	c0,0.5,0.1,1,0.2,1.5l0.2,0.5c0,0.1,0.1,0.2,0.1,0.2l0.1,0.2c0,0.1,0.1,0.2,0.1,0.2l0.1,0.2l0.1,0.1l0.6,0.7
	c0.1,0.1,0.2,0.2,0.2,0.2s0.1,0,0.1,0.1c0.1,0,0.1,0.1,0.2,0.2l0.1,0.1c0.1,0.1,0.2,0.1,0.3,0.2l0.1,0.1c0.1,0.1,0.2,0.1,0.3,0.2
	c0.4,0.2,0.9,0.3,1.3,0.4h0.5l0,0h120.2h0.1h0.1h0.3c0.5-0.1,0.9-0.2,1.3-0.4c0.1,0,0.2-0.1,0.3-0.1l0.2-0.1c0.1,0,0.2-0.1,0.3-0.2
	l0.2-0.1c0,0,0.1-0.1,0.2-0.2l0.1-0.1c0.1,0,0.1-0.1,0.1-0.1l0.9-1C290.3,243,290.4,243,290.4,242.9z M211,120.5c0-8.3,6.7-15,15-15
	s15,6.7,15,15v15h-30V120.5z M171.5,235.5l9-90H201v5c0,2.8,2.2,5,5,5s5-2.2,5-5v-5h30v5c0,2.8,2.2,5,5,5s5-2.2,5-5v-5h20.5l9,90
	H171.5z"/>
<path class="st0" d="M336,288.5H116c-2.8,0-5,2.2-5,5s2.2,5,5,5h220c2.8,0,5-2.2,5-5S338.8,288.5,336,288.5z"/>
<path class="st0" d="M226,338.5H116c-2.8,0-5,2.2-5,5s2.2,5,5,5h110c2.8,0,5-2.2,5-5S228.8,338.5,226,338.5z"/>
<path class="st0" d="M336,338.5h-20c-2.8,0-5,2.2-5,5s2.2,5,5,5h20c2.8,0,5-2.2,5-5S338.8,338.5,336,338.5z"/>
<path class="st0" d="M116,398.5h70c2.8,0,5-2.2,5-5s-2.2-5-5-5h-70c-2.8,0-5,2.2-5,5S113.2,398.5,116,398.5z"/>
<path class="st0" d="M336,388.5h-20c-2.8,0-5,2.2-5,5s2.2,5,5,5h20c2.8,0,5-2.2,5-5S338.8,388.5,336,388.5z"/>
<path class="st0" d="M246,438.5H116c-2.8,0-5,2.2-5,5s2.2,5,5,5h130c2.8,0,5-2.2,5-5S248.8,438.5,246,438.5z"/>
<path class="st0" d="M336,438.5h-20c-2.8,0-5,2.2-5,5s2.2,5,5,5h20c2.8,0,5-2.2,5-5S338.8,438.5,336,438.5z"/>
</svg>
